<?xml version="1.0" standalone="no"?>
<!DOCTYPE svg PUBLIC "-//W3C//DTD SVG 1.1//EN"
"http://www.w3.org/Graphics/SVG/1.1/DTD/svg11.dtd">
<svg width="100%" height="100%" version="1.1"
xmlns="http://www.w3.org/2000/svg"
xmlns:xlink="http://www.w3.org/1999/xlink">
<rect x="288.935" y="0" width="222.13" height="800" style="fill-opacity:0;fill:rgb(255,255,255);stroke:rgb(0,0,0);stroke-width:1"/>
<g fill-rule="evenodd"><path d="M 408.935,599.999 L 408.935,539.799 L 368.935,479.999 L 328.935,479.999 L 288.935,539.999 L 288.935,599.999 L 328.935,639.999 L 368.935,639.999 L 408.935,599.999 z " style="fill-opacity:0.3;fill:rgb(250,150,50);stroke:rgb(0,0,0);stroke-width:1"/></g>
<g fill-rule="evenodd"><path d="M 509.385,340.001 L 389.385,340.001 L 389.385,460.001 L 509.385,460.001 L 509.385,340.001 z " style="fill-opacity:0.3;fill:rgb(250,150,50);stroke:rgb(0,0,0);stroke-width:1"/></g>
<g fill-rule="evenodd"><path d="M 349.02,80.0006 L 409.02,79.8006 L 409.02,0.000573817 L 289.02,0.000573817 L 289.02,120.001 L 349.02,120.001 L 349.02,80.0006 z " style="fill-opacity:0.3;fill:rgb(250,150,50);stroke:rgb(0,0,0);stroke-width:1"/></g>
<g fill-rule="evenodd"><path d="M 349.087,200.001 L 409.087,199.801 L 409.087,120.001 L 289.087,120.001 L 289.087,240.001 L 349.087,240.001 L 349.087,200.001 z " style="fill-opacity:0.3;fill:rgb(250,150,50);stroke:rgb(0,0,0);stroke-width:1"/></g>
<g fill-rule="evenodd"><path d="M 409.061,760 L 409.061,720 L 369.061,680 L 329.061,680.2 L 289.061,720.2 L 289.061,760.2 L 329.061,800 L 369.061,800 L 409.061,760 z " style="fill-opacity:0.3;fill:rgb(250,150,50);stroke:rgb(0,0,0);stroke-width:1"/></g>
<g fill-rule="evenodd"><path d="M 389.128,479.838 L 389.128,380.038 L 289.128,380.038 L 289.128,480.038 L 389.128,479.838 z " style="fill-opacity:0.3;fill:rgb(250,150,50);stroke:rgb(0,0,0);stroke-width:1"/></g>
<g fill-rule="evenodd"><path d="M 509.295,119.896 L 409.295,119.896 L 409.495,179.896 L 449.495,179.896 L 449.495,219.896 L 509.295,219.896 L 509.295,119.896 z " style="fill-opacity:0.3;fill:rgb(250,150,50);stroke:rgb(0,0,0);stroke-width:1"/></g>
<g fill-rule="evenodd"><path d="M 389.339,340.001 L 429.339,340.001 L 429.339,300.001 L 389.339,300.001 L 389.339,260.001 L 349.339,260.001 L 349.339,300.001 L 309.339,300.001 L 309.339,340.001 L 349.339,340.001 L 349.339,380.001 L 389.339,380.001 L 389.339,340.001 z " style="fill-opacity:0.3;fill:rgb(250,150,50);stroke:rgb(0,0,0);stroke-width:1"/></g>
<g fill-rule="evenodd"><path d="M 469.585,300.001 L 509.385,300.001 L 509.385,260.001 L 469.585,260.001 L 469.385,220.001 L 429.385,220.001 L 429.385,260.001 L 389.385,260.001 L 389.385,300.001 L 429.585,300.001 L 429.585,340.001 L 469.585,340.001 L 469.585,300.001 z " style="fill-opacity:0.3;fill:rgb(250,150,50);stroke:rgb(0,0,0);stroke-width:1"/></g>
<g fill-rule="evenodd"><path d="M 509.191,599.73 L 449.191,599.73 L 449.191,719.73 L 509.191,719.73 L 509.191,599.73 z " style="fill-opacity:0.3;fill:rgb(250,150,50);stroke:rgb(0,0,0);stroke-width:1"/></g>
<g fill-rule="evenodd"><path d="M 506.51,719.953 L 426.51,720.153 L 426.51,799.953 L 506.51,799.953 L 506.51,719.953 z " style="fill-opacity:0.3;fill:rgb(250,150,50);stroke:rgb(0,0,0);stroke-width:1"/></g>
<g fill-rule="evenodd"><path d="M 449.098,679.941 L 449.098,639.941 L 429.098,599.941 L 409.098,599.941 L 389.098,640.141 L 389.098,680.141 L 409.098,719.941 L 429.098,719.941 L 449.098,679.941 z " style="fill-opacity:0.3;fill:rgb(250,150,50);stroke:rgb(0,0,0);stroke-width:1"/></g>
<g fill-rule="evenodd"><path d="M 511.065,459.688 L 431.065,599.688 L 511.065,599.688 L 511.065,459.688 z " style="fill-opacity:0.3;fill:rgb(250,150,50);stroke:rgb(0,0,0);stroke-width:1"/></g>
<g fill-rule="evenodd"><path d="M 509.221,0.732553 L 409.221,0.732553 L 509.221,100.733 L 509.221,0.732553 z " style="fill-opacity:0.3;fill:rgb(250,150,50);stroke:rgb(0,0,0);stroke-width:1"/></g>
<g fill-rule="evenodd"><path d="M 429.097,39.8243 L 409.097,39.8243 L 409.097,80.0243 L 349.097,80.0243 L 349.097,119.824 L 429.097,119.824 L 429.097,39.8243 z " style="fill-opacity:0.3;fill:rgb(250,150,50);stroke:rgb(0,0,0);stroke-width:1"/></g>
<g fill-rule="evenodd"><path d="M 389.004,639.999 L 289.004,639.999 L 289.004,679.999 L 389.004,679.999 L 389.004,639.999 z " style="fill-opacity:0.3;fill:rgb(250,150,50);stroke:rgb(0,0,0);stroke-width:1"/></g>
<g fill-rule="evenodd"><path d="M 502.314,460.001 L 442.314,460.001 L 442.314,580.001 L 502.314,460.001 z " style="fill-opacity:0.3;fill:rgb(250,150,50);stroke:rgb(0,0,0);stroke-width:1"/></g>
<g fill-rule="evenodd"><path d="M 429.105,27.9325 L 429.105,107.933 L 509.105,107.933 L 429.105,27.9325 z " style="fill-opacity:0.3;fill:rgb(250,150,50);stroke:rgb(0,0,0);stroke-width:1"/></g>
<g fill-rule="evenodd"><path d="M 449.112,180.001 L 409.112,180.001 L 409.112,200.001 L 349.112,200.001 L 349.112,220.001 L 449.112,220.001 L 449.112,180.001 z " style="fill-opacity:0.3;fill:rgb(250,150,50);stroke:rgb(0,0,0);stroke-width:1"/></g>
<g fill-rule="evenodd"><path d="M 409.188,220.001 L 389.188,220.001 L 389.188,240.001 L 329.188,240.001 L 329.188,260.001 L 409.188,260.001 L 409.188,220.001 z " style="fill-opacity:0.3;fill:rgb(250,150,50);stroke:rgb(0,0,0);stroke-width:1"/></g>
<g fill-rule="evenodd"><path d="M 328.988,280.001 L 348.988,280.001 L 348.988,260.001 L 328.988,260.001 L 328.988,240.001 L 308.988,240.001 L 308.988,260.001 L 288.988,260.001 L 288.988,280.001 L 308.988,280.001 L 308.988,300.001 L 328.988,300.001 L 328.988,280.001 z " style="fill-opacity:0.3;fill:rgb(250,150,50);stroke:rgb(0,0,0);stroke-width:1"/></g>
<g fill-rule="evenodd"><path d="M 422.314,500.001 L 442.314,500.001 L 442.314,480.001 L 422.314,480.001 L 422.314,460.001 L 402.314,460.001 L 402.314,480.001 L 382.314,480.001 L 382.314,500.001 L 402.314,500.001 L 402.314,520.001 L 422.314,520.001 L 422.314,500.001 z " style="fill-opacity:0.3;fill:rgb(250,150,50);stroke:rgb(0,0,0);stroke-width:1"/></g>
<g fill-rule="evenodd"><path d="M 289.016,319.709 L 289.016,379.709 L 349.016,379.709 L 289.016,319.709 z " style="fill-opacity:0.3;fill:rgb(250,150,50);stroke:rgb(0,0,0);stroke-width:1"/></g>
<g fill-rule="evenodd"><path d="M 442.314,500.001 L 422.314,500.001 L 422.314,580.001 L 442.314,580.001 L 442.314,500.001 z " style="fill-opacity:0.3;fill:rgb(250,150,50);stroke:rgb(0,0,0);stroke-width:1"/></g>
<g fill-rule="evenodd"><path d="M 329.005,680.156 L 289.005,680.156 L 289.005,720.156 L 329.005,680.156 z " style="fill-opacity:0.3;fill:rgb(250,150,50);stroke:rgb(0,0,0);stroke-width:1"/></g>
</svg>
