<?xml version="1.0" standalone="no"?>
<!DOCTYPE svg PUBLIC "-//W3C//DTD SVG 1.1//EN"
"http://www.w3.org/Graphics/SVG/1.1/DTD/svg11.dtd">
<svg width="100%" height="100%" version="1.1"
xmlns="http://www.w3.org/2000/svg"
xmlns:xlink="http://www.w3.org/1999/xlink">
<rect x="0" y="205.082" width="800" height="389.836" style="fill-opacity:0;fill:rgb(255,255,255);stroke:rgb(0,0,0);stroke-width:1"/>
<g fill-rule="evenodd"><path d="M 173.931,575.976 L 217.609,577.647 L 238.771,533.889 L 224.371,523.308 L 224.371,486.711 L 238.771,476.13 L 217.609,432.373 L 173.931,434.044 L 157.86,415.109 L 76.9495,426.406 L 0.0960353,421.951 L 0.0960353,588.069 L 76.9495,583.614 L 157.86,594.911 L 173.931,575.976 z " style="fill-opacity:0.3;fill:rgb(250,150,50);stroke:rgb(0,0,0);stroke-width:1"/></g>
<g fill-rule="evenodd"><path d="M 161.902,414.434 L 238.676,418.889 L 238.676,252.771 L 161.822,257.226 L 80.9114,245.929 L 64.8406,264.864 L 21.163,263.193 L 0.000503672,306.95 L 14.4006,317.532 L 14.4006,354.129 L 0.000503672,364.71 L 21.2426,408.467 L 64.9202,406.796 L 80.991,425.731 L 161.902,414.434 z " style="fill-opacity:0.3;fill:rgb(250,150,50);stroke:rgb(0,0,0);stroke-width:1"/></g>
<g fill-rule="evenodd"><path d="M 410.216,504.653 L 441.005,508.392 L 449.199,453.895 L 442.675,418.889 L 236.301,418.889 L 240.756,521.758 L 321.11,516.189 L 386.746,527.566 L 410.216,504.653 z " style="fill-opacity:0.3;fill:rgb(250,150,50);stroke:rgb(0,0,0);stroke-width:1"/></g>
<g fill-rule="evenodd"><path d="M 609.772,492.045 L 529.339,497.614 L 463.703,486.237 L 440.233,509.15 L 409.444,505.411 L 401.249,559.908 L 407.773,594.914 L 614.148,594.914 L 609.772,492.045 z " style="fill-opacity:0.3;fill:rgb(250,150,50);stroke:rgb(0,0,0);stroke-width:1"/></g>
<g fill-rule="evenodd"><path d="M 619.008,461.512 L 619.008,356.973 L 478.906,343.209 L 445.332,394.922 L 445.332,423.563 L 478.986,475.276 L 619.008,461.512 z " style="fill-opacity:0.3;fill:rgb(250,150,50);stroke:rgb(0,0,0);stroke-width:1"/></g>
<g fill-rule="evenodd"><path d="M 785.638,581.151 L 785.638,476.611 L 645.536,462.847 L 611.962,514.56 L 611.962,543.201 L 645.615,594.914 L 785.638,581.151 z " style="fill-opacity:0.3;fill:rgb(250,150,50);stroke:rgb(0,0,0);stroke-width:1"/></g>
<g fill-rule="evenodd"><path d="M 643.227,304.334 L 643.227,275.693 L 609.653,223.98 L 469.551,237.744 L 469.551,342.284 L 609.653,356.047 L 643.227,304.334 z " style="fill-opacity:0.3;fill:rgb(250,150,50);stroke:rgb(0,0,0);stroke-width:1"/></g>
<g fill-rule="evenodd"><path d="M 792.686,422.28 L 792.686,393.639 L 759.112,341.926 L 619.01,355.69 L 619.01,460.229 L 759.112,473.993 L 792.686,422.28 z " style="fill-opacity:0.3;fill:rgb(250,150,50);stroke:rgb(0,0,0);stroke-width:1"/></g>
<g fill-rule="evenodd"><path d="M 385.196,317.609 L 469.528,322.86 L 469.528,233.356 L 270.711,233.356 L 254.322,264.146 L 260.925,307.664 L 298.636,310.289 L 316.855,325.008 L 385.196,317.609 z " style="fill-opacity:0.3;fill:rgb(250,150,50);stroke:rgb(0,0,0);stroke-width:1"/></g>
<g fill-rule="evenodd"><path d="M 453.882,378.861 L 447.278,335.342 L 409.568,332.717 L 391.428,317.998 L 323.088,325.397 L 238.676,320.147 L 238.676,409.65 L 437.493,409.65 L 453.882,378.861 z " style="fill-opacity:0.3;fill:rgb(250,150,50);stroke:rgb(0,0,0);stroke-width:1"/></g>
<g fill-rule="evenodd"><path d="M 482.783,205.091 L 241.403,205.091 L 241.403,225.856 L 482.783,225.856 L 482.783,205.091 z " style="fill-opacity:0.3;fill:rgb(250,150,50);stroke:rgb(0,0,0);stroke-width:1"/></g>
<g fill-rule="evenodd"><path d="M 241.389,205.091 L 0.0083244,205.091 L 0.0083244,225.856 L 241.389,225.856 L 241.389,205.091 z " style="fill-opacity:0.3;fill:rgb(250,150,50);stroke:rgb(0,0,0);stroke-width:1"/></g>
<g fill-rule="evenodd"><path d="M 717.858,293.533 L 643.391,293.533 L 643.391,345.962 L 717.858,345.962 L 717.858,293.533 z " style="fill-opacity:0.3;fill:rgb(250,150,50);stroke:rgb(0,0,0);stroke-width:1"/></g>
<g fill-rule="evenodd"><path d="M 792.388,288.65 L 717.921,288.65 L 718.001,341.079 L 792.388,341.079 L 792.388,288.65 z " style="fill-opacity:0.3;fill:rgb(250,150,50);stroke:rgb(0,0,0);stroke-width:1"/></g>
<g fill-rule="evenodd"><path d="M 706.346,205.737 L 631.88,205.737 L 631.88,258.166 L 706.346,258.166 L 706.346,205.737 z " style="fill-opacity:0.3;fill:rgb(250,150,50);stroke:rgb(0,0,0);stroke-width:1"/></g>
<g fill-rule="evenodd"><path d="M 792.079,205.899 L 717.613,205.899 L 717.613,258.328 L 792.079,258.328 L 792.079,205.899 z " style="fill-opacity:0.3;fill:rgb(250,150,50);stroke:rgb(0,0,0);stroke-width:1"/></g>
<g fill-rule="evenodd"><path d="M 394.121,542.04 L 361.423,547.211 L 330.474,542.04 L 299.526,547.211 L 266.828,542.04 L 274.784,571.317 L 330.474,564.793 L 386.245,571.317 L 394.121,542.04 z " style="fill-opacity:0.3;fill:rgb(250,150,50);stroke:rgb(0,0,0);stroke-width:1"/></g>
<g fill-rule="evenodd"><path d="M 799.228,258.649 L 766.53,263.82 L 735.582,258.649 L 704.633,263.82 L 671.935,258.649 L 679.891,287.927 L 735.582,281.403 L 791.352,287.927 L 799.228,258.649 z " style="fill-opacity:0.3;fill:rgb(250,150,50);stroke:rgb(0,0,0);stroke-width:1"/></g>
<g fill-rule="evenodd"><path d="M 266.957,225.873 L 234.259,231.044 L 203.31,225.873 L 172.362,231.044 L 139.664,225.873 L 147.62,255.151 L 203.31,248.627 L 259.081,255.151 L 266.957,225.873 z " style="fill-opacity:0.3;fill:rgb(250,150,50);stroke:rgb(0,0,0);stroke-width:1"/></g>
<g fill-rule="evenodd"><path d="M 334.871,565.586 L 279.18,572.11 L 223.489,565.586 L 215.534,594.864 L 248.232,589.693 L 279.18,594.864 L 310.129,589.693 L 342.827,594.864 L 334.871,565.586 z " style="fill-opacity:0.3;fill:rgb(250,150,50);stroke:rgb(0,0,0);stroke-width:1"/></g>
<g fill-rule="evenodd"><path d="M 598.078,483.21 L 592.191,473.265 L 528.862,482.733 L 465.534,473.265 L 459.647,483.21 L 528.862,497.53 L 598.078,483.21 z " style="fill-opacity:0.3;fill:rgb(250,150,50);stroke:rgb(0,0,0);stroke-width:1"/></g>
<g fill-rule="evenodd"><path d="M 621.217,215.09 L 615.329,205.145 L 552.001,214.612 L 488.672,205.145 L 482.785,215.09 L 552.001,229.41 L 621.217,215.09 z " style="fill-opacity:0.3;fill:rgb(250,150,50);stroke:rgb(0,0,0);stroke-width:1"/></g>
<g fill-rule="evenodd"><path d="M 139.004,240.367 L 69.7886,226.047 L 0.572774,240.367 L 6.4601,250.312 L 69.7886,240.845 L 133.117,250.312 L 139.004,240.367 z " style="fill-opacity:0.3;fill:rgb(250,150,50);stroke:rgb(0,0,0);stroke-width:1"/></g>
<g fill-rule="evenodd"><path d="M 377.056,532.64 L 307.84,518.319 L 238.625,532.64 L 244.512,542.585 L 307.84,533.117 L 371.169,542.585 L 377.056,532.64 z " style="fill-opacity:0.3;fill:rgb(250,150,50);stroke:rgb(0,0,0);stroke-width:1"/></g>
</svg>
