<?xml version="1.0" standalone="no"?>
<!DOCTYPE svg PUBLIC "-//W3C//DTD SVG 1.1//EN"
"http://www.w3.org/Graphics/SVG/1.1/DTD/svg11.dtd">
<svg width="100%" height="100%" version="1.1"
xmlns="http://www.w3.org/2000/svg"
xmlns:xlink="http://www.w3.org/1999/xlink">
<rect x="5.68434e-14" y="173.906" width="800" height="452.188" style="fill-opacity:0;fill:rgb(255,255,255);stroke:rgb(0,0,0);stroke-width:1"/>
<g fill-rule="evenodd"><path d="M 799.817,369.787 L 799.817,279.349 L 739.525,249.505 L 679.234,279.349 L 679.535,369.787 L 739.827,399.933 L 799.817,369.787 z " style="fill-opacity:0.3;fill:rgb(250,150,50);stroke:rgb(0,0,0);stroke-width:1"/></g>
<g fill-rule="evenodd"><path d="M 549.358,295.411 L 549.358,204.974 L 489.066,175.129 L 428.774,204.974 L 429.076,295.411 L 489.368,325.557 L 549.358,295.411 z " style="fill-opacity:0.3;fill:rgb(250,150,50);stroke:rgb(0,0,0);stroke-width:1"/></g>
<g fill-rule="evenodd"><path d="M 120.595,565.797 L 120.595,475.359 L 60.3037,445.213 L 0.0119364,475.359 L 0.0119364,565.797 L 60.3037,595.943 L 120.595,565.797 z " style="fill-opacity:0.3;fill:rgb(250,150,50);stroke:rgb(0,0,0);stroke-width:1"/></g>
<g fill-rule="evenodd"><path d="M 230.555,450.165 L 230.555,359.727 L 170.263,329.883 L 109.971,359.727 L 110.273,450.165 L 170.564,480.311 L 230.555,450.165 z " style="fill-opacity:0.3;fill:rgb(250,150,50);stroke:rgb(0,0,0);stroke-width:1"/></g>
<g fill-rule="evenodd"><path d="M 444.191,384.927 L 444.191,324.334 L 414.045,294.489 L 323.607,294.489 L 354.054,354.781 L 323.909,415.073 L 323.909,445.219 L 384.2,445.219 L 444.191,384.927 z " style="fill-opacity:0.3;fill:rgb(250,150,50);stroke:rgb(0,0,0);stroke-width:1"/></g>
<g fill-rule="evenodd"><path d="M 301.465,565.802 L 331.611,505.51 L 331.611,475.365 L 271.319,475.365 L 211.027,535.656 L 211.027,595.948 L 241.173,626.094 L 331.611,626.094 L 301.465,565.802 z " style="fill-opacity:0.3;fill:rgb(250,150,50);stroke:rgb(0,0,0);stroke-width:1"/></g>
<g fill-rule="evenodd"><path d="M 640.414,355.352 L 670.559,295.06 L 670.559,264.914 L 610.268,264.914 L 549.976,325.206 L 549.976,385.497 L 580.122,415.643 L 670.559,415.643 L 640.414,355.352 z " style="fill-opacity:0.3;fill:rgb(250,150,50);stroke:rgb(0,0,0);stroke-width:1"/></g>
<g fill-rule="evenodd"><path d="M 180.574,264.344 L 180.574,203.75 L 150.429,173.906 L 59.991,173.906 L 90.4383,234.198 L 60.2924,294.489 L 60.2924,324.635 L 120.584,324.635 L 180.574,264.344 z " style="fill-opacity:0.3;fill:rgb(250,150,50);stroke:rgb(0,0,0);stroke-width:1"/></g>
<g fill-rule="evenodd"><path d="M 211.027,475.365 L 180.882,475.365 L 150.736,535.656 L 120.59,565.802 L 60.2981,595.948 L 60.2981,626.094 L 211.027,626.094 L 211.027,475.365 z " style="fill-opacity:0.3;fill:rgb(250,150,50);stroke:rgb(0,0,0);stroke-width:1"/></g>
<g fill-rule="evenodd"><path d="M 672.609,475.364 L 642.464,475.364 L 612.318,535.655 L 582.172,565.801 L 521.88,595.947 L 521.88,626.093 L 672.609,626.093 L 672.609,475.364 z " style="fill-opacity:0.3;fill:rgb(250,150,50);stroke:rgb(0,0,0);stroke-width:1"/></g>
<g fill-rule="evenodd"><path d="M 611.15,506.093 L 641.295,475.947 L 701.286,445.801 L 701.286,415.655 L 550.556,415.655 L 550.858,566.385 L 581.004,566.385 L 611.15,506.093 z " style="fill-opacity:0.3;fill:rgb(250,150,50);stroke:rgb(0,0,0);stroke-width:1"/></g>
<g fill-rule="evenodd"><path d="M 308.19,178.735 L 278.044,178.735 L 247.898,239.027 L 217.753,269.173 L 157.461,299.318 L 157.461,329.464 L 308.19,329.464 L 308.19,178.735 z " style="fill-opacity:0.3;fill:rgb(250,150,50);stroke:rgb(0,0,0);stroke-width:1"/></g>
<g fill-rule="evenodd"><path d="M 438.936,595.948 L 438.936,535.656 L 408.79,505.511 L 348.498,505.511 L 318.352,535.656 L 318.352,595.948 L 348.498,626.094 L 408.79,626.094 L 438.936,595.948 z " style="fill-opacity:0.3;fill:rgb(250,150,50);stroke:rgb(0,0,0);stroke-width:1"/></g>
<g fill-rule="evenodd"><path d="M 800,595.942 L 800,535.65 L 769.854,505.504 L 709.562,505.504 L 679.416,535.65 L 679.416,595.942 L 709.562,626.088 L 769.854,626.088 L 800,595.942 z " style="fill-opacity:0.3;fill:rgb(250,150,50);stroke:rgb(0,0,0);stroke-width:1"/></g>
<g fill-rule="evenodd"><path d="M 428.774,264.344 L 428.774,204.052 L 398.628,173.906 L 338.337,173.906 L 308.191,204.052 L 308.191,264.344 L 338.337,294.489 L 398.628,294.489 L 428.774,264.344 z " style="fill-opacity:0.3;fill:rgb(250,150,50);stroke:rgb(0,0,0);stroke-width:1"/></g>
<g fill-rule="evenodd"><path d="M 547.19,523.615 L 547.19,463.022 L 517.044,433.177 L 456.752,433.177 L 426.607,463.323 L 426.908,523.615 L 457.054,553.761 L 517.044,553.761 L 547.19,523.615 z " style="fill-opacity:0.3;fill:rgb(250,150,50);stroke:rgb(0,0,0);stroke-width:1"/></g>
<g fill-rule="evenodd"><path d="M 91.5572,414.514 L 121.703,324.076 L 61.4113,354.222 L 1.1196,324.076 L 31.2655,384.368 L 1.1196,474.805 L 61.4113,444.659 L 121.703,474.805 L 91.5572,414.514 z " style="fill-opacity:0.3;fill:rgb(250,150,50);stroke:rgb(0,0,0);stroke-width:1"/></g>
<g fill-rule="evenodd"><path d="M 769.854,460.285 L 799.999,369.848 L 739.708,399.994 L 679.416,369.848 L 709.562,430.139 L 679.416,520.577 L 739.708,490.431 L 799.999,520.577 L 769.854,460.285 z " style="fill-opacity:0.3;fill:rgb(250,150,50);stroke:rgb(0,0,0);stroke-width:1"/></g>
<g fill-rule="evenodd"><path d="M 520.388,386.287 L 550.534,295.849 L 490.242,325.995 L 429.95,295.849 L 460.096,356.141 L 429.95,446.578 L 490.242,416.433 L 550.534,446.578 L 520.388,386.287 z " style="fill-opacity:0.3;fill:rgb(250,150,50);stroke:rgb(0,0,0);stroke-width:1"/></g>
<g fill-rule="evenodd"><path d="M 311.376,419.902 L 341.221,329.464 L 280.929,359.61 L 220.637,329.464 L 250.783,389.756 L 220.939,480.194 L 281.23,450.048 L 341.221,480.194 L 311.376,419.902 z " style="fill-opacity:0.3;fill:rgb(250,150,50);stroke:rgb(0,0,0);stroke-width:1"/></g>
<g fill-rule="evenodd"><path d="M 281.263,173.907 L 160.679,173.907 L 220.971,264.345 L 281.263,173.907 z " style="fill-opacity:0.3;fill:rgb(250,150,50);stroke:rgb(0,0,0);stroke-width:1"/></g>
<g fill-rule="evenodd"><path d="M 649.234,173.91 L 528.651,173.91 L 588.942,264.348 L 649.234,173.91 z " style="fill-opacity:0.3;fill:rgb(250,150,50);stroke:rgb(0,0,0);stroke-width:1"/></g>
<g fill-rule="evenodd"><path d="M 769.815,173.917 L 649.231,173.917 L 709.523,264.355 L 769.815,173.917 z " style="fill-opacity:0.3;fill:rgb(250,150,50);stroke:rgb(0,0,0);stroke-width:1"/></g>
<g fill-rule="evenodd"><path d="M 649.23,173.918 L 589.24,264.355 L 709.522,264.355 L 649.23,173.918 z " style="fill-opacity:0.3;fill:rgb(250,150,50);stroke:rgb(0,0,0);stroke-width:1"/></g>
<g fill-rule="evenodd"><path d="M 420.649,445.219 L 360.358,445.219 L 360.358,505.511 L 420.649,505.511 L 420.649,445.219 z " style="fill-opacity:0.3;fill:rgb(250,150,50);stroke:rgb(0,0,0);stroke-width:1"/></g>
<g fill-rule="evenodd"><path d="M 514.538,565.659 L 454.246,565.659 L 454.246,625.95 L 514.538,625.95 L 514.538,565.659 z " style="fill-opacity:0.3;fill:rgb(250,150,50);stroke:rgb(0,0,0);stroke-width:1"/></g>
<g fill-rule="evenodd"><path d="M 60.3315,174.674 L 0.039772,174.674 L 0.341231,234.966 L 60.3315,234.966 L 60.3315,174.674 z " style="fill-opacity:0.3;fill:rgb(250,150,50);stroke:rgb(0,0,0);stroke-width:1"/></g>
<g fill-rule="evenodd"><path d="M 60.2918,234.993 L 8.94454e-05,234.993 L 8.94454e-05,295.285 L 60.2918,295.285 L 60.2918,234.993 z " style="fill-opacity:0.3;fill:rgb(250,150,50);stroke:rgb(0,0,0);stroke-width:1"/></g>
</svg>
