<?xml version="1.0" standalone="no"?>
<!DOCTYPE svg PUBLIC "-//W3C//DTD SVG 1.1//EN"
"http://www.w3.org/Graphics/SVG/1.1/DTD/svg11.dtd">
<svg width="100%" height="100%" version="1.1"
xmlns="http://www.w3.org/2000/svg"
xmlns:xlink="http://www.w3.org/1999/xlink">
<rect x="0.811442" y="0" width="798.377" height="800" style="fill-opacity:0;fill:rgb(255,255,255);stroke:rgb(0,0,0);stroke-width:1"/>
<g fill-rule="evenodd"><path d="M 236.516,657.307 L 236.516,497.307 L 209.85,417.307 L 116.516,417.307 L 89.8498,497.307 L 89.8498,657.307 L 116.516,737.307 L 209.85,737.307 L 236.516,657.307 z " style="fill-opacity:0.3;fill:rgb(250,150,50);stroke:rgb(0,0,0);stroke-width:1"/></g>
<g fill-rule="evenodd"><path d="M 294.095,297.082 L 294.095,137.082 L 267.429,57.0824 L 174.095,57.0824 L 147.429,137.082 L 147.562,297.082 L 174.229,377.082 L 267.562,377.082 L 294.095,297.082 z " style="fill-opacity:0.3;fill:rgb(250,150,50);stroke:rgb(0,0,0);stroke-width:1"/></g>
<g fill-rule="evenodd"><path d="M 383.599,659.211 L 383.599,499.211 L 356.932,419.211 L 263.599,419.211 L 236.932,499.211 L 237.065,659.211 L 263.732,739.211 L 357.065,739.211 L 383.599,659.211 z " style="fill-opacity:0.3;fill:rgb(250,150,50);stroke:rgb(0,0,0);stroke-width:1"/></g>
<g fill-rule="evenodd"><path d="M 610.193,722.253 L 596.993,335.587 L 570.193,295.587 L 530.193,308.92 L 463.66,442.253 L 543.66,708.92 L 583.66,735.587 L 610.193,722.253 z " style="fill-opacity:0.3;fill:rgb(250,150,50);stroke:rgb(0,0,0);stroke-width:1"/></g>
<g fill-rule="evenodd"><path d="M 80.8584,470.534 L 147.525,337.201 L 67.5251,70.5342 L 27.5251,43.8675 L 0.858387,57.2009 L 14.1917,443.868 L 40.8584,483.868 L 80.8584,470.534 z " style="fill-opacity:0.3;fill:rgb(250,150,50);stroke:rgb(0,0,0);stroke-width:1"/></g>
<g fill-rule="evenodd"><path d="M 459.341,785.051 L 526.008,651.718 L 446.008,385.051 L 406.008,358.385 L 379.341,371.718 L 392.674,758.385 L 419.341,798.385 L 459.341,785.051 z " style="fill-opacity:0.3;fill:rgb(250,150,50);stroke:rgb(0,0,0);stroke-width:1"/></g>
<g fill-rule="evenodd"><path d="M 799.115,133.333 L 612.448,133.333 L 612.448,333.333 L 799.115,333.333 L 799.115,133.333 z " style="fill-opacity:0.3;fill:rgb(250,150,50);stroke:rgb(0,0,0);stroke-width:1"/></g>
<g fill-rule="evenodd"><path d="M 796.391,333.333 L 609.724,333.333 L 609.857,533.333 L 796.391,533.333 L 796.391,333.333 z " style="fill-opacity:0.3;fill:rgb(250,150,50);stroke:rgb(0,0,0);stroke-width:1"/></g>
<g fill-rule="evenodd"><path d="M 797.523,533.333 L 610.856,533.333 L 610.989,733.333 L 797.523,733.333 L 797.523,533.333 z " style="fill-opacity:0.3;fill:rgb(250,150,50);stroke:rgb(0,0,0);stroke-width:1"/></g>
<g fill-rule="evenodd"><path d="M 490.442,-4.19921e-08 L 330.442,-4.19921e-08 L 317.109,26.6667 L 383.776,66.6667 L 623.776,66.6667 L 490.442,-4.19921e-08 z " style="fill-opacity:0.3;fill:rgb(250,150,50);stroke:rgb(0,0,0);stroke-width:1"/></g>
<g fill-rule="evenodd"><path d="M 798.448,40 L 731.781,2.24871e-05 L 491.781,2.24871e-05 L 625.114,66.6667 L 785.248,66.6667 L 798.448,40 z " style="fill-opacity:0.3;fill:rgb(250,150,50);stroke:rgb(0,0,0);stroke-width:1"/></g>
<g fill-rule="evenodd"><path d="M 572.655,66.6667 L 412.655,66.6667 L 399.322,93.3334 L 465.989,133.333 L 705.989,133.333 L 572.655,66.6667 z " style="fill-opacity:0.3;fill:rgb(250,150,50);stroke:rgb(0,0,0);stroke-width:1"/></g>
<g fill-rule="evenodd"><path d="M 612.265,133.403 L 558.932,133.403 L 558.932,146.736 L 545.599,146.736 L 545.599,133.403 L 492.265,133.403 L 492.265,160.07 L 545.732,293.403 L 585.732,293.403 L 612.265,133.403 z " style="fill-opacity:0.3;fill:rgb(250,150,50);stroke:rgb(0,0,0);stroke-width:1"/></g>
<g fill-rule="evenodd"><path d="M 63.1901,784.705 L 76.5234,784.705 L 76.5234,798.039 L 129.857,798.039 L 129.857,771.372 L 76.5234,638.039 L 36.5234,638.039 L 9.85674,798.039 L 63.1901,798.039 L 63.1901,784.705 z " style="fill-opacity:0.3;fill:rgb(250,150,50);stroke:rgb(0,0,0);stroke-width:1"/></g>
<g fill-rule="evenodd"><path d="M 170.011,0.0309707 L 116.678,0.0309707 L 116.678,13.3643 L 103.345,13.3643 L 103.345,0.0309707 L 50.0112,0.0309707 L 50.0112,26.6976 L 103.478,160.031 L 143.478,160.031 L 170.011,0.0309707 z " style="fill-opacity:0.3;fill:rgb(250,150,50);stroke:rgb(0,0,0);stroke-width:1"/></g>
<g fill-rule="evenodd"><path d="M 524.361,242.614 L 457.695,175.948 L 471.028,162.614 L 337.695,162.614 L 324.361,175.948 L 337.695,189.281 L 417.695,215.948 L 484.361,282.614 L 524.361,242.614 z " style="fill-opacity:0.3;fill:rgb(250,150,50);stroke:rgb(0,0,0);stroke-width:1"/></g>
<g fill-rule="evenodd"><path d="M 505.474,298.827 L 492.274,285.493 L 412.274,258.827 L 345.474,192.16 L 305.474,232.16 L 372.274,298.827 L 358.808,312.16 L 492.274,312.16 L 505.474,298.827 z " style="fill-opacity:0.3;fill:rgb(250,150,50);stroke:rgb(0,0,0);stroke-width:1"/></g>
<g fill-rule="evenodd"><path d="M 370.683,80.3054 L 304.017,13.6387 L 317.35,0.305389 L 184.017,0.305389 L 170.683,13.6387 L 184.017,26.9721 L 264.017,53.6387 L 330.683,120.305 L 370.683,80.3054 z " style="fill-opacity:0.3;fill:rgb(250,150,50);stroke:rgb(0,0,0);stroke-width:1"/></g>
<g fill-rule="evenodd"><path d="M 525.33,714.619 L 458.663,799.953 L 645.33,799.953 L 525.33,714.619 z " style="fill-opacity:0.3;fill:rgb(250,150,50);stroke:rgb(0,0,0);stroke-width:1"/></g>
<g fill-rule="evenodd"><path d="M 228.893,714.514 L 162.227,799.847 L 348.893,799.847 L 228.893,714.514 z " style="fill-opacity:0.3;fill:rgb(250,150,50);stroke:rgb(0,0,0);stroke-width:1"/></g>
<g fill-rule="evenodd"><path d="M 373.232,77.1894 L 306.565,162.523 L 493.232,162.523 L 373.232,77.1894 z " style="fill-opacity:0.3;fill:rgb(250,150,50);stroke:rgb(0,0,0);stroke-width:1"/></g>
<g fill-rule="evenodd"><path d="M 771.9,733.333 L 705.233,733.333 L 678.566,800 L 798.566,800 L 771.9,733.333 z " style="fill-opacity:0.3;fill:rgb(250,150,50);stroke:rgb(0,0,0);stroke-width:1"/></g>
<g fill-rule="evenodd"><path d="M 353.476,352.365 L 286.809,352.365 L 260.143,419.032 L 380.143,419.032 L 353.476,352.365 z " style="fill-opacity:0.3;fill:rgb(250,150,50);stroke:rgb(0,0,0);stroke-width:1"/></g>
<g fill-rule="evenodd"><path d="M 799.189,66.6667 L 679.189,66.6667 L 705.989,133.333 L 772.655,133.333 L 799.189,66.6667 z " style="fill-opacity:0.3;fill:rgb(250,150,50);stroke:rgb(0,0,0);stroke-width:1"/></g>
<g fill-rule="evenodd"><path d="M 501.527,312.236 L 488.193,312.236 L 488.193,325.57 L 474.86,338.903 L 461.527,338.903 L 448.193,325.57 L 448.193,312.236 L 434.86,312.236 L 448.193,392.236 L 488.193,392.236 L 501.527,312.236 z " style="fill-opacity:0.3;fill:rgb(250,150,50);stroke:rgb(0,0,0);stroke-width:1"/></g>
<g fill-rule="evenodd"><path d="M 85.9745,473.297 L 72.6412,473.297 L 72.6412,486.63 L 59.3078,499.964 L 45.9745,499.964 L 32.6412,486.63 L 32.6412,473.297 L 19.3078,473.297 L 32.6412,553.297 L 72.6412,553.297 L 85.9745,473.297 z " style="fill-opacity:0.3;fill:rgb(250,150,50);stroke:rgb(0,0,0);stroke-width:1"/></g>
<g fill-rule="evenodd"><path d="M 74.7833,553.363 L 61.45,553.363 L 61.45,566.696 L 48.1166,580.03 L 34.7833,580.03 L 21.45,566.696 L 21.45,553.363 L 8.11663,553.363 L 21.45,633.363 L 61.45,633.363 L 74.7833,553.363 z " style="fill-opacity:0.3;fill:rgb(250,150,50);stroke:rgb(0,0,0);stroke-width:1"/></g>
<g fill-rule="evenodd"><path d="M 228.373,377.212 L 148.373,390.545 L 161.707,417.212 L 255.04,417.212 L 228.373,377.212 z " style="fill-opacity:0.3;fill:rgb(250,150,50);stroke:rgb(0,0,0);stroke-width:1"/></g>
<g fill-rule="evenodd"><path d="M 693.54,761.292 L 680.207,734.626 L 586.873,734.626 L 613.54,774.626 L 693.54,761.292 z " style="fill-opacity:0.3;fill:rgb(250,150,50);stroke:rgb(0,0,0);stroke-width:1"/></g>
<g fill-rule="evenodd"><path d="M 364.681,312.301 L 284.681,325.634 L 298.015,352.301 L 391.348,352.301 L 364.681,312.301 z " style="fill-opacity:0.3;fill:rgb(250,150,50);stroke:rgb(0,0,0);stroke-width:1"/></g>
</svg>
