<?xml version="1.0" standalone="no"?>
<!DOCTYPE svg PUBLIC "-//W3C//DTD SVG 1.1//EN"
"http://www.w3.org/Graphics/SVG/1.1/DTD/svg11.dtd">
<svg width="100%" height="100%" version="1.1"
xmlns="http://www.w3.org/2000/svg"
xmlns:xlink="http://www.w3.org/1999/xlink">
<rect x="3.55173" y="0" width="792.897" height="800" style="fill-opacity:0;fill:rgb(255,255,255);stroke:rgb(0,0,0);stroke-width:1"/>
<g fill-rule="evenodd"><path d="M 150.643,240.098 L 150.643,80.0978 L 123.976,0.0977764 L 30.6427,0.0977764 L 3.97605,80.0978 L 3.97605,240.098 L 30.6427,320.098 L 123.976,320.098 L 150.643,240.098 z " style="fill-opacity:0.3;fill:rgb(250,150,50);stroke:rgb(0,0,0);stroke-width:1"/></g>
<g fill-rule="evenodd"><path d="M 293.838,642.56 L 293.838,482.56 L 267.172,402.56 L 173.838,402.56 L 147.172,482.56 L 147.172,642.56 L 173.838,722.56 L 267.172,722.56 L 293.838,642.56 z " style="fill-opacity:0.3;fill:rgb(250,150,50);stroke:rgb(0,0,0);stroke-width:1"/></g>
<g fill-rule="evenodd"><path d="M 297.316,240.283 L 297.316,80.2831 L 270.649,0.28308 L 177.316,0.28308 L 150.649,80.2831 L 150.649,240.283 L 177.316,320.283 L 270.649,320.283 L 297.316,240.283 z " style="fill-opacity:0.3;fill:rgb(250,150,50);stroke:rgb(0,0,0);stroke-width:1"/></g>
<g fill-rule="evenodd"><path d="M 401.32,632.321 L 388.12,245.654 L 361.32,205.654 L 321.32,218.987 L 254.787,352.321 L 334.787,618.987 L 374.787,645.654 L 401.32,632.321 z " style="fill-opacity:0.3;fill:rgb(250,150,50);stroke:rgb(0,0,0);stroke-width:1"/></g>
<g fill-rule="evenodd"><path d="M 469.396,696.335 L 536.063,563.002 L 456.063,296.335 L 416.063,269.669 L 389.396,283.002 L 402.729,669.669 L 429.396,709.669 L 469.396,696.335 z " style="fill-opacity:0.3;fill:rgb(250,150,50);stroke:rgb(0,0,0);stroke-width:1"/></g>
<g fill-rule="evenodd"><path d="M 83.5795,786.23 L 150.246,652.897 L 70.2462,386.23 L 30.2462,359.563 L 3.57955,372.897 L 16.9129,759.563 L 43.5795,799.563 L 83.5795,786.23 z " style="fill-opacity:0.3;fill:rgb(250,150,50);stroke:rgb(0,0,0);stroke-width:1"/></g>
<g fill-rule="evenodd"><path d="M 783.342,387.156 L 596.675,387.156 L 596.808,587.156 L 783.342,587.156 L 783.342,387.156 z " style="fill-opacity:0.3;fill:rgb(250,150,50);stroke:rgb(0,0,0);stroke-width:1"/></g>
<g fill-rule="evenodd"><path d="M 484.939,0.0581313 L 298.273,0.0581313 L 298.406,200.058 L 484.939,200.058 L 484.939,0.0581313 z " style="fill-opacity:0.3;fill:rgb(250,150,50);stroke:rgb(0,0,0);stroke-width:1"/></g>
<g fill-rule="evenodd"><path d="M 793.001,0.00346131 L 606.334,0.00346131 L 606.468,200.003 L 793.001,200.003 L 793.001,0.00346131 z " style="fill-opacity:0.3;fill:rgb(250,150,50);stroke:rgb(0,0,0);stroke-width:1"/></g>
<g fill-rule="evenodd"><path d="M 796.413,767.482 L 729.747,727.482 L 489.747,727.482 L 623.08,794.148 L 783.213,794.148 L 796.413,767.482 z " style="fill-opacity:0.3;fill:rgb(250,150,50);stroke:rgb(0,0,0);stroke-width:1"/></g>
<g fill-rule="evenodd"><path d="M 647.297,660.815 L 487.297,660.815 L 473.964,687.481 L 540.63,727.481 L 780.63,727.481 L 647.297,660.815 z " style="fill-opacity:0.3;fill:rgb(250,150,50);stroke:rgb(0,0,0);stroke-width:1"/></g>
<g fill-rule="evenodd"><path d="M 501.293,733.255 L 341.293,733.255 L 327.96,759.921 L 394.627,799.921 L 634.627,799.921 L 501.293,733.255 z " style="fill-opacity:0.3;fill:rgb(250,150,50);stroke:rgb(0,0,0);stroke-width:1"/></g>
<g fill-rule="evenodd"><path d="M 174.515,320.125 L 121.182,320.125 L 121.182,333.458 L 107.849,333.458 L 107.849,320.125 L 54.5152,320.125 L 54.5152,346.791 L 107.982,480.125 L 147.982,480.125 L 174.515,320.125 z " style="fill-opacity:0.3;fill:rgb(250,150,50);stroke:rgb(0,0,0);stroke-width:1"/></g>
<g fill-rule="evenodd"><path d="M 538.375,146.719 L 551.708,146.719 L 551.708,160.053 L 605.042,160.053 L 605.042,133.386 L 551.708,0.0527044 L 511.708,0.0527044 L 485.042,160.053 L 538.375,160.053 L 538.375,146.719 z " style="fill-opacity:0.3;fill:rgb(250,150,50);stroke:rgb(0,0,0);stroke-width:1"/></g>
<g fill-rule="evenodd"><path d="M 600.663,346.666 L 547.33,346.666 L 547.33,360 L 533.996,360 L 533.996,346.666 L 480.663,346.666 L 480.663,373.333 L 534.13,506.666 L 574.13,506.666 L 600.663,346.666 z " style="fill-opacity:0.3;fill:rgb(250,150,50);stroke:rgb(0,0,0);stroke-width:1"/></g>
<g fill-rule="evenodd"><path d="M 625.83,332.77 L 612.63,319.437 L 532.63,292.77 L 465.83,226.104 L 425.83,266.104 L 492.63,332.77 L 479.163,346.104 L 612.63,346.104 L 625.83,332.77 z " style="fill-opacity:0.3;fill:rgb(250,150,50);stroke:rgb(0,0,0);stroke-width:1"/></g>
<g fill-rule="evenodd"><path d="M 794.651,280.006 L 727.984,213.34 L 741.317,200.006 L 607.984,200.006 L 594.651,213.34 L 607.984,226.673 L 687.984,253.34 L 754.651,320.006 L 794.651,280.006 z " style="fill-opacity:0.3;fill:rgb(250,150,50);stroke:rgb(0,0,0);stroke-width:1"/></g>
<g fill-rule="evenodd"><path d="M 771.945,334.708 L 758.745,321.375 L 678.745,294.708 L 611.945,228.041 L 571.945,268.041 L 638.745,334.708 L 625.278,348.041 L 758.745,348.041 L 771.945,334.708 z " style="fill-opacity:0.3;fill:rgb(250,150,50);stroke:rgb(0,0,0);stroke-width:1"/></g>
<g fill-rule="evenodd"><path d="M 331.585,640.12 L 264.918,725.453 L 451.585,725.453 L 331.585,640.12 z " style="fill-opacity:0.3;fill:rgb(250,150,50);stroke:rgb(0,0,0);stroke-width:1"/></g>
<g fill-rule="evenodd"><path d="M 139.508,714.654 L 72.8408,799.988 L 259.508,799.988 L 139.508,714.654 z " style="fill-opacity:0.3;fill:rgb(250,150,50);stroke:rgb(0,0,0);stroke-width:1"/></g>
<g fill-rule="evenodd"><path d="M 763.981,587.156 L 577.314,587.156 L 697.448,672.49 L 763.981,587.156 z " style="fill-opacity:0.3;fill:rgb(250,150,50);stroke:rgb(0,0,0);stroke-width:1"/></g>
<g fill-rule="evenodd"><path d="M 599.765,200.088 L 479.765,200.088 L 506.565,266.754 L 573.231,266.754 L 599.765,200.088 z " style="fill-opacity:0.3;fill:rgb(250,150,50);stroke:rgb(0,0,0);stroke-width:1"/></g>
<g fill-rule="evenodd"><path d="M 341.671,725.46 L 221.671,725.46 L 248.471,792.126 L 315.138,792.126 L 341.671,725.46 z " style="fill-opacity:0.3;fill:rgb(250,150,50);stroke:rgb(0,0,0);stroke-width:1"/></g>
<g fill-rule="evenodd"><path d="M 587.157,594.148 L 520.49,594.148 L 493.823,660.815 L 613.823,660.815 L 587.157,594.148 z " style="fill-opacity:0.3;fill:rgb(250,150,50);stroke:rgb(0,0,0);stroke-width:1"/></g>
<g fill-rule="evenodd"><path d="M 595.87,506.97 L 582.536,506.97 L 582.536,520.304 L 569.203,533.637 L 555.87,533.637 L 542.536,520.304 L 542.536,506.97 L 529.203,506.97 L 542.536,586.97 L 582.536,586.97 L 595.87,506.97 z " style="fill-opacity:0.3;fill:rgb(250,150,50);stroke:rgb(0,0,0);stroke-width:1"/></g>
<g fill-rule="evenodd"><path d="M 738.687,686.437 L 752.02,673.103 L 765.353,673.103 L 778.687,686.437 L 778.687,699.77 L 791.887,699.77 L 778.553,619.77 L 738.553,619.77 L 725.353,699.77 L 738.687,699.77 L 738.687,686.437 z " style="fill-opacity:0.3;fill:rgb(250,150,50);stroke:rgb(0,0,0);stroke-width:1"/></g>
<g fill-rule="evenodd"><path d="M 243.437,320.824 L 230.104,320.824 L 230.104,334.157 L 216.771,347.491 L 203.437,347.491 L 190.104,334.157 L 190.104,320.824 L 176.771,320.824 L 190.104,400.824 L 230.104,400.824 L 243.437,320.824 z " style="fill-opacity:0.3;fill:rgb(250,150,50);stroke:rgb(0,0,0);stroke-width:1"/></g>
<g fill-rule="evenodd"><path d="M 764.069,347.156 L 684.069,360.489 L 697.402,387.156 L 790.736,387.156 L 764.069,347.156 z " style="fill-opacity:0.3;fill:rgb(250,150,50);stroke:rgb(0,0,0);stroke-width:1"/></g>
<g fill-rule="evenodd"><path d="M 575.13,160.087 L 495.13,173.42 L 508.464,200.087 L 601.797,200.087 L 575.13,160.087 z " style="fill-opacity:0.3;fill:rgb(250,150,50);stroke:rgb(0,0,0);stroke-width:1"/></g>
<g fill-rule="evenodd"><path d="M 464.777,226.956 L 451.443,200.29 L 358.11,200.29 L 384.777,240.29 L 464.777,226.956 z " style="fill-opacity:0.3;fill:rgb(250,150,50);stroke:rgb(0,0,0);stroke-width:1"/></g>
</svg>
