<?xml version="1.0" standalone="no"?>
<!DOCTYPE svg PUBLIC "-//W3C//DTD SVG 1.1//EN"
"http://www.w3.org/Graphics/SVG/1.1/DTD/svg11.dtd">
<svg width="100%" height="100%" version="1.1"
xmlns="http://www.w3.org/2000/svg"
xmlns:xlink="http://www.w3.org/1999/xlink">
<rect x="4.08776" y="0" width="791.824" height="800" style="fill-opacity:0;fill:rgb(255,255,255);stroke:rgb(0,0,0);stroke-width:1"/>
<g fill-rule="evenodd"><path d="M 795.911,394.052 L 795.911,5.93366 L 526.604,5.93366 L 431.555,227.716 L 376.109,378.211 L 471.159,481.181 L 558.288,560.389 L 795.911,394.052 z " style="fill-opacity:0.3;fill:rgb(250,150,50);stroke:rgb(0,0,0);stroke-width:1"/></g>
<g fill-rule="evenodd"><path d="M 471.139,481.23 L 376.089,378.26 L 431.535,227.765 L 83.0199,299.052 L 67.1783,497.072 L 59.2575,536.676 L 471.139,481.23 z " style="fill-opacity:0.3;fill:rgb(250,150,50);stroke:rgb(0,0,0);stroke-width:1"/></g>
<g fill-rule="evenodd"><path d="M 795.912,394.052 L 558.288,560.389 L 597.892,798.012 L 795.912,798.012 L 795.912,394.052 z " style="fill-opacity:0.3;fill:rgb(250,150,50);stroke:rgb(0,0,0);stroke-width:1"/></g>
<g fill-rule="evenodd"><path d="M 264.757,649.427 L 557.826,562.298 L 470.697,483.09 L 58.8162,538.536 L 27.1331,712.793 L 264.757,649.427 z " style="fill-opacity:0.3;fill:rgb(250,150,50);stroke:rgb(0,0,0);stroke-width:1"/></g>
<g fill-rule="evenodd"><path d="M 431.53,227.759 L 209.748,5.97706 L 98.8564,5.97706 L 83.0148,299.046 L 431.53,227.759 z " style="fill-opacity:0.3;fill:rgb(250,150,50);stroke:rgb(0,0,0);stroke-width:1"/></g>
<g fill-rule="evenodd"><path d="M 558.619,562.37 L 265.549,649.499 L 265.549,799.994 L 598.223,799.994 L 558.619,562.37 z " style="fill-opacity:0.3;fill:rgb(250,150,50);stroke:rgb(0,0,0);stroke-width:1"/></g>
<g fill-rule="evenodd"><path d="M 67.4746,491.11 L 83.3162,293.09 L 99.1578,0.020429 L 4.10826,0.020429 L 4.10826,506.951 L 67.4746,491.11 z " style="fill-opacity:0.3;fill:rgb(250,150,50);stroke:rgb(0,0,0);stroke-width:1"/></g>
<g fill-rule="evenodd"><path d="M 520.636,0.00745269 L 203.804,0.00745269 L 425.586,221.79 L 520.636,0.00745269 z " style="fill-opacity:0.3;fill:rgb(250,150,50);stroke:rgb(0,0,0);stroke-width:1"/></g>
<g fill-rule="evenodd"><path d="M 265.549,649.457 L 27.9254,712.823 L 4.16304,799.952 L 265.549,799.952 L 265.549,649.457 z " style="fill-opacity:0.3;fill:rgb(250,150,50);stroke:rgb(0,0,0);stroke-width:1"/></g>
<g fill-rule="evenodd"><path d="M 27.8503,707.459 L 59.5335,533.202 L 67.4543,493.598 L 4.08792,509.439 L 4.08792,794.588 L 27.8503,707.459 z " style="fill-opacity:0.3;fill:rgb(250,150,50);stroke:rgb(0,0,0);stroke-width:1"/></g>
</svg>
