<?xml version="1.0" standalone="no"?>
<!DOCTYPE svg PUBLIC "-//W3C//DTD SVG 1.1//EN"
"http://www.w3.org/Graphics/SVG/1.1/DTD/svg11.dtd">
<svg width="100%" height="100%" version="1.1"
xmlns="http://www.w3.org/2000/svg"
xmlns:xlink="http://www.w3.org/1999/xlink">
<rect x="4.20687" y="0" width="791.586" height="800" style="fill-opacity:0;fill:rgb(255,255,255);stroke:rgb(0,0,0);stroke-width:1"/>
<g fill-rule="evenodd"><path d="M 424.016,681.188 L 408.174,499.01 L 384.412,308.911 L 313.125,348.515 L 4.21364,530.693 L 281.441,800 L 424.016,681.188 z " style="fill-opacity:0.3;fill:rgb(250,150,50);stroke:rgb(0,0,0);stroke-width:1"/></g>
<g fill-rule="evenodd"><path d="M 313.125,348.515 L 162.63,324.752 L 4.2137,7.92072 L 4.2137,530.693 L 313.125,348.515 z " style="fill-opacity:0.3;fill:rgb(250,150,50);stroke:rgb(0,0,0);stroke-width:1"/></g>
<g fill-rule="evenodd"><path d="M 621.45,383.429 L 637.292,217.092 L 581.846,232.934 L 383.826,304.221 L 407.589,494.32 L 605.608,526.003 L 621.45,383.429 z " style="fill-opacity:0.3;fill:rgb(250,150,50);stroke:rgb(0,0,0);stroke-width:1"/></g>
<g fill-rule="evenodd"><path d="M 795.772,474.502 L 653.197,537.868 L 542.306,799.254 L 795.772,799.254 L 795.772,474.502 z " style="fill-opacity:0.3;fill:rgb(250,150,50);stroke:rgb(0,0,0);stroke-width:1"/></g>
<g fill-rule="evenodd"><path d="M 352.732,5.89989 L 4.21688,5.89989 L 162.633,322.732 L 352.732,5.89989 z " style="fill-opacity:0.3;fill:rgb(250,150,50);stroke:rgb(0,0,0);stroke-width:1"/></g>
<g fill-rule="evenodd"><path d="M 793.266,0.0201684 L 349.702,0.0201684 L 634.85,213.882 L 793.266,0.0201684 z " style="fill-opacity:0.3;fill:rgb(250,150,50);stroke:rgb(0,0,0);stroke-width:1"/></g>
<g fill-rule="evenodd"><path d="M 653.722,535.664 L 606.198,527.743 L 408.178,496.06 L 424.019,678.238 L 542.831,797.05 L 653.722,535.664 z " style="fill-opacity:0.3;fill:rgb(250,150,50);stroke:rgb(0,0,0);stroke-width:1"/></g>
<g fill-rule="evenodd"><path d="M 383.923,307.933 L 376.003,189.121 L 352.24,6.94274 L 162.141,323.774 L 312.636,347.537 L 383.923,307.933 z " style="fill-opacity:0.3;fill:rgb(250,150,50);stroke:rgb(0,0,0);stroke-width:1"/></g>
<g fill-rule="evenodd"><path d="M 4.2072,530.693 L 4.2072,800 L 281.435,800 L 4.2072,530.693 z " style="fill-opacity:0.3;fill:rgb(250,150,50);stroke:rgb(0,0,0);stroke-width:1"/></g>
<g fill-rule="evenodd"><path d="M 637.401,215.894 L 352.253,2.03273 L 376.015,184.211 L 581.956,231.736 L 637.401,215.894 z " style="fill-opacity:0.3;fill:rgb(250,150,50);stroke:rgb(0,0,0);stroke-width:1"/></g>
<g fill-rule="evenodd"><path d="M 795.701,174.398 L 637.285,214.002 L 795.701,467.467 L 795.701,174.398 z " style="fill-opacity:0.3;fill:rgb(250,150,50);stroke:rgb(0,0,0);stroke-width:1"/></g>
<g fill-rule="evenodd"><path d="M 424.2,681.181 L 281.625,799.993 L 543.011,799.993 L 424.2,681.181 z " style="fill-opacity:0.3;fill:rgb(250,150,50);stroke:rgb(0,0,0);stroke-width:1"/></g>
<g fill-rule="evenodd"><path d="M 795.783,469.956 L 621.525,382.828 L 605.684,525.402 L 653.209,533.323 L 795.783,469.956 z " style="fill-opacity:0.3;fill:rgb(250,150,50);stroke:rgb(0,0,0);stroke-width:1"/></g>
<g fill-rule="evenodd"><path d="M 637.377,216.334 L 621.536,382.67 L 795.793,469.799 L 637.377,216.334 z " style="fill-opacity:0.3;fill:rgb(250,150,50);stroke:rgb(0,0,0);stroke-width:1"/></g>
<g fill-rule="evenodd"><path d="M 793.239,174.329 L 793.239,0.0713003 L 634.824,213.933 L 793.239,174.329 z " style="fill-opacity:0.3;fill:rgb(250,150,50);stroke:rgb(0,0,0);stroke-width:1"/></g>
<g fill-rule="evenodd"><path d="M 583.069,232.475 L 377.129,184.95 L 385.05,303.762 L 583.069,232.475 z " style="fill-opacity:0.3;fill:rgb(250,150,50);stroke:rgb(0,0,0);stroke-width:1"/></g>
</svg>
