<?xml version="1.0" standalone="no"?>
<!DOCTYPE svg PUBLIC "-//W3C//DTD SVG 1.1//EN"
"http://www.w3.org/Graphics/SVG/1.1/DTD/svg11.dtd">
<svg width="100%" height="100%" version="1.1"
xmlns="http://www.w3.org/2000/svg"
xmlns:xlink="http://www.w3.org/1999/xlink">
<rect x="0" y="82.5187" width="800" height="634.963" style="fill-opacity:0;fill:rgb(255,255,255);stroke:rgb(0,0,0);stroke-width:1"/>
<g fill-rule="evenodd"><path d="M 542.818,620.754 L 530.244,476.159 L 511.384,325.277 L 454.803,356.71 L 209.62,501.306 L 429.656,715.056 L 542.818,620.754 z " style="fill-opacity:0.3;fill:rgb(250,150,50);stroke:rgb(0,0,0);stroke-width:1"/></g>
<g fill-rule="evenodd"><path d="M 245.198,378.009 L 125.75,359.148 L 0.0148869,107.678 L 0.0148869,522.604 L 245.198,378.009 z " style="fill-opacity:0.3;fill:rgb(250,150,50);stroke:rgb(0,0,0);stroke-width:1"/></g>
<g fill-rule="evenodd"><path d="M 318.075,271.12 L 330.648,139.098 L 286.641,151.671 L 129.472,208.252 L 148.332,359.134 L 305.501,384.281 L 318.075,271.12 z " style="fill-opacity:0.3;fill:rgb(250,150,50);stroke:rgb(0,0,0);stroke-width:1"/></g>
<g fill-rule="evenodd"><path d="M 204.041,456.482 L 90.8798,506.776 L 2.86519,714.24 L 204.041,714.24 L 204.041,456.482 z " style="fill-opacity:0.3;fill:rgb(250,150,50);stroke:rgb(0,0,0);stroke-width:1"/></g>
<g fill-rule="evenodd"><path d="M 798.64,399.739 L 522.023,399.739 L 647.758,651.209 L 798.64,399.739 z " style="fill-opacity:0.3;fill:rgb(250,150,50);stroke:rgb(0,0,0);stroke-width:1"/></g>
<g fill-rule="evenodd"><path d="M 608.231,83.1172 L 256.173,83.1172 L 482.496,252.86 L 608.231,83.1172 z " style="fill-opacity:0.3;fill:rgb(250,150,50);stroke:rgb(0,0,0);stroke-width:1"/></g>
<g fill-rule="evenodd"><path d="M 799.202,120.551 L 761.481,114.264 L 604.312,89.1171 L 616.886,233.713 L 711.187,328.014 L 799.202,120.551 z " style="fill-opacity:0.3;fill:rgb(250,150,50);stroke:rgb(0,0,0);stroke-width:1"/></g>
<g fill-rule="evenodd"><path d="M 799.32,679.855 L 793.033,585.554 L 774.173,440.958 L 623.29,692.429 L 742.739,711.289 L 799.32,679.855 z " style="fill-opacity:0.3;fill:rgb(250,150,50);stroke:rgb(0,0,0);stroke-width:1"/></g>
<g fill-rule="evenodd"><path d="M 208.891,502.666 L 208.891,716.416 L 428.927,716.416 L 208.891,502.666 z " style="fill-opacity:0.3;fill:rgb(250,150,50);stroke:rgb(0,0,0);stroke-width:1"/></g>
<g fill-rule="evenodd"><path d="M 789.761,387.052 L 563.438,217.31 L 582.298,361.905 L 745.754,399.626 L 789.761,387.052 z " style="fill-opacity:0.3;fill:rgb(250,150,50);stroke:rgb(0,0,0);stroke-width:1"/></g>
<g fill-rule="evenodd"><path d="M 129.221,82.5262 L 3.48559,113.96 L 129.221,315.136 L 129.221,82.5262 z " style="fill-opacity:0.3;fill:rgb(250,150,50);stroke:rgb(0,0,0);stroke-width:1"/></g>
<g fill-rule="evenodd"><path d="M 552.631,622.364 L 439.47,716.666 L 646.933,716.666 L 552.631,622.364 z " style="fill-opacity:0.3;fill:rgb(250,150,50);stroke:rgb(0,0,0);stroke-width:1"/></g>
<g fill-rule="evenodd"><path d="M 454.595,356.521 L 316.286,287.367 L 303.713,400.528 L 341.433,406.815 L 454.595,356.521 z " style="fill-opacity:0.3;fill:rgb(250,150,50);stroke:rgb(0,0,0);stroke-width:1"/></g>
<g fill-rule="evenodd"><path d="M 329.117,155.182 L 316.543,287.204 L 454.852,356.358 L 329.117,155.182 z " style="fill-opacity:0.3;fill:rgb(250,150,50);stroke:rgb(0,0,0);stroke-width:1"/></g>
<g fill-rule="evenodd"><path d="M 563.422,297.279 L 563.422,158.971 L 437.687,328.713 L 563.422,297.279 z " style="fill-opacity:0.3;fill:rgb(250,150,50);stroke:rgb(0,0,0);stroke-width:1"/></g>
<g fill-rule="evenodd"><path d="M 298.771,120.796 L 135.315,83.0752 L 141.602,177.377 L 298.771,120.796 z " style="fill-opacity:0.3;fill:rgb(250,150,50);stroke:rgb(0,0,0);stroke-width:1"/></g>
</svg>
