<?xml version="1.0" standalone="no"?>
<!DOCTYPE svg PUBLIC "-//W3C//DTD SVG 1.1//EN"
"http://www.w3.org/Graphics/SVG/1.1/DTD/svg11.dtd">
<svg width="100%" height="100%" version="1.1"
xmlns="http://www.w3.org/2000/svg"
xmlns:xlink="http://www.w3.org/1999/xlink">
<rect x="63.8595" y="0" width="672.281" height="800" style="fill-opacity:0;fill:rgb(255,255,255);stroke:rgb(0,0,0);stroke-width:1"/>
<g fill-rule="evenodd"><path d="M 736.121,210.526 L 441.384,210.526 L 441.594,505.263 L 736.121,505.263 L 736.121,210.526 z " style="fill-opacity:0.3;fill:rgb(250,150,50);stroke:rgb(0,0,0);stroke-width:1"/></g>
<g fill-rule="evenodd"><path d="M 732.968,505.263 L 543.494,505.263 L 543.494,800 L 732.968,800 L 732.968,505.263 z " style="fill-opacity:0.3;fill:rgb(250,150,50);stroke:rgb(0,0,0);stroke-width:1"/></g>
<g fill-rule="evenodd"><path d="M 274.414,353.523 L 63.8881,269.312 L 63.8881,564.049 L 274.414,564.049 L 274.414,353.523 z " style="fill-opacity:0.3;fill:rgb(250,150,50);stroke:rgb(0,0,0);stroke-width:1"/></g>
<g fill-rule="evenodd"><path d="M 736.141,-3.67576e-06 L 525.614,-3.67576e-06 L 525.614,210.526 L 736.141,210.526 L 736.141,-3.67576e-06 z " style="fill-opacity:0.3;fill:rgb(250,150,50);stroke:rgb(0,0,0);stroke-width:1"/></g>
<g fill-rule="evenodd"><path d="M 274.386,774.365 L 274.386,564.049 L 63.8598,564.049 L 63.8598,774.576 L 274.386,774.365 z " style="fill-opacity:0.3;fill:rgb(250,150,50);stroke:rgb(0,0,0);stroke-width:1"/></g>
<g fill-rule="evenodd"><path d="M 543.488,505.263 L 248.752,800 L 543.488,800 L 543.488,505.263 z " style="fill-opacity:0.3;fill:rgb(250,150,50);stroke:rgb(0,0,0);stroke-width:1"/></g>
<g fill-rule="evenodd"><path d="M 244.067,29.8048 L 96.6988,282.436 L 391.436,282.436 L 244.067,29.8048 z " style="fill-opacity:0.3;fill:rgb(250,150,50);stroke:rgb(0,0,0);stroke-width:1"/></g>
<g fill-rule="evenodd"><path d="M 440.841,294.892 L 251.367,294.892 L 335.577,505.418 L 440.841,505.418 L 440.841,294.892 z " style="fill-opacity:0.3;fill:rgb(250,150,50);stroke:rgb(0,0,0);stroke-width:1"/></g>
<g fill-rule="evenodd"><path d="M 414.423,0.031804 L 224.949,0.031804 L 414.423,294.769 L 414.423,0.031804 z " style="fill-opacity:0.3;fill:rgb(250,150,50);stroke:rgb(0,0,0);stroke-width:1"/></g>
<g fill-rule="evenodd"><path d="M 422.425,617.053 L 275.057,469.685 L 275.057,764.421 L 422.425,617.053 z " style="fill-opacity:0.3;fill:rgb(250,150,50);stroke:rgb(0,0,0);stroke-width:1"/></g>
<g fill-rule="evenodd"><path d="M 519.702,18.4623 L 414.439,18.4623 L 414.649,207.936 L 519.702,207.936 L 519.702,18.4623 z " style="fill-opacity:0.3;fill:rgb(250,150,50);stroke:rgb(0,0,0);stroke-width:1"/></g>
<g fill-rule="evenodd"><path d="M 232.309,25.869 L 63.8882,25.869 L 148.099,194.29 L 232.309,25.869 z " style="fill-opacity:0.3;fill:rgb(250,150,50);stroke:rgb(0,0,0);stroke-width:1"/></g>
</svg>
