<?xml version="1.0" standalone="no"?>
<!DOCTYPE svg PUBLIC "-//W3C//DTD SVG 1.1//EN"
"http://www.w3.org/Graphics/SVG/1.1/DTD/svg11.dtd">
<svg width="100%" height="100%" version="1.1"
xmlns="http://www.w3.org/2000/svg"
xmlns:xlink="http://www.w3.org/1999/xlink">
<rect x="68.8817" y="0" width="662.237" height="800" style="fill-opacity:0;fill:rgb(255,255,255);stroke:rgb(0,0,0);stroke-width:1"/>
<g fill-rule="evenodd"><path d="M 363.619,210.497 L 68.8817,210.708 L 68.8817,505.234 L 363.619,505.234 L 363.619,210.497 z " style="fill-opacity:0.3;fill:rgb(250,150,50);stroke:rgb(0,0,0);stroke-width:1"/></g>
<g fill-rule="evenodd"><path d="M 258.358,505.253 L 68.8846,505.463 L 68.8846,799.99 L 258.358,799.99 L 258.358,505.253 z " style="fill-opacity:0.3;fill:rgb(250,150,50);stroke:rgb(0,0,0);stroke-width:1"/></g>
<g fill-rule="evenodd"><path d="M 731.04,556.846 L 520.514,472.636 L 520.514,767.372 L 731.04,767.372 L 731.04,556.846 z " style="fill-opacity:0.3;fill:rgb(250,150,50);stroke:rgb(0,0,0);stroke-width:1"/></g>
<g fill-rule="evenodd"><path d="M 279.431,0.0259992 L 68.905,0.0259992 L 68.905,210.552 L 279.431,210.552 L 279.431,0.0259992 z " style="fill-opacity:0.3;fill:rgb(250,150,50);stroke:rgb(0,0,0);stroke-width:1"/></g>
<g fill-rule="evenodd"><path d="M 489.961,210.342 L 489.961,0.02579 L 279.435,0.02579 L 279.435,210.552 L 489.961,210.342 z " style="fill-opacity:0.3;fill:rgb(250,150,50);stroke:rgb(0,0,0);stroke-width:1"/></g>
<g fill-rule="evenodd"><path d="M 258.358,505.263 L 258.358,800 L 553.095,800 L 258.358,505.263 z " style="fill-opacity:0.3;fill:rgb(250,150,50);stroke:rgb(0,0,0);stroke-width:1"/></g>
<g fill-rule="evenodd"><path d="M 731.117,87.3722 L 478.485,234.951 L 731.117,382.109 L 731.117,87.3722 z " style="fill-opacity:0.3;fill:rgb(250,150,50);stroke:rgb(0,0,0);stroke-width:1"/></g>
<g fill-rule="evenodd"><path d="M 700.488,105.263 L 700.488,0.000319983 L 489.962,0.000319983 L 489.962,189.474 L 700.488,105.263 z " style="fill-opacity:0.3;fill:rgb(250,150,50);stroke:rgb(0,0,0);stroke-width:1"/></g>
<g fill-rule="evenodd"><path d="M 658.36,383.68 L 363.623,383.68 L 363.623,573.153 L 658.36,383.68 z " style="fill-opacity:0.3;fill:rgb(250,150,50);stroke:rgb(0,0,0);stroke-width:1"/></g>
<g fill-rule="evenodd"><path d="M 520.458,472.416 L 373.09,619.995 L 520.458,767.152 L 520.458,472.416 z " style="fill-opacity:0.3;fill:rgb(250,150,50);stroke:rgb(0,0,0);stroke-width:1"/></g>
<g fill-rule="evenodd"><path d="M 553.092,278.41 L 363.619,278.621 L 363.619,383.673 L 553.092,383.673 L 553.092,278.41 z " style="fill-opacity:0.3;fill:rgb(250,150,50);stroke:rgb(0,0,0);stroke-width:1"/></g>
<g fill-rule="evenodd"><path d="M 704.78,377.9 L 536.359,462.11 L 704.78,546.321 L 704.78,377.9 z " style="fill-opacity:0.3;fill:rgb(250,150,50);stroke:rgb(0,0,0);stroke-width:1"/></g>
</svg>
