<?xml version="1.0" standalone="no"?>
<!DOCTYPE svg PUBLIC "-//W3C//DTD SVG 1.1//EN"
"http://www.w3.org/Graphics/SVG/1.1/DTD/svg11.dtd">
<svg width="100%" height="100%" version="1.1"
xmlns="http://www.w3.org/2000/svg"
xmlns:xlink="http://www.w3.org/1999/xlink">
<rect x="52.9664" y="0" width="694.067" height="800" style="fill-opacity:0;fill:rgb(255,255,255);stroke:rgb(0,0,0);stroke-width:1"/>
<g fill-rule="evenodd"><path d="M 747.023,294.737 L 452.286,294.947 L 452.286,589.474 L 747.023,589.474 L 747.023,294.737 z " style="fill-opacity:0.3;fill:rgb(250,150,50);stroke:rgb(0,0,0);stroke-width:1"/></g>
<g fill-rule="evenodd"><path d="M 747.026,-1.49943e-06 L 557.552,-1.49943e-06 L 557.552,294.737 L 747.026,294.737 L 747.026,-1.49943e-06 z " style="fill-opacity:0.3;fill:rgb(250,150,50);stroke:rgb(0,0,0);stroke-width:1"/></g>
<g fill-rule="evenodd"><path d="M 747.027,589.474 L 536.5,589.684 L 452.29,800 L 747.027,800 L 747.027,589.474 z " style="fill-opacity:0.3;fill:rgb(250,150,50);stroke:rgb(0,0,0);stroke-width:1"/></g>
<g fill-rule="evenodd"><path d="M 263.493,6.78896 L 52.9664,6.78896 L 52.9664,217.315 L 263.493,217.315 L 263.493,6.78896 z " style="fill-opacity:0.3;fill:rgb(250,150,50);stroke:rgb(0,0,0);stroke-width:1"/></g>
<g fill-rule="evenodd"><path d="M 349.48,799.787 L 349.48,589.472 L 138.953,589.472 L 138.953,799.998 L 349.48,799.787 z " style="fill-opacity:0.3;fill:rgb(250,150,50);stroke:rgb(0,0,0);stroke-width:1"/></g>
<g fill-rule="evenodd"><path d="M 557.547,0.00244882 L 262.81,0.212975 L 557.547,294.739 L 557.547,0.00244882 z " style="fill-opacity:0.3;fill:rgb(250,150,50);stroke:rgb(0,0,0);stroke-width:1"/></g>
<g fill-rule="evenodd"><path d="M 516.126,253.348 L 263.494,106.19 L 263.494,400.927 L 516.126,253.348 z " style="fill-opacity:0.3;fill:rgb(250,150,50);stroke:rgb(0,0,0);stroke-width:1"/></g>
<g fill-rule="evenodd"><path d="M 263.493,323.196 L 263.493,217.933 L 52.9664,217.933 L 52.9664,407.407 L 263.493,323.196 z " style="fill-opacity:0.3;fill:rgb(250,150,50);stroke:rgb(0,0,0);stroke-width:1"/></g>
<g fill-rule="evenodd"><path d="M 452.284,399.988 L 157.547,589.461 L 452.284,589.461 L 452.284,399.988 z " style="fill-opacity:0.3;fill:rgb(250,150,50);stroke:rgb(0,0,0);stroke-width:1"/></g>
<g fill-rule="evenodd"><path d="M 368.713,400.931 L 73.976,400.931 L 221.555,548.3 L 368.713,400.931 z " style="fill-opacity:0.3;fill:rgb(250,150,50);stroke:rgb(0,0,0);stroke-width:1"/></g>
<g fill-rule="evenodd"><path d="M 454.744,604.387 L 349.481,604.387 L 349.481,793.861 L 454.744,793.861 L 454.744,604.387 z " style="fill-opacity:0.3;fill:rgb(250,150,50);stroke:rgb(0,0,0);stroke-width:1"/></g>
<g fill-rule="evenodd"><path d="M 221.429,548.183 L 53.0081,464.183 L 53.0081,632.393 L 221.429,548.183 z " style="fill-opacity:0.3;fill:rgb(250,150,50);stroke:rgb(0,0,0);stroke-width:1"/></g>
</svg>
