<?xml version="1.0" standalone="no"?>
<!DOCTYPE svg PUBLIC "-//W3C//DTD SVG 1.1//EN"
"http://www.w3.org/Graphics/SVG/1.1/DTD/svg11.dtd">
<svg width="100%" height="100%" version="1.1"
xmlns="http://www.w3.org/2000/svg"
xmlns:xlink="http://www.w3.org/1999/xlink">
<rect x="260.462" y="0" width="279.076" height="800" style="fill-opacity:0;fill:rgb(255,255,255);stroke:rgb(0,0,0);stroke-width:1"/>
<g fill-rule="evenodd"><path d="M 536.747,125.696 L 399.604,125.81 L 399.604,262.839 L 536.747,262.839 L 536.747,125.696 z " style="fill-opacity:0.3;fill:rgb(250,150,50);stroke:rgb(0,0,0);stroke-width:1"/></g>
<g fill-rule="evenodd"><path d="M 538.656,502.866 L 424.37,502.98 L 424.37,617.152 L 538.656,617.152 L 538.656,502.866 z " style="fill-opacity:0.3;fill:rgb(250,150,50);stroke:rgb(0,0,0);stroke-width:1"/></g>
<g fill-rule="evenodd"><path d="M 482.583,694.778 L 414.012,603.349 L 345.44,694.778 L 414.012,786.207 L 482.583,694.778 z " style="fill-opacity:0.3;fill:rgb(250,150,50);stroke:rgb(0,0,0);stroke-width:1"/></g>
<g fill-rule="evenodd"><path d="M 433.917,377.194 L 433.917,263.023 L 376.775,263.023 L 376.775,320.052 L 319.632,320.166 L 319.632,377.309 L 433.917,377.194 z " style="fill-opacity:0.3;fill:rgb(250,150,50);stroke:rgb(0,0,0);stroke-width:1"/></g>
<g fill-rule="evenodd"><path d="M 397.851,487.751 L 260.708,556.437 L 397.851,624.894 L 397.851,487.751 z " style="fill-opacity:0.3;fill:rgb(250,150,50);stroke:rgb(0,0,0);stroke-width:1"/></g>
<g fill-rule="evenodd"><path d="M 397.639,487.856 L 260.497,419.399 L 260.497,556.427 L 397.639,487.856 z " style="fill-opacity:0.3;fill:rgb(250,150,50);stroke:rgb(0,0,0);stroke-width:1"/></g>
<g fill-rule="evenodd"><path d="M 283.386,261.417 L 351.957,261.417 L 374.814,284.16 L 374.814,169.988 L 351.957,192.731 L 283.386,192.845 L 260.528,169.988 L 260.528,284.274 L 283.386,261.417 z " style="fill-opacity:0.3;fill:rgb(250,150,50);stroke:rgb(0,0,0);stroke-width:1"/></g>
<g fill-rule="evenodd"><path d="M 525.584,262.858 L 434.156,262.858 L 434.27,354.287 L 525.584,354.287 L 525.584,262.858 z " style="fill-opacity:0.3;fill:rgb(250,150,50);stroke:rgb(0,0,0);stroke-width:1"/></g>
<g fill-rule="evenodd"><path d="M 446.866,0.113367 L 332.58,0.227653 L 332.58,23.0848 L 424.009,22.9705 L 424.009,91.6562 L 332.58,91.6562 L 332.58,114.399 L 446.866,114.399 L 446.866,0.113367 z " style="fill-opacity:0.3;fill:rgb(250,150,50);stroke:rgb(0,0,0);stroke-width:1"/></g>
<g fill-rule="evenodd"><path d="M 351.945,169.917 L 351.945,124.203 L 306.23,101.346 L 260.516,124.203 L 260.516,169.917 L 283.373,192.774 L 329.087,192.774 L 351.945,169.917 z " style="fill-opacity:0.3;fill:rgb(250,150,50);stroke:rgb(0,0,0);stroke-width:1"/></g>
<g fill-rule="evenodd"><path d="M 538.685,617.191 L 424.399,617.191 L 538.685,731.477 L 538.685,617.191 z " style="fill-opacity:0.3;fill:rgb(250,150,50);stroke:rgb(0,0,0);stroke-width:1"/></g>
<g fill-rule="evenodd"><path d="M 374.866,613.423 L 260.58,556.394 L 260.58,670.566 L 374.866,613.423 z " style="fill-opacity:0.3;fill:rgb(250,150,50);stroke:rgb(0,0,0);stroke-width:1"/></g>
<g fill-rule="evenodd"><path d="M 351.896,716.336 L 306.182,647.765 L 260.468,716.336 L 306.182,784.908 L 351.896,716.336 z " style="fill-opacity:0.3;fill:rgb(250,150,50);stroke:rgb(0,0,0);stroke-width:1"/></g>
<g fill-rule="evenodd"><path d="M 317.558,318.716 L 363.272,318.602 L 363.272,272.888 L 271.843,273.002 L 271.843,364.316 L 317.558,364.316 L 317.558,318.716 z " style="fill-opacity:0.3;fill:rgb(250,150,50);stroke:rgb(0,0,0);stroke-width:1"/></g>
<g fill-rule="evenodd"><path d="M 352.008,45.7304 L 306.408,45.7304 L 306.294,0.0161054 L 260.58,0.0161054 L 260.694,91.4447 L 352.008,91.4447 L 352.008,45.7304 z " style="fill-opacity:0.3;fill:rgb(250,150,50);stroke:rgb(0,0,0);stroke-width:1"/></g>
<g fill-rule="evenodd"><path d="M 538.014,742.839 L 492.3,685.696 L 446.7,742.839 L 492.414,799.982 L 538.014,742.839 z " style="fill-opacity:0.3;fill:rgb(250,150,50);stroke:rgb(0,0,0);stroke-width:1"/></g>
<g fill-rule="evenodd"><path d="M 538.66,411.549 L 515.803,434.292 L 470.089,434.406 L 447.232,411.549 L 447.232,502.977 L 470.089,480.12 L 515.803,480.12 L 538.66,502.977 L 538.66,411.549 z " style="fill-opacity:0.3;fill:rgb(250,150,50);stroke:rgb(0,0,0);stroke-width:1"/></g>
<g fill-rule="evenodd"><path d="M 469.74,22.8841 L 515.569,22.8841 L 515.569,91.4556 L 538.312,91.4556 L 538.312,0.0269878 L 446.883,0.0269878 L 446.997,91.4556 L 469.855,91.4556 L 469.74,22.8841 z " style="fill-opacity:0.3;fill:rgb(250,150,50);stroke:rgb(0,0,0);stroke-width:1"/></g>
<g fill-rule="evenodd"><path d="M 390.788,392.92 L 299.36,438.749 L 390.788,484.349 L 390.788,392.92 z " style="fill-opacity:0.3;fill:rgb(250,150,50);stroke:rgb(0,0,0);stroke-width:1"/></g>
<g fill-rule="evenodd"><path d="M 355.784,708.571 L 310.07,800 L 401.498,800 L 355.784,708.571 z " style="fill-opacity:0.3;fill:rgb(250,150,50);stroke:rgb(0,0,0);stroke-width:1"/></g>
<g fill-rule="evenodd"><path d="M 420.925,23.0144 L 352.353,23.1287 L 352.353,45.9858 L 398.068,45.9858 L 398.068,68.8429 L 352.353,68.8429 L 352.353,91.5858 L 420.925,91.5858 L 420.925,23.0144 z " style="fill-opacity:0.3;fill:rgb(250,150,50);stroke:rgb(0,0,0);stroke-width:1"/></g>
<g fill-rule="evenodd"><path d="M 515.455,57.1267 L 481.169,57.1267 L 481.169,91.5267 L 446.883,91.5267 L 446.883,125.698 L 515.455,125.698 L 515.455,57.1267 z " style="fill-opacity:0.3;fill:rgb(250,150,50);stroke:rgb(0,0,0);stroke-width:1"/></g>
<g fill-rule="evenodd"><path d="M 425.19,411.534 L 459.475,411.42 L 459.475,377.249 L 390.904,377.249 L 390.904,445.82 L 425.19,445.82 L 425.19,411.534 z " style="fill-opacity:0.3;fill:rgb(250,150,50);stroke:rgb(0,0,0);stroke-width:1"/></g>
<g fill-rule="evenodd"><path d="M 333.786,398.532 L 310.929,364.361 L 288.072,364.361 L 265.214,387.218 L 265.214,410.075 L 288.072,432.932 L 310.929,432.932 L 333.786,398.532 z " style="fill-opacity:0.3;fill:rgb(250,150,50);stroke:rgb(0,0,0);stroke-width:1"/></g>
<g fill-rule="evenodd"><path d="M 504.34,400.068 L 504.34,377.211 L 527.197,354.354 L 458.626,354.354 L 481.483,377.211 L 481.483,400.068 L 458.626,422.926 L 527.197,422.926 L 504.34,400.068 z " style="fill-opacity:0.3;fill:rgb(250,150,50);stroke:rgb(0,0,0);stroke-width:1"/></g>
</svg>
