<?xml version="1.0" standalone="no"?>
<!DOCTYPE svg PUBLIC "-//W3C//DTD SVG 1.1//EN"
"http://www.w3.org/Graphics/SVG/1.1/DTD/svg11.dtd">
<svg width="100%" height="100%" version="1.1"
xmlns="http://www.w3.org/2000/svg"
xmlns:xlink="http://www.w3.org/1999/xlink">
<rect x="289.388" y="0" width="221.225" height="800" style="fill-opacity:0;fill:rgb(255,255,255);stroke:rgb(0,0,0);stroke-width:1"/>
<g fill-rule="evenodd"><path d="M 449.458,699.999 L 449.458,659.999 L 389.458,619.999 L 329.458,619.999 L 289.458,659.999 L 289.458,699.999 L 329.658,739.999 L 389.658,739.999 L 449.458,699.999 z " style="fill-opacity:0.3;fill:rgb(250,150,50);stroke:rgb(0,0,0);stroke-width:1"/></g>
<g fill-rule="evenodd"><path d="M 429.41,499.998 L 309.41,500.198 L 309.41,619.998 L 429.41,619.998 L 429.41,499.998 z " style="fill-opacity:0.3;fill:rgb(250,150,50);stroke:rgb(0,0,0);stroke-width:1"/></g>
<g fill-rule="evenodd"><path d="M 409.584,320.028 L 369.584,320.028 L 369.584,260.028 L 289.584,260.028 L 289.584,380.028 L 409.584,380.028 L 409.584,320.028 z " style="fill-opacity:0.3;fill:rgb(250,150,50);stroke:rgb(0,0,0);stroke-width:1"/></g>
<g fill-rule="evenodd"><path d="M 409.506,440.031 L 369.506,440.031 L 369.506,380.031 L 289.506,380.031 L 289.506,500.031 L 409.506,500.031 L 409.506,440.031 z " style="fill-opacity:0.3;fill:rgb(250,150,50);stroke:rgb(0,0,0);stroke-width:1"/></g>
<g fill-rule="evenodd"><path d="M 409.391,80 L 409.391,40 L 369.391,3.35428e-05 L 329.391,0.200034 L 289.391,40.2 L 289.391,80.2 L 329.391,120 L 369.391,120 L 409.391,80 z " style="fill-opacity:0.3;fill:rgb(250,150,50);stroke:rgb(0,0,0);stroke-width:1"/></g>
<g fill-rule="evenodd"><path d="M 510.298,219.823 L 510.298,120.023 L 410.298,120.023 L 410.298,220.023 L 510.298,219.823 z " style="fill-opacity:0.3;fill:rgb(250,150,50);stroke:rgb(0,0,0);stroke-width:1"/></g>
<g fill-rule="evenodd"><path d="M 510.088,220.026 L 450.088,220.226 L 450.088,260.226 L 410.088,260.226 L 410.088,320.026 L 510.088,320.026 L 510.088,220.026 z " style="fill-opacity:0.3;fill:rgb(250,150,50);stroke:rgb(0,0,0);stroke-width:1"/></g>
<g fill-rule="evenodd"><path d="M 449.872,440.031 L 489.672,440.031 L 489.672,400.031 L 449.872,400.031 L 449.672,360.031 L 409.672,360.031 L 409.672,400.031 L 369.672,400.031 L 369.672,440.031 L 409.872,440.031 L 409.872,480.031 L 449.872,480.031 L 449.872,440.031 z " style="fill-opacity:0.3;fill:rgb(250,150,50);stroke:rgb(0,0,0);stroke-width:1"/></g>
<g fill-rule="evenodd"><path d="M 409.713,260.025 L 449.713,260.025 L 449.713,220.025 L 409.713,220.025 L 409.713,180.025 L 369.713,180.025 L 369.713,220.025 L 329.713,220.025 L 329.713,260.025 L 369.713,260.025 L 369.713,300.025 L 409.713,300.025 L 409.713,260.025 z " style="fill-opacity:0.3;fill:rgb(250,150,50);stroke:rgb(0,0,0);stroke-width:1"/></g>
<g fill-rule="evenodd"><path d="M 510.28,679.923 L 450.28,679.923 L 450.28,799.923 L 510.28,799.923 L 510.28,679.923 z " style="fill-opacity:0.3;fill:rgb(250,150,50);stroke:rgb(0,0,0);stroke-width:1"/></g>
<g fill-rule="evenodd"><path d="M 509.744,0.0186516 L 429.744,0.0186516 L 429.944,80.0187 L 509.744,80.0187 L 509.744,0.0186516 z " style="fill-opacity:0.3;fill:rgb(250,150,50);stroke:rgb(0,0,0);stroke-width:1"/></g>
<g fill-rule="evenodd"><path d="M 409.793,160.015 L 409.793,140.015 L 369.793,120.015 L 329.793,120.015 L 289.793,140.015 L 289.793,160.015 L 329.793,180.015 L 369.793,180.015 L 409.793,160.015 z " style="fill-opacity:0.3;fill:rgb(250,150,50);stroke:rgb(0,0,0);stroke-width:1"/></g>
<g fill-rule="evenodd"><path d="M 509.421,501.733 L 429.421,501.933 L 429.421,641.733 L 509.421,501.733 z " style="fill-opacity:0.3;fill:rgb(250,150,50);stroke:rgb(0,0,0);stroke-width:1"/></g>
<g fill-rule="evenodd"><path d="M 289.405,699.982 L 289.605,799.982 L 389.405,799.982 L 289.405,699.982 z " style="fill-opacity:0.3;fill:rgb(250,150,50);stroke:rgb(0,0,0);stroke-width:1"/></g>
<g fill-rule="evenodd"><path d="M 309.69,220.017 L 369.69,219.817 L 369.69,180.017 L 289.69,180.017 L 289.69,260.017 L 309.69,260.017 L 309.69,220.017 z " style="fill-opacity:0.3;fill:rgb(250,150,50);stroke:rgb(0,0,0);stroke-width:1"/></g>
<g fill-rule="evenodd"><path d="M 509.368,80.0233 L 409.368,80.0233 L 409.368,120.023 L 509.368,120.023 L 509.368,80.0233 z " style="fill-opacity:0.3;fill:rgb(250,150,50);stroke:rgb(0,0,0);stroke-width:1"/></g>
<g fill-rule="evenodd"><path d="M 510.606,499.4 L 450.606,619.4 L 510.606,619.4 L 510.606,499.4 z " style="fill-opacity:0.3;fill:rgb(250,150,50);stroke:rgb(0,0,0);stroke-width:1"/></g>
<g fill-rule="evenodd"><path d="M 509.421,421.733 L 429.421,501.733 L 509.421,501.733 L 509.421,421.733 z " style="fill-opacity:0.3;fill:rgb(250,150,50);stroke:rgb(0,0,0);stroke-width:1"/></g>
<g fill-rule="evenodd"><path d="M 450.023,340.029 L 510.023,340.029 L 510.023,320.029 L 410.023,320.029 L 410.023,360.029 L 450.023,360.029 L 450.023,340.029 z " style="fill-opacity:0.3;fill:rgb(250,150,50);stroke:rgb(0,0,0);stroke-width:1"/></g>
<g fill-rule="evenodd"><path d="M 429.619,0.0127769 L 389.619,0.212777 L 389.619,20.2128 L 409.619,20.0128 L 409.619,80.0128 L 429.619,80.0128 L 429.619,0.0127769 z " style="fill-opacity:0.3;fill:rgb(250,150,50);stroke:rgb(0,0,0);stroke-width:1"/></g>
<g fill-rule="evenodd"><path d="M 409.494,779.999 L 429.494,779.999 L 429.494,759.999 L 409.494,759.999 L 409.494,739.999 L 389.494,739.999 L 389.494,759.999 L 369.494,759.999 L 369.494,779.999 L 389.494,779.999 L 389.494,799.999 L 409.494,799.999 L 409.494,779.999 z " style="fill-opacity:0.3;fill:rgb(250,150,50);stroke:rgb(0,0,0);stroke-width:1"/></g>
<g fill-rule="evenodd"><path d="M 489.054,659.616 L 509.054,659.416 L 509.054,639.416 L 489.054,639.616 L 489.054,619.416 L 469.054,619.616 L 469.054,639.616 L 449.054,639.616 L 449.054,659.616 L 469.054,659.616 L 469.054,679.416 L 489.054,679.416 L 489.054,659.616 z " style="fill-opacity:0.3;fill:rgb(250,150,50);stroke:rgb(0,0,0);stroke-width:1"/></g>
<g fill-rule="evenodd"><path d="M 510.032,340.03 L 450.032,340.03 L 450.032,400.03 L 510.032,340.03 z " style="fill-opacity:0.3;fill:rgb(250,150,50);stroke:rgb(0,0,0);stroke-width:1"/></g>
<g fill-rule="evenodd"><path d="M 309.395,559.943 L 289.395,559.943 L 289.395,639.943 L 309.395,639.943 L 309.395,559.943 z " style="fill-opacity:0.3;fill:rgb(250,150,50);stroke:rgb(0,0,0);stroke-width:1"/></g>
<g fill-rule="evenodd"><path d="M 490.149,359.935 L 450.149,399.935 L 490.149,399.935 L 490.149,359.935 z " style="fill-opacity:0.3;fill:rgb(250,150,50);stroke:rgb(0,0,0);stroke-width:1"/></g>
</svg>
