<?xml version="1.0" standalone="no"?>
<!DOCTYPE svg PUBLIC "-//W3C//DTD SVG 1.1//EN"
"http://www.w3.org/Graphics/SVG/1.1/DTD/svg11.dtd">
<svg width="100%" height="100%" version="1.1"
xmlns="http://www.w3.org/2000/svg"
xmlns:xlink="http://www.w3.org/1999/xlink">
<rect x="279.978" y="0" width="240.044" height="800" style="fill-opacity:0;fill:rgb(255,255,255);stroke:rgb(0,0,0);stroke-width:1"/>
<g fill-rule="evenodd"><path d="M 520.017,80.0001 L 520.017,40.0001 L 460.017,0.000125669 L 400.017,0.000125669 L 360.017,40.0001 L 360.017,80.0001 L 400.217,120 L 460.217,120 L 520.017,80.0001 z " style="fill-opacity:0.3;fill:rgb(250,150,50);stroke:rgb(0,0,0);stroke-width:1"/></g>
<g fill-rule="evenodd"><path d="M 399.983,559.928 L 279.983,559.928 L 279.983,679.928 L 399.983,679.928 L 399.983,559.928 z " style="fill-opacity:0.3;fill:rgb(250,150,50);stroke:rgb(0,0,0);stroke-width:1"/></g>
<g fill-rule="evenodd"><path d="M 459.986,740 L 419.986,740 L 419.986,680 L 339.986,680 L 339.986,800 L 459.986,800 L 459.986,740 z " style="fill-opacity:0.3;fill:rgb(250,150,50);stroke:rgb(0,0,0);stroke-width:1"/></g>
<g fill-rule="evenodd"><path d="M 339.979,358.614 L 399.979,358.414 L 399.979,278.614 L 279.979,278.614 L 279.979,398.614 L 339.979,398.614 L 339.979,358.614 z " style="fill-opacity:0.3;fill:rgb(250,150,50);stroke:rgb(0,0,0);stroke-width:1"/></g>
<g fill-rule="evenodd"><path d="M 404.226,167.724 L 404.226,127.724 L 364.226,87.7236 L 324.226,87.9236 L 284.226,127.924 L 284.226,167.924 L 324.226,207.724 L 364.226,207.724 L 404.226,167.724 z " style="fill-opacity:0.3;fill:rgb(250,150,50);stroke:rgb(0,0,0);stroke-width:1"/></g>
<g fill-rule="evenodd"><path d="M 520.022,119.885 L 420.022,120.085 L 420.022,219.885 L 520.022,219.885 L 520.022,119.885 z " style="fill-opacity:0.3;fill:rgb(250,150,50);stroke:rgb(0,0,0);stroke-width:1"/></g>
<g fill-rule="evenodd"><path d="M 459.988,640 L 499.988,639.8 L 499.988,580 L 399.988,580 L 399.988,680 L 459.988,680 L 459.988,640 z " style="fill-opacity:0.3;fill:rgb(250,150,50);stroke:rgb(0,0,0);stroke-width:1"/></g>
<g fill-rule="evenodd"><path d="M 420.658,519.868 L 460.658,519.868 L 460.658,479.868 L 420.658,479.868 L 420.658,439.868 L 380.658,439.868 L 380.658,479.868 L 340.658,479.868 L 340.658,519.868 L 380.658,519.868 L 380.658,559.868 L 420.658,559.868 L 420.658,519.868 z " style="fill-opacity:0.3;fill:rgb(250,150,50);stroke:rgb(0,0,0);stroke-width:1"/></g>
<g fill-rule="evenodd"><path d="M 380.512,439.868 L 420.312,439.868 L 420.312,399.868 L 380.512,399.868 L 380.312,359.868 L 340.312,359.868 L 340.312,399.868 L 300.312,399.868 L 300.312,439.868 L 340.512,439.868 L 340.512,479.868 L 380.512,479.868 L 380.512,439.868 z " style="fill-opacity:0.3;fill:rgb(250,150,50);stroke:rgb(0,0,0);stroke-width:1"/></g>
<g fill-rule="evenodd"><path d="M 340.002,439.879 L 280.002,439.879 L 280.002,559.879 L 340.002,559.879 L 340.002,439.879 z " style="fill-opacity:0.3;fill:rgb(250,150,50);stroke:rgb(0,0,0);stroke-width:1"/></g>
<g fill-rule="evenodd"><path d="M 359.997,2.6464 L 279.997,2.6464 L 280.197,82.6464 L 359.997,82.6464 L 359.997,2.6464 z " style="fill-opacity:0.3;fill:rgb(250,150,50);stroke:rgb(0,0,0);stroke-width:1"/></g>
<g fill-rule="evenodd"><path d="M 399.979,258.387 L 399.979,238.387 L 359.979,218.387 L 319.979,218.387 L 279.979,238.387 L 279.979,258.387 L 319.979,278.387 L 359.979,278.387 L 399.979,258.387 z " style="fill-opacity:0.3;fill:rgb(250,150,50);stroke:rgb(0,0,0);stroke-width:1"/></g>
<g fill-rule="evenodd"><path d="M 520.016,219.886 L 380.016,219.886 L 520.016,299.886 L 520.016,219.886 z " style="fill-opacity:0.3;fill:rgb(250,150,50);stroke:rgb(0,0,0);stroke-width:1"/></g>
<g fill-rule="evenodd"><path d="M 520.009,719.835 L 520.009,620.035 L 420.009,720.035 L 520.009,719.835 z " style="fill-opacity:0.3;fill:rgb(250,150,50);stroke:rgb(0,0,0);stroke-width:1"/></g>
<g fill-rule="evenodd"><path d="M 501.201,439.996 L 421.201,439.996 L 421.201,459.996 L 461.201,459.996 L 461.401,519.996 L 501.201,519.996 L 501.201,439.996 z " style="fill-opacity:0.3;fill:rgb(250,150,50);stroke:rgb(0,0,0);stroke-width:1"/></g>
<g fill-rule="evenodd"><path d="M 502.096,299.868 L 402.096,299.868 L 402.096,339.868 L 502.096,339.868 L 502.096,299.868 z " style="fill-opacity:0.3;fill:rgb(250,150,50);stroke:rgb(0,0,0);stroke-width:1"/></g>
<g fill-rule="evenodd"><path d="M 399.979,239.868 L 399.979,299.868 L 519.979,299.868 L 399.979,239.868 z " style="fill-opacity:0.3;fill:rgb(250,150,50);stroke:rgb(0,0,0);stroke-width:1"/></g>
<g fill-rule="evenodd"><path d="M 519.983,719.995 L 439.983,719.995 L 519.983,799.995 L 519.983,719.995 z " style="fill-opacity:0.3;fill:rgb(250,150,50);stroke:rgb(0,0,0);stroke-width:1"/></g>
<g fill-rule="evenodd"><path d="M 519.435,540 L 479.435,540 L 479.435,560 L 419.435,560 L 419.435,580 L 519.435,580 L 519.435,540 z " style="fill-opacity:0.3;fill:rgb(250,150,50);stroke:rgb(0,0,0);stroke-width:1"/></g>
<g fill-rule="evenodd"><path d="M 441.25,540 L 501.25,540 L 501.25,520 L 421.25,520 L 421.25,560 L 441.25,560 L 441.25,540 z " style="fill-opacity:0.3;fill:rgb(250,150,50);stroke:rgb(0,0,0);stroke-width:1"/></g>
<g fill-rule="evenodd"><path d="M 319.979,727.511 L 339.979,727.511 L 339.979,707.511 L 319.979,707.511 L 319.979,687.511 L 299.979,687.511 L 299.979,707.511 L 279.979,707.511 L 279.979,727.511 L 299.979,727.511 L 299.979,747.511 L 319.979,747.511 L 319.979,727.511 z " style="fill-opacity:0.3;fill:rgb(250,150,50);stroke:rgb(0,0,0);stroke-width:1"/></g>
<g fill-rule="evenodd"><path d="M 498.73,379.868 L 518.53,379.868 L 518.53,359.868 L 498.73,359.868 L 498.53,339.868 L 478.53,339.868 L 478.53,359.868 L 458.53,359.868 L 458.53,379.868 L 478.73,379.868 L 478.73,399.868 L 498.73,399.868 L 498.73,379.868 z " style="fill-opacity:0.3;fill:rgb(250,150,50);stroke:rgb(0,0,0);stroke-width:1"/></g>
<g fill-rule="evenodd"><path d="M 279.978,740 L 279.978,800 L 339.978,800 L 279.978,740 z " style="fill-opacity:0.3;fill:rgb(250,150,50);stroke:rgb(0,0,0);stroke-width:1"/></g>
<g fill-rule="evenodd"><path d="M 478.58,399.668 L 478.58,379.868 L 398.58,379.868 L 398.58,399.868 L 478.58,399.668 z " style="fill-opacity:0.3;fill:rgb(250,150,50);stroke:rgb(0,0,0);stroke-width:1"/></g>
<g fill-rule="evenodd"><path d="M 421.204,399.992 L 421.204,439.992 L 461.204,439.992 L 421.204,399.992 z " style="fill-opacity:0.3;fill:rgb(250,150,50);stroke:rgb(0,0,0);stroke-width:1"/></g>
</svg>
