<?xml version="1.0" standalone="no"?>
<!DOCTYPE svg PUBLIC "-//W3C//DTD SVG 1.1//EN"
"http://www.w3.org/Graphics/SVG/1.1/DTD/svg11.dtd">
<svg width="100%" height="100%" version="1.1"
xmlns="http://www.w3.org/2000/svg"
xmlns:xlink="http://www.w3.org/1999/xlink">
<rect x="279.364" y="0" width="241.272" height="800" style="fill-opacity:0;fill:rgb(255,255,255);stroke:rgb(0,0,0);stroke-width:1"/>
<g fill-rule="evenodd"><path d="M 400.638,555.703 L 400.638,495.703 L 360.638,455.703 L 320.638,455.903 L 280.638,495.903 L 280.638,555.903 L 320.638,615.703 L 360.638,615.703 L 400.638,555.703 z " style="fill-opacity:0.3;fill:rgb(250,150,50);stroke:rgb(0,0,0);stroke-width:1"/></g>
<g fill-rule="evenodd"><path d="M 520.636,600.45 L 400.636,600.65 L 400.636,720.45 L 520.636,720.45 L 520.636,600.45 z " style="fill-opacity:0.3;fill:rgb(250,150,50);stroke:rgb(0,0,0);stroke-width:1"/></g>
<g fill-rule="evenodd"><path d="M 399.429,395.585 L 359.429,395.585 L 359.429,335.585 L 279.429,335.585 L 279.429,455.585 L 399.429,455.585 L 399.429,395.585 z " style="fill-opacity:0.3;fill:rgb(250,150,50);stroke:rgb(0,0,0);stroke-width:1"/></g>
<g fill-rule="evenodd"><path d="M 499.364,0.00209947 L 379.364,0.00209947 L 379.364,60.0021 L 419.564,60.0021 L 419.564,120.002 L 499.364,120.002 L 499.364,0.00209947 z " style="fill-opacity:0.3;fill:rgb(250,150,50);stroke:rgb(0,0,0);stroke-width:1"/></g>
<g fill-rule="evenodd"><path d="M 405.777,200.475 L 405.777,160.475 L 365.777,120.475 L 325.777,120.475 L 285.777,160.475 L 285.777,200.475 L 325.777,240.475 L 365.777,240.475 L 405.777,200.475 z " style="fill-opacity:0.3;fill:rgb(250,150,50);stroke:rgb(0,0,0);stroke-width:1"/></g>
<g fill-rule="evenodd"><path d="M 379.613,699.063 L 279.613,699.063 L 279.613,799.063 L 379.613,799.063 L 379.613,699.063 z " style="fill-opacity:0.3;fill:rgb(250,150,50);stroke:rgb(0,0,0);stroke-width:1"/></g>
<g fill-rule="evenodd"><path d="M 520.636,119.944 L 460.636,120.144 L 460.636,160.144 L 420.636,160.144 L 420.636,219.944 L 520.636,219.944 L 520.636,119.944 z " style="fill-opacity:0.3;fill:rgb(250,150,50);stroke:rgb(0,0,0);stroke-width:1"/></g>
<g fill-rule="evenodd"><path d="M 439.478,380.152 L 479.478,379.952 L 479.478,339.952 L 439.478,339.952 L 439.478,300.152 L 399.478,300.152 L 399.478,340.152 L 359.478,340.152 L 359.478,380.152 L 399.478,380.152 L 399.478,420.152 L 439.478,420.152 L 439.478,380.152 z " style="fill-opacity:0.3;fill:rgb(250,150,50);stroke:rgb(0,0,0);stroke-width:1"/></g>
<g fill-rule="evenodd"><path d="M 479.752,299.952 L 519.552,299.952 L 519.552,259.952 L 479.752,259.952 L 479.552,219.952 L 439.552,219.952 L 439.552,259.952 L 399.552,259.952 L 399.552,299.952 L 439.752,299.952 L 439.752,339.952 L 479.752,339.952 L 479.752,299.952 z " style="fill-opacity:0.3;fill:rgb(250,150,50);stroke:rgb(0,0,0);stroke-width:1"/></g>
<g fill-rule="evenodd"><path d="M 359.364,0.475192 L 299.364,0.475192 L 299.364,120.475 L 359.364,120.475 L 359.364,0.475192 z " style="fill-opacity:0.3;fill:rgb(250,150,50);stroke:rgb(0,0,0);stroke-width:1"/></g>
<g fill-rule="evenodd"><path d="M 399.46,242.784 L 319.46,242.984 L 319.46,322.784 L 399.46,322.784 L 399.46,242.784 z " style="fill-opacity:0.3;fill:rgb(250,150,50);stroke:rgb(0,0,0);stroke-width:1"/></g>
<g fill-rule="evenodd"><path d="M 499.757,760.524 L 499.757,740.524 L 459.757,720.524 L 419.757,720.524 L 379.757,740.524 L 379.757,760.524 L 419.757,780.524 L 459.757,780.524 L 499.757,760.524 z " style="fill-opacity:0.3;fill:rgb(250,150,50);stroke:rgb(0,0,0);stroke-width:1"/></g>
<g fill-rule="evenodd"><path d="M 481.751,443.942 L 401.751,444.142 L 401.751,583.942 L 481.751,443.942 z " style="fill-opacity:0.3;fill:rgb(250,150,50);stroke:rgb(0,0,0);stroke-width:1"/></g>
<g fill-rule="evenodd"><path d="M 396.86,615.76 L 296.86,615.76 L 396.86,715.76 L 396.86,615.76 z " style="fill-opacity:0.3;fill:rgb(250,150,50);stroke:rgb(0,0,0);stroke-width:1"/></g>
<g fill-rule="evenodd"><path d="M 518.85,519.049 L 438.85,519.049 L 438.85,539.049 L 478.85,539.049 L 479.05,599.049 L 518.85,599.049 L 518.85,519.049 z " style="fill-opacity:0.3;fill:rgb(250,150,50);stroke:rgb(0,0,0);stroke-width:1"/></g>
<g fill-rule="evenodd"><path d="M 319.428,234.918 L 279.428,234.918 L 279.428,334.918 L 319.428,334.918 L 319.428,234.918 z " style="fill-opacity:0.3;fill:rgb(250,150,50);stroke:rgb(0,0,0);stroke-width:1"/></g>
<g fill-rule="evenodd"><path d="M 520.54,398.886 L 460.54,518.886 L 520.54,518.886 L 520.54,398.886 z " style="fill-opacity:0.3;fill:rgb(250,150,50);stroke:rgb(0,0,0);stroke-width:1"/></g>
<g fill-rule="evenodd"><path d="M 495.703,363.929 L 415.703,443.929 L 495.703,443.929 L 495.703,363.929 z " style="fill-opacity:0.3;fill:rgb(250,150,50);stroke:rgb(0,0,0);stroke-width:1"/></g>
<g fill-rule="evenodd"><path d="M 519.784,300.19 L 479.784,300.39 L 479.784,340.39 L 499.784,340.19 L 499.784,400.19 L 519.784,400.19 L 519.784,300.19 z " style="fill-opacity:0.3;fill:rgb(250,150,50);stroke:rgb(0,0,0);stroke-width:1"/></g>
<g fill-rule="evenodd"><path d="M 399.364,70.4184 L 379.364,70.4184 L 379.364,10.4184 L 359.364,10.4184 L 359.364,90.4184 L 399.364,90.4184 L 399.364,70.4184 z " style="fill-opacity:0.3;fill:rgb(250,150,50);stroke:rgb(0,0,0);stroke-width:1"/></g>
<g fill-rule="evenodd"><path d="M 319.634,678.653 L 339.634,678.653 L 339.634,658.653 L 319.634,658.653 L 319.634,638.653 L 299.634,638.653 L 299.634,658.653 L 279.634,658.653 L 279.634,678.653 L 299.634,678.653 L 299.634,698.653 L 319.634,698.653 L 319.634,678.653 z " style="fill-opacity:0.3;fill:rgb(250,150,50);stroke:rgb(0,0,0);stroke-width:1"/></g>
<g fill-rule="evenodd"><path d="M 458.27,579.248 L 478.27,579.248 L 478.27,559.248 L 458.27,559.248 L 458.27,539.248 L 438.27,539.248 L 438.27,559.248 L 418.27,559.248 L 418.27,579.248 L 438.27,579.248 L 438.27,599.248 L 458.27,599.248 L 458.27,579.248 z " style="fill-opacity:0.3;fill:rgb(250,150,50);stroke:rgb(0,0,0);stroke-width:1"/></g>
<g fill-rule="evenodd"><path d="M 419.544,90.4184 L 359.544,90.4184 L 419.544,150.418 L 419.544,90.4184 z " style="fill-opacity:0.3;fill:rgb(250,150,50);stroke:rgb(0,0,0);stroke-width:1"/></g>
<g fill-rule="evenodd"><path d="M 299.364,0 L 279.364,0 L 279.364,80 L 299.364,80 L 299.364,0 z " style="fill-opacity:0.3;fill:rgb(250,150,50);stroke:rgb(0,0,0);stroke-width:1"/></g>
<g fill-rule="evenodd"><path d="M 279.966,194.738 L 279.966,234.738 L 319.966,234.738 L 279.966,194.738 z " style="fill-opacity:0.3;fill:rgb(250,150,50);stroke:rgb(0,0,0);stroke-width:1"/></g>
</svg>
