<?xml version="1.0" standalone="no"?>
<!DOCTYPE svg PUBLIC "-//W3C//DTD SVG 1.1//EN"
"http://www.w3.org/Graphics/SVG/1.1/DTD/svg11.dtd">
<svg width="100%" height="100%" version="1.1"
xmlns="http://www.w3.org/2000/svg"
xmlns:xlink="http://www.w3.org/1999/xlink">
<rect x="261.702" y="0" width="276.595" height="800" style="fill-opacity:0;fill:rgb(255,255,255);stroke:rgb(0,0,0);stroke-width:1"/>
<g fill-rule="evenodd"><path d="M 399.092,662.85 L 261.949,662.964 L 261.949,799.993 L 399.092,799.993 L 399.092,662.85 z " style="fill-opacity:0.3;fill:rgb(250,150,50);stroke:rgb(0,0,0);stroke-width:1"/></g>
<g fill-rule="evenodd"><path d="M 536.97,662.732 L 536.97,548.561 L 422.684,548.561 L 422.684,662.847 L 536.97,662.732 z " style="fill-opacity:0.3;fill:rgb(250,150,50);stroke:rgb(0,0,0);stroke-width:1"/></g>
<g fill-rule="evenodd"><path d="M 488.839,409.708 L 397.411,341.251 L 305.982,409.822 L 397.411,478.279 L 488.839,409.708 z " style="fill-opacity:0.3;fill:rgb(250,150,50);stroke:rgb(0,0,0);stroke-width:1"/></g>
<g fill-rule="evenodd"><path d="M 319.204,57.4359 L 376.347,57.3216 L 376.347,0.17879 L 262.061,0.293076 L 262.061,114.465 L 319.204,114.465 L 319.204,57.4359 z " style="fill-opacity:0.3;fill:rgb(250,150,50);stroke:rgb(0,0,0);stroke-width:1"/></g>
<g fill-rule="evenodd"><path d="M 538.298,0 L 401.155,0 L 469.84,137.143 L 538.298,0 z " style="fill-opacity:0.3;fill:rgb(250,150,50);stroke:rgb(0,0,0);stroke-width:1"/></g>
<g fill-rule="evenodd"><path d="M 402.863,4.92492 L 334.406,142.068 L 471.435,142.068 L 402.863,4.92492 z " style="fill-opacity:0.3;fill:rgb(250,150,50);stroke:rgb(0,0,0);stroke-width:1"/></g>
<g fill-rule="evenodd"><path d="M 421.98,233.881 L 421.98,165.31 L 444.723,142.453 L 330.437,142.453 L 353.294,165.31 L 353.409,233.881 L 330.551,256.738 L 444.723,256.738 L 421.98,233.881 z " style="fill-opacity:0.3;fill:rgb(250,150,50);stroke:rgb(0,0,0);stroke-width:1"/></g>
<g fill-rule="evenodd"><path d="M 353.351,480.055 L 261.923,480.055 L 261.923,571.484 L 353.351,571.484 L 353.351,480.055 z " style="fill-opacity:0.3;fill:rgb(250,150,50);stroke:rgb(0,0,0);stroke-width:1"/></g>
<g fill-rule="evenodd"><path d="M 536.983,662.735 L 422.697,662.849 L 422.697,685.706 L 514.126,685.592 L 514.126,754.277 L 422.697,754.277 L 422.697,777.02 L 536.983,777.02 L 536.983,662.735 z " style="fill-opacity:0.3;fill:rgb(250,150,50);stroke:rgb(0,0,0);stroke-width:1"/></g>
<g fill-rule="evenodd"><path d="M 353.598,640.061 L 353.598,594.347 L 330.741,571.49 L 285.026,571.49 L 262.169,594.347 L 262.283,640.061 L 307.998,662.919 L 353.598,640.061 z " style="fill-opacity:0.3;fill:rgb(250,150,50);stroke:rgb(0,0,0);stroke-width:1"/></g>
<g fill-rule="evenodd"><path d="M 261.736,365.76 L 261.851,480.046 L 376.022,480.046 L 261.736,365.76 z " style="fill-opacity:0.3;fill:rgb(250,150,50);stroke:rgb(0,0,0);stroke-width:1"/></g>
<g fill-rule="evenodd"><path d="M 414.214,257.214 L 299.928,257.214 L 357.071,371.5 L 414.214,257.214 z " style="fill-opacity:0.3;fill:rgb(250,150,50);stroke:rgb(0,0,0);stroke-width:1"/></g>
<g fill-rule="evenodd"><path d="M 536.398,257.004 L 490.684,188.433 L 444.969,257.119 L 490.684,325.576 L 536.398,257.004 z " style="fill-opacity:0.3;fill:rgb(250,150,50);stroke:rgb(0,0,0);stroke-width:1"/></g>
<g fill-rule="evenodd"><path d="M 399.461,548.234 L 445.176,548.12 L 445.176,502.406 L 353.747,502.52 L 353.747,593.834 L 399.461,593.834 L 399.461,548.234 z " style="fill-opacity:0.3;fill:rgb(250,150,50);stroke:rgb(0,0,0);stroke-width:1"/></g>
<g fill-rule="evenodd"><path d="M 536.108,96.9572 L 490.393,96.9572 L 490.393,142.671 L 444.679,142.671 L 444.679,188.386 L 536.108,188.386 L 536.108,96.9572 z " style="fill-opacity:0.3;fill:rgb(250,150,50);stroke:rgb(0,0,0);stroke-width:1"/></g>
<g fill-rule="evenodd"><path d="M 482.924,313.973 L 437.209,256.83 L 391.609,313.973 L 437.324,371.115 L 482.924,313.973 z " style="fill-opacity:0.3;fill:rgb(250,150,50);stroke:rgb(0,0,0);stroke-width:1"/></g>
<g fill-rule="evenodd"><path d="M 536.667,457.098 L 513.81,479.841 L 468.096,479.955 L 445.239,457.098 L 445.239,548.527 L 468.096,525.67 L 513.81,525.67 L 536.667,548.527 L 536.667,457.098 z " style="fill-opacity:0.3;fill:rgb(250,150,50);stroke:rgb(0,0,0);stroke-width:1"/></g>
<g fill-rule="evenodd"><path d="M 490.628,777.14 L 422.057,777.14 L 422.057,731.426 L 490.628,731.311 L 490.628,708.569 L 399.2,708.569 L 399.2,799.997 L 490.628,799.997 L 490.628,777.14 z " style="fill-opacity:0.3;fill:rgb(250,150,50);stroke:rgb(0,0,0);stroke-width:1"/></g>
<g fill-rule="evenodd"><path d="M 309.51,276.386 L 263.795,367.814 L 355.224,367.814 L 309.51,276.386 z " style="fill-opacity:0.3;fill:rgb(250,150,50);stroke:rgb(0,0,0);stroke-width:1"/></g>
<g fill-rule="evenodd"><path d="M 353.285,230.452 L 261.857,184.852 L 261.857,276.281 L 353.285,230.452 z " style="fill-opacity:0.3;fill:rgb(250,150,50);stroke:rgb(0,0,0);stroke-width:1"/></g>
<g fill-rule="evenodd"><path d="M 513.782,685.597 L 445.21,685.711 L 445.21,708.568 L 490.924,708.568 L 490.924,731.425 L 445.21,731.425 L 445.21,754.168 L 513.782,754.168 L 513.782,685.597 z " style="fill-opacity:0.3;fill:rgb(250,150,50);stroke:rgb(0,0,0);stroke-width:1"/></g>
<g fill-rule="evenodd"><path d="M 524.971,399.65 L 490.685,399.65 L 490.685,434.05 L 456.399,434.05 L 456.399,468.221 L 524.971,468.221 L 524.971,399.65 z " style="fill-opacity:0.3;fill:rgb(250,150,50);stroke:rgb(0,0,0);stroke-width:1"/></g>
<g fill-rule="evenodd"><path d="M 536.061,309.031 L 501.775,309.031 L 501.775,343.431 L 467.489,343.431 L 467.489,377.603 L 536.061,377.603 L 536.061,309.031 z " style="fill-opacity:0.3;fill:rgb(250,150,50);stroke:rgb(0,0,0);stroke-width:1"/></g>
<g fill-rule="evenodd"><path d="M 422.348,639.549 L 422.348,616.691 L 399.491,593.834 L 376.633,593.949 L 353.776,628.234 L 376.633,662.406 L 399.491,662.406 L 422.348,639.549 z " style="fill-opacity:0.3;fill:rgb(250,150,50);stroke:rgb(0,0,0);stroke-width:1"/></g>
<g fill-rule="evenodd"><path d="M 321.483,165.756 L 321.483,142.898 L 344.34,120.041 L 275.769,120.041 L 298.626,142.898 L 298.626,165.756 L 275.769,188.613 L 344.34,188.613 L 321.483,165.756 z " style="fill-opacity:0.3;fill:rgb(250,150,50);stroke:rgb(0,0,0);stroke-width:1"/></g>
</svg>
