<?xml version="1.0" standalone="no"?>
<!DOCTYPE svg PUBLIC "-//W3C//DTD SVG 1.1//EN"
"http://www.w3.org/Graphics/SVG/1.1/DTD/svg11.dtd">
<svg width="100%" height="100%" version="1.1"
xmlns="http://www.w3.org/2000/svg"
xmlns:xlink="http://www.w3.org/1999/xlink">
<rect x="116.302" y="0" width="567.396" height="800" style="fill-opacity:0;fill:rgb(255,255,255);stroke:rgb(0,0,0);stroke-width:1"/>
<g fill-rule="evenodd"><path d="M 668.798,733.804 L 649.661,734.745 L 635.229,691.451 L 616.092,676.706 L 372.955,666.039 L 356.014,716.549 L 325.582,718.745 L 349.112,791.216 L 365.112,793.412 L 385.504,780.863 L 410.602,784.314 L 424.72,779.922 L 438.21,796.863 L 462.367,798.118 L 464.249,786.51 L 543.308,776.471 L 553.347,786.823 L 667.857,800 L 668.798,733.804 z " style="fill-opacity:0.3;fill:rgb(250,150,50);stroke:rgb(0,0,0);stroke-width:1"/></g>
<g fill-rule="evenodd"><path d="M 429.456,277.389 L 459.573,275.193 L 436.044,202.722 L 420.044,200.526 L 399.652,213.075 L 374.554,209.624 L 360.436,214.016 L 346.946,197.075 L 322.789,195.82 L 320.907,207.428 L 241.848,217.467 L 231.808,207.114 L 117.299,193.938 L 116.358,260.134 L 135.495,259.193 L 149.926,302.487 L 169.063,317.232 L 412.514,327.899 L 429.456,277.389 z " style="fill-opacity:0.3;fill:rgb(250,150,50);stroke:rgb(0,0,0);stroke-width:1"/></g>
<g fill-rule="evenodd"><path d="M 460.462,477.659 L 454.501,445.973 L 116.305,442.522 L 119.442,534.129 L 266.265,534.757 L 344.383,563.62 L 384.854,556.404 L 408.069,555.463 L 445.403,570.208 L 460.462,477.659 z " style="fill-opacity:0.3;fill:rgb(250,150,50);stroke:rgb(0,0,0);stroke-width:1"/></g>
<g fill-rule="evenodd"><path d="M 457.635,354.425 L 310.498,353.798 L 232.38,324.935 L 191.91,332.151 L 168.694,333.092 L 131.361,318.347 L 116.302,410.896 L 122.263,442.582 L 460.459,446.033 L 457.635,354.425 z " style="fill-opacity:0.3;fill:rgb(250,150,50);stroke:rgb(0,0,0);stroke-width:1"/></g>
<g fill-rule="evenodd"><path d="M 250.703,705.177 L 275.173,684.158 L 299.016,664.393 L 468.114,668.158 L 468.114,607.295 L 208.663,534.511 L 187.644,540.785 L 162.232,615.452 L 123.957,616.079 L 153.761,691.373 L 190.781,679.766 L 203.016,676.628 L 229.683,688.236 L 238.781,706.119 L 250.703,705.177 z " style="fill-opacity:0.3;fill:rgb(250,150,50);stroke:rgb(0,0,0);stroke-width:1"/></g>
<g fill-rule="evenodd"><path d="M 246.239,208.612 L 270.709,187.593 L 294.552,167.828 L 463.65,171.593 L 463.65,110.73 L 204.199,37.9456 L 183.18,44.2201 L 157.768,118.887 L 119.493,119.514 L 149.297,194.808 L 186.317,183.201 L 198.552,180.063 L 225.219,191.671 L 234.317,209.553 L 246.239,208.612 z " style="fill-opacity:0.3;fill:rgb(250,150,50);stroke:rgb(0,0,0);stroke-width:1"/></g>
<g fill-rule="evenodd"><path d="M 667.071,419.527 L 678.679,390.978 L 675.855,333.253 L 672.718,308.782 L 671.777,267.37 L 667.698,249.174 L 677.424,226.9 L 683.698,205.567 L 682.757,190.508 L 622.835,170.116 L 554.443,169.488 L 553.816,278.978 L 542.208,315.37 L 525.267,325.41 L 542.208,342.665 L 581.737,422.665 L 614.365,436.469 L 635.384,436.469 L 667.071,419.527 z " style="fill-opacity:0.3;fill:rgb(250,150,50);stroke:rgb(0,0,0);stroke-width:1"/></g>
<g fill-rule="evenodd"><path d="M 583.976,514.687 L 595.584,478.295 L 612.525,467.942 L 595.584,451.001 L 556.054,370.687 L 523.427,356.883 L 502.407,356.883 L 470.721,374.138 L 459.113,402.373 L 461.937,460.099 L 465.074,484.569 L 466.015,525.981 L 470.093,544.177 L 460.368,566.452 L 454.093,587.785 L 455.035,602.844 L 514.956,623.236 L 583.348,624.177 L 583.976,514.687 z " style="fill-opacity:0.3;fill:rgb(250,150,50);stroke:rgb(0,0,0);stroke-width:1"/></g>
<g fill-rule="evenodd"><path d="M 683.429,675.914 L 683.429,438.11 L 623.507,438.11 L 586.174,558.58 L 608.135,558.58 L 607.821,676.227 L 683.429,675.914 z " style="fill-opacity:0.3;fill:rgb(250,150,50);stroke:rgb(0,0,0);stroke-width:1"/></g>
<g fill-rule="evenodd"><path d="M 421.006,75.8599 L 538.653,76.1736 L 538.339,0.565782 L 300.535,0.565782 L 300.535,60.4874 L 421.006,97.8207 L 421.006,75.8599 z " style="fill-opacity:0.3;fill:rgb(250,150,50);stroke:rgb(0,0,0);stroke-width:1"/></g>
<g fill-rule="evenodd"><path d="M 683.693,84.1683 L 449.967,91.6977 L 489.497,145.659 L 498.595,170.757 L 519.928,165.737 L 682.124,172.639 L 683.693,84.1683 z " style="fill-opacity:0.3;fill:rgb(250,150,50);stroke:rgb(0,0,0);stroke-width:1"/></g>
<g fill-rule="evenodd"><path d="M 350.028,792.47 L 310.498,738.509 L 301.4,713.411 L 280.067,718.431 L 118.185,711.529 L 116.302,800 L 350.028,792.47 z " style="fill-opacity:0.3;fill:rgb(250,150,50);stroke:rgb(0,0,0);stroke-width:1"/></g>
<g fill-rule="evenodd"><path d="M 637.79,85.6471 L 637.79,0.313724 L 538.653,-1.67225e-06 L 538.653,86.2745 L 637.79,85.6471 z " style="fill-opacity:0.3;fill:rgb(250,150,50);stroke:rgb(0,0,0);stroke-width:1"/></g>
<g fill-rule="evenodd"><path d="M 553.238,170.87 L 467.905,171.184 L 467.591,270.007 L 553.865,270.007 L 553.238,170.87 z " style="fill-opacity:0.3;fill:rgb(250,150,50);stroke:rgb(0,0,0);stroke-width:1"/></g>
<g fill-rule="evenodd"><path d="M 162.734,557.231 L 116.303,533.075 L 116.303,588.604 L 163.361,612.133 L 162.734,557.231 z " style="fill-opacity:0.3;fill:rgb(250,150,50);stroke:rgb(0,0,0);stroke-width:1"/></g>
<g fill-rule="evenodd"><path d="M 474.34,306.519 L 427.908,282.362 L 427.908,337.891 L 474.967,361.421 L 474.34,306.519 z " style="fill-opacity:0.3;fill:rgb(250,150,50);stroke:rgb(0,0,0);stroke-width:1"/></g>
<g fill-rule="evenodd"><path d="M 548.319,644.939 L 472.397,645.566 L 472.397,669.723 L 547.378,670.037 L 548.319,644.939 z " style="fill-opacity:0.3;fill:rgb(250,150,50);stroke:rgb(0,0,0);stroke-width:1"/></g>
<g fill-rule="evenodd"><path d="M 386.756,328.838 L 310.834,329.466 L 310.834,353.622 L 385.815,353.936 L 386.756,328.838 z " style="fill-opacity:0.3;fill:rgb(250,150,50);stroke:rgb(0,0,0);stroke-width:1"/></g>
<g fill-rule="evenodd"><path d="M 192.223,0 L 116.302,0.627451 L 116.302,24.7843 L 191.282,25.098 L 192.223,0 z " style="fill-opacity:0.3;fill:rgb(250,150,50);stroke:rgb(0,0,0);stroke-width:1"/></g>
<g fill-rule="evenodd"><path d="M 352.474,687.077 L 276.553,687.705 L 276.553,711.862 L 351.533,712.175 L 352.474,687.077 z " style="fill-opacity:0.3;fill:rgb(250,150,50);stroke:rgb(0,0,0);stroke-width:1"/></g>
</svg>
