<?xml version="1.0" standalone="no"?>
<!DOCTYPE svg PUBLIC "-//W3C//DTD SVG 1.1//EN"
"http://www.w3.org/Graphics/SVG/1.1/DTD/svg11.dtd">
<svg width="100%" height="100%" version="1.1"
xmlns="http://www.w3.org/2000/svg"
xmlns:xlink="http://www.w3.org/1999/xlink">
<rect x="118.537" y="0" width="562.926" height="800" style="fill-opacity:0;fill:rgb(255,255,255);stroke:rgb(0,0,0);stroke-width:1"/>
<g fill-rule="evenodd"><path d="M 645.843,179.651 L 626.705,180.592 L 612.274,137.298 L 593.137,122.553 L 349.999,111.886 L 333.058,162.396 L 302.627,164.592 L 326.156,237.063 L 342.156,239.259 L 362.548,226.71 L 387.646,230.161 L 401.764,225.768 L 415.254,242.71 L 439.411,243.964 L 441.294,232.357 L 520.352,222.317 L 530.392,232.67 L 644.901,245.847 L 645.843,179.651 z " style="fill-opacity:0.3;fill:rgb(250,150,50);stroke:rgb(0,0,0);stroke-width:1"/></g>
<g fill-rule="evenodd"><path d="M 677.755,650.125 L 658.617,651.066 L 644.186,607.772 L 625.049,593.027 L 381.911,582.36 L 364.97,632.87 L 334.539,635.066 L 358.068,707.537 L 374.068,709.733 L 394.46,697.184 L 419.559,700.635 L 433.676,696.243 L 447.166,713.184 L 471.323,714.439 L 473.206,702.831 L 552.264,692.792 L 562.304,703.145 L 676.813,716.321 L 677.755,650.125 z " style="fill-opacity:0.3;fill:rgb(250,150,50);stroke:rgb(0,0,0);stroke-width:1"/></g>
<g fill-rule="evenodd"><path d="M 676.072,35.1375 L 670.111,3.45126 L 331.915,0.000274674 L 335.052,91.6081 L 481.876,92.2356 L 559.993,121.098 L 600.464,113.883 L 623.679,112.941 L 661.013,127.687 L 676.072,35.1375 z " style="fill-opacity:0.3;fill:rgb(250,150,50);stroke:rgb(0,0,0);stroke-width:1"/></g>
<g fill-rule="evenodd"><path d="M 210.166,341.361 L 210.794,194.224 L 239.657,116.106 L 232.441,75.6357 L 231.5,52.42 L 246.245,15.0867 L 153.696,0.0278333 L 122.01,5.98862 L 118.559,344.185 L 210.166,341.361 z " style="fill-opacity:0.3;fill:rgb(250,150,50);stroke:rgb(0,0,0);stroke-width:1"/></g>
<g fill-rule="evenodd"><path d="M 320.668,622.857 L 345.139,601.837 L 368.982,582.072 L 538.08,585.837 L 538.08,524.974 L 278.629,452.19 L 257.609,458.465 L 232.197,533.131 L 193.923,533.759 L 223.727,609.053 L 260.747,597.445 L 272.982,594.308 L 299.648,605.915 L 308.747,623.798 L 320.668,622.857 z " style="fill-opacity:0.3;fill:rgb(250,150,50);stroke:rgb(0,0,0);stroke-width:1"/></g>
<g fill-rule="evenodd"><path d="M 615.934,534.643 L 641.346,459.977 L 679.621,459.349 L 650.131,384.055 L 612.797,395.663 L 600.562,398.8 L 574.209,387.192 L 565.111,369.31 L 553.189,370.251 L 528.719,391.271 L 504.562,411.036 L 335.464,407.271 L 335.464,468.134 L 594.915,540.918 L 615.934,534.643 z " style="fill-opacity:0.3;fill:rgb(250,150,50);stroke:rgb(0,0,0);stroke-width:1"/></g>
<g fill-rule="evenodd"><path d="M 335.525,343.385 L 347.133,306.993 L 364.074,296.64 L 347.133,279.699 L 307.604,199.385 L 274.976,185.582 L 253.957,185.582 L 222.27,202.836 L 210.663,231.072 L 213.486,288.797 L 216.623,313.268 L 217.565,354.68 L 221.643,372.876 L 211.917,395.15 L 205.643,416.484 L 206.584,431.542 L 266.506,451.934 L 334.898,452.876 L 335.525,343.385 z " style="fill-opacity:0.3;fill:rgb(250,150,50);stroke:rgb(0,0,0);stroke-width:1"/></g>
<g fill-rule="evenodd"><path d="M 653.184,380.034 L 673.576,320.113 L 674.517,251.72 L 565.027,251.093 L 528.635,239.485 L 518.596,222.544 L 501.341,239.485 L 421.341,279.015 L 407.223,311.642 L 407.223,332.662 L 424.478,364.348 L 452.713,375.956 L 510.439,373.132 L 534.909,369.995 L 576.321,369.054 L 594.517,364.975 L 616.792,374.701 L 638.125,380.975 L 653.184,380.034 z " style="fill-opacity:0.3;fill:rgb(250,150,50);stroke:rgb(0,0,0);stroke-width:1"/></g>
<g fill-rule="evenodd"><path d="M 215.903,461.213 L 193.942,461.213 L 194.256,343.566 L 118.648,344.194 L 118.648,581.684 L 178.57,581.684 L 215.903,461.213 z " style="fill-opacity:0.3;fill:rgb(250,150,50);stroke:rgb(0,0,0);stroke-width:1"/></g>
<g fill-rule="evenodd"><path d="M 675.919,740.078 L 555.448,702.745 L 555.448,724.706 L 437.801,724.392 L 438.115,800 L 675.919,800 L 675.919,740.078 z " style="fill-opacity:0.3;fill:rgb(250,150,50);stroke:rgb(0,0,0);stroke-width:1"/></g>
<g fill-rule="evenodd"><path d="M 438.095,707.672 L 204.37,715.201 L 243.899,769.162 L 252.997,794.26 L 274.331,789.241 L 436.527,796.143 L 438.095,707.672 z " style="fill-opacity:0.3;fill:rgb(250,150,50);stroke:rgb(0,0,0);stroke-width:1"/></g>
<g fill-rule="evenodd"><path d="M 352.533,693.511 L 313.004,639.55 L 303.906,614.452 L 282.573,619.471 L 120.69,612.569 L 118.808,701.04 L 352.533,693.511 z " style="fill-opacity:0.3;fill:rgb(250,150,50);stroke:rgb(0,0,0);stroke-width:1"/></g>
<g fill-rule="evenodd"><path d="M 332.707,36.1454 L 246.433,36.1454 L 247.06,135.283 L 332.393,135.283 L 332.707,36.1454 z " style="fill-opacity:0.3;fill:rgb(250,150,50);stroke:rgb(0,0,0);stroke-width:1"/></g>
<g fill-rule="evenodd"><path d="M 204.278,700.828 L 118.945,701.142 L 118.631,799.965 L 204.906,799.965 L 204.278,700.828 z " style="fill-opacity:0.3;fill:rgb(250,150,50);stroke:rgb(0,0,0);stroke-width:1"/></g>
<g fill-rule="evenodd"><path d="M 670.176,137.161 L 623.744,113.004 L 623.744,168.533 L 670.803,192.063 L 670.176,137.161 z " style="fill-opacity:0.3;fill:rgb(250,150,50);stroke:rgb(0,0,0);stroke-width:1"/></g>
<g fill-rule="evenodd"><path d="M 277.552,183.523 L 301.709,137.092 L 246.179,137.092 L 222.65,184.151 L 277.552,183.523 z " style="fill-opacity:0.3;fill:rgb(250,150,50);stroke:rgb(0,0,0);stroke-width:1"/></g>
<g fill-rule="evenodd"><path d="M 437.485,243.882 L 361.563,244.51 L 361.563,268.666 L 436.544,268.98 L 437.485,243.882 z " style="fill-opacity:0.3;fill:rgb(250,150,50);stroke:rgb(0,0,0);stroke-width:1"/></g>
<g fill-rule="evenodd"><path d="M 331.586,2.87639 L 255.665,3.50384 L 255.665,27.6607 L 330.645,27.9744 L 331.586,2.87639 z " style="fill-opacity:0.3;fill:rgb(250,150,50);stroke:rgb(0,0,0);stroke-width:1"/></g>
<g fill-rule="evenodd"><path d="M 504.244,384.071 L 428.322,384.699 L 428.322,408.856 L 503.303,409.169 L 504.244,384.071 z " style="fill-opacity:0.3;fill:rgb(250,150,50);stroke:rgb(0,0,0);stroke-width:1"/></g>
<g fill-rule="evenodd"><path d="M 662.839,540.435 L 586.918,541.063 L 586.918,565.219 L 661.898,565.533 L 662.839,540.435 z " style="fill-opacity:0.3;fill:rgb(250,150,50);stroke:rgb(0,0,0);stroke-width:1"/></g>
</svg>
