<?xml version="1.0" standalone="no"?>
<!DOCTYPE svg PUBLIC "-//W3C//DTD SVG 1.1//EN"
"http://www.w3.org/Graphics/SVG/1.1/DTD/svg11.dtd">
<svg width="100%" height="100%" version="1.1"
xmlns="http://www.w3.org/2000/svg"
xmlns:xlink="http://www.w3.org/1999/xlink">
<rect x="94.7027" y="0" width="610.595" height="800" style="fill-opacity:0;fill:rgb(255,255,255);stroke:rgb(0,0,0);stroke-width:1"/>
<g fill-rule="evenodd"><path d="M 705.163,265.212 L 612.856,280.596 L 535.933,265.289 L 505.163,296.058 L 451.317,296.058 L 420.548,349.904 L 435.933,365.289 L 435.933,380.673 L 420.548,396.058 L 443.625,457.596 L 505.163,457.596 L 535.933,488.289 L 612.856,472.981 L 705.163,488.289 L 705.163,265.212 z " style="fill-opacity:0.3;fill:rgb(250,150,50);stroke:rgb(0,0,0);stroke-width:1"/></g>
<g fill-rule="evenodd"><path d="M 426.695,769.22 L 480.541,769.22 L 511.31,715.297 L 495.926,699.913 L 495.926,684.528 L 511.31,669.144 L 488.233,607.605 L 426.695,607.605 L 395.926,576.913 L 319.003,592.22 L 226.695,576.913 L 226.695,799.99 L 319.003,784.605 L 395.926,799.99 L 426.695,769.22 z " style="fill-opacity:0.3;fill:rgb(250,150,50);stroke:rgb(0,0,0);stroke-width:1"/></g>
<g fill-rule="evenodd"><path d="M 542.996,77.2747 L 489.15,31.1209 L 435.304,31.1209 L 381.457,77.2747 L 381.457,246.506 L 542.996,246.506 L 542.996,77.2747 z " style="fill-opacity:0.3;fill:rgb(250,150,50);stroke:rgb(0,0,0);stroke-width:1"/></g>
<g fill-rule="evenodd"><path d="M 704.786,77.2469 L 650.939,31.093 L 597.093,31.093 L 543.247,77.2469 L 543.247,246.478 L 704.786,246.478 L 704.786,77.2469 z " style="fill-opacity:0.3;fill:rgb(250,150,50);stroke:rgb(0,0,0);stroke-width:1"/></g>
<g fill-rule="evenodd"><path d="M 416.06,286.373 L 246.829,286.45 L 200.675,340.296 L 200.675,394.143 L 246.829,447.912 L 416.06,447.912 L 416.06,286.373 z " style="fill-opacity:0.3;fill:rgb(250,150,50);stroke:rgb(0,0,0);stroke-width:1"/></g>
<g fill-rule="evenodd"><path d="M 705.297,504.314 L 536.067,504.391 L 489.913,558.237 L 489.913,612.083 L 536.067,665.853 L 705.297,665.853 L 705.297,504.314 z " style="fill-opacity:0.3;fill:rgb(250,150,50);stroke:rgb(0,0,0);stroke-width:1"/></g>
<g fill-rule="evenodd"><path d="M 202.402,230.771 L 225.479,200.001 L 210.094,100.001 L 225.479,0.00142077 L 94.7096,0.00142077 L 94.7096,253.848 L 202.402,253.848 L 202.402,230.771 z " style="fill-opacity:0.3;fill:rgb(250,150,50);stroke:rgb(0,0,0);stroke-width:1"/></g>
<g fill-rule="evenodd"><path d="M 226.685,545.815 L 118.993,545.892 L 118.993,568.969 L 95.9161,599.738 L 111.301,699.738 L 95.9161,799.661 L 226.685,799.661 L 226.685,545.815 z " style="fill-opacity:0.3;fill:rgb(250,150,50);stroke:rgb(0,0,0);stroke-width:1"/></g>
<g fill-rule="evenodd"><path d="M 518.525,515.298 L 503.14,461.452 L 449.294,461.452 L 426.217,446.067 L 341.602,461.452 L 233.909,446.067 L 233.909,561.452 L 487.756,561.452 L 518.525,515.298 z " style="fill-opacity:0.3;fill:rgb(250,150,50);stroke:rgb(0,0,0);stroke-width:1"/></g>
<g fill-rule="evenodd"><path d="M 195.472,528.137 L 195.472,474.291 L 210.856,451.214 L 195.472,366.599 L 210.856,258.906 L 95.4716,258.906 L 95.4716,512.752 L 141.625,543.522 L 195.472,528.137 z " style="fill-opacity:0.3;fill:rgb(250,150,50);stroke:rgb(0,0,0);stroke-width:1"/></g>
<g fill-rule="evenodd"><path d="M 696.359,31.0436 L 696.359,0.351315 L 396.359,0.351315 L 396.359,31.1205 L 696.359,31.0436 z " style="fill-opacity:0.3;fill:rgb(250,150,50);stroke:rgb(0,0,0);stroke-width:1"/></g>
<g fill-rule="evenodd"><path d="M 513.894,255.604 L 213.894,255.681 L 213.894,286.373 L 513.894,286.373 L 513.894,255.604 z " style="fill-opacity:0.3;fill:rgb(250,150,50);stroke:rgb(0,0,0);stroke-width:1"/></g>
<g fill-rule="evenodd"><path d="M 671.606,715.238 L 594.683,715.238 L 594.76,799.853 L 671.606,799.853 L 671.606,715.238 z " style="fill-opacity:0.3;fill:rgb(250,150,50);stroke:rgb(0,0,0);stroke-width:1"/></g>
<g fill-rule="evenodd"><path d="M 591.343,715.288 L 514.42,715.288 L 514.42,799.903 L 591.343,799.903 L 591.343,715.288 z " style="fill-opacity:0.3;fill:rgb(250,150,50);stroke:rgb(0,0,0);stroke-width:1"/></g>
<g fill-rule="evenodd"><path d="M 300.718,137.979 L 300.718,61.1332 L 216.102,61.1332 L 216.102,138.056 L 300.718,137.979 z " style="fill-opacity:0.3;fill:rgb(250,150,50);stroke:rgb(0,0,0);stroke-width:1"/></g>
<g fill-rule="evenodd"><path d="M 333.764,214.873 L 333.764,138.027 L 249.149,138.027 L 249.149,214.95 L 333.764,214.873 z " style="fill-opacity:0.3;fill:rgb(250,150,50);stroke:rgb(0,0,0);stroke-width:1"/></g>
<g fill-rule="evenodd"><path d="M 367.45,30.785 L 398.142,38.4773 L 382.758,0.0157793 L 313.527,15.4004 L 251.988,0.0157793 L 236.604,38.4773 L 267.373,30.785 L 313.527,46.1696 L 367.45,30.785 z " style="fill-opacity:0.3;fill:rgb(250,150,50);stroke:rgb(0,0,0);stroke-width:1"/></g>
<g fill-rule="evenodd"><path d="M 676.088,673.673 L 645.318,681.365 L 599.165,665.981 L 545.318,681.365 L 514.549,673.673 L 529.934,712.135 L 599.165,696.75 L 660.703,712.135 L 676.088,673.673 z " style="fill-opacity:0.3;fill:rgb(250,150,50);stroke:rgb(0,0,0);stroke-width:1"/></g>
<g fill-rule="evenodd"><path d="M 342.626,240.277 L 373.318,247.969 L 357.934,209.507 L 288.703,224.892 L 227.164,209.507 L 211.78,247.969 L 242.549,240.277 L 288.703,255.661 L 342.626,240.277 z " style="fill-opacity:0.3;fill:rgb(250,150,50);stroke:rgb(0,0,0);stroke-width:1"/></g>
<g fill-rule="evenodd"><path d="M 364.705,184.52 L 380.09,138.366 L 364.705,84.5197 L 372.397,53.7505 L 333.936,69.1351 L 349.32,138.366 L 333.936,199.904 L 372.397,215.289 L 364.705,184.52 z " style="fill-opacity:0.3;fill:rgb(250,150,50);stroke:rgb(0,0,0);stroke-width:1"/></g>
<g fill-rule="evenodd"><path d="M 394.345,49.0581 L 378.96,33.7504 L 317.422,49.0581 L 255.884,33.7504 L 240.499,49.135 L 317.422,64.4427 L 394.345,49.0581 z " style="fill-opacity:0.3;fill:rgb(250,150,50);stroke:rgb(0,0,0);stroke-width:1"/></g>
<g fill-rule="evenodd"><path d="M 396.287,576.76 L 380.903,561.453 L 319.364,576.76 L 257.826,561.453 L 242.441,576.837 L 319.364,592.145 L 396.287,576.76 z " style="fill-opacity:0.3;fill:rgb(250,150,50);stroke:rgb(0,0,0);stroke-width:1"/></g>
<g fill-rule="evenodd"><path d="M 689.693,265.186 L 674.309,249.878 L 612.77,265.186 L 551.232,249.878 L 535.847,265.263 L 612.77,280.571 L 689.693,265.186 z " style="fill-opacity:0.3;fill:rgb(250,150,50);stroke:rgb(0,0,0);stroke-width:1"/></g>
<g fill-rule="evenodd"><path d="M 686.912,488.944 L 609.989,473.636 L 533.066,489.021 L 548.45,504.328 L 609.989,489.021 L 671.527,504.328 L 686.912,488.944 z " style="fill-opacity:0.3;fill:rgb(250,150,50);stroke:rgb(0,0,0);stroke-width:1"/></g>
</svg>
