<?xml version="1.0" standalone="no"?>
<!DOCTYPE svg PUBLIC "-//W3C//DTD SVG 1.1//EN"
"http://www.w3.org/Graphics/SVG/1.1/DTD/svg11.dtd">
<svg width="100%" height="100%" version="1.1"
xmlns="http://www.w3.org/2000/svg"
xmlns:xlink="http://www.w3.org/1999/xlink">
<rect x="0" y="277.751" width="800" height="244.497" style="fill-opacity:0;fill:rgb(255,255,255);stroke:rgb(0,0,0);stroke-width:1"/>
<g fill-rule="evenodd"><path d="M 50.6924,518.5 L 54.7673,516.381 L 59.0053,514.262 L 67.8072,510.35 L 70.9042,509.209 L 76.9351,507.09 L 80.521,505.949 L 84.27,504.971 L 87.8559,503.993 L 91.6049,503.178 L 95.1909,502.526 L 98.9398,502.037 L 103.83,501.548 L 174.408,499.429 L 174.408,456.723 L 171.148,456.723 L 103.667,454.767 L 36.5116,452.974 L 27.2207,452.648 L 16.1368,452.648 L 10.5949,452.811 L 6.68292,452.974 L 2.14704e-06,453.3 L 1.14099,502.526 L 22.4937,506.927 L 26.2427,507.742 L 28.1987,508.068 L 29.8286,508.557 L 31.6216,509.046 L 33.0886,509.535 L 34.7186,510.024 L 35.2076,510.35 L 35.8596,510.839 L 36.5116,511.165 L 37.0006,511.491 L 38.1415,512.795 L 38.7935,513.447 L 39.2825,514.099 L 39.7715,514.914 L 40.2605,515.892 L 41.5645,518.011 L 43.5205,522.249 L 50.6924,518.5 z " style="fill-opacity:0.3;fill:rgb(250,150,50);stroke:rgb(0,0,0);stroke-width:1"/></g>
<g fill-rule="evenodd"><path d="M 323.973,410.019 L 328.048,407.9 L 332.286,405.944 L 335.22,404.477 L 338.154,403.173 L 341.088,402.032 L 344.185,400.891 L 350.216,398.609 L 353.802,397.468 L 357.551,396.49 L 361.137,395.675 L 364.886,394.86 L 368.472,394.208 L 372.221,393.556 L 377.11,393.23 L 447.689,390.948 L 447.689,348.243 L 444.429,348.406 L 376.947,346.45 L 309.792,344.494 L 300.501,344.331 L 289.418,344.331 L 283.876,344.494 L 279.964,344.657 L 273.444,344.983 L 274.585,394.045 L 295.774,398.609 L 299.523,399.424 L 301.479,399.75 L 303.109,400.076 L 304.902,400.565 L 306.369,401.054 L 307.836,401.706 L 309.792,402.684 L 310.118,403.173 L 311.422,404.314 L 311.911,404.966 L 312.563,405.781 L 313.541,407.411 L 314.682,409.693 L 316.801,413.768 L 323.973,410.019 z " style="fill-opacity:0.3;fill:rgb(250,150,50);stroke:rgb(0,0,0);stroke-width:1"/></g>
<g fill-rule="evenodd"><path d="M 248.814,355.835 L 256.964,351.597 L 259.898,350.293 L 262.994,348.989 L 265.928,347.686 L 268.862,346.545 L 275.056,344.426 L 278.642,343.285 L 282.228,342.307 L 285.977,341.329 L 289.563,340.514 L 293.312,339.862 L 297.061,339.373 L 301.788,338.884 L 372.529,336.765 L 372.529,294.059 L 369.269,294.059 L 301.788,292.103 L 234.796,290.31 L 225.342,289.984 L 214.258,289.984 L 208.716,290.147 L 204.804,290.31 L 198.121,290.636 L 199.425,339.862 L 224.527,345.078 L 226.32,345.404 L 228.113,345.893 L 231.373,346.871 L 232.84,347.36 L 233.492,347.686 L 234.144,348.175 L 235.122,348.826 L 236.426,350.13 L 237.404,351.434 L 238.056,352.249 L 238.545,353.227 L 239.686,355.346 L 241.805,359.584 L 248.814,355.835 z " style="fill-opacity:0.3;fill:rgb(250,150,50);stroke:rgb(0,0,0);stroke-width:1"/></g>
<g fill-rule="evenodd"><path d="M 530.865,441.092 L 534.777,440.929 L 541.46,440.603 L 540.156,391.378 L 515.055,386.162 L 513.262,385.836 L 511.469,385.347 L 508.209,384.369 L 506.742,383.88 L 506.09,383.554 L 505.438,383.065 L 504.46,382.413 L 503.156,381.109 L 502.178,379.805 L 501.689,378.99 L 501.2,378.012 L 499.896,375.893 L 497.777,371.655 L 490.768,375.404 L 486.53,377.523 L 482.455,379.642 L 476.587,382.25 L 473.49,383.554 L 470.556,384.695 L 464.362,386.814 L 460.776,387.955 L 457.19,388.933 L 453.441,389.911 L 449.855,390.726 L 446.106,391.378 L 442.52,391.867 L 437.63,392.356 L 367.052,394.475 L 367.052,437.18 L 370.149,437.18 L 437.63,439.136 L 504.949,440.929 L 514.24,441.255 L 525.323,441.255 L 530.865,441.092 z " style="fill-opacity:0.3;fill:rgb(250,150,50);stroke:rgb(0,0,0);stroke-width:1"/></g>
<g fill-rule="evenodd"><path d="M 236.72,500.137 L 246.011,499.974 L 313.167,498.181 L 380.648,496.063 L 383.908,496.226 L 383.908,453.52 L 313.33,451.401 L 308.44,450.912 L 304.691,450.423 L 300.942,449.771 L 297.356,448.956 L 293.77,447.978 L 290.021,447 L 286.435,445.859 L 280.404,443.74 L 277.307,442.599 L 268.505,438.687 L 264.267,436.568 L 260.192,434.449 L 254.487,431.515 L 251.879,436.731 L 251.227,437.872 L 250.575,438.85 L 250.086,439.665 L 249.434,440.48 L 248.945,441.295 L 247.478,442.599 L 246.174,443.577 L 243.24,445.044 L 241.447,445.533 L 239.817,446.022 L 238.024,446.348 L 232.157,447.489 L 210.641,452.053 L 209.5,499.485 L 216.183,499.974 L 220.095,500.137 L 225.637,500.3 L 231.179,500.3 L 236.72,500.137 z " style="fill-opacity:0.3;fill:rgb(250,150,50);stroke:rgb(0,0,0);stroke-width:1"/></g>
<g fill-rule="evenodd"><path d="M 36.6746,402.86 L 103.667,400.904 L 171.148,398.948 L 174.408,399.111 L 174.408,356.405 L 103.667,354.286 L 98.7768,353.797 L 95.1909,353.145 L 91.4419,352.493 L 87.856,351.841 L 84.107,350.863 L 80.521,349.885 L 76.9351,348.744 L 70.7412,346.625 L 67.8072,345.321 L 64.7102,344.18 L 61.7763,342.876 L 58.8423,341.409 L 54.7674,339.453 L 50.6924,337.334 L 45.1505,334.237 L 42.3795,339.616 L 41.7275,340.757 L 41.2385,341.572 L 40.7495,342.55 L 39.4455,344.18 L 38.1416,345.484 L 37.4896,345.973 L 36.8376,346.299 L 36.1856,346.788 L 33.7406,347.766 L 32.1106,348.255 L 28.5247,349.233 L 22.8197,350.374 L 1.141,354.938 L 1.26263e-05,402.371 L 6.68293,402.697 L 10.5949,402.86 L 16.1368,403.023 L 27.2207,403.023 L 36.6746,402.86 z " style="fill-opacity:0.3;fill:rgb(250,150,50);stroke:rgb(0,0,0);stroke-width:1"/></g>
<g fill-rule="evenodd"><path d="M 197.446,461.516 L 198.098,460.375 L 198.587,459.397 L 199.239,458.582 L 199.728,457.767 L 200.38,456.952 L 201.847,455.485 L 202.336,455.159 L 202.988,454.67 L 203.803,454.344 L 204.455,453.855 L 206.085,453.203 L 207.715,452.714 L 209.508,452.225 L 211.301,451.899 L 217.006,450.758 L 238.684,446.032 L 239.825,398.762 L 233.142,398.273 L 229.23,398.11 L 223.688,397.947 L 212.605,397.947 L 203.314,398.273 L 135.995,400.066 L 68.5143,402.022 L 65.4173,402.022 L 65.4173,444.728 L 135.995,446.847 L 140.885,447.336 L 144.471,447.825 L 148.22,448.477 L 151.806,449.292 L 155.555,450.269 L 159.141,451.247 L 162.727,452.388 L 168.921,454.507 L 171.855,455.648 L 174.952,456.952 L 180.82,459.56 L 184.895,461.679 L 189.133,463.798 L 194.838,466.732 L 197.446,461.516 z " style="fill-opacity:0.3;fill:rgb(250,150,50);stroke:rgb(0,0,0);stroke-width:1"/></g>
<g fill-rule="evenodd"><path d="M 408.825,346.613 L 475.98,344.657 L 543.461,342.701 L 546.721,342.701 L 546.721,299.996 L 476.143,297.877 L 471.253,297.388 L 467.504,296.899 L 463.755,296.247 L 460.169,295.432 L 456.42,294.617 L 452.834,293.476 L 449.248,292.498 L 443.217,290.216 L 440.12,289.075 L 437.186,287.771 L 434.09,286.467 L 431.156,285.163 L 423.006,280.925 L 417.301,277.991 L 414.53,283.37 L 414.041,284.511 L 413.389,285.326 L 412.9,286.141 L 411.596,287.771 L 410.292,289.238 L 409.64,289.564 L 408.336,290.542 L 405.891,291.52 L 402.631,292.498 L 400.838,292.987 L 394.97,294.128 L 373.454,298.692 L 372.313,346.124 L 378.833,346.45 L 382.745,346.613 L 388.287,346.776 L 399.371,346.776 L 408.825,346.613 z " style="fill-opacity:0.3;fill:rgb(250,150,50);stroke:rgb(0,0,0);stroke-width:1"/></g>
<g fill-rule="evenodd"><path d="M 738.6,425.788 L 743.816,425.788 L 751.151,425.462 L 759.463,424.81 L 759.138,419.431 L 758.975,417.15 L 758.975,410.63 L 759.138,408.837 L 759.463,407.207 L 760.115,405.251 L 760.767,404.436 L 761.256,403.947 L 761.745,403.621 L 763.049,402.969 L 763.864,402.806 L 764.842,402.48 L 767.124,402.154 L 769.569,401.665 L 769.406,397.101 L 769.406,389.929 L 769.569,386.18 L 770.058,383.246 L 740.067,379.66 L 737.622,379.171 L 737.459,380.149 L 736.481,379.986 L 735.014,379.823 L 733.547,379.334 L 732.243,378.845 L 731.591,378.682 L 730.613,378.03 L 729.472,376.889 L 728.494,374.933 L 721.485,376.889 L 715.943,378.193 L 710.564,379.66 L 698.502,382.105 L 695.568,382.594 L 692.471,383.083 L 689.537,383.572 L 686.44,383.898 L 683.506,384.224 L 680.409,384.55 L 677.475,384.876 L 671.282,385.202 L 664.925,385.528 L 597.443,387.484 L 594.183,387.321 L 594.183,422.202 L 597.443,422.039 L 664.762,424.158 L 727.19,425.788 L 732.569,425.951 L 738.6,425.788 z " style="fill-opacity:0.3;fill:rgb(250,150,50);stroke:rgb(0,0,0);stroke-width:1"/></g>
<g fill-rule="evenodd"><path d="M 566.736,393.294 L 572.115,391.827 L 577.657,390.523 L 589.556,388.078 L 592.49,387.589 L 595.587,387.1 L 598.521,386.611 L 601.618,386.285 L 604.715,385.796 L 607.649,385.47 L 610.745,385.307 L 613.679,385.144 L 616.939,384.818 L 623.296,384.655 L 690.778,382.536 L 694.037,382.699 L 694.037,347.98 L 690.778,347.98 L 623.296,346.024 L 560.868,344.232 L 549.621,344.232 L 544.405,344.395 L 537.07,344.721 L 528.594,345.372 L 529.083,350.588 L 529.246,353.033 L 529.246,357.76 L 529.083,359.553 L 529.083,361.183 L 528.757,362.813 L 528.431,363.954 L 528.268,364.443 L 527.942,364.769 L 527.453,365.747 L 527.127,365.91 L 526.801,366.236 L 526.475,366.399 L 525.986,366.562 L 525.008,367.051 L 524.194,367.377 L 523.216,367.54 L 520.934,368.029 L 518.489,368.355 L 518.652,373.082 L 518.815,376.668 L 518.489,384.003 L 518,386.774 L 548.154,390.523 L 550.599,390.849 L 550.762,389.871 L 551.577,390.034 L 554.511,390.686 L 555.978,391.175 L 556.467,391.501 L 556.956,391.664 L 557.445,391.99 L 558.586,393.131 L 559.727,395.087 L 566.736,393.294 z " style="fill-opacity:0.3;fill:rgb(250,150,50);stroke:rgb(0,0,0);stroke-width:1"/></g>
<g fill-rule="evenodd"><path d="M 432.644,487.667 L 438.186,486.2 L 443.565,484.896 L 455.464,482.451 L 458.561,481.962 L 461.495,481.473 L 464.592,480.984 L 467.526,480.658 L 470.623,480.332 L 473.557,480.006 L 476.654,479.68 L 482.848,479.354 L 489.204,479.028 L 556.686,477.072 L 559.946,477.072 L 559.946,442.353 L 556.686,442.516 L 489.204,440.397 L 426.776,438.767 L 421.56,438.604 L 415.529,438.604 L 410.313,438.767 L 402.978,439.093 L 394.503,439.745 L 394.992,445.124 L 395.155,447.406 L 395.155,453.926 L 394.992,455.556 L 394.666,457.186 L 394.34,458.327 L 394.014,459.305 L 393.362,460.12 L 393.036,460.283 L 392.71,460.609 L 392.384,460.772 L 392.058,461.098 L 390.102,461.75 L 389.124,461.913 L 386.842,462.402 L 384.56,462.728 L 384.723,467.455 L 384.723,474.627 L 384.56,478.376 L 383.908,481.147 L 414.062,484.896 L 416.507,485.222 L 416.67,484.244 L 419.115,484.733 L 420.582,485.059 L 421.886,485.548 L 422.375,485.874 L 423.027,486.2 L 423.353,486.526 L 423.842,486.689 L 424.494,487.504 L 425.635,489.623 L 432.644,487.667 z " style="fill-opacity:0.3;fill:rgb(250,150,50);stroke:rgb(0,0,0);stroke-width:1"/></g>
<g fill-rule="evenodd"><path d="M 605.869,521.923 L 614.182,521.271 L 613.693,515.892 L 613.693,506.927 L 613.856,505.297 L 613.856,504.482 L 614.019,503.667 L 614.345,502.526 L 614.671,502.037 L 614.834,501.711 L 615.486,500.896 L 615.649,500.57 L 615.975,500.407 L 616.464,500.081 L 617.768,499.429 L 618.583,499.103 L 619.561,498.94 L 621.843,498.451 L 624.288,498.125 L 624.125,493.398 L 624.125,486.389 L 624.288,482.64 L 624.777,479.706 L 594.785,475.957 L 592.34,475.631 L 592.177,476.609 L 591.2,476.446 L 588.266,475.794 L 586.962,475.305 L 586.31,475.142 L 585.332,474.49 L 584.191,473.349 L 583.213,471.393 L 576.367,473.186 L 570.825,474.653 L 565.446,475.957 L 553.384,478.402 L 550.45,479.054 L 547.353,479.543 L 544.419,479.869 L 541.322,480.358 L 538.388,480.684 L 535.291,481.01 L 532.357,481.173 L 529.26,481.499 L 526.163,481.662 L 519.806,481.825 L 452.325,483.944 L 449.065,483.781 L 449.065,518.5 L 452.325,518.5 L 519.643,520.456 L 581.909,522.249 L 598.534,522.249 L 605.869,521.923 z " style="fill-opacity:0.3;fill:rgb(250,150,50);stroke:rgb(0,0,0);stroke-width:1"/></g>
<g fill-rule="evenodd"><path d="M 666.831,515.565 L 729.259,513.935 L 796.74,511.816 L 800,511.979 L 800,477.261 L 796.74,477.261 L 729.259,475.305 L 719.642,474.816 L 716.708,474.653 L 713.611,474.327 L 710.677,474.001 L 704.483,473.349 L 701.549,472.86 L 698.452,472.371 L 695.518,471.882 L 683.619,469.437 L 678.077,468.133 L 672.699,466.666 L 665.69,464.71 L 664.549,466.829 L 663.897,467.644 L 663.408,467.807 L 661.941,468.785 L 660.474,469.274 L 659.17,469.6 L 657.54,469.926 L 655.91,470.089 L 652.487,470.578 L 624.451,474.001 L 624.777,479.706 L 624.777,483.292 L 624.614,486.878 L 624.451,491.605 L 628.2,492.094 L 629.178,492.42 L 630.156,492.583 L 631.134,492.909 L 631.949,493.235 L 632.438,493.561 L 632.764,493.724 L 633.09,494.05 L 633.416,494.213 L 633.905,495.028 L 634.231,495.517 L 634.394,496.006 L 634.72,497.147 L 635.046,498.777 L 635.046,500.406 L 635.209,502.199 L 635.209,506.926 L 635.046,509.208 L 634.557,514.587 L 640.751,515.076 L 648.086,515.565 L 650.368,515.565 L 655.584,515.728 L 663.245,515.728 L 666.831,515.565 z " style="fill-opacity:0.3;fill:rgb(250,150,50);stroke:rgb(0,0,0);stroke-width:1"/></g>
<g fill-rule="evenodd"><path d="M 760.065,326.651 L 760.717,325.836 L 761.695,325.184 L 762.184,325.021 L 762.673,324.695 L 764.14,324.206 L 765.281,323.88 L 768.541,323.228 L 771.964,322.902 L 800,319.479 L 799.674,313.774 L 799.674,310.188 L 799.837,306.602 L 800,301.875 L 796.251,301.223 L 794.295,300.897 L 793.317,300.571 L 792.502,300.082 L 792.013,299.919 L 791.687,299.756 L 791.361,299.43 L 791.035,299.267 L 790.546,298.289 L 790.22,297.963 L 790.057,297.474 L 789.731,296.333 L 789.405,294.703 L 789.405,293.073 L 789.242,291.28 L 789.242,286.554 L 789.405,284.109 L 789.894,278.893 L 783.7,278.404 L 776.365,277.915 L 774.083,277.915 L 768.867,277.752 L 757.783,277.752 L 695.355,279.545 L 627.874,281.501 L 624.614,281.501 L 624.614,316.219 L 627.874,316.056 L 695.355,318.175 L 701.712,318.338 L 704.972,318.664 L 707.906,318.827 L 711.003,318.99 L 713.937,319.316 L 717.034,319.805 L 719.968,320.131 L 726.162,321.109 L 729.096,321.598 L 740.994,324.043 L 746.536,325.347 L 751.915,326.814 L 758.924,328.77 L 760.065,326.651 z " style="fill-opacity:0.3;fill:rgb(250,150,50);stroke:rgb(0,0,0);stroke-width:1"/></g>
<g fill-rule="evenodd"><path d="M 759.896,474.041 L 760.548,473.389 L 762.015,472.411 L 762.504,472.248 L 763.808,471.759 L 765.275,471.27 L 766.905,470.944 L 768.535,470.781 L 771.958,470.292 L 799.993,466.869 L 799.667,461.164 L 799.667,453.992 L 799.83,449.428 L 796.244,448.776 L 795.266,448.613 L 792.332,447.635 L 792.006,447.472 L 791.354,446.82 L 791.028,446.657 L 790.376,445.842 L 789.724,443.886 L 789.399,442.256 L 789.236,440.463 L 789.236,433.943 L 789.399,431.661 L 789.887,426.282 L 783.694,425.793 L 776.359,425.467 L 774.077,425.304 L 768.861,425.141 L 761.2,425.141 L 757.614,425.304 L 695.186,426.934 L 627.704,429.053 L 624.444,428.89 L 624.444,463.609 L 627.704,463.609 L 695.186,465.565 L 701.543,465.891 L 707.736,466.217 L 710.833,466.543 L 713.767,466.869 L 716.864,467.195 L 719.798,467.521 L 722.895,468.01 L 725.829,468.499 L 728.926,468.988 L 740.825,471.433 L 746.367,472.9 L 751.746,474.204 L 758.755,476.16 L 759.896,474.041 z " style="fill-opacity:0.3;fill:rgb(250,150,50);stroke:rgb(0,0,0);stroke-width:1"/></g>
<g fill-rule="evenodd"><path d="M 158.95,344.255 L 159.602,343.44 L 159.928,343.114 L 160.417,342.788 L 161.069,342.462 L 161.558,342.299 L 162.862,341.81 L 164.329,341.321 L 165.959,341.158 L 167.589,340.832 L 171.012,340.343 L 199.048,336.92 L 198.722,331.215 L 198.722,324.043 L 198.885,319.479 L 195.299,318.827 L 194.321,318.664 L 193.343,318.338 L 192.365,318.175 L 191.061,317.523 L 190.735,317.197 L 190.246,317.034 L 190.083,316.708 L 189.431,315.893 L 188.779,313.937 L 188.453,312.307 L 188.29,310.514 L 188.29,303.994 L 188.453,301.712 L 188.942,296.333 L 182.748,295.844 L 175.413,295.518 L 173.131,295.355 L 156.668,295.355 L 94.2398,297.148 L 26.7586,299.104 L 23.4987,298.941 L 23.4987,333.823 L 26.7586,333.66 L 94.2398,335.779 L 100.597,335.942 L 103.694,336.105 L 106.791,336.431 L 109.725,336.594 L 115.919,337.246 L 118.853,337.735 L 121.95,338.061 L 124.883,338.55 L 127.98,339.202 L 139.879,341.647 L 145.258,342.951 L 150.8,344.418 L 157.809,346.211 L 158.95,344.255 z " style="fill-opacity:0.3;fill:rgb(250,150,50);stroke:rgb(0,0,0);stroke-width:1"/></g>
<g fill-rule="evenodd"><path d="M 250.971,504.625 L 86.0166,504.625 L 86.0166,522.229 L 250.971,522.229 L 250.971,504.625 z " style="fill-opacity:0.3;fill:rgb(250,150,50);stroke:rgb(0,0,0);stroke-width:1"/></g>
<g fill-rule="evenodd"><path d="M 172.809,277.751 L 7.85492,277.751 L 7.85492,295.355 L 172.809,295.355 L 172.809,277.751 z " style="fill-opacity:0.3;fill:rgb(250,150,50);stroke:rgb(0,0,0);stroke-width:1"/></g>
<g fill-rule="evenodd"><path d="M 624.614,277.752 L 459.823,277.752 L 459.823,295.356 L 624.614,295.356 L 624.614,277.752 z " style="fill-opacity:0.3;fill:rgb(250,150,50);stroke:rgb(0,0,0);stroke-width:1"/></g>
<g fill-rule="evenodd"><path d="M 800,328.773 L 635.209,328.773 L 635.209,346.377 L 800,346.377 L 800,328.773 z " style="fill-opacity:0.3;fill:rgb(250,150,50);stroke:rgb(0,0,0);stroke-width:1"/></g>
<g fill-rule="evenodd"><path d="M 408.57,277.752 L 253.722,277.752 L 253.722,284.271 L 408.57,284.271 L 408.57,277.752 z " style="fill-opacity:0.3;fill:rgb(250,150,50);stroke:rgb(0,0,0);stroke-width:1"/></g>
<g fill-rule="evenodd"><path d="M 407.711,284.272 L 252.863,284.272 L 252.863,290.792 L 407.711,290.792 L 407.711,284.272 z " style="fill-opacity:0.3;fill:rgb(250,150,50);stroke:rgb(0,0,0);stroke-width:1"/></g>
<g fill-rule="evenodd"><path d="M 405.856,515.729 L 251.008,515.729 L 251.008,522.248 L 405.856,522.248 L 405.856,515.729 z " style="fill-opacity:0.3;fill:rgb(250,150,50);stroke:rgb(0,0,0);stroke-width:1"/></g>
<g fill-rule="evenodd"><path d="M 792.079,515.728 L 637.231,515.728 L 637.231,522.248 L 792.079,522.248 L 792.079,515.728 z " style="fill-opacity:0.3;fill:rgb(250,150,50);stroke:rgb(0,0,0);stroke-width:1"/></g>
<g fill-rule="evenodd"><path d="M 273.661,388.065 L 273.661,354.324 L 269.586,353.835 L 263.392,354.65 L 258.665,355.302 L 254.101,356.117 L 249.863,356.932 L 244.647,358.073 L 240.572,371.276 L 244.647,384.316 L 249.863,385.457 L 254.101,386.272 L 258.665,387.087 L 263.392,387.902 L 269.586,388.717 L 273.661,388.065 z " style="fill-opacity:0.3;fill:rgb(250,150,50);stroke:rgb(0,0,0);stroke-width:1"/></g>
<g fill-rule="evenodd"><path d="M 610.297,342.747 L 610.297,309.007 L 606.222,308.355 L 600.191,309.333 L 595.301,309.985 L 590.737,310.8 L 586.662,311.615 L 581.446,312.756 L 577.371,325.958 L 581.446,338.998 L 586.662,340.139 L 590.737,340.954 L 595.301,341.769 L 600.191,342.584 L 606.222,343.399 L 610.297,342.747 z " style="fill-opacity:0.3;fill:rgb(250,150,50);stroke:rgb(0,0,0);stroke-width:1"/></g>
<g fill-rule="evenodd"><path d="M 184.517,388.347 L 189.407,387.695 L 193.971,386.88 L 198.046,386.065 L 203.262,384.761 L 207.337,371.721 L 203.262,358.681 L 198.046,357.54 L 193.971,356.562 L 189.407,355.91 L 184.517,355.095 L 178.486,354.28 L 174.411,354.769 L 174.411,388.673 L 178.486,389.162 L 184.517,388.347 z " style="fill-opacity:0.3;fill:rgb(250,150,50);stroke:rgb(0,0,0);stroke-width:1"/></g>
<g fill-rule="evenodd"><path d="M 459.103,384.627 L 463.993,383.812 L 468.394,383.16 L 472.632,382.182 L 477.848,381.041 L 481.923,368.001 L 477.848,354.961 L 472.632,353.657 L 468.394,352.842 L 463.993,352.19 L 459.103,351.375 L 452.909,350.56 L 448.835,351.049 L 448.835,384.953 L 452.909,385.442 L 459.103,384.627 z " style="fill-opacity:0.3;fill:rgb(250,150,50);stroke:rgb(0,0,0);stroke-width:1"/></g>
<g fill-rule="evenodd"><path d="M 800,426.603 L 800,392.699 L 795.925,392.21 L 789.894,393.025 L 785.004,393.677 L 780.44,394.492 L 776.365,395.307 L 771.149,396.611 L 767.074,409.651 L 771.149,422.691 L 776.365,423.832 L 780.44,424.647 L 785.004,425.462 L 789.894,426.277 L 795.925,427.092 L 800,426.603 z " style="fill-opacity:0.3;fill:rgb(250,150,50);stroke:rgb(0,0,0);stroke-width:1"/></g>
<g fill-rule="evenodd"><path d="M 251.762,426.775 L 256.652,426.123 L 261.053,425.308 L 265.291,424.493 L 270.507,423.352 L 274.581,410.149 L 270.507,397.109 L 265.291,395.968 L 261.053,395.153 L 256.652,394.338 L 251.762,393.523 L 245.568,392.708 L 241.493,393.36 L 241.493,427.101 L 245.568,427.753 L 251.762,426.775 z " style="fill-opacity:0.3;fill:rgb(250,150,50);stroke:rgb(0,0,0);stroke-width:1"/></g>
<g fill-rule="evenodd"><path d="M 185.135,500.583 L 189.862,499.768 L 194.426,499.116 L 198.664,498.138 L 203.879,496.997 L 207.954,483.957 L 203.879,470.918 L 198.664,469.614 L 194.426,468.799 L 189.862,467.984 L 185.135,467.332 L 178.941,466.517 L 174.866,467.006 L 174.866,500.909 L 178.941,501.398 L 185.135,500.583 z " style="fill-opacity:0.3;fill:rgb(250,150,50);stroke:rgb(0,0,0);stroke-width:1"/></g>
<g fill-rule="evenodd"><path d="M 218.245,381.101 L 223.135,380.286 L 227.699,379.634 L 231.774,378.656 L 236.99,377.515 L 241.065,364.475 L 236.99,351.435 L 231.774,350.131 L 227.699,349.316 L 223.135,348.501 L 218.245,347.849 L 212.214,347.034 L 208.139,347.523 L 208.139,381.427 L 212.214,381.916 L 218.245,381.101 z " style="fill-opacity:0.3;fill:rgb(250,150,50);stroke:rgb(0,0,0);stroke-width:1"/></g>
<g fill-rule="evenodd"><path d="M 759.751,347.021 L 717.208,347.021 L 720.305,356.312 L 717.208,365.603 L 759.751,365.603 L 759.751,347.021 z " style="fill-opacity:0.3;fill:rgb(250,150,50);stroke:rgb(0,0,0);stroke-width:1"/></g>
<g fill-rule="evenodd"><path d="M 520.287,354.55 L 523.384,345.259 L 480.679,345.259 L 480.679,363.841 L 523.384,363.841 L 520.287,354.55 z " style="fill-opacity:0.3;fill:rgb(250,150,50);stroke:rgb(0,0,0);stroke-width:1"/></g>
<g fill-rule="evenodd"><path d="M 388.486,497.147 L 346.106,497.147 L 349.203,506.438 L 346.106,515.728 L 388.486,515.728 L 388.486,497.147 z " style="fill-opacity:0.3;fill:rgb(250,150,50);stroke:rgb(0,0,0);stroke-width:1"/></g>
<g fill-rule="evenodd"><path d="M 60.9694,428.467 L 64.0664,419.176 L 21.3609,419.176 L 21.3609,437.758 L 64.0664,437.758 L 60.9694,428.467 z " style="fill-opacity:0.3;fill:rgb(250,150,50);stroke:rgb(0,0,0);stroke-width:1"/></g>
<g fill-rule="evenodd"><path d="M 601.868,442.472 L 601.868,422.586 L 596.326,422.423 L 591.11,422.097 L 588.502,421.771 L 585.894,421.608 L 583.286,421.282 L 576.44,420.304 L 574.647,427.476 L 573.832,430.247 L 572.854,434.485 L 572.528,436.767 L 572.039,439.049 L 571.713,441.331 L 571.387,443.45 L 571.224,446.384 L 572.039,447.362 L 572.202,447.688 L 572.365,448.34 L 572.528,449.155 L 573.017,452.089 L 601.868,442.472 z " style="fill-opacity:0.3;fill:rgb(250,150,50);stroke:rgb(0,0,0);stroke-width:1"/></g>
<g fill-rule="evenodd"><path d="M 577.368,326.443 L 577.368,306.557 L 571.989,306.394 L 566.61,306.068 L 564.002,305.743 L 561.394,305.58 L 558.786,305.254 L 552.103,304.276 L 550.147,311.447 L 549.495,314.218 L 548.517,318.456 L 548.028,320.738 L 547.376,325.302 L 547.05,327.421 L 546.887,330.355 L 547.539,331.333 L 548.028,332.311 L 548.191,333.126 L 548.517,336.06 L 577.368,326.443 z " style="fill-opacity:0.3;fill:rgb(250,150,50);stroke:rgb(0,0,0);stroke-width:1"/></g>
<g fill-rule="evenodd"><path d="M 415.707,509.606 L 416.359,506.835 L 417.337,502.597 L 418.315,498.033 L 418.641,495.751 L 418.804,493.632 L 418.967,490.698 L 418.315,489.72 L 418.152,489.394 L 417.989,488.742 L 417.663,487.927 L 417.337,484.993 L 388.486,494.61 L 388.486,514.496 L 394.028,514.659 L 399.244,514.985 L 401.852,515.311 L 404.46,515.474 L 407.068,515.8 L 413.751,516.778 L 415.707,509.606 z " style="fill-opacity:0.3;fill:rgb(250,150,50);stroke:rgb(0,0,0);stroke-width:1"/></g>
<g fill-rule="evenodd"><path d="M 333.072,440.643 L 333.886,437.872 L 334.864,433.471 L 335.19,431.189 L 335.679,429.07 L 336.331,424.506 L 336.494,421.735 L 335.679,420.757 L 335.516,420.431 L 335.353,419.779 L 335.19,418.964 L 334.701,415.867 L 305.851,425.484 L 305.851,445.37 L 311.393,445.696 L 319.217,446.185 L 324.433,446.837 L 331.279,447.815 L 333.072,440.643 z " style="fill-opacity:0.3;fill:rgb(250,150,50);stroke:rgb(0,0,0);stroke-width:1"/></g>
<g fill-rule="evenodd"><path d="M 571.209,439.217 L 571.535,438.402 L 571.698,437.75 L 572.024,437.098 L 572.513,436.446 L 572.35,433.675 L 572.187,431.393 L 571.698,429.111 L 571.372,426.829 L 570.883,424.71 L 569.905,420.309 L 567.297,410.366 L 563.222,411.018 L 558.006,411.67 L 555.398,411.833 L 552.79,412.159 L 547.085,412.485 L 542.032,412.648 L 542.032,432.697 L 570.883,442.151 L 571.209,439.217 z " style="fill-opacity:0.3;fill:rgb(250,150,50);stroke:rgb(0,0,0);stroke-width:1"/></g>
<g fill-rule="evenodd"><path d="M 344.348,436.049 L 352.172,435.071 L 354.78,434.908 L 360.485,434.419 L 365.538,434.256 L 365.538,414.37 L 336.687,404.753 L 336.198,407.85 L 336.035,408.665 L 335.872,409.317 L 335.546,409.806 L 334.894,410.621 L 335.22,413.392 L 335.383,415.674 L 335.709,417.956 L 336.198,420.075 L 336.687,422.357 L 337.665,426.758 L 340.273,436.701 L 344.348,436.049 z " style="fill-opacity:0.3;fill:rgb(250,150,50);stroke:rgb(0,0,0);stroke-width:1"/></g>
<g fill-rule="evenodd"><path d="M 428.038,521.58 L 435.862,520.602 L 438.469,520.439 L 444.011,520.113 L 449.064,519.787 L 449.064,499.901 L 420.214,490.284 L 419.888,493.381 L 419.725,494.196 L 419.562,494.848 L 419.236,495.5 L 418.584,496.152 L 418.747,498.923 L 419.725,505.769 L 420.214,507.888 L 421.192,512.289 L 423.8,522.232 L 428.038,521.58 z " style="fill-opacity:0.3;fill:rgb(250,150,50);stroke:rgb(0,0,0);stroke-width:1"/></g>
<g fill-rule="evenodd"><path d="M 284.464,443.083 L 287.072,442.594 L 289.68,442.431 L 294.896,441.779 L 300.6,441.453 L 305.653,441.29 L 305.653,421.404 L 276.803,411.787 L 276.477,414.884 L 276.314,415.699 L 275.988,416.351 L 275.662,416.84 L 275.173,417.655 L 275.336,420.426 L 275.662,422.708 L 275.988,424.827 L 276.314,427.109 L 276.803,429.391 L 277.781,433.629 L 280.389,443.735 L 284.464,443.083 z " style="fill-opacity:0.3;fill:rgb(250,150,50);stroke:rgb(0,0,0);stroke-width:1"/></g>
<g fill-rule="evenodd"><path d="M 206.836,341.402 L 197.708,341.565 L 192.166,341.728 L 181.082,342.706 L 175.703,343.195 L 170.161,344.01 L 164.619,344.988 L 156.796,346.455 L 158.588,354.116 L 164.13,353.79 L 170.976,353.79 L 173.584,353.953 L 178.474,354.279 L 181.082,354.605 L 185.972,355.257 L 196.078,356.887 L 203.25,358.354 L 206.836,341.402 z " style="fill-opacity:0.3;fill:rgb(250,150,50);stroke:rgb(0,0,0);stroke-width:1"/></g>
<g fill-rule="evenodd"><path d="M 784.761,365.138 L 775.633,365.301 L 764.549,365.953 L 759.007,366.442 L 753.628,367.094 L 742.545,368.724 L 734.721,370.354 L 736.514,378.014 L 742.056,377.688 L 744.011,377.525 L 746.456,377.525 L 748.901,377.688 L 751.509,377.688 L 753.954,377.851 L 756.562,378.177 L 759.007,378.34 L 761.452,378.666 L 764.06,378.992 L 774.003,380.785 L 781.175,382.252 L 784.761,365.138 z " style="fill-opacity:0.3;fill:rgb(250,150,50);stroke:rgb(0,0,0);stroke-width:1"/></g>
<g fill-rule="evenodd"><path d="M 15.3151,452.521 L 20.8571,452.195 L 26.236,451.869 L 31.7779,451.38 L 42.8618,450.076 L 48.2407,449.098 L 56.2276,447.631 L 54.4347,439.808 L 48.8927,440.134 L 46.9368,440.297 L 41.8838,440.297 L 39.4388,440.134 L 36.8309,439.971 L 34.3859,439.808 L 31.9409,439.482 L 29.333,439.156 L 26.888,438.83 L 16.7821,437.037 L 9.6102,435.57 L 6.02424,452.684 L 15.3151,452.521 z " style="fill-opacity:0.3;fill:rgb(250,150,50);stroke:rgb(0,0,0);stroke-width:1"/></g>
<g fill-rule="evenodd"><path d="M 243.84,381.735 L 234.712,382.061 L 229.17,382.224 L 218.086,383.202 L 212.707,383.691 L 201.623,385.321 L 193.8,386.951 L 195.593,394.611 L 201.134,394.285 L 207.98,394.285 L 210.588,394.448 L 213.033,394.611 L 215.641,394.774 L 218.086,395.1 L 220.531,395.263 L 223.139,395.752 L 233.082,397.382 L 240.254,398.849 L 243.84,381.735 z " style="fill-opacity:0.3;fill:rgb(250,150,50);stroke:rgb(0,0,0);stroke-width:1"/></g>
<g fill-rule="evenodd"><path d="M 550.757,411.391 L 560.863,409.598 L 563.308,409.272 L 565.916,408.946 L 568.361,408.62 L 570.806,408.457 L 573.414,408.294 L 575.859,408.131 L 580.912,408.131 L 584.824,408.294 L 588.41,408.62 L 590.04,400.796 L 582.216,399.329 L 576.674,398.351 L 571.295,397.699 L 565.753,397.047 L 560.211,396.558 L 554.832,396.232 L 549.29,395.906 L 541.629,395.743 L 545.215,412.532 L 550.757,411.391 z " style="fill-opacity:0.3;fill:rgb(250,150,50);stroke:rgb(0,0,0);stroke-width:1"/></g>
<g fill-rule="evenodd"><path d="M 579.694,312.313 L 595.342,309.542 L 600.232,308.89 L 602.84,308.564 L 605.285,308.401 L 607.893,308.238 L 610.338,308.075 L 615.391,308.075 L 619.303,308.238 L 622.726,308.401 L 624.519,300.741 L 616.695,299.274 L 611.153,298.296 L 605.774,297.644 L 600.232,296.992 L 594.69,296.503 L 583.606,295.851 L 576.108,295.688 L 579.694,312.313 z " style="fill-opacity:0.3;fill:rgb(250,150,50);stroke:rgb(0,0,0);stroke-width:1"/></g>
<g fill-rule="evenodd"><path d="M 96.4124,351.222 L 106.518,349.429 L 108.963,349.103 L 111.571,348.777 L 114.016,348.614 L 116.624,348.288 L 119.069,348.125 L 121.514,348.125 L 124.122,347.962 L 126.567,348.125 L 130.479,348.288 L 134.065,348.451 L 135.858,340.79 L 127.871,339.16 L 122.492,338.345 L 116.95,337.53 L 111.408,336.878 L 105.866,336.389 L 100.487,336.063 L 94.9454,335.9 L 87.4475,335.737 L 90.8705,352.363 L 96.4124,351.222 z " style="fill-opacity:0.3;fill:rgb(250,150,50);stroke:rgb(0,0,0);stroke-width:1"/></g>
<g fill-rule="evenodd"><path d="M 619.425,331.307 L 629.53,329.514 L 631.975,329.188 L 634.583,328.862 L 637.028,328.536 L 639.473,328.373 L 642.081,328.21 L 644.526,328.047 L 649.579,328.047 L 653.491,328.21 L 657.077,328.536 L 658.707,320.712 L 650.883,319.245 L 645.341,318.267 L 639.962,317.615 L 634.42,316.963 L 628.878,316.474 L 623.5,316.148 L 617.958,315.822 L 610.297,315.659 L 613.883,332.448 L 619.425,331.307 z " style="fill-opacity:0.3;fill:rgb(250,150,50);stroke:rgb(0,0,0);stroke-width:1"/></g>
<g fill-rule="evenodd"><path d="M 300.522,514.826 L 301.5,514.5 L 302.478,514.011 L 303.456,513.359 L 304.108,512.707 L 304.76,511.729 L 305.249,510.914 L 305.575,510.099 L 305.901,508.795 L 306.227,507.328 L 306.227,507.002 L 305.738,505.046 L 305.575,504.231 L 305.249,503.416 L 304.76,502.601 L 303.456,500.971 L 302.478,500.319 L 301.5,499.83 L 300.522,499.504 L 299.544,499.341 L 298.24,499.341 L 271.019,499.504 L 271.508,503.579 L 271.671,507.165 L 271.508,510.751 L 271.019,514.989 L 299.544,514.989 L 300.522,514.826 z " style="fill-opacity:0.3;fill:rgb(250,150,50);stroke:rgb(0,0,0);stroke-width:1"/></g>
<g fill-rule="evenodd"><path d="M 55.7533,418.955 L 56.8943,418.792 L 57.8723,418.629 L 58.8503,418.14 L 59.6653,417.488 L 60.4802,416.673 L 61.1322,415.858 L 61.7842,414.228 L 62.2732,412.761 L 62.5992,411.457 L 62.5992,411.131 L 62.1102,409.012 L 61.7842,408.36 L 61.1322,406.73 L 60.4802,405.752 L 59.6653,404.937 L 58.8503,404.285 L 56.8943,403.633 L 55.7533,403.47 L 27.2286,403.47 L 27.5546,407.708 L 27.8806,411.294 L 27.5546,414.88 L 27.2286,419.118 L 55.1013,419.118 L 55.7533,418.955 z " style="fill-opacity:0.3;fill:rgb(250,150,50);stroke:rgb(0,0,0);stroke-width:1"/></g>
<g fill-rule="evenodd"><path d="M 793.96,364.858 L 794.938,364.532 L 795.916,364.043 L 796.894,363.391 L 798.198,361.761 L 798.687,360.946 L 799.013,360.131 L 799.339,358.664 L 799.665,357.36 L 799.665,357.034 L 799.176,355.078 L 799.013,354.263 L 798.687,353.448 L 798.198,352.633 L 797.546,351.655 L 796.894,351.003 L 795.916,350.351 L 794.938,349.862 L 793.96,349.536 L 792.982,349.373 L 764.295,349.373 L 764.784,353.611 L 764.947,357.197 L 764.784,360.783 L 764.295,365.021 L 792.982,365.021 L 793.96,364.858 z " style="fill-opacity:0.3;fill:rgb(250,150,50);stroke:rgb(0,0,0);stroke-width:1"/></g>
<g fill-rule="evenodd"><path d="M 588.544,471.002 L 589.522,470.839 L 590.663,470.676 L 591.641,470.187 L 592.456,469.535 L 593.271,468.72 L 593.923,467.905 L 594.575,466.275 L 595.064,464.808 L 595.39,463.504 L 595.39,463.015 L 594.901,461.059 L 593.923,458.615 L 593.271,457.8 L 592.456,456.985 L 591.641,456.333 L 590.663,455.844 L 589.522,455.681 L 588.544,455.518 L 587.24,455.355 L 560.019,455.518 L 560.345,459.756 L 560.671,463.341 L 560.345,466.927 L 560.019,471.002 L 587.892,471.165 L 588.544,471.002 z " style="fill-opacity:0.3;fill:rgb(250,150,50);stroke:rgb(0,0,0);stroke-width:1"/></g>
<g fill-rule="evenodd"><path d="M 22.0835,350.461 L 24.2025,342.148 L 22.0835,333.835 L 5.9467,332.368 L 1.87175,332.857 L 1.87175,351.439 L 5.9467,351.765 L 22.0835,350.461 z " style="fill-opacity:0.3;fill:rgb(250,150,50);stroke:rgb(0,0,0);stroke-width:1"/></g>
<g fill-rule="evenodd"><path d="M 622.286,441.375 L 624.405,433.062 L 622.286,424.75 L 606.149,423.283 L 602.074,423.609 L 602.074,442.353 L 606.149,442.679 L 622.286,441.375 z " style="fill-opacity:0.3;fill:rgb(250,150,50);stroke:rgb(0,0,0);stroke-width:1"/></g>
<g fill-rule="evenodd"><path d="M 715.929,378.125 L 718.048,369.812 L 715.929,361.499 L 699.792,360.195 L 695.717,360.521 L 695.717,379.266 L 699.792,379.592 L 715.929,378.125 z " style="fill-opacity:0.3;fill:rgb(250,150,50);stroke:rgb(0,0,0);stroke-width:1"/></g>
<g fill-rule="evenodd"><path d="M 20.457,422.221 L 22.576,413.908 L 20.457,405.595 L 4.15717,404.128 L 0.0822202,404.617 L 0.0822202,423.199 L 4.15717,423.688 L 20.457,422.221 z " style="fill-opacity:0.3;fill:rgb(250,150,50);stroke:rgb(0,0,0);stroke-width:1"/></g>
</svg>
