<?xml version="1.0" standalone="no"?>
<!DOCTYPE svg PUBLIC "-//W3C//DTD SVG 1.1//EN"
"http://www.w3.org/Graphics/SVG/1.1/DTD/svg11.dtd">
<svg width="100%" height="100%" version="1.1"
xmlns="http://www.w3.org/2000/svg"
xmlns:xlink="http://www.w3.org/1999/xlink">
<rect x="-5.68434e-14" y="279.332" width="800" height="241.336" style="fill-opacity:0;fill:rgb(255,255,255);stroke:rgb(0,0,0);stroke-width:1"/>
<g fill-rule="evenodd"><path d="M 50.037,477.908 L 54.0593,475.816 L 58.2425,473.725 L 66.9306,469.863 L 69.9875,468.737 L 75.9405,466.645 L 79.4801,465.519 L 83.1805,464.554 L 86.7201,463.589 L 90.4206,462.784 L 93.9602,462.141 L 97.6607,461.658 L 102.487,461.175 L 172.153,459.084 L 172.153,416.93 L 168.935,416.93 L 102.327,415 L 36.0395,413.23 L 26.8688,412.908 L 15.9282,412.908 L 10.4579,413.069 L 6.59653,413.23 L 4.08069e-06,413.552 L 1.12624,462.141 L 22.2029,466.485 L 25.9034,467.289 L 27.8341,467.611 L 29.443,468.093 L 31.2128,468.576 L 32.6608,469.059 L 34.2697,469.542 L 34.7524,469.863 L 35.396,470.346 L 36.0395,470.668 L 36.5222,470.99 L 37.6485,472.277 L 38.292,472.92 L 38.7747,473.564 L 39.2574,474.368 L 39.74,475.334 L 41.0272,477.425 L 42.9578,481.608 L 50.037,477.908 z " style="fill-opacity:0.3;fill:rgb(250,150,50);stroke:rgb(0,0,0);stroke-width:1"/></g>
<g fill-rule="evenodd"><path d="M 789.7,520.507 L 793.561,520.346 L 799.997,520.024 L 798.871,471.596 L 777.955,467.091 L 774.254,466.287 L 772.324,465.965 L 770.715,465.643 L 768.945,465.161 L 767.497,464.678 L 766.049,464.034 L 764.118,463.069 L 763.796,462.586 L 762.509,461.46 L 762.027,460.817 L 761.383,460.012 L 760.418,458.403 L 759.292,456.151 L 757.2,452.129 L 750.121,455.829 L 746.098,457.921 L 741.915,459.851 L 739.019,461.299 L 736.123,462.586 L 733.227,463.713 L 730.17,464.839 L 724.217,467.091 L 720.678,468.218 L 716.977,469.183 L 713.438,469.987 L 709.737,470.792 L 706.198,471.435 L 702.497,472.079 L 697.67,472.401 L 628.005,474.653 L 628.005,516.807 L 631.222,516.646 L 697.831,518.576 L 764.118,520.507 L 773.289,520.668 L 784.23,520.668 L 789.7,520.507 z " style="fill-opacity:0.3;fill:rgb(250,150,50);stroke:rgb(0,0,0);stroke-width:1"/></g>
<g fill-rule="evenodd"><path d="M 233.349,520.506 L 237.21,520.345 L 243.807,520.024 L 242.52,471.435 L 217.743,466.286 L 215.973,465.964 L 214.203,465.482 L 210.985,464.516 L 209.537,464.034 L 208.894,463.712 L 208.25,463.229 L 207.285,462.586 L 205.998,461.299 L 205.032,460.011 L 204.389,459.207 L 203.906,458.242 L 202.78,456.15 L 200.688,451.967 L 193.77,455.667 L 185.725,459.85 L 182.829,461.138 L 179.772,462.425 L 176.876,463.712 L 173.98,464.838 L 167.866,466.93 L 164.327,468.056 L 160.787,469.021 L 157.087,469.987 L 153.547,470.791 L 149.847,471.435 L 146.146,471.917 L 141.48,472.4 L 71.6538,474.492 L 71.6538,516.645 L 74.8716,516.645 L 141.48,518.576 L 207.606,520.345 L 216.938,520.667 L 227.879,520.667 L 233.349,520.506 z " style="fill-opacity:0.3;fill:rgb(250,150,50);stroke:rgb(0,0,0);stroke-width:1"/></g>
<g fill-rule="evenodd"><path d="M 222.484,344.336 L 226.667,342.244 L 230.689,340.152 L 236.481,337.578 L 239.538,336.291 L 242.434,335.165 L 248.548,333.073 L 252.088,331.947 L 255.627,330.982 L 259.328,330.016 L 262.867,329.212 L 266.568,328.568 L 270.107,328.086 L 274.934,327.603 L 344.6,325.511 L 344.6,283.358 L 341.543,283.358 L 274.934,281.427 L 208.486,279.657 L 199.316,279.336 L 188.375,279.336 L 182.905,279.497 L 179.043,279.657 L 172.447,279.979 L 173.734,328.568 L 198.511,333.717 L 200.281,334.039 L 202.051,334.521 L 205.268,335.487 L 206.717,335.969 L 207.36,336.291 L 208.004,336.774 L 208.969,337.417 L 210.256,338.704 L 211.221,339.992 L 211.704,340.796 L 212.187,341.761 L 213.474,343.853 L 215.566,348.036 L 222.484,344.336 z " style="fill-opacity:0.3;fill:rgb(250,150,50);stroke:rgb(0,0,0);stroke-width:1"/></g>
<g fill-rule="evenodd"><path d="M 231.07,454.288 L 240.24,454.127 L 306.527,452.357 L 373.136,450.266 L 376.354,450.426 L 376.354,408.273 L 306.688,406.181 L 301.862,405.699 L 298.161,405.216 L 294.461,404.573 L 290.921,403.768 L 287.381,402.803 L 283.681,401.837 L 280.141,400.711 L 274.188,398.62 L 271.131,397.493 L 262.443,393.632 L 258.26,391.54 L 254.238,389.449 L 248.607,386.553 L 246.032,391.701 L 245.389,392.827 L 244.745,393.793 L 244.263,394.597 L 243.619,395.402 L 243.136,396.206 L 241.688,397.493 L 240.401,398.459 L 237.505,399.907 L 235.735,400.389 L 234.127,400.872 L 232.357,401.194 L 226.565,402.32 L 205.327,406.825 L 204.201,453.644 L 210.797,454.127 L 214.659,454.288 L 220.129,454.449 L 225.599,454.449 L 231.07,454.288 z " style="fill-opacity:0.3;fill:rgb(250,150,50);stroke:rgb(0,0,0);stroke-width:1"/></g>
<g fill-rule="evenodd"><path d="M 303.543,394.827 L 369.669,392.896 L 436.278,390.965 L 439.496,391.126 L 439.496,348.973 L 369.669,346.881 L 364.842,346.399 L 361.303,345.755 L 357.602,345.112 L 354.063,344.468 L 350.362,343.503 L 346.823,342.537 L 343.283,341.411 L 337.169,339.319 L 334.273,338.032 L 331.216,336.906 L 328.32,335.619 L 325.424,334.171 L 321.402,332.24 L 317.38,330.149 L 311.909,327.092 L 309.174,332.401 L 308.531,333.527 L 308.048,334.332 L 307.565,335.297 L 306.278,336.906 L 304.991,338.193 L 304.348,338.676 L 303.704,338.998 L 303.06,339.48 L 300.647,340.446 L 299.038,340.928 L 295.499,341.894 L 289.867,343.02 L 268.469,347.525 L 267.343,394.344 L 273.939,394.666 L 277.801,394.827 L 283.271,394.988 L 294.211,394.988 L 303.543,394.827 z " style="fill-opacity:0.3;fill:rgb(250,150,50);stroke:rgb(0,0,0);stroke-width:1"/></g>
<g fill-rule="evenodd"><path d="M 308.762,520.346 L 375.21,518.576 L 441.819,516.645 L 444.875,516.645 L 444.875,474.492 L 375.21,472.4 L 370.383,471.918 L 366.843,471.435 L 363.143,470.791 L 359.603,469.987 L 355.903,469.022 L 352.363,468.056 L 348.824,466.93 L 342.71,464.838 L 339.814,463.712 L 336.757,462.425 L 330.965,459.851 L 326.942,457.759 L 322.759,455.668 L 317.128,452.772 L 314.554,457.92 L 313.91,459.046 L 313.428,460.012 L 312.784,460.816 L 312.301,461.621 L 311.658,462.425 L 310.21,463.873 L 309.727,464.195 L 309.084,464.678 L 308.279,464.999 L 307.636,465.482 L 306.027,466.126 L 304.418,466.608 L 302.648,467.091 L 300.878,467.413 L 295.247,468.539 L 273.849,473.205 L 272.722,519.863 L 279.319,520.346 L 283.18,520.507 L 288.65,520.668 L 299.591,520.668 L 308.762,520.346 z " style="fill-opacity:0.3;fill:rgb(250,150,50);stroke:rgb(0,0,0);stroke-width:1"/></g>
<g fill-rule="evenodd"><path d="M 421.935,347.739 L 488.222,345.808 L 554.831,343.877 L 558.049,343.877 L 558.049,301.724 L 488.383,299.632 L 483.556,299.15 L 479.856,298.667 L 476.155,298.023 L 472.616,297.219 L 468.915,296.414 L 465.376,295.288 L 461.836,294.323 L 455.883,292.07 L 452.826,290.944 L 449.93,289.657 L 446.873,288.37 L 443.977,287.083 L 435.933,282.9 L 430.302,280.004 L 427.566,285.313 L 427.084,286.439 L 426.44,287.244 L 425.957,288.048 L 424.67,289.657 L 423.383,291.105 L 422.74,291.427 L 421.453,292.392 L 419.039,293.358 L 415.821,294.323 L 414.052,294.806 L 408.26,295.932 L 387.022,300.437 L 385.896,347.256 L 392.331,347.578 L 396.193,347.739 L 401.663,347.9 L 412.604,347.9 L 421.935,347.739 z " style="fill-opacity:0.3;fill:rgb(250,150,50);stroke:rgb(0,0,0);stroke-width:1"/></g>
<g fill-rule="evenodd"><path d="M 47.9462,368.948 L 53.4165,367.661 L 58.7259,366.213 L 70.6318,363.8 L 73.5279,363.317 L 76.5848,362.834 L 79.4808,362.352 L 82.5378,362.03 L 85.4338,361.708 L 88.4907,361.386 L 91.3868,361.065 L 97.5006,360.743 L 103.775,360.421 L 170.384,358.49 L 173.602,358.651 L 173.602,324.221 L 170.384,324.381 L 103.936,322.29 L 42.3151,320.681 L 37.0057,320.52 L 31.0527,320.681 L 25.9042,320.681 L 18.6641,321.003 L 10.4587,321.646 L 10.7805,326.956 L 10.9414,329.208 L 10.9414,335.644 L 10.7805,337.414 L 10.4587,339.023 L 9.81512,340.953 L 9.17156,341.758 L 8.68888,342.24 L 8.20621,342.562 L 6.91909,343.206 L 6.11463,343.367 L 5.14929,343.688 L 2.89682,344.01 L 0.483454,344.493 L 0.644345,348.998 L 0.644345,356.077 L 0.483454,359.777 L 0.000781728,362.673 L 29.6047,366.213 L 32.0181,366.696 L 32.1789,365.73 L 33.1443,365.891 L 34.5923,366.052 L 36.0403,366.535 L 37.3274,367.018 L 37.971,367.178 L 38.9364,367.822 L 40.0626,368.948 L 41.0279,370.879 L 47.9462,368.948 z " style="fill-opacity:0.3;fill:rgb(250,150,50);stroke:rgb(0,0,0);stroke-width:1"/></g>
<g fill-rule="evenodd"><path d="M 482.793,417.916 L 488.103,416.468 L 493.573,415.181 L 505.318,412.768 L 508.214,412.285 L 511.271,411.803 L 514.167,411.32 L 517.224,410.998 L 520.281,410.515 L 523.177,410.194 L 526.234,410.033 L 529.13,409.872 L 532.348,409.55 L 538.623,409.389 L 605.231,407.298 L 608.449,407.459 L 608.449,373.189 L 605.231,373.189 L 538.623,371.258 L 477.001,369.488 L 465.9,369.488 L 460.751,369.649 L 453.511,369.971 L 445.145,370.615 L 445.628,375.763 L 445.789,378.176 L 445.789,382.842 L 445.628,384.612 L 445.628,386.221 L 445.306,387.83 L 444.984,388.956 L 444.823,389.439 L 444.501,389.761 L 444.019,390.726 L 443.697,390.887 L 443.375,391.209 L 443.053,391.369 L 442.571,391.53 L 441.605,392.013 L 440.801,392.335 L 439.836,392.496 L 437.583,392.978 L 435.17,393.3 L 435.331,397.966 L 435.492,401.506 L 435.17,408.746 L 434.687,411.481 L 464.452,415.181 L 466.865,415.503 L 467.026,414.538 L 467.831,414.699 L 470.727,415.342 L 472.175,415.825 L 472.657,416.147 L 473.14,416.308 L 473.623,416.629 L 474.749,417.756 L 475.875,419.686 L 482.793,417.916 z " style="fill-opacity:0.3;fill:rgb(250,150,50);stroke:rgb(0,0,0);stroke-width:1"/></g>
<g fill-rule="evenodd"><path d="M 718.986,464.147 L 726.226,463.825 L 734.593,463.182 L 734.11,457.872 L 733.949,455.62 L 733.949,449.184 L 734.11,447.575 L 734.432,445.966 L 734.753,444.84 L 735.075,443.875 L 735.719,443.07 L 736.041,442.909 L 736.362,442.588 L 736.684,442.427 L 737.006,442.105 L 738.937,441.461 L 739.902,441.301 L 742.154,440.818 L 744.407,440.496 L 744.246,435.83 L 744.246,428.751 L 744.407,425.051 L 745.05,422.315 L 715.286,418.615 L 712.872,418.293 L 712.711,419.258 L 710.298,418.776 L 708.85,418.454 L 707.563,417.971 L 707.08,417.65 L 706.437,417.328 L 706.115,417.006 L 705.632,416.845 L 704.989,416.041 L 703.862,413.949 L 696.944,415.88 L 691.474,417.328 L 686.164,418.615 L 674.419,421.028 L 671.362,421.511 L 668.466,421.994 L 665.409,422.476 L 662.513,422.798 L 659.457,423.12 L 656.56,423.442 L 653.504,423.763 L 647.39,424.085 L 641.115,424.407 L 574.506,426.338 L 571.288,426.338 L 571.288,460.607 L 574.506,460.447 L 641.115,462.538 L 702.736,464.147 L 707.885,464.308 L 713.838,464.308 L 718.986,464.147 z " style="fill-opacity:0.3;fill:rgb(250,150,50);stroke:rgb(0,0,0);stroke-width:1"/></g>
<g fill-rule="evenodd"><path d="M 742.912,355.177 L 751.118,354.534 L 750.635,349.224 L 750.635,340.376 L 750.796,338.767 L 750.796,337.962 L 750.957,337.158 L 751.279,336.031 L 751.6,335.549 L 751.761,335.227 L 752.405,334.423 L 752.566,334.101 L 752.888,333.94 L 753.37,333.618 L 754.657,332.975 L 755.462,332.653 L 756.427,332.492 L 758.68,332.009 L 761.093,331.687 L 760.932,327.022 L 760.932,320.103 L 761.093,316.403 L 761.576,313.507 L 731.972,309.806 L 729.558,309.484 L 729.398,310.45 L 728.432,310.289 L 725.536,309.645 L 724.249,309.163 L 723.605,309.002 L 722.64,308.358 L 721.514,307.232 L 720.549,305.301 L 713.791,307.071 L 708.321,308.519 L 703.011,309.806 L 691.106,312.22 L 688.21,312.863 L 685.153,313.346 L 682.257,313.668 L 679.2,314.15 L 676.304,314.472 L 673.247,314.794 L 670.351,314.955 L 667.294,315.277 L 664.237,315.437 L 657.962,315.598 L 591.353,317.69 L 588.135,317.529 L 588.135,351.799 L 591.353,351.799 L 657.801,353.729 L 719.261,355.499 L 735.672,355.499 L 742.912,355.177 z " style="fill-opacity:0.3;fill:rgb(250,150,50);stroke:rgb(0,0,0);stroke-width:1"/></g>
<g fill-rule="evenodd"><path d="M 486.721,520.507 L 548.342,518.898 L 614.951,516.807 L 618.169,516.968 L 618.169,482.698 L 614.951,482.698 L 548.342,480.767 L 538.85,480.284 L 535.954,480.124 L 532.897,479.802 L 530.001,479.48 L 523.887,478.836 L 520.991,478.354 L 517.934,477.871 L 515.038,477.388 L 503.293,474.975 L 497.823,473.688 L 492.513,472.24 L 485.595,470.309 L 484.469,472.401 L 483.825,473.205 L 483.343,473.366 L 481.895,474.332 L 480.447,474.814 L 479.159,475.136 L 477.551,475.458 L 475.942,475.619 L 472.563,476.101 L 444.89,479.48 L 445.211,485.111 L 445.211,488.651 L 445.051,492.19 L 444.89,496.856 L 448.59,497.339 L 449.556,497.661 L 450.521,497.822 L 451.486,498.143 L 452.291,498.465 L 452.773,498.787 L 453.095,498.948 L 453.417,499.27 L 453.739,499.43 L 454.221,500.235 L 454.543,500.718 L 454.704,501.2 L 455.026,502.327 L 455.348,503.935 L 455.348,505.544 L 455.508,507.314 L 455.508,511.98 L 455.348,514.232 L 454.865,519.542 L 460.979,520.025 L 468.219,520.507 L 470.471,520.507 L 475.62,520.668 L 483.182,520.668 L 486.721,520.507 z " style="fill-opacity:0.3;fill:rgb(250,150,50);stroke:rgb(0,0,0);stroke-width:1"/></g>
<g fill-rule="evenodd"><path d="M 730.172,413.198 L 796.781,411.268 L 799.999,411.268 L 799.999,376.998 L 796.781,377.159 L 730.172,375.067 L 723.898,374.906 L 720.68,374.584 L 717.784,374.424 L 714.727,374.263 L 711.831,373.941 L 708.774,373.458 L 705.878,373.136 L 699.764,372.171 L 696.868,371.688 L 685.123,369.275 L 679.653,367.988 L 674.343,366.54 L 667.425,364.609 L 666.299,366.701 L 665.655,367.505 L 664.69,368.149 L 664.207,368.31 L 663.724,368.631 L 662.276,369.114 L 661.15,369.436 L 657.932,370.079 L 654.554,370.401 L 626.88,373.78 L 627.202,379.411 L 627.202,382.951 L 627.041,386.49 L 626.88,391.156 L 630.581,391.8 L 632.512,392.122 L 633.477,392.443 L 634.281,392.926 L 634.764,393.087 L 635.086,393.248 L 635.408,393.57 L 635.729,393.73 L 636.212,394.696 L 636.534,395.018 L 636.695,395.5 L 637.017,396.626 L 637.338,398.235 L 637.338,399.844 L 637.499,401.614 L 637.499,406.28 L 637.338,408.693 L 636.856,413.842 L 642.969,414.324 L 650.21,414.807 L 652.462,414.807 L 657.611,414.968 L 668.551,414.968 L 730.172,413.198 z " style="fill-opacity:0.3;fill:rgb(250,150,50);stroke:rgb(0,0,0);stroke-width:1"/></g>
<g fill-rule="evenodd"><path d="M 72.8632,413.817 L 134.484,412.208 L 201.093,410.116 L 204.311,410.277 L 204.311,376.007 L 201.093,376.007 L 134.484,374.077 L 128.21,373.755 L 122.096,373.433 L 119.039,373.111 L 116.143,372.79 L 113.086,372.468 L 110.19,372.146 L 107.133,371.663 L 104.237,371.181 L 101.18,370.698 L 89.4349,368.285 L 83.9646,366.837 L 78.6552,365.55 L 71.7369,363.619 L 70.6107,365.71 L 69.9671,366.354 L 68.5191,367.319 L 68.0364,367.48 L 66.7493,367.963 L 65.3013,368.446 L 63.6924,368.767 L 62.0835,368.928 L 58.7048,369.411 L 31.0316,372.79 L 31.3533,378.421 L 31.3533,385.5 L 31.1924,390.005 L 34.732,390.649 L 35.6974,390.809 L 38.5934,391.775 L 38.9152,391.936 L 39.5588,392.579 L 39.8805,392.74 L 40.5241,393.545 L 41.1677,395.475 L 41.4895,397.084 L 41.6503,398.854 L 41.6503,405.29 L 41.4895,407.542 L 41.0068,412.851 L 47.1206,413.334 L 54.3607,413.656 L 56.6132,413.817 L 61.7617,413.978 L 69.3236,413.978 L 72.8632,413.817 z " style="fill-opacity:0.3;fill:rgb(250,150,50);stroke:rgb(0,0,0);stroke-width:1"/></g>
<g fill-rule="evenodd"><path d="M 531.869,477.627 L 532.512,476.823 L 532.834,476.501 L 533.317,476.179 L 533.96,475.858 L 534.443,475.697 L 535.73,475.214 L 537.178,474.731 L 538.787,474.57 L 540.396,474.249 L 543.775,473.766 L 571.448,470.387 L 571.126,464.756 L 571.126,457.677 L 571.287,453.172 L 567.747,452.528 L 566.782,452.368 L 565.817,452.046 L 564.851,451.885 L 563.564,451.241 L 563.243,450.92 L 562.76,450.759 L 562.599,450.437 L 561.955,449.632 L 561.312,447.702 L 560.99,446.093 L 560.829,444.323 L 560.829,437.887 L 560.99,435.635 L 561.473,430.325 L 555.359,429.843 L 548.119,429.521 L 545.866,429.36 L 529.616,429.36 L 467.995,431.13 L 401.386,433.061 L 398.169,432.9 L 398.169,467.33 L 401.386,467.169 L 467.995,469.261 L 474.27,469.422 L 477.327,469.583 L 480.384,469.905 L 483.28,470.066 L 489.394,470.709 L 492.29,471.192 L 495.347,471.514 L 498.243,471.996 L 501.3,472.64 L 513.045,475.053 L 518.354,476.34 L 523.824,477.788 L 530.743,479.558 L 531.869,477.627 z " style="fill-opacity:0.3;fill:rgb(250,150,50);stroke:rgb(0,0,0);stroke-width:1"/></g>
<g fill-rule="evenodd"><path d="M 163.637,285.768 L 0.81541,285.768 L 0.81541,303.144 L 163.637,303.144 L 163.637,285.768 z " style="fill-opacity:0.3;fill:rgb(250,150,50);stroke:rgb(0,0,0);stroke-width:1"/></g>
<g fill-rule="evenodd"><path d="M 163.637,303.144 L 0.81541,303.144 L 0.81541,320.52 L 163.637,320.52 L 163.637,303.144 z " style="fill-opacity:0.3;fill:rgb(250,150,50);stroke:rgb(0,0,0);stroke-width:1"/></g>
<g fill-rule="evenodd"><path d="M 602.16,352.112 L 439.499,352.112 L 439.499,369.488 L 602.16,369.488 L 602.16,352.112 z " style="fill-opacity:0.3;fill:rgb(250,150,50);stroke:rgb(0,0,0);stroke-width:1"/></g>
<g fill-rule="evenodd"><path d="M 639.103,279.371 L 476.442,279.371 L 476.442,296.747 L 639.103,296.747 L 639.103,279.371 z " style="fill-opacity:0.3;fill:rgb(250,150,50);stroke:rgb(0,0,0);stroke-width:1"/></g>
<g fill-rule="evenodd"><path d="M 263.197,360.938 L 110.351,360.938 L 110.351,367.373 L 263.197,367.373 L 263.197,360.938 z " style="fill-opacity:0.3;fill:rgb(250,150,50);stroke:rgb(0,0,0);stroke-width:1"/></g>
<g fill-rule="evenodd"><path d="M 152.846,279.332 L 1.61469e-09,279.332 L 1.61469e-09,285.768 L 152.846,285.768 L 152.846,279.332 z " style="fill-opacity:0.3;fill:rgb(250,150,50);stroke:rgb(0,0,0);stroke-width:1"/></g>
<g fill-rule="evenodd"><path d="M 529.279,422.931 L 376.432,422.931 L 376.432,429.367 L 529.279,429.367 L 529.279,422.931 z " style="fill-opacity:0.3;fill:rgb(250,150,50);stroke:rgb(0,0,0);stroke-width:1"/></g>
<g fill-rule="evenodd"><path d="M 435.228,394.988 L 282.382,394.988 L 282.382,401.424 L 435.228,401.424 L 435.228,394.988 z " style="fill-opacity:0.3;fill:rgb(250,150,50);stroke:rgb(0,0,0);stroke-width:1"/></g>
<g fill-rule="evenodd"><path d="M 354.736,323.051 L 359.402,322.407 L 363.907,321.603 L 368.09,320.799 L 373.238,319.672 L 377.261,306.64 L 373.238,293.769 L 368.09,292.643 L 363.907,291.838 L 359.402,291.034 L 354.736,290.229 L 348.622,289.425 L 344.6,290.068 L 344.6,323.373 L 348.622,323.856 L 354.736,323.051 z " style="fill-opacity:0.3;fill:rgb(250,150,50);stroke:rgb(0,0,0);stroke-width:1"/></g>
<g fill-rule="evenodd"><path d="M 681.75,313.063 L 686.577,312.419 L 691.082,311.615 L 695.104,310.81 L 700.253,309.684 L 704.275,296.652 L 700.253,283.781 L 695.104,282.654 L 691.082,281.85 L 686.577,281.045 L 681.75,280.241 L 675.797,279.437 L 671.775,280.08 L 671.775,313.385 L 675.797,314.028 L 681.75,313.063 z " style="fill-opacity:0.3;fill:rgb(250,150,50);stroke:rgb(0,0,0);stroke-width:1"/></g>
<g fill-rule="evenodd"><path d="M 767.496,313.28 L 767.496,279.815 L 763.474,279.333 L 757.521,280.137 L 752.694,280.781 L 748.189,281.585 L 744.167,282.389 L 739.018,283.677 L 734.996,296.548 L 739.018,309.419 L 744.167,310.545 L 748.189,311.511 L 752.694,312.154 L 757.521,312.959 L 763.474,313.763 L 767.496,313.28 z " style="fill-opacity:0.3;fill:rgb(250,150,50);stroke:rgb(0,0,0);stroke-width:1"/></g>
<g fill-rule="evenodd"><path d="M 777.342,448.861 L 782.169,448.057 L 786.513,447.413 L 790.696,446.448 L 795.845,445.322 L 799.867,432.451 L 795.845,419.579 L 790.696,418.292 L 786.513,417.488 L 782.169,416.844 L 777.342,416.04 L 771.228,415.235 L 767.206,415.718 L 767.206,449.183 L 771.228,449.666 L 777.342,448.861 z " style="fill-opacity:0.3;fill:rgb(250,150,50);stroke:rgb(0,0,0);stroke-width:1"/></g>
<g fill-rule="evenodd"><path d="M 799.997,316.601 L 799.997,283.135 L 795.975,282.653 L 790.022,283.457 L 785.195,284.101 L 780.69,284.905 L 776.668,285.71 L 771.519,286.997 L 767.497,299.868 L 771.519,312.739 L 776.668,313.865 L 780.69,314.67 L 785.195,315.474 L 790.022,316.279 L 795.975,317.083 L 799.997,316.601 z " style="fill-opacity:0.3;fill:rgb(250,150,50);stroke:rgb(0,0,0);stroke-width:1"/></g>
<g fill-rule="evenodd"><path d="M 799.805,368.925 L 799.805,335.621 L 795.783,334.977 L 789.669,335.942 L 784.842,336.586 L 780.498,337.39 L 776.315,338.195 L 771.167,339.321 L 767.144,352.353 L 771.167,365.225 L 776.315,366.351 L 780.498,367.155 L 784.842,367.96 L 789.669,368.764 L 795.783,369.569 L 799.805,368.925 z " style="fill-opacity:0.3;fill:rgb(250,150,50);stroke:rgb(0,0,0);stroke-width:1"/></g>
<g fill-rule="evenodd"><path d="M 182.289,444.537 L 186.955,443.732 L 191.46,443.089 L 195.643,442.123 L 200.792,440.997 L 204.814,428.126 L 200.792,415.255 L 195.643,413.967 L 191.46,413.163 L 186.955,412.359 L 182.289,411.715 L 176.175,410.911 L 172.153,411.393 L 172.153,444.859 L 176.175,445.341 L 182.289,444.537 z " style="fill-opacity:0.3;fill:rgb(250,150,50);stroke:rgb(0,0,0);stroke-width:1"/></g>
<g fill-rule="evenodd"><path d="M 649.248,313.37 L 654.074,312.566 L 658.579,311.922 L 662.602,310.957 L 667.75,309.831 L 671.772,296.959 L 667.75,284.088 L 662.602,282.801 L 658.579,281.997 L 654.074,281.192 L 649.248,280.549 L 643.295,279.744 L 639.272,280.227 L 639.272,313.692 L 643.295,314.175 L 649.248,313.37 z " style="fill-opacity:0.3;fill:rgb(250,150,50);stroke:rgb(0,0,0);stroke-width:1"/></g>
<g fill-rule="evenodd"><path d="M 641.096,362.499 L 644.153,353.329 L 602.161,353.329 L 602.161,371.67 L 644.153,371.67 L 641.096,362.499 z " style="fill-opacity:0.3;fill:rgb(250,150,50);stroke:rgb(0,0,0);stroke-width:1"/></g>
<g fill-rule="evenodd"><path d="M 630.859,305.96 L 633.916,296.789 L 591.763,296.789 L 591.763,315.131 L 633.916,315.131 L 630.859,305.96 z " style="fill-opacity:0.3;fill:rgb(250,150,50);stroke:rgb(0,0,0);stroke-width:1"/></g>
<g fill-rule="evenodd"><path d="M 395.112,459.964 L 398.169,450.793 L 356.337,450.793 L 356.337,469.135 L 398.169,469.135 L 395.112,459.964 z " style="fill-opacity:0.3;fill:rgb(250,150,50);stroke:rgb(0,0,0);stroke-width:1"/></g>
<g fill-rule="evenodd"><path d="M 265.089,351.762 L 268.146,342.591 L 225.993,342.591 L 225.993,360.933 L 268.146,360.933 L 265.089,351.762 z " style="fill-opacity:0.3;fill:rgb(250,150,50);stroke:rgb(0,0,0);stroke-width:1"/></g>
<g fill-rule="evenodd"><path d="M 383.137,340.131 L 383.941,337.396 L 384.906,333.213 L 385.228,330.96 L 385.711,328.708 L 386.033,326.455 L 386.355,324.364 L 386.515,321.468 L 385.711,320.503 L 385.55,320.181 L 385.389,319.537 L 385.228,318.733 L 384.746,315.837 L 356.268,325.329 L 356.268,344.958 L 361.738,345.119 L 366.887,345.441 L 369.461,345.762 L 372.035,345.923 L 374.609,346.245 L 381.367,347.21 L 383.137,340.131 z " style="fill-opacity:0.3;fill:rgb(250,150,50);stroke:rgb(0,0,0);stroke-width:1"/></g>
<g fill-rule="evenodd"><path d="M 636.842,415.714 L 636.842,396.085 L 631.532,395.924 L 626.223,395.602 L 623.649,395.28 L 621.074,395.119 L 618.5,394.798 L 611.904,393.832 L 609.973,400.912 L 609.329,403.647 L 608.364,407.83 L 607.881,410.082 L 607.238,414.587 L 606.916,416.679 L 606.755,419.575 L 607.399,420.54 L 607.881,421.506 L 608.042,422.31 L 608.364,425.206 L 636.842,415.714 z " style="fill-opacity:0.3;fill:rgb(250,150,50);stroke:rgb(0,0,0);stroke-width:1"/></g>
<g fill-rule="evenodd"><path d="M 68.4359,496.874 L 69.0795,494.139 L 70.0448,489.956 L 71.0102,485.451 L 71.332,483.198 L 71.4929,481.107 L 71.6538,478.21 L 71.0102,477.245 L 70.8493,476.923 L 70.6884,476.28 L 70.3666,475.475 L 70.0448,472.579 L 41.5672,482.072 L 41.5672,501.701 L 47.0375,501.861 L 52.186,502.183 L 54.7602,502.505 L 57.3345,502.666 L 59.9087,502.988 L 66.5052,503.953 L 68.4359,496.874 z " style="fill-opacity:0.3;fill:rgb(250,150,50);stroke:rgb(0,0,0);stroke-width:1"/></g>
<g fill-rule="evenodd"><path d="M 26.9088,390.546 L 27.7132,387.811 L 28.6785,383.467 L 29.0003,381.214 L 29.483,379.123 L 30.1266,374.618 L 30.2875,371.883 L 29.483,370.917 L 29.3221,370.595 L 29.1612,369.952 L 29.0003,369.147 L 28.5177,366.091 L 0.0399876,375.583 L 0.0399876,395.212 L 5.51027,395.534 L 13.233,396.016 L 18.3815,396.66 L 25.139,397.625 L 26.9088,390.546 z " style="fill-opacity:0.3;fill:rgb(250,150,50);stroke:rgb(0,0,0);stroke-width:1"/></g>
<g fill-rule="evenodd"><path d="M 586.848,325.266 L 587.17,324.462 L 587.331,323.818 L 587.653,323.174 L 588.135,322.531 L 587.975,319.796 L 587.814,317.543 L 587.331,315.291 L 587.009,313.038 L 586.527,310.947 L 585.561,306.603 L 582.987,296.788 L 578.965,297.432 L 573.816,298.075 L 571.242,298.236 L 568.668,298.558 L 563.036,298.88 L 558.049,299.041 L 558.049,318.83 L 586.527,328.162 L 586.848,325.266 z " style="fill-opacity:0.3;fill:rgb(250,150,50);stroke:rgb(0,0,0);stroke-width:1"/></g>
<g fill-rule="evenodd"><path d="M 272.022,498.307 L 272.182,497.502 L 272.343,496.859 L 272.665,496.376 L 273.309,495.572 L 272.987,492.836 L 272.826,490.584 L 272.504,488.331 L 272.022,486.24 L 271.539,483.987 L 270.573,479.643 L 267.999,469.829 L 263.977,470.473 L 256.254,471.438 L 253.68,471.599 L 248.049,472.082 L 243.061,472.242 L 243.061,491.871 L 271.539,501.364 L 272.022,498.307 z " style="fill-opacity:0.3;fill:rgb(250,150,50);stroke:rgb(0,0,0);stroke-width:1"/></g>
<g fill-rule="evenodd"><path d="M 567.381,350.327 L 575.103,349.362 L 577.678,349.201 L 583.148,348.879 L 588.135,348.557 L 588.135,328.929 L 559.658,319.436 L 559.336,322.493 L 559.175,323.298 L 559.014,323.941 L 558.692,324.585 L 558.049,325.228 L 558.21,327.963 L 559.175,334.721 L 559.658,336.812 L 560.623,341.157 L 563.197,350.971 L 567.381,350.327 z " style="fill-opacity:0.3;fill:rgb(250,150,50);stroke:rgb(0,0,0);stroke-width:1"/></g>
<g fill-rule="evenodd"><path d="M 17.2402,496.893 L 19.8145,496.41 L 22.3887,496.249 L 27.5372,495.606 L 33.1684,495.284 L 38.156,495.123 L 38.156,475.494 L 9.67837,466.002 L 9.35659,469.059 L 9.1957,469.863 L 8.87392,470.507 L 8.55213,470.99 L 8.06946,471.794 L 8.23035,474.529 L 8.55213,476.782 L 8.87392,478.873 L 9.1957,481.126 L 9.67837,483.378 L 10.6437,487.561 L 13.218,497.537 L 17.2402,496.893 z " style="fill-opacity:0.3;fill:rgb(250,150,50);stroke:rgb(0,0,0);stroke-width:1"/></g>
<g fill-rule="evenodd"><path d="M 767.148,355.911 L 758.138,356.072 L 752.667,356.233 L 741.727,357.198 L 736.417,357.681 L 730.947,358.485 L 725.477,359.45 L 717.754,360.898 L 719.524,368.46 L 724.994,368.139 L 731.752,368.139 L 734.326,368.299 L 739.153,368.621 L 741.727,368.943 L 746.554,369.587 L 756.529,371.195 L 763.608,372.643 L 767.148,355.911 z " style="fill-opacity:0.3;fill:rgb(250,150,50);stroke:rgb(0,0,0);stroke-width:1"/></g>
<g fill-rule="evenodd"><path d="M 383.019,296.07 L 393.959,295.427 L 399.429,294.944 L 404.739,294.301 L 415.679,292.692 L 423.402,291.083 L 421.632,283.521 L 416.162,283.843 L 414.231,284.004 L 411.818,284.004 L 409.405,283.843 L 406.83,283.843 L 404.417,283.682 L 401.843,283.36 L 399.429,283.199 L 397.016,282.877 L 394.442,282.556 L 384.628,280.786 L 377.548,279.338 L 374.009,296.231 L 383.019,296.07 z " style="fill-opacity:0.3;fill:rgb(250,150,50);stroke:rgb(0,0,0);stroke-width:1"/></g>
<g fill-rule="evenodd"><path d="M 265.577,453.586 L 256.406,453.747 L 250.936,454.069 L 245.627,454.39 L 240.156,454.873 L 229.216,456.16 L 223.906,457.125 L 216.023,458.573 L 217.792,466.296 L 223.263,465.974 L 225.193,465.814 L 230.181,465.814 L 232.594,465.974 L 235.169,466.135 L 237.582,466.296 L 239.995,466.618 L 242.57,466.94 L 244.983,467.262 L 254.958,469.031 L 262.037,470.479 L 265.577,453.586 z " style="fill-opacity:0.3;fill:rgb(250,150,50);stroke:rgb(0,0,0);stroke-width:1"/></g>
<g fill-rule="evenodd"><path d="M 71.5023,503.775 L 62.4924,504.096 L 57.0222,504.257 L 46.0816,505.223 L 40.7722,505.705 L 29.8316,507.314 L 22.1089,508.923 L 23.8786,516.485 L 29.3489,516.163 L 36.1063,516.163 L 38.6806,516.324 L 41.094,516.485 L 43.6682,516.646 L 46.0816,516.968 L 48.4949,517.129 L 51.0692,517.611 L 60.8835,519.22 L 67.9627,520.668 L 71.5023,503.775 z " style="fill-opacity:0.3;fill:rgb(250,150,50);stroke:rgb(0,0,0);stroke-width:1"/></g>
<g fill-rule="evenodd"><path d="M 559.393,408.815 L 553.923,409.941 L 543.947,411.711 L 541.534,412.032 L 538.96,412.354 L 536.546,412.676 L 534.133,412.837 L 531.559,412.998 L 529.145,413.159 L 524.158,413.159 L 520.296,412.998 L 516.757,412.676 L 515.148,420.399 L 522.871,421.847 L 528.341,422.812 L 533.65,423.456 L 539.121,424.099 L 544.591,424.582 L 549.9,424.904 L 555.371,425.225 L 562.932,425.386 L 559.393,408.815 z " style="fill-opacity:0.3;fill:rgb(250,150,50);stroke:rgb(0,0,0);stroke-width:1"/></g>
<g fill-rule="evenodd"><path d="M 431.605,403.351 L 416.16,406.086 L 411.333,406.729 L 408.759,407.051 L 406.345,407.212 L 403.771,407.373 L 401.358,407.534 L 396.37,407.534 L 392.509,407.373 L 389.13,407.212 L 387.36,414.774 L 395.083,416.222 L 400.553,417.187 L 405.862,417.831 L 411.333,418.474 L 416.803,418.957 L 427.744,419.601 L 435.145,419.761 L 431.605,403.351 z " style="fill-opacity:0.3;fill:rgb(250,150,50);stroke:rgb(0,0,0);stroke-width:1"/></g>
<g fill-rule="evenodd"><path d="M 568.378,424.111 L 578.354,422.342 L 580.767,422.02 L 583.341,421.698 L 585.755,421.537 L 588.329,421.215 L 590.742,421.054 L 593.156,421.054 L 595.73,420.894 L 598.143,421.054 L 602.005,421.215 L 605.544,421.376 L 607.314,413.814 L 599.43,412.205 L 594.121,411.401 L 588.651,410.597 L 583.18,409.953 L 577.71,409.47 L 572.401,409.148 L 566.93,408.988 L 559.529,408.827 L 562.908,425.238 L 568.378,424.111 z " style="fill-opacity:0.3;fill:rgb(250,150,50);stroke:rgb(0,0,0);stroke-width:1"/></g>
<g fill-rule="evenodd"><path d="M 590.889,476.361 L 600.864,474.592 L 603.277,474.27 L 605.851,473.948 L 608.265,473.626 L 610.678,473.465 L 613.252,473.305 L 615.666,473.144 L 620.653,473.144 L 624.515,473.305 L 628.054,473.626 L 629.663,465.904 L 621.941,464.456 L 616.47,463.49 L 611.161,462.847 L 605.691,462.203 L 600.22,461.72 L 594.911,461.399 L 589.441,461.077 L 581.879,460.916 L 585.418,477.488 L 590.889,476.361 z " style="fill-opacity:0.3;fill:rgb(250,150,50);stroke:rgb(0,0,0);stroke-width:1"/></g>
<g fill-rule="evenodd"><path d="M 205.202,351.229 L 206.167,350.908 L 207.133,350.425 L 208.098,349.781 L 208.742,349.138 L 209.385,348.172 L 209.868,347.368 L 210.19,346.563 L 210.511,345.276 L 210.833,343.828 L 210.833,343.507 L 210.35,341.576 L 210.19,340.771 L 209.868,339.967 L 209.385,339.162 L 208.098,337.554 L 207.133,336.91 L 206.167,336.427 L 205.202,336.106 L 204.237,335.945 L 202.949,335.945 L 176.081,336.106 L 176.563,340.128 L 176.724,343.667 L 176.563,347.207 L 176.081,351.39 L 204.237,351.39 L 205.202,351.229 z " style="fill-opacity:0.3;fill:rgb(250,150,50);stroke:rgb(0,0,0);stroke-width:1"/></g>
<g fill-rule="evenodd"><path d="M 798.81,461.221 L 798.488,457.681 L 798.81,454.142 L 799.132,449.958 L 771.619,449.958 L 770.976,450.119 L 769.85,450.28 L 768.884,450.441 L 767.919,450.924 L 767.114,451.567 L 766.31,452.372 L 765.666,453.176 L 765.023,454.785 L 764.54,456.233 L 764.218,457.52 L 764.218,457.842 L 764.701,459.934 L 765.023,460.577 L 765.666,462.186 L 766.31,463.151 L 767.114,463.956 L 767.919,464.599 L 769.85,465.243 L 770.976,465.404 L 799.132,465.404 L 798.81,461.221 z " style="fill-opacity:0.3;fill:rgb(250,150,50);stroke:rgb(0,0,0);stroke-width:1"/></g>
<g fill-rule="evenodd"><path d="M 793.655,334.967 L 794.62,334.645 L 795.586,334.162 L 796.551,333.519 L 797.838,331.91 L 798.321,331.105 L 798.643,330.301 L 798.964,328.853 L 799.286,327.566 L 799.286,327.244 L 798.804,325.313 L 798.643,324.509 L 798.321,323.704 L 797.838,322.9 L 797.195,321.934 L 796.551,321.291 L 795.586,320.647 L 794.62,320.165 L 793.655,319.843 L 792.69,319.682 L 764.373,319.682 L 764.856,323.865 L 765.016,327.405 L 764.856,330.944 L 764.373,335.127 L 792.69,335.127 L 793.655,334.967 z " style="fill-opacity:0.3;fill:rgb(250,150,50);stroke:rgb(0,0,0);stroke-width:1"/></g>
<g fill-rule="evenodd"><path d="M 293.723,468.742 L 294.689,468.581 L 295.815,468.42 L 296.78,467.937 L 297.585,467.294 L 298.389,466.489 L 299.033,465.685 L 299.676,464.076 L 300.159,462.628 L 300.481,461.341 L 300.481,460.858 L 299.998,458.928 L 299.033,456.514 L 298.389,455.71 L 297.585,454.905 L 296.78,454.262 L 295.815,453.779 L 294.689,453.618 L 293.723,453.457 L 292.436,453.296 L 265.567,453.457 L 265.889,457.64 L 266.211,461.18 L 265.889,464.72 L 265.567,468.742 L 293.08,468.903 L 293.723,468.742 z " style="fill-opacity:0.3;fill:rgb(250,150,50);stroke:rgb(0,0,0);stroke-width:1"/></g>
<g fill-rule="evenodd"><path d="M 242.782,385.234 L 244.874,377.028 L 242.782,368.823 L 226.854,367.375 L 222.831,367.857 L 222.831,386.199 L 226.854,386.521 L 242.782,385.234 z " style="fill-opacity:0.3;fill:rgb(250,150,50);stroke:rgb(0,0,0);stroke-width:1"/></g>
<g fill-rule="evenodd"><path d="M 20.0334,519.362 L 22.125,511.156 L 20.0334,502.951 L 4.10523,501.503 L 0.0829609,501.824 L 0.0829609,520.327 L 4.10523,520.649 L 20.0334,519.362 z " style="fill-opacity:0.3;fill:rgb(250,150,50);stroke:rgb(0,0,0);stroke-width:1"/></g>
<g fill-rule="evenodd"><path d="M 265.389,385.134 L 267.481,376.928 L 265.389,368.723 L 249.461,367.436 L 245.439,367.757 L 245.439,386.26 L 249.461,386.582 L 265.389,385.134 z " style="fill-opacity:0.3;fill:rgb(250,150,50);stroke:rgb(0,0,0);stroke-width:1"/></g>
<g fill-rule="evenodd"><path d="M 224.422,402.758 L 226.514,394.552 L 224.422,386.347 L 208.333,384.899 L 204.311,385.382 L 204.311,403.723 L 208.333,404.206 L 224.422,402.758 z " style="fill-opacity:0.3;fill:rgb(250,150,50);stroke:rgb(0,0,0);stroke-width:1"/></g>
</svg>
