<?xml version="1.0" standalone="no"?>
<!DOCTYPE svg PUBLIC "-//W3C//DTD SVG 1.1//EN"
"http://www.w3.org/Graphics/SVG/1.1/DTD/svg11.dtd">
<svg width="100%" height="100%" version="1.1"
xmlns="http://www.w3.org/2000/svg"
xmlns:xlink="http://www.w3.org/1999/xlink">
<rect x="0" y="142.098" width="800" height="515.805" style="fill-opacity:0;fill:rgb(255,255,255);stroke:rgb(0,0,0);stroke-width:1"/>
<g fill-rule="evenodd"><path d="M 603.425,261.263 L 526.054,183.892 L 448.683,261.263 L 526.054,338.634 L 603.425,261.263 z " style="fill-opacity:0.3;fill:rgb(250,150,50);stroke:rgb(0,0,0);stroke-width:1"/></g>
<g fill-rule="evenodd"><path d="M 245.008,400 L 167.637,322.629 L 90.2667,400 L 167.637,477.371 L 245.008,400 z " style="fill-opacity:0.3;fill:rgb(250,150,50);stroke:rgb(0,0,0);stroke-width:1"/></g>
<g fill-rule="evenodd"><path d="M 399.75,245.259 L 322.379,167.888 L 245.008,245.259 L 322.379,322.629 L 399.75,245.259 z " style="fill-opacity:0.3;fill:rgb(250,150,50);stroke:rgb(0,0,0);stroke-width:1"/></g>
<g fill-rule="evenodd"><path d="M 322.406,322.657 L 245.036,245.286 L 167.665,322.657 L 245.036,400.028 L 322.406,322.657 z " style="fill-opacity:0.3;fill:rgb(250,150,50);stroke:rgb(0,0,0);stroke-width:1"/></g>
<g fill-rule="evenodd"><path d="M 167.637,477.37 L 90.2663,400 L 12.8956,477.37 L 90.2663,554.741 L 167.637,477.37 z " style="fill-opacity:0.3;fill:rgb(250,150,50);stroke:rgb(0,0,0);stroke-width:1"/></g>
<g fill-rule="evenodd"><path d="M 296.59,503.159 L 219.219,425.789 L 141.849,503.159 L 219.219,580.53 L 296.59,503.159 z " style="fill-opacity:0.3;fill:rgb(250,150,50);stroke:rgb(0,0,0);stroke-width:1"/></g>
<g fill-rule="evenodd"><path d="M 493.539,306.211 L 416.169,228.84 L 338.798,306.211 L 416.169,383.581 L 493.539,306.211 z " style="fill-opacity:0.3;fill:rgb(250,150,50);stroke:rgb(0,0,0);stroke-width:1"/></g>
<g fill-rule="evenodd"><path d="M 276.367,167.888 L 405.318,167.888 L 405.318,206.573 L 431.108,206.573 L 431.108,142.098 L 250.577,142.098 L 250.577,206.573 L 276.367,206.573 L 276.367,167.888 z " style="fill-opacity:0.3;fill:rgb(250,150,50);stroke:rgb(0,0,0);stroke-width:1"/></g>
<g fill-rule="evenodd"><path d="M 459.041,167.932 L 587.992,167.932 L 587.992,206.617 L 613.782,206.617 L 613.782,142.141 L 433.251,142.141 L 433.251,206.617 L 459.041,206.617 L 459.041,167.932 z " style="fill-opacity:0.3;fill:rgb(250,150,50);stroke:rgb(0,0,0);stroke-width:1"/></g>
<g fill-rule="evenodd"><path d="M 633.926,580.532 L 762.877,580.532 L 762.877,619.217 L 788.667,619.217 L 788.667,554.741 L 608.136,554.741 L 608.136,619.217 L 633.926,619.217 L 633.926,580.532 z " style="fill-opacity:0.3;fill:rgb(250,150,50);stroke:rgb(0,0,0);stroke-width:1"/></g>
<g fill-rule="evenodd"><path d="M 272.776,619.186 L 401.728,619.186 L 401.728,657.871 L 427.518,657.871 L 427.518,593.395 L 246.986,593.395 L 246.986,657.871 L 272.776,657.871 L 272.776,619.186 z " style="fill-opacity:0.3;fill:rgb(250,150,50);stroke:rgb(0,0,0);stroke-width:1"/></g>
<g fill-rule="evenodd"><path d="M 460.895,448.761 L 589.846,448.761 L 589.846,487.447 L 615.637,487.447 L 615.637,422.971 L 435.105,422.971 L 435.105,487.447 L 460.895,487.447 L 460.895,448.761 z " style="fill-opacity:0.3;fill:rgb(250,150,50);stroke:rgb(0,0,0);stroke-width:1"/></g>
<g fill-rule="evenodd"><path d="M 25.8113,245.259 L 154.762,245.259 L 154.762,283.944 L 180.553,283.944 L 180.553,219.468 L 0.0210682,219.468 L 0.0210682,283.944 L 25.8113,283.944 L 25.8113,245.259 z " style="fill-opacity:0.3;fill:rgb(250,150,50);stroke:rgb(0,0,0);stroke-width:1"/></g>
<g fill-rule="evenodd"><path d="M 280.363,422.456 L 409.314,422.456 L 409.314,461.142 L 435.105,461.142 L 435.105,396.666 L 254.573,396.666 L 254.573,461.142 L 280.363,461.142 L 280.363,422.456 z " style="fill-opacity:0.3;fill:rgb(250,150,50);stroke:rgb(0,0,0);stroke-width:1"/></g>
<g fill-rule="evenodd"><path d="M 357.792,513.537 L 486.743,513.537 L 486.743,552.222 L 512.534,552.222 L 512.534,487.747 L 332.002,487.747 L 332.002,552.222 L 357.792,552.222 L 357.792,513.537 z " style="fill-opacity:0.3;fill:rgb(250,150,50);stroke:rgb(0,0,0);stroke-width:1"/></g>
<g fill-rule="evenodd"><path d="M 640.137,167.888 L 769.088,167.888 L 769.088,206.573 L 794.878,206.573 L 794.878,142.098 L 614.347,142.098 L 614.347,206.573 L 640.137,206.573 L 640.137,167.888 z " style="fill-opacity:0.3;fill:rgb(250,150,50);stroke:rgb(0,0,0);stroke-width:1"/></g>
<g fill-rule="evenodd"><path d="M 580.754,335.524 L 709.705,335.524 L 709.705,374.21 L 735.495,374.21 L 735.495,309.734 L 554.963,309.734 L 554.963,374.21 L 580.754,374.21 L 580.754,335.524 z " style="fill-opacity:0.3;fill:rgb(250,150,50);stroke:rgb(0,0,0);stroke-width:1"/></g>
<g fill-rule="evenodd"><path d="M 453.383,580.532 L 582.334,580.532 L 582.334,619.217 L 608.125,619.217 L 608.125,554.741 L 427.593,554.741 L 427.593,619.217 L 453.383,619.217 L 453.383,580.532 z " style="fill-opacity:0.3;fill:rgb(250,150,50);stroke:rgb(0,0,0);stroke-width:1"/></g>
<g fill-rule="evenodd"><path d="M 641.601,438.685 L 770.553,438.685 L 770.553,477.371 L 796.343,477.371 L 796.343,412.895 L 615.811,412.895 L 615.811,477.371 L 641.601,477.371 L 641.601,438.685 z " style="fill-opacity:0.3;fill:rgb(250,150,50);stroke:rgb(0,0,0);stroke-width:1"/></g>
<g fill-rule="evenodd"><path d="M 538.339,516.056 L 667.29,516.056 L 667.29,554.741 L 693.08,554.741 L 693.08,490.266 L 512.549,490.266 L 512.549,554.741 L 538.339,554.741 L 538.339,516.056 z " style="fill-opacity:0.3;fill:rgb(250,150,50);stroke:rgb(0,0,0);stroke-width:1"/></g>
<g fill-rule="evenodd"><path d="M 27.0956,580.531 L 156.047,580.531 L 156.047,619.217 L 181.837,619.217 L 181.837,554.741 L 1.30533,554.741 L 1.30533,619.217 L 27.0956,619.217 L 27.0956,580.531 z " style="fill-opacity:0.3;fill:rgb(250,150,50);stroke:rgb(0,0,0);stroke-width:1"/></g>
<g fill-rule="evenodd"><path d="M 25.7902,167.888 L 154.741,167.888 L 154.741,206.573 L 180.532,206.573 L 180.532,142.098 L 0,142.098 L 0,206.573 L 25.7902,206.573 L 25.7902,167.888 z " style="fill-opacity:0.3;fill:rgb(250,150,50);stroke:rgb(0,0,0);stroke-width:1"/></g>
<g fill-rule="evenodd"><path d="M 516.188,193.757 L 516.188,167.967 L 477.503,167.967 L 477.503,206.652 L 400.132,206.652 L 400.132,167.967 L 374.342,167.967 L 374.342,219.547 L 451.713,219.547 L 451.713,245.337 L 464.608,245.337 L 516.188,193.757 z " style="fill-opacity:0.3;fill:rgb(250,150,50);stroke:rgb(0,0,0);stroke-width:1"/></g>
<g fill-rule="evenodd"><path d="M 789.998,361.315 L 789.998,335.524 L 751.313,335.524 L 751.313,374.21 L 673.942,374.21 L 673.942,335.524 L 648.152,335.524 L 648.152,387.105 L 725.523,387.105 L 725.523,412.895 L 738.418,412.895 L 789.998,361.315 z " style="fill-opacity:0.3;fill:rgb(250,150,50);stroke:rgb(0,0,0);stroke-width:1"/></g>
<g fill-rule="evenodd"><path d="M 246.986,606.322 L 246.986,580.531 L 208.301,580.531 L 208.301,619.217 L 130.93,619.217 L 130.93,580.531 L 105.14,580.531 L 105.14,632.112 L 182.511,632.112 L 182.511,657.902 L 195.406,657.902 L 246.986,606.322 z " style="fill-opacity:0.3;fill:rgb(250,150,50);stroke:rgb(0,0,0);stroke-width:1"/></g>
<g fill-rule="evenodd"><path d="M 799.981,283.944 L 799.981,258.154 L 761.296,258.154 L 761.296,296.839 L 683.925,296.839 L 683.925,258.154 L 658.135,258.154 L 658.135,309.734 L 735.506,309.734 L 735.506,335.524 L 748.401,335.524 L 799.981,283.944 z " style="fill-opacity:0.3;fill:rgb(250,150,50);stroke:rgb(0,0,0);stroke-width:1"/></g>
<g fill-rule="evenodd"><path d="M 426.036,541.409 L 426.036,515.619 L 387.351,515.619 L 387.351,554.304 L 309.98,554.304 L 309.98,515.619 L 284.19,515.619 L 284.19,567.199 L 361.56,567.199 L 361.56,592.99 L 374.456,592.99 L 426.036,541.409 z " style="fill-opacity:0.3;fill:rgb(250,150,50);stroke:rgb(0,0,0);stroke-width:1"/></g>
<g fill-rule="evenodd"><path d="M 648.095,370.745 L 648.095,344.955 L 609.41,344.955 L 609.41,383.64 L 532.039,383.64 L 532.039,344.955 L 506.249,344.955 L 506.249,396.536 L 583.62,396.536 L 583.62,422.326 L 596.515,422.326 L 648.095,370.745 z " style="fill-opacity:0.3;fill:rgb(250,150,50);stroke:rgb(0,0,0);stroke-width:1"/></g>
<g fill-rule="evenodd"><path d="M 141.895,335.524 L 141.895,309.734 L 103.209,309.734 L 103.209,348.42 L 25.8385,348.42 L 25.8385,309.734 L 0.0482933,309.734 L 0.0482933,361.315 L 77.419,361.315 L 77.419,387.105 L 90.3141,387.105 L 141.895,335.524 z " style="fill-opacity:0.3;fill:rgb(250,150,50);stroke:rgb(0,0,0);stroke-width:1"/></g>
<g fill-rule="evenodd"><path d="M 245.375,193.678 L 245.375,167.888 L 206.69,167.888 L 206.69,206.573 L 129.319,206.573 L 129.319,167.888 L 103.529,167.888 L 103.529,219.468 L 180.9,219.468 L 180.9,245.259 L 193.795,245.259 L 245.375,193.678 z " style="fill-opacity:0.3;fill:rgb(250,150,50);stroke:rgb(0,0,0);stroke-width:1"/></g>
<g fill-rule="evenodd"><path d="M 673.219,606.322 L 673.219,580.532 L 634.533,580.532 L 634.533,619.217 L 557.163,619.217 L 557.163,580.532 L 531.372,580.532 L 531.372,632.112 L 608.743,632.112 L 608.743,657.902 L 621.638,657.902 L 673.219,606.322 z " style="fill-opacity:0.3;fill:rgb(250,150,50);stroke:rgb(0,0,0);stroke-width:1"/></g>
<g fill-rule="evenodd"><path d="M 219.265,271.049 L 219.265,245.259 L 180.58,245.259 L 180.58,283.944 L 103.209,283.944 L 103.209,245.259 L 77.4191,245.259 L 77.4191,296.839 L 154.79,296.839 L 154.79,322.629 L 167.685,322.629 L 219.265,271.049 z " style="fill-opacity:0.3;fill:rgb(250,150,50);stroke:rgb(0,0,0);stroke-width:1"/></g>
<g fill-rule="evenodd"><path d="M 703.551,193.746 L 703.551,167.956 L 664.866,167.956 L 664.866,206.642 L 587.495,206.642 L 587.495,167.956 L 561.705,167.956 L 561.705,219.537 L 639.076,219.537 L 639.076,245.327 L 651.971,245.327 L 703.551,193.746 z " style="fill-opacity:0.3;fill:rgb(250,150,50);stroke:rgb(0,0,0);stroke-width:1"/></g>
<g fill-rule="evenodd"><path d="M 505.542,632.112 L 531.332,632.112 L 531.332,606.322 L 505.542,606.322 L 505.542,580.532 L 479.752,580.532 L 479.752,606.322 L 453.961,606.322 L 453.961,632.112 L 479.752,632.112 L 479.752,657.902 L 505.542,657.902 L 505.542,632.112 z " style="fill-opacity:0.3;fill:rgb(250,150,50);stroke:rgb(0,0,0);stroke-width:1"/></g>
<g fill-rule="evenodd"><path d="M 718.911,490.266 L 744.701,490.266 L 744.701,464.476 L 718.911,464.476 L 718.911,438.685 L 693.121,438.685 L 693.121,464.476 L 667.331,464.476 L 667.331,490.266 L 693.121,490.266 L 693.121,516.056 L 718.911,516.056 L 718.911,490.266 z " style="fill-opacity:0.3;fill:rgb(250,150,50);stroke:rgb(0,0,0);stroke-width:1"/></g>
<g fill-rule="evenodd"><path d="M 770.543,527.12 L 796.334,527.12 L 796.334,501.33 L 770.543,501.33 L 770.543,475.54 L 744.753,475.54 L 744.753,501.33 L 718.963,501.33 L 718.963,527.12 L 744.753,527.12 L 744.753,552.91 L 770.543,552.91 L 770.543,527.12 z " style="fill-opacity:0.3;fill:rgb(250,150,50);stroke:rgb(0,0,0);stroke-width:1"/></g>
<g fill-rule="evenodd"><path d="M 51.5805,412.895 L 77.3707,412.895 L 77.3707,387.105 L 51.5805,387.105 L 51.5805,361.315 L 25.7903,361.315 L 25.7903,387.105 L 2.14759e-05,387.105 L 2.14759e-05,412.895 L 25.7903,412.895 L 25.7903,438.685 L 51.5805,438.685 L 51.5805,412.895 z " style="fill-opacity:0.3;fill:rgb(250,150,50);stroke:rgb(0,0,0);stroke-width:1"/></g>
<g fill-rule="evenodd"><path d="M 480.458,396.663 L 506.248,396.663 L 506.248,370.873 L 480.458,370.873 L 480.458,345.083 L 454.667,345.083 L 454.667,370.873 L 428.877,370.873 L 428.877,396.663 L 454.667,396.663 L 454.667,422.453 L 480.458,422.453 L 480.458,396.663 z " style="fill-opacity:0.3;fill:rgb(250,150,50);stroke:rgb(0,0,0);stroke-width:1"/></g>
<g fill-rule="evenodd"><path d="M 77.419,322.629 L 103.209,322.629 L 103.209,296.839 L 77.419,296.839 L 77.419,271.049 L 51.6288,271.049 L 51.6288,296.839 L 25.8385,296.839 L 25.8385,322.629 L 51.6288,322.629 L 51.6288,348.42 L 77.419,348.42 L 77.419,322.629 z " style="fill-opacity:0.3;fill:rgb(250,150,50);stroke:rgb(0,0,0);stroke-width:1"/></g>
<g fill-rule="evenodd"><path d="M 768.711,232.363 L 794.501,232.363 L 794.501,206.573 L 768.711,206.573 L 768.711,180.783 L 742.921,180.783 L 742.921,206.573 L 717.13,206.573 L 717.13,232.363 L 742.921,232.363 L 742.921,258.154 L 768.711,258.154 L 768.711,232.363 z " style="fill-opacity:0.3;fill:rgb(250,150,50);stroke:rgb(0,0,0);stroke-width:1"/></g>
<g fill-rule="evenodd"><path d="M 351.734,370.803 L 377.524,370.803 L 377.524,345.013 L 351.734,345.013 L 351.734,319.223 L 325.944,319.223 L 325.944,345.013 L 300.153,345.013 L 300.153,370.803 L 325.944,370.803 L 325.944,396.593 L 351.734,396.593 L 351.734,370.803 z " style="fill-opacity:0.3;fill:rgb(250,150,50);stroke:rgb(0,0,0);stroke-width:1"/></g>
<g fill-rule="evenodd"><path d="M 79.3496,632.112 L 105.14,632.112 L 105.14,606.322 L 79.3496,606.322 L 79.3496,580.531 L 53.5594,580.531 L 53.5594,606.322 L 27.7692,606.322 L 27.7692,632.112 L 53.5594,632.112 L 53.5594,657.902 L 79.3496,657.902 L 79.3496,632.112 z " style="fill-opacity:0.3;fill:rgb(250,150,50);stroke:rgb(0,0,0);stroke-width:1"/></g>
<g fill-rule="evenodd"><path d="M 716.845,258.154 L 742.635,258.154 L 742.635,232.363 L 716.845,232.363 L 716.845,206.573 L 691.054,206.573 L 691.054,232.363 L 665.264,232.363 L 665.264,258.154 L 691.054,258.154 L 691.054,283.944 L 716.845,283.944 L 716.845,258.154 z " style="fill-opacity:0.3;fill:rgb(250,150,50);stroke:rgb(0,0,0);stroke-width:1"/></g>
<g fill-rule="evenodd"><path d="M 726.944,632.112 L 752.734,632.112 L 752.734,606.322 L 726.944,606.322 L 726.944,580.532 L 701.153,580.532 L 701.153,606.322 L 675.363,606.322 L 675.363,632.112 L 701.153,632.112 L 701.153,657.902 L 726.944,657.902 L 726.944,632.112 z " style="fill-opacity:0.3;fill:rgb(250,150,50);stroke:rgb(0,0,0);stroke-width:1"/></g>
<g fill-rule="evenodd"><path d="M 331.989,477.274 L 357.779,477.274 L 357.779,451.484 L 331.989,451.484 L 331.989,425.694 L 306.199,425.694 L 306.199,451.484 L 280.408,451.484 L 280.408,477.274 L 306.199,477.274 L 306.199,503.064 L 331.989,503.064 L 331.989,477.274 z " style="fill-opacity:0.3;fill:rgb(250,150,50);stroke:rgb(0,0,0);stroke-width:1"/></g>
</svg>
