<?xml version="1.0" standalone="no"?>
<!DOCTYPE svg PUBLIC "-//W3C//DTD SVG 1.1//EN"
"http://www.w3.org/Graphics/SVG/1.1/DTD/svg11.dtd">
<svg width="100%" height="100%" version="1.1"
xmlns="http://www.w3.org/2000/svg"
xmlns:xlink="http://www.w3.org/1999/xlink">
<rect x="0" y="119.3" width="800" height="561.4" style="fill-opacity:0;fill:rgb(255,255,255);stroke:rgb(0,0,0);stroke-width:1"/>
<g fill-rule="evenodd"><path d="M 168.42,357.89 L 84.21,273.68 L -5.77438e-06,357.89 L 84.21,442.1 L 168.42,357.89 z " style="fill-opacity:0.3;fill:rgb(250,150,50);stroke:rgb(0,0,0);stroke-width:1"/></g>
<g fill-rule="evenodd"><path d="M 693.188,313.768 L 608.978,229.698 L 524.768,313.768 L 609.118,397.978 L 693.188,313.768 z " style="fill-opacity:0.3;fill:rgb(250,150,50);stroke:rgb(0,0,0);stroke-width:1"/></g>
<g fill-rule="evenodd"><path d="M 294.848,512.28 L 210.638,428.21 L 126.428,512.28 L 210.778,596.49 L 294.848,512.28 z " style="fill-opacity:0.3;fill:rgb(250,150,50);stroke:rgb(0,0,0);stroke-width:1"/></g>
<g fill-rule="evenodd"><path d="M 799.999,553.951 L 715.789,469.881 L 631.579,553.951 L 715.929,638.161 L 799.999,553.951 z " style="fill-opacity:0.3;fill:rgb(250,150,50);stroke:rgb(0,0,0);stroke-width:1"/></g>
<g fill-rule="evenodd"><path d="M 406.894,456 L 322.684,371.93 L 238.474,456 L 322.824,540.21 L 406.894,456 z " style="fill-opacity:0.3;fill:rgb(250,150,50);stroke:rgb(0,0,0);stroke-width:1"/></g>
<g fill-rule="evenodd"><path d="M 168.601,561.533 L 84.3905,477.464 L 0.180432,561.533 L 84.5308,645.743 L 168.601,561.533 z " style="fill-opacity:0.3;fill:rgb(250,150,50);stroke:rgb(0,0,0);stroke-width:1"/></g>
<g fill-rule="evenodd"><path d="M 799.884,246.067 L 715.674,161.857 L 631.464,246.067 L 715.674,330.277 L 799.884,246.067 z " style="fill-opacity:0.3;fill:rgb(250,150,50);stroke:rgb(0,0,0);stroke-width:1"/></g>
<g fill-rule="evenodd"><path d="M 618.939,147.37 L 759.289,147.37 L 759.289,189.475 L 787.359,189.475 L 787.359,119.3 L 590.869,119.3 L 590.869,189.475 L 618.939,189.475 L 618.939,147.37 z " style="fill-opacity:0.3;fill:rgb(250,150,50);stroke:rgb(0,0,0);stroke-width:1"/></g>
<g fill-rule="evenodd"><path d="M 28.0747,147.37 L 168.425,147.37 L 168.425,189.475 L 196.495,189.475 L 196.495,119.3 L 0.0047111,119.3 L 0.0047111,189.475 L 28.0747,189.475 L 28.0747,147.37 z " style="fill-opacity:0.3;fill:rgb(250,150,50);stroke:rgb(0,0,0);stroke-width:1"/></g>
<g fill-rule="evenodd"><path d="M 28.0711,231.58 L 168.421,231.58 L 168.421,273.685 L 196.491,273.685 L 196.491,203.51 L 0.00111366,203.51 L 0.00111366,273.685 L 28.0711,273.685 L 28.0711,231.58 z " style="fill-opacity:0.3;fill:rgb(250,150,50);stroke:rgb(0,0,0);stroke-width:1"/></g>
<g fill-rule="evenodd"><path d="M 393.304,610.525 L 365.234,610.525 L 365.374,652.63 L 224.884,652.63 L 224.884,610.525 L 196.814,610.525 L 196.814,680.7 L 393.304,680.7 L 393.304,610.525 z " style="fill-opacity:0.3;fill:rgb(250,150,50);stroke:rgb(0,0,0);stroke-width:1"/></g>
<g fill-rule="evenodd"><path d="M 311.994,245.615 L 452.344,245.615 L 452.344,287.72 L 480.414,287.72 L 480.414,217.545 L 283.924,217.545 L 283.924,287.72 L 311.994,287.72 L 311.994,245.615 z " style="fill-opacity:0.3;fill:rgb(250,150,50);stroke:rgb(0,0,0);stroke-width:1"/></g>
<g fill-rule="evenodd"><path d="M 422.449,147.37 L 562.799,147.37 L 562.799,189.475 L 590.869,189.475 L 590.869,119.3 L 394.379,119.3 L 394.379,189.475 L 422.449,189.475 L 422.449,147.37 z " style="fill-opacity:0.3;fill:rgb(250,150,50);stroke:rgb(0,0,0);stroke-width:1"/></g>
<g fill-rule="evenodd"><path d="M 224.602,147.37 L 364.952,147.37 L 364.952,189.475 L 393.022,189.475 L 393.022,119.3 L 196.532,119.3 L 196.532,189.475 L 224.602,189.475 L 224.602,147.37 z " style="fill-opacity:0.3;fill:rgb(250,150,50);stroke:rgb(0,0,0);stroke-width:1"/></g>
<g fill-rule="evenodd"><path d="M 589.971,610.525 L 561.901,610.525 L 562.042,652.63 L 421.551,652.63 L 421.551,610.525 L 393.481,610.525 L 393.481,680.7 L 589.971,680.7 L 589.971,610.525 z " style="fill-opacity:0.3;fill:rgb(250,150,50);stroke:rgb(0,0,0);stroke-width:1"/></g>
<g fill-rule="evenodd"><path d="M 603.244,456.14 L 575.174,456.14 L 575.315,498.245 L 434.824,498.245 L 434.824,456.14 L 406.754,456.14 L 406.754,526.315 L 603.244,526.315 L 603.244,456.14 z " style="fill-opacity:0.3;fill:rgb(250,150,50);stroke:rgb(0,0,0);stroke-width:1"/></g>
<g fill-rule="evenodd"><path d="M 463.307,147.37 L 435.237,147.37 L 435.377,189.475 L 294.887,189.475 L 294.887,147.37 L 266.817,147.37 L 266.817,217.545 L 463.307,217.545 L 463.307,147.37 z " style="fill-opacity:0.3;fill:rgb(250,150,50);stroke:rgb(0,0,0);stroke-width:1"/></g>
<g fill-rule="evenodd"><path d="M 449.655,554.385 L 590.005,554.385 L 590.005,596.49 L 618.075,596.49 L 618.075,526.315 L 421.585,526.315 L 421.585,596.49 L 449.655,596.49 L 449.655,554.385 z " style="fill-opacity:0.3;fill:rgb(250,150,50);stroke:rgb(0,0,0);stroke-width:1"/></g>
<g fill-rule="evenodd"><path d="M 791.932,610.525 L 763.862,610.525 L 764.002,652.63 L 623.512,652.63 L 623.512,610.525 L 595.442,610.525 L 595.442,680.7 L 791.932,680.7 L 791.932,610.525 z " style="fill-opacity:0.3;fill:rgb(250,150,50);stroke:rgb(0,0,0);stroke-width:1"/></g>
<g fill-rule="evenodd"><path d="M 196.646,610.525 L 168.576,610.525 L 168.717,652.63 L 28.2262,652.63 L 28.2262,610.525 L 0.156168,610.525 L 0.156168,680.7 L 196.646,680.7 L 196.646,610.525 z " style="fill-opacity:0.3;fill:rgb(250,150,50);stroke:rgb(0,0,0);stroke-width:1"/></g>
<g fill-rule="evenodd"><path d="M 659.816,147.37 L 631.746,147.37 L 631.886,189.475 L 491.396,189.475 L 491.396,147.37 L 463.326,147.37 L 463.326,217.545 L 659.816,217.545 L 659.816,147.37 z " style="fill-opacity:0.3;fill:rgb(250,150,50);stroke:rgb(0,0,0);stroke-width:1"/></g>
<g fill-rule="evenodd"><path d="M 743.86,368.66 L 715.79,368.66 L 715.93,410.765 L 575.44,410.765 L 575.44,368.66 L 547.37,368.66 L 547.37,438.835 L 743.86,438.835 L 743.86,368.66 z " style="fill-opacity:0.3;fill:rgb(250,150,50);stroke:rgb(0,0,0);stroke-width:1"/></g>
<g fill-rule="evenodd"><path d="M 148.886,610.525 L 233.096,610.525 L 233.236,652.63 L 261.166,652.63 L 261.166,596.49 L 176.956,596.49 L 176.956,568.56 L 162.921,568.56 L 106.781,624.56 L 106.781,652.63 L 148.886,652.63 L 148.886,610.525 z " style="fill-opacity:0.3;fill:rgb(250,150,50);stroke:rgb(0,0,0);stroke-width:1"/></g>
<g fill-rule="evenodd"><path d="M 561.879,610.525 L 646.089,610.525 L 646.23,652.63 L 674.159,652.63 L 674.159,596.49 L 589.949,596.49 L 589.949,568.56 L 575.914,568.56 L 519.774,624.56 L 519.774,652.63 L 561.879,652.63 L 561.879,610.525 z " style="fill-opacity:0.3;fill:rgb(250,150,50);stroke:rgb(0,0,0);stroke-width:1"/></g>
<g fill-rule="evenodd"><path d="M 435.09,371.93 L 519.3,371.93 L 519.44,414.035 L 547.37,414.035 L 547.37,357.895 L 463.16,357.895 L 463.16,329.965 L 449.125,329.965 L 392.985,385.965 L 392.985,414.035 L 435.09,414.035 L 435.09,371.93 z " style="fill-opacity:0.3;fill:rgb(250,150,50);stroke:rgb(0,0,0);stroke-width:1"/></g>
<g fill-rule="evenodd"><path d="M 224.565,315.79 L 308.775,315.79 L 308.915,357.895 L 336.845,357.895 L 336.845,301.755 L 252.635,301.755 L 252.635,273.825 L 238.6,273.825 L 182.46,329.825 L 182.46,357.895 L 224.565,357.895 L 224.565,315.79 z " style="fill-opacity:0.3;fill:rgb(250,150,50);stroke:rgb(0,0,0);stroke-width:1"/></g>
<g fill-rule="evenodd"><path d="M 266.756,175.44 L 266.756,147.37 L 224.651,147.37 L 224.651,189.475 L 140.441,189.475 L 140.441,147.37 L 112.371,147.37 L 112.371,203.51 L 196.581,203.51 L 196.581,231.58 L 210.616,231.58 L 266.756,175.44 z " style="fill-opacity:0.3;fill:rgb(250,150,50);stroke:rgb(0,0,0);stroke-width:1"/></g>
<g fill-rule="evenodd"><path d="M 392.985,315.79 L 477.195,315.79 L 477.335,357.895 L 505.265,357.895 L 505.265,301.755 L 421.055,301.755 L 421.055,273.825 L 407.02,273.825 L 350.88,329.825 L 350.88,357.895 L 392.985,357.895 L 392.985,315.79 z " style="fill-opacity:0.3;fill:rgb(250,150,50);stroke:rgb(0,0,0);stroke-width:1"/></g>
<g fill-rule="evenodd"><path d="M 337.342,610.525 L 421.552,610.525 L 421.692,652.63 L 449.622,652.63 L 449.622,596.49 L 365.412,596.49 L 365.412,568.56 L 351.377,568.56 L 295.237,624.56 L 295.237,652.63 L 337.342,652.63 L 337.342,610.525 z " style="fill-opacity:0.3;fill:rgb(250,150,50);stroke:rgb(0,0,0);stroke-width:1"/></g>
<g fill-rule="evenodd"><path d="M 435.09,343.86 L 435.09,315.79 L 392.985,315.79 L 392.985,357.895 L 308.775,357.895 L 308.775,315.79 L 280.705,315.79 L 280.705,371.93 L 364.915,371.93 L 364.915,400 L 378.95,400 L 435.09,343.86 z " style="fill-opacity:0.3;fill:rgb(250,150,50);stroke:rgb(0,0,0);stroke-width:1"/></g>
<g fill-rule="evenodd"><path d="M 675.145,360.284 L 759.355,360.284 L 759.496,402.389 L 787.425,402.389 L 787.425,346.249 L 703.215,346.249 L 703.215,318.32 L 689.18,318.32 L 633.04,374.319 L 633.04,402.389 L 675.145,402.389 L 675.145,360.284 z " style="fill-opacity:0.3;fill:rgb(250,150,50);stroke:rgb(0,0,0);stroke-width:1"/></g>
<g fill-rule="evenodd"><path d="M 252.635,259.65 L 252.635,231.58 L 210.53,231.58 L 210.53,273.685 L 126.32,273.685 L 126.32,231.58 L 98.2497,231.58 L 98.2497,287.72 L 182.46,287.72 L 182.46,315.79 L 196.495,315.79 L 252.635,259.65 z " style="fill-opacity:0.3;fill:rgb(250,150,50);stroke:rgb(0,0,0);stroke-width:1"/></g>
<g fill-rule="evenodd"><path d="M 407.02,273.685 L 407.02,245.615 L 364.915,245.615 L 364.915,287.72 L 280.705,287.72 L 280.705,245.615 L 252.635,245.615 L 252.635,301.755 L 336.845,301.755 L 336.845,329.825 L 350.88,329.825 L 407.02,273.685 z " style="fill-opacity:0.3;fill:rgb(250,150,50);stroke:rgb(0,0,0);stroke-width:1"/></g>
<g fill-rule="evenodd"><path d="M 536.732,273.647 L 564.662,273.647 L 564.662,245.577 L 536.592,245.577 L 536.592,217.647 L 508.522,217.647 L 508.522,245.577 L 480.452,245.577 L 480.452,273.647 L 508.522,273.647 L 508.662,301.717 L 536.732,301.717 L 536.732,273.647 z " style="fill-opacity:0.3;fill:rgb(250,150,50);stroke:rgb(0,0,0);stroke-width:1"/></g>
<g fill-rule="evenodd"><path d="M 659.418,498.079 L 687.489,498.079 L 687.489,470.009 L 659.418,470.009 L 659.418,441.939 L 631.348,441.939 L 631.348,470.009 L 603.278,470.009 L 603.278,498.079 L 631.348,498.079 L 631.348,526.149 L 659.418,526.149 L 659.418,498.079 z " style="fill-opacity:0.3;fill:rgb(250,150,50);stroke:rgb(0,0,0);stroke-width:1"/></g>
<g fill-rule="evenodd"><path d="M 295.264,596.317 L 323.334,596.317 L 323.334,568.247 L 295.264,568.247 L 295.264,540.177 L 267.194,540.177 L 267.194,568.247 L 239.124,568.247 L 239.124,596.317 L 267.194,596.317 L 267.194,624.387 L 295.264,624.387 L 295.264,596.317 z " style="fill-opacity:0.3;fill:rgb(250,150,50);stroke:rgb(0,0,0);stroke-width:1"/></g>
<g fill-rule="evenodd"><path d="M 393.498,557.116 L 421.568,557.116 L 421.568,529.046 L 393.498,529.046 L 393.498,500.976 L 365.428,500.976 L 365.428,529.046 L 337.358,529.046 L 337.358,557.116 L 365.428,557.116 L 365.428,585.186 L 393.498,585.186 L 393.498,557.116 z " style="fill-opacity:0.3;fill:rgb(250,150,50);stroke:rgb(0,0,0);stroke-width:1"/></g>
<g fill-rule="evenodd"><path d="M 252.635,386.018 L 280.705,386.018 L 280.705,357.948 L 252.635,357.948 L 252.635,329.878 L 224.565,329.878 L 224.565,357.948 L 196.495,357.948 L 196.495,386.018 L 224.565,386.018 L 224.565,414.088 L 252.635,414.088 L 252.635,386.018 z " style="fill-opacity:0.3;fill:rgb(250,150,50);stroke:rgb(0,0,0);stroke-width:1"/></g>
<g fill-rule="evenodd"><path d="M 56.299,471.316 L 84.2287,471.316 L 84.2287,443.246 L 56.1587,443.246 L 56.1587,415.316 L 28.0887,415.316 L 28.0887,443.246 L 0.0186588,443.246 L 0.0186588,471.316 L 28.0887,471.316 L 28.229,499.386 L 56.299,499.386 L 56.299,471.316 z " style="fill-opacity:0.3;fill:rgb(250,150,50);stroke:rgb(0,0,0);stroke-width:1"/></g>
<g fill-rule="evenodd"><path d="M 196.609,414.116 L 224.538,414.116 L 224.538,386.046 L 196.468,386.046 L 196.468,358.116 L 168.398,358.116 L 168.398,386.046 L 140.328,386.046 L 140.328,414.116 L 168.398,414.116 L 168.539,442.186 L 196.609,442.186 L 196.609,414.116 z " style="fill-opacity:0.3;fill:rgb(250,150,50);stroke:rgb(0,0,0);stroke-width:1"/></g>
<g fill-rule="evenodd"><path d="M 535.711,470.175 L 563.781,470.175 L 563.781,442.105 L 535.711,442.105 L 535.711,414.035 L 507.641,414.035 L 507.641,442.105 L 479.571,442.105 L 479.571,470.175 L 507.641,470.175 L 507.641,498.245 L 535.711,498.245 L 535.711,470.175 z " style="fill-opacity:0.3;fill:rgb(250,150,50);stroke:rgb(0,0,0);stroke-width:1"/></g>
<g fill-rule="evenodd"><path d="M 505.938,610.479 L 533.867,610.479 L 533.867,582.409 L 505.797,582.409 L 505.797,554.479 L 477.727,554.479 L 477.727,582.409 L 449.657,582.409 L 449.657,610.479 L 477.727,610.479 L 477.868,638.549 L 505.938,638.549 L 505.938,610.479 z " style="fill-opacity:0.3;fill:rgb(250,150,50);stroke:rgb(0,0,0);stroke-width:1"/></g>
<g fill-rule="evenodd"><path d="M 473.882,442.105 L 501.952,442.105 L 501.952,414.035 L 473.882,414.035 L 473.882,385.965 L 445.812,385.965 L 445.812,414.035 L 417.742,414.035 L 417.742,442.105 L 445.812,442.105 L 445.812,470.175 L 473.882,470.175 L 473.882,442.105 z " style="fill-opacity:0.3;fill:rgb(250,150,50);stroke:rgb(0,0,0);stroke-width:1"/></g>
<g fill-rule="evenodd"><path d="M 772.07,469.623 L 800,469.623 L 800,441.553 L 771.93,441.553 L 771.93,413.623 L 743.86,413.623 L 743.86,441.553 L 715.79,441.553 L 715.79,469.623 L 743.86,469.623 L 744,497.693 L 772.07,497.693 L 772.07,469.623 z " style="fill-opacity:0.3;fill:rgb(250,150,50);stroke:rgb(0,0,0);stroke-width:1"/></g>
<g fill-rule="evenodd"><path d="M 140.528,470.133 L 168.457,470.133 L 168.457,442.063 L 140.387,442.063 L 140.387,414.133 L 112.317,414.133 L 112.317,442.063 L 84.2473,442.063 L 84.2473,470.133 L 112.317,470.133 L 112.458,498.203 L 140.528,498.203 L 140.528,470.133 z " style="fill-opacity:0.3;fill:rgb(250,150,50);stroke:rgb(0,0,0);stroke-width:1"/></g>
</svg>
