<?xml version="1.0" standalone="no"?>
<!DOCTYPE svg PUBLIC "-//W3C//DTD SVG 1.1//EN"
"http://www.w3.org/Graphics/SVG/1.1/DTD/svg11.dtd">
<svg width="100%" height="100%" version="1.1"
xmlns="http://www.w3.org/2000/svg"
xmlns:xlink="http://www.w3.org/1999/xlink">
<rect x="-5.68434e-14" y="149.171" width="800" height="501.658" style="fill-opacity:0;fill:rgb(255,255,255);stroke:rgb(0,0,0);stroke-width:1"/>
<g fill-rule="evenodd"><path d="M 250.494,497.012 L 175.245,421.764 L 99.9964,497.012 L 175.245,572.261 L 250.494,497.012 z " style="fill-opacity:0.3;fill:rgb(250,150,50);stroke:rgb(0,0,0);stroke-width:1"/></g>
<g fill-rule="evenodd"><path d="M 174.617,573.001 L 99.3678,497.752 L 24.1191,573.001 L 99.3678,648.249 L 174.617,573.001 z " style="fill-opacity:0.3;fill:rgb(250,150,50);stroke:rgb(0,0,0);stroke-width:1"/></g>
<g fill-rule="evenodd"><path d="M 379.794,249.504 L 304.546,174.255 L 229.297,249.504 L 304.546,324.752 L 379.794,249.504 z " style="fill-opacity:0.3;fill:rgb(250,150,50);stroke:rgb(0,0,0);stroke-width:1"/></g>
<g fill-rule="evenodd"><path d="M 157.536,428.572 L 82.2872,353.323 L 7.03849,428.572 L 82.2872,503.821 L 157.536,428.572 z " style="fill-opacity:0.3;fill:rgb(250,150,50);stroke:rgb(0,0,0);stroke-width:1"/></g>
<g fill-rule="evenodd"><path d="M 335.03,562.992 L 259.781,487.743 L 184.533,562.992 L 259.781,638.241 L 335.03,562.992 z " style="fill-opacity:0.3;fill:rgb(250,150,50);stroke:rgb(0,0,0);stroke-width:1"/></g>
<g fill-rule="evenodd"><path d="M 436.429,343.719 L 361.18,268.47 L 285.931,343.719 L 361.18,418.968 L 436.429,343.719 z " style="fill-opacity:0.3;fill:rgb(250,150,50);stroke:rgb(0,0,0);stroke-width:1"/></g>
<g fill-rule="evenodd"><path d="M 234.522,355.061 L 159.273,279.812 L 84.0247,355.061 L 159.273,430.309 L 234.522,355.061 z " style="fill-opacity:0.3;fill:rgb(250,150,50);stroke:rgb(0,0,0);stroke-width:1"/></g>
<g fill-rule="evenodd"><path d="M 643.971,374.917 L 769.385,374.917 L 769.385,412.541 L 794.468,412.541 L 794.468,349.834 L 618.888,349.834 L 618.888,412.541 L 643.971,412.541 L 643.971,374.917 z " style="fill-opacity:0.3;fill:rgb(250,150,50);stroke:rgb(0,0,0);stroke-width:1"/></g>
<g fill-rule="evenodd"><path d="M 649.496,236.961 L 774.911,236.961 L 774.911,274.586 L 799.994,274.586 L 799.994,211.878 L 624.413,211.878 L 624.413,274.586 L 649.496,274.586 L 649.496,236.961 z " style="fill-opacity:0.3;fill:rgb(250,150,50);stroke:rgb(0,0,0);stroke-width:1"/></g>
<g fill-rule="evenodd"><path d="M 498.118,550.497 L 623.533,550.497 L 623.533,588.122 L 648.616,588.122 L 648.616,525.414 L 473.035,525.414 L 473.035,588.122 L 498.118,588.122 L 498.118,550.497 z " style="fill-opacity:0.3;fill:rgb(250,150,50);stroke:rgb(0,0,0);stroke-width:1"/></g>
<g fill-rule="evenodd"><path d="M 592.252,174.254 L 717.666,174.254 L 717.666,211.878 L 742.749,211.878 L 742.749,149.171 L 567.169,149.171 L 567.169,211.878 L 592.252,211.878 L 592.252,174.254 z " style="fill-opacity:0.3;fill:rgb(250,150,50);stroke:rgb(0,0,0);stroke-width:1"/></g>
<g fill-rule="evenodd"><path d="M 68.1348,274.592 L 193.549,274.592 L 193.549,312.216 L 218.632,312.216 L 218.632,249.509 L 43.0519,249.509 L 43.0519,312.216 L 68.1348,312.216 L 68.1348,274.592 z " style="fill-opacity:0.3;fill:rgb(250,150,50);stroke:rgb(0,0,0);stroke-width:1"/></g>
<g fill-rule="evenodd"><path d="M 443.124,387.459 L 568.539,387.459 L 568.539,425.083 L 593.622,425.083 L 593.622,362.376 L 418.041,362.376 L 418.041,425.083 L 443.124,425.083 L 443.124,387.459 z " style="fill-opacity:0.3;fill:rgb(250,150,50);stroke:rgb(0,0,0);stroke-width:1"/></g>
<g fill-rule="evenodd"><path d="M 237.21,174.255 L 362.624,174.255 L 362.624,211.879 L 387.707,211.879 L 387.707,149.172 L 212.127,149.172 L 212.127,211.879 L 237.21,211.879 L 237.21,174.255 z " style="fill-opacity:0.3;fill:rgb(250,150,50);stroke:rgb(0,0,0);stroke-width:1"/></g>
<g fill-rule="evenodd"><path d="M 473.037,450.166 L 598.452,450.166 L 598.452,487.79 L 623.535,487.79 L 623.535,425.083 L 447.954,425.083 L 447.954,487.79 L 473.037,487.79 L 473.037,450.166 z " style="fill-opacity:0.3;fill:rgb(250,150,50);stroke:rgb(0,0,0);stroke-width:1"/></g>
<g fill-rule="evenodd"><path d="M 335.229,613.205 L 460.644,613.205 L 460.644,650.829 L 485.726,650.829 L 485.726,588.122 L 310.146,588.122 L 310.146,650.829 L 335.229,650.829 L 335.229,613.205 z " style="fill-opacity:0.3;fill:rgb(250,150,50);stroke:rgb(0,0,0);stroke-width:1"/></g>
<g fill-rule="evenodd"><path d="M 297.455,450.166 L 422.869,450.166 L 422.869,487.79 L 447.952,487.79 L 447.952,425.083 L 272.372,425.083 L 272.372,487.79 L 297.455,487.79 L 297.455,450.166 z " style="fill-opacity:0.3;fill:rgb(250,150,50);stroke:rgb(0,0,0);stroke-width:1"/></g>
<g fill-rule="evenodd"><path d="M 648.619,475.249 L 774.034,475.249 L 774.034,512.873 L 799.117,512.873 L 799.117,450.166 L 623.537,450.166 L 623.537,512.873 L 648.619,512.873 L 648.619,475.249 z " style="fill-opacity:0.3;fill:rgb(250,150,50);stroke:rgb(0,0,0);stroke-width:1"/></g>
<g fill-rule="evenodd"><path d="M 416.62,174.254 L 542.035,174.254 L 542.035,211.878 L 567.117,211.878 L 567.117,149.171 L 391.537,149.171 L 391.537,211.878 L 416.62,211.878 L 416.62,174.254 z " style="fill-opacity:0.3;fill:rgb(250,150,50);stroke:rgb(0,0,0);stroke-width:1"/></g>
<g fill-rule="evenodd"><path d="M 473.878,274.586 L 599.292,274.586 L 599.292,312.21 L 624.375,312.21 L 624.375,249.503 L 448.795,249.503 L 448.795,312.21 L 473.878,312.21 L 473.878,274.586 z " style="fill-opacity:0.3;fill:rgb(250,150,50);stroke:rgb(0,0,0);stroke-width:1"/></g>
<g fill-rule="evenodd"><path d="M 61.2907,174.257 L 186.705,174.257 L 186.705,211.881 L 211.788,211.881 L 211.788,149.174 L 36.2078,149.174 L 36.2078,211.881 L 61.2907,211.881 L 61.2907,174.257 z " style="fill-opacity:0.3;fill:rgb(250,150,50);stroke:rgb(0,0,0);stroke-width:1"/></g>
<g fill-rule="evenodd"><path d="M 510.891,613.205 L 636.306,613.205 L 636.306,650.829 L 661.389,650.829 L 661.389,588.122 L 485.808,588.122 L 485.808,650.829 L 510.891,650.829 L 510.891,613.205 z " style="fill-opacity:0.3;fill:rgb(250,150,50);stroke:rgb(0,0,0);stroke-width:1"/></g>
<g fill-rule="evenodd"><path d="M 630.312,199.337 L 630.312,174.254 L 592.687,174.254 L 592.687,211.878 L 517.439,211.878 L 517.439,174.254 L 492.356,174.254 L 492.356,224.42 L 567.604,224.42 L 567.604,249.503 L 580.146,249.503 L 630.312,199.337 z " style="fill-opacity:0.3;fill:rgb(250,150,50);stroke:rgb(0,0,0);stroke-width:1"/></g>
<g fill-rule="evenodd"><path d="M 799.976,299.668 L 799.976,274.586 L 762.352,274.586 L 762.352,312.21 L 687.103,312.21 L 687.103,274.586 L 662.02,274.586 L 662.02,324.751 L 737.269,324.751 L 737.269,349.834 L 749.811,349.834 L 799.976,299.668 z " style="fill-opacity:0.3;fill:rgb(250,150,50);stroke:rgb(0,0,0);stroke-width:1"/></g>
<g fill-rule="evenodd"><path d="M 731.618,400 L 731.618,374.917 L 693.993,374.917 L 693.993,412.541 L 618.744,412.541 L 618.744,374.917 L 593.662,374.917 L 593.662,425.083 L 668.91,425.083 L 668.91,450.166 L 681.452,450.166 L 731.618,400 z " style="fill-opacity:0.3;fill:rgb(250,150,50);stroke:rgb(0,0,0);stroke-width:1"/></g>
<g fill-rule="evenodd"><path d="M 473.035,537.956 L 473.035,512.873 L 435.41,512.873 L 435.41,550.497 L 360.162,550.497 L 360.162,512.873 L 335.079,512.873 L 335.079,563.039 L 410.328,563.039 L 410.328,588.122 L 422.869,588.122 L 473.035,537.956 z " style="fill-opacity:0.3;fill:rgb(250,150,50);stroke:rgb(0,0,0);stroke-width:1"/></g>
<g fill-rule="evenodd"><path d="M 799.679,600.645 L 799.679,575.562 L 762.055,575.562 L 762.055,613.186 L 686.806,613.186 L 686.806,575.562 L 661.723,575.562 L 661.723,625.728 L 736.972,625.728 L 736.972,650.81 L 749.513,650.81 L 799.679,600.645 z " style="fill-opacity:0.3;fill:rgb(250,150,50);stroke:rgb(0,0,0);stroke-width:1"/></g>
<g fill-rule="evenodd"><path d="M 138.1,199.341 L 138.1,174.259 L 100.476,174.259 L 100.476,211.883 L 25.227,211.883 L 25.227,174.259 L 0.144116,174.259 L 0.144116,224.424 L 75.3928,224.424 L 75.3928,249.507 L 87.9343,249.507 L 138.1,199.341 z " style="fill-opacity:0.3;fill:rgb(250,150,50);stroke:rgb(0,0,0);stroke-width:1"/></g>
<g fill-rule="evenodd"><path d="M 662.015,301.716 L 662.015,276.633 L 624.391,276.633 L 624.391,314.258 L 549.142,314.258 L 549.142,276.633 L 524.059,276.633 L 524.059,326.799 L 599.308,326.799 L 599.308,351.882 L 611.849,351.882 L 662.015,301.716 z " style="fill-opacity:0.3;fill:rgb(250,150,50);stroke:rgb(0,0,0);stroke-width:1"/></g>
<g fill-rule="evenodd"><path d="M 535.743,475.249 L 535.743,450.166 L 498.118,450.166 L 498.118,487.79 L 422.869,487.79 L 422.869,450.166 L 397.787,450.166 L 397.787,500.332 L 473.035,500.332 L 473.035,525.414 L 485.577,525.414 L 535.743,475.249 z " style="fill-opacity:0.3;fill:rgb(250,150,50);stroke:rgb(0,0,0);stroke-width:1"/></g>
<g fill-rule="evenodd"><path d="M 276.209,199.342 L 276.209,174.259 L 238.585,174.259 L 238.585,211.883 L 163.336,211.883 L 163.336,174.259 L 138.253,174.259 L 138.253,224.424 L 213.502,224.424 L 213.502,249.507 L 226.043,249.507 L 276.209,199.342 z " style="fill-opacity:0.3;fill:rgb(250,150,50);stroke:rgb(0,0,0);stroke-width:1"/></g>
<g fill-rule="evenodd"><path d="M 711.323,500.332 L 711.323,475.249 L 673.698,475.249 L 673.698,512.873 L 598.45,512.873 L 598.45,475.249 L 573.367,475.249 L 573.367,525.414 L 648.616,525.414 L 648.616,550.497 L 661.157,550.497 L 711.323,500.332 z " style="fill-opacity:0.3;fill:rgb(250,150,50);stroke:rgb(0,0,0);stroke-width:1"/></g>
<g fill-rule="evenodd"><path d="M 138.147,300.616 L 138.147,275.533 L 100.523,275.533 L 100.523,313.157 L 25.2742,313.157 L 25.2742,275.533 L 0.191263,275.533 L 0.191263,325.699 L 75.44,325.699 L 75.44,350.782 L 87.9814,350.782 L 138.147,300.616 z " style="fill-opacity:0.3;fill:rgb(250,150,50);stroke:rgb(0,0,0);stroke-width:1"/></g>
<g fill-rule="evenodd"><path d="M 737.269,287.127 L 762.352,287.127 L 762.352,262.044 L 737.269,262.044 L 737.269,236.961 L 712.186,236.961 L 712.186,262.044 L 687.103,262.044 L 687.103,287.127 L 712.186,287.127 L 712.186,312.21 L 737.269,312.21 L 737.269,287.127 z " style="fill-opacity:0.3;fill:rgb(250,150,50);stroke:rgb(0,0,0);stroke-width:1"/></g>
<g fill-rule="evenodd"><path d="M 266.936,337.308 L 292.019,337.308 L 292.019,312.225 L 266.936,312.225 L 266.936,287.143 L 241.853,287.143 L 241.853,312.225 L 216.77,312.225 L 216.77,337.308 L 241.853,337.308 L 241.853,362.391 L 266.936,362.391 L 266.936,337.308 z " style="fill-opacity:0.3;fill:rgb(250,150,50);stroke:rgb(0,0,0);stroke-width:1"/></g>
<g fill-rule="evenodd"><path d="M 423.712,280.836 L 448.794,280.836 L 448.794,255.753 L 423.712,255.753 L 423.712,230.67 L 398.629,230.67 L 398.629,255.753 L 373.546,255.753 L 373.546,280.836 L 398.629,280.836 L 398.629,305.919 L 423.712,305.919 L 423.712,280.836 z " style="fill-opacity:0.3;fill:rgb(250,150,50);stroke:rgb(0,0,0);stroke-width:1"/></g>
<g fill-rule="evenodd"><path d="M 766.619,550.442 L 791.702,550.442 L 791.702,525.359 L 766.619,525.359 L 766.619,500.276 L 741.536,500.276 L 741.536,525.359 L 716.453,525.359 L 716.453,550.442 L 741.536,550.442 L 741.536,575.525 L 766.619,575.525 L 766.619,550.442 z " style="fill-opacity:0.3;fill:rgb(250,150,50);stroke:rgb(0,0,0);stroke-width:1"/></g>
<g fill-rule="evenodd"><path d="M 498.962,337.293 L 524.045,337.293 L 524.045,312.21 L 498.962,312.21 L 498.962,287.127 L 473.879,287.127 L 473.879,312.21 L 448.796,312.21 L 448.796,337.293 L 473.879,337.293 L 473.879,362.376 L 498.962,362.376 L 498.962,337.293 z " style="fill-opacity:0.3;fill:rgb(250,150,50);stroke:rgb(0,0,0);stroke-width:1"/></g>
<g fill-rule="evenodd"><path d="M 197.12,625.746 L 222.203,625.746 L 222.203,600.663 L 197.12,600.663 L 197.12,575.58 L 172.037,575.58 L 172.037,600.663 L 146.954,600.663 L 146.954,625.746 L 172.037,625.746 L 172.037,650.829 L 197.12,650.829 L 197.12,625.746 z " style="fill-opacity:0.3;fill:rgb(250,150,50);stroke:rgb(0,0,0);stroke-width:1"/></g>
<g fill-rule="evenodd"><path d="M 712.577,575.552 L 737.66,575.552 L 737.66,550.47 L 712.577,550.47 L 712.577,525.387 L 687.494,525.387 L 687.494,550.47 L 662.411,550.47 L 662.411,575.552 L 687.494,575.552 L 687.494,600.635 L 712.577,600.635 L 712.577,575.552 z " style="fill-opacity:0.3;fill:rgb(250,150,50);stroke:rgb(0,0,0);stroke-width:1"/></g>
<g fill-rule="evenodd"><path d="M 335.078,512.873 L 360.161,512.873 L 360.161,487.79 L 335.078,487.79 L 335.078,462.707 L 309.995,462.707 L 309.995,487.79 L 284.912,487.79 L 284.912,512.873 L 309.995,512.873 L 309.995,537.956 L 335.078,537.956 L 335.078,512.873 z " style="fill-opacity:0.3;fill:rgb(250,150,50);stroke:rgb(0,0,0);stroke-width:1"/></g>
<g fill-rule="evenodd"><path d="M 466.818,224.42 L 491.901,224.42 L 491.901,199.337 L 466.818,199.337 L 466.818,174.254 L 441.735,174.254 L 441.735,199.337 L 416.653,199.337 L 416.653,224.42 L 441.735,224.42 L 441.735,249.503 L 466.818,249.503 L 466.818,224.42 z " style="fill-opacity:0.3;fill:rgb(250,150,50);stroke:rgb(0,0,0);stroke-width:1"/></g>
<g fill-rule="evenodd"><path d="M 50.1681,521.868 L 75.251,521.868 L 75.251,496.785 L 50.1681,496.785 L 50.1681,471.703 L 25.0852,471.703 L 25.0852,496.785 L 0.00229055,496.785 L 0.00229055,521.868 L 25.0852,521.868 L 25.0852,546.951 L 50.1681,546.951 L 50.1681,521.868 z " style="fill-opacity:0.3;fill:rgb(250,150,50);stroke:rgb(0,0,0);stroke-width:1"/></g>
<g fill-rule="evenodd"><path d="M 292.021,399.975 L 317.103,399.975 L 317.103,374.892 L 292.021,374.892 L 292.021,349.81 L 266.938,349.81 L 266.938,374.892 L 241.855,374.892 L 241.855,399.975 L 266.938,399.975 L 266.938,425.058 L 292.021,425.058 L 292.021,399.975 z " style="fill-opacity:0.3;fill:rgb(250,150,50);stroke:rgb(0,0,0);stroke-width:1"/></g>
<g fill-rule="evenodd"><path d="M 234.281,430.593 L 259.364,430.593 L 259.364,405.51 L 234.281,405.51 L 234.281,380.427 L 209.198,380.427 L 209.198,405.51 L 184.115,405.51 L 184.115,430.593 L 209.198,430.593 L 209.198,455.676 L 234.281,455.676 L 234.281,430.593 z " style="fill-opacity:0.3;fill:rgb(250,150,50);stroke:rgb(0,0,0);stroke-width:1"/></g>
</svg>
