<?xml version="1.0" standalone="no"?>
<!DOCTYPE svg PUBLIC "-//W3C//DTD SVG 1.1//EN"
"http://www.w3.org/Graphics/SVG/1.1/DTD/svg11.dtd">
<svg width="100%" height="100%" version="1.1"
xmlns="http://www.w3.org/2000/svg"
xmlns:xlink="http://www.w3.org/1999/xlink">
<rect x="-5.68434e-14" y="158.04" width="800" height="483.919" style="fill-opacity:0;fill:rgb(255,255,255);stroke:rgb(0,0,0);stroke-width:1"/>
<g fill-rule="evenodd"><path d="M 145.201,573.143 L 133.103,524.751 L 84.7106,536.849 L 0.0247236,536.849 L 0.0247236,621.535 L 36.3187,621.535 L 36.3187,633.633 L 60.5146,621.535 L 96.8086,621.535 L 133.103,633.633 L 145.201,573.143 z " style="fill-opacity:0.3;fill:rgb(250,150,50);stroke:rgb(0,0,0);stroke-width:1"/></g>
<g fill-rule="evenodd"><path d="M 145.717,464.205 L 133.619,415.813 L 85.2268,427.911 L 0.540956,427.911 L 0.540956,512.596 L 36.8349,512.596 L 36.8349,524.694 L 61.0309,512.596 L 97.3248,512.596 L 133.619,524.694 L 145.717,464.205 z " style="fill-opacity:0.3;fill:rgb(250,150,50);stroke:rgb(0,0,0);stroke-width:1"/></g>
<g fill-rule="evenodd"><path d="M 145.186,355.378 L 133.088,306.986 L 84.6958,319.084 L 0.00987433,319.084 L 0.00987433,403.77 L 36.3038,403.77 L 36.3038,415.868 L 60.4998,403.77 L 96.7937,403.77 L 133.088,415.868 L 145.186,355.378 z " style="fill-opacity:0.3;fill:rgb(250,150,50);stroke:rgb(0,0,0);stroke-width:1"/></g>
<g fill-rule="evenodd"><path d="M 147.589,230.709 L 135.491,182.317 L 87.099,194.415 L 2.41314,194.415 L 2.41314,279.101 L 38.7071,279.101 L 38.7071,291.199 L 62.9031,279.101 L 99.197,279.101 L 135.491,291.199 L 147.589,230.709 z " style="fill-opacity:0.3;fill:rgb(250,150,50);stroke:rgb(0,0,0);stroke-width:1"/></g>
<g fill-rule="evenodd"><path d="M 288.648,515.331 L 276.55,466.939 L 228.158,479.037 L 143.472,479.037 L 143.472,563.723 L 179.766,563.723 L 179.766,575.821 L 203.962,563.723 L 240.256,563.723 L 276.55,575.821 L 288.648,515.331 z " style="fill-opacity:0.3;fill:rgb(250,150,50);stroke:rgb(0,0,0);stroke-width:1"/></g>
<g fill-rule="evenodd"><path d="M 197.72,351.934 L 281.196,351.934 L 281.196,267.248 L 244.902,267.248 L 244.902,256.36 L 220.706,267.248 L 184.412,267.248 L 148.118,256.36 L 136.02,315.64 L 149.328,364.032 L 197.72,351.934 z " style="fill-opacity:0.3;fill:rgb(250,150,50);stroke:rgb(0,0,0);stroke-width:1"/></g>
<g fill-rule="evenodd"><path d="M 287.955,403.789 L 275.857,355.397 L 227.465,367.495 L 142.779,367.495 L 142.779,452.181 L 179.073,452.181 L 179.073,464.279 L 203.269,452.181 L 239.563,452.181 L 275.857,464.279 L 287.955,403.789 z " style="fill-opacity:0.3;fill:rgb(250,150,50);stroke:rgb(0,0,0);stroke-width:1"/></g>
<g fill-rule="evenodd"><path d="M 292.766,206.434 L 280.668,158.042 L 232.276,170.14 L 147.591,170.14 L 147.591,254.826 L 183.885,254.826 L 183.885,266.924 L 208.081,254.826 L 244.374,254.826 L 280.668,266.924 L 292.766,206.434 z " style="fill-opacity:0.3;fill:rgb(250,150,50);stroke:rgb(0,0,0);stroke-width:1"/></g>
<g fill-rule="evenodd"><path d="M 407.328,616.914 L 395.23,604.816 L 395.23,580.62 L 383.132,568.522 L 334.74,580.62 L 298.446,568.522 L 262.152,580.62 L 250.054,604.816 L 262.152,641.11 L 395.23,641.11 L 407.328,616.914 z " style="fill-opacity:0.3;fill:rgb(250,150,50);stroke:rgb(0,0,0);stroke-width:1"/></g>
<g fill-rule="evenodd"><path d="M 434.736,469.172 L 422.638,457.074 L 422.638,432.878 L 410.54,420.78 L 362.148,432.878 L 325.854,420.78 L 289.56,432.878 L 277.462,457.074 L 289.56,493.368 L 422.638,493.368 L 434.736,469.172 z " style="fill-opacity:0.3;fill:rgb(250,150,50);stroke:rgb(0,0,0);stroke-width:1"/></g>
<g fill-rule="evenodd"><path d="M 436.439,375.81 L 424.341,363.712 L 424.341,339.516 L 412.243,327.418 L 363.851,339.516 L 327.557,327.418 L 291.263,339.516 L 279.165,363.712 L 291.263,400.006 L 424.341,400.006 L 436.439,375.81 z " style="fill-opacity:0.3;fill:rgb(250,150,50);stroke:rgb(0,0,0);stroke-width:1"/></g>
<g fill-rule="evenodd"><path d="M 439.728,303.221 L 427.63,291.123 L 427.63,266.927 L 415.532,254.829 L 367.14,266.927 L 330.846,254.829 L 294.552,266.927 L 282.454,291.123 L 294.552,327.417 L 427.63,327.417 L 439.728,303.221 z " style="fill-opacity:0.3;fill:rgb(250,150,50);stroke:rgb(0,0,0);stroke-width:1"/></g>
<g fill-rule="evenodd"><path d="M 447.621,230.629 L 435.523,218.531 L 435.523,194.335 L 423.425,182.237 L 375.033,194.335 L 338.739,182.237 L 302.445,194.335 L 290.347,218.531 L 302.445,254.825 L 435.523,254.825 L 447.621,230.629 z " style="fill-opacity:0.3;fill:rgb(250,150,50);stroke:rgb(0,0,0);stroke-width:1"/></g>
<g fill-rule="evenodd"><path d="M 557.574,533.077 L 545.476,520.979 L 545.476,496.783 L 533.378,484.685 L 484.986,496.783 L 448.692,484.685 L 412.398,496.783 L 400.3,520.979 L 412.398,557.273 L 545.476,557.273 L 557.574,533.077 z " style="fill-opacity:0.3;fill:rgb(250,150,50);stroke:rgb(0,0,0);stroke-width:1"/></g>
<g fill-rule="evenodd"><path d="M 575.869,424.194 L 563.771,412.096 L 563.771,387.9 L 551.673,375.802 L 503.281,387.9 L 466.987,375.802 L 430.693,387.9 L 418.595,412.096 L 430.693,448.39 L 563.771,448.39 L 575.869,424.194 z " style="fill-opacity:0.3;fill:rgb(250,150,50);stroke:rgb(0,0,0);stroke-width:1"/></g>
<g fill-rule="evenodd"><path d="M 584.112,351.606 L 572.014,339.508 L 572.014,315.312 L 559.916,303.214 L 511.524,315.312 L 475.23,303.214 L 438.936,315.312 L 426.838,339.508 L 438.936,375.802 L 572.014,375.802 L 584.112,351.606 z " style="fill-opacity:0.3;fill:rgb(250,150,50);stroke:rgb(0,0,0);stroke-width:1"/></g>
<g fill-rule="evenodd"><path d="M 536.699,294.433 L 536.699,246.041 L 452.013,221.845 L 439.915,246.041 L 439.915,258.139 L 427.817,270.237 L 439.915,282.335 L 452.013,306.531 L 536.699,294.433 z " style="fill-opacity:0.3;fill:rgb(250,150,50);stroke:rgb(0,0,0);stroke-width:1"/></g>
<g fill-rule="evenodd"><path d="M 609.789,230.63 L 609.789,182.238 L 525.103,158.042 L 513.005,182.238 L 513.005,194.336 L 500.907,206.434 L 513.005,218.532 L 525.103,242.728 L 609.789,230.63 z " style="fill-opacity:0.3;fill:rgb(250,150,50);stroke:rgb(0,0,0);stroke-width:1"/></g>
<g fill-rule="evenodd"><path d="M 600.595,629.861 L 600.595,581.469 L 515.909,557.273 L 503.811,581.469 L 503.811,593.567 L 491.713,605.665 L 503.811,617.763 L 515.909,641.959 L 600.595,629.861 z " style="fill-opacity:0.3;fill:rgb(250,150,50);stroke:rgb(0,0,0);stroke-width:1"/></g>
<g fill-rule="evenodd"><path d="M 652.205,514.719 L 652.205,466.327 L 567.519,442.131 L 555.421,466.327 L 555.421,478.425 L 543.323,490.523 L 555.421,502.621 L 567.519,526.817 L 652.205,514.719 z " style="fill-opacity:0.3;fill:rgb(250,150,50);stroke:rgb(0,0,0);stroke-width:1"/></g>
<g fill-rule="evenodd"><path d="M 660.71,311.234 L 660.71,262.842 L 576.024,238.646 L 563.926,262.842 L 563.926,274.94 L 551.828,287.038 L 563.926,299.136 L 576.024,323.332 L 660.71,311.234 z " style="fill-opacity:0.3;fill:rgb(250,150,50);stroke:rgb(0,0,0);stroke-width:1"/></g>
<g fill-rule="evenodd"><path d="M 672.701,444.509 L 672.701,432.411 L 684.799,419.103 L 672.701,408.215 L 660.603,384.019 L 575.917,396.117 L 575.917,444.509 L 660.603,468.705 L 672.701,444.509 z " style="fill-opacity:0.3;fill:rgb(250,150,50);stroke:rgb(0,0,0);stroke-width:1"/></g>
<g fill-rule="evenodd"><path d="M 746.495,247.556 L 746.495,199.164 L 661.809,174.968 L 649.711,199.164 L 649.711,211.262 L 637.613,223.36 L 649.711,235.458 L 661.809,259.654 L 746.495,247.556 z " style="fill-opacity:0.3;fill:rgb(250,150,50);stroke:rgb(0,0,0);stroke-width:1"/></g>
<g fill-rule="evenodd"><path d="M 697.281,593.234 L 697.281,544.842 L 612.595,520.646 L 600.497,544.842 L 600.497,556.94 L 588.399,569.038 L 600.497,581.136 L 612.595,605.332 L 697.281,593.234 z " style="fill-opacity:0.3;fill:rgb(250,150,50);stroke:rgb(0,0,0);stroke-width:1"/></g>
<g fill-rule="evenodd"><path d="M 108.923,288.831 L 84.727,288.831 L 60.5311,300.929 L 48.4331,300.929 L 36.3351,288.831 L 0.0411571,288.831 L 12.1391,313.027 L 108.923,313.027 L 108.923,288.831 z " style="fill-opacity:0.3;fill:rgb(250,150,50);stroke:rgb(0,0,0);stroke-width:1"/></g>
<g fill-rule="evenodd"><path d="M 109.077,158.077 L 84.8812,158.077 L 60.6853,170.175 L 48.5873,170.175 L 36.4893,158.077 L 0.195353,158.077 L 12.2933,182.273 L 109.077,182.273 L 109.077,158.077 z " style="fill-opacity:0.3;fill:rgb(250,150,50);stroke:rgb(0,0,0);stroke-width:1"/></g>
<g fill-rule="evenodd"><path d="M 246.799,617.744 L 222.603,617.744 L 198.407,629.842 L 186.309,629.842 L 174.211,617.744 L 137.917,617.744 L 150.015,641.94 L 246.799,641.94 L 246.799,617.744 z " style="fill-opacity:0.3;fill:rgb(250,150,50);stroke:rgb(0,0,0);stroke-width:1"/></g>
<g fill-rule="evenodd"><path d="M 250.031,593.463 L 225.835,593.463 L 201.639,605.561 L 189.541,605.561 L 177.443,593.463 L 141.149,593.463 L 153.247,617.659 L 250.031,617.659 L 250.031,593.463 z " style="fill-opacity:0.3;fill:rgb(250,150,50);stroke:rgb(0,0,0);stroke-width:1"/></g>
<g fill-rule="evenodd"><path d="M 393.041,541.076 L 368.845,541.076 L 344.649,553.174 L 332.551,553.174 L 320.453,541.076 L 284.159,541.076 L 296.257,565.272 L 393.041,565.272 L 393.041,541.076 z " style="fill-opacity:0.3;fill:rgb(250,150,50);stroke:rgb(0,0,0);stroke-width:1"/></g>
<g fill-rule="evenodd"><path d="M 395.035,494.97 L 370.839,494.97 L 346.643,507.068 L 334.545,507.068 L 322.447,494.97 L 286.153,494.97 L 298.251,519.166 L 395.035,519.166 L 395.035,494.97 z " style="fill-opacity:0.3;fill:rgb(250,150,50);stroke:rgb(0,0,0);stroke-width:1"/></g>
<g fill-rule="evenodd"><path d="M 743.538,327.443 L 719.342,327.443 L 695.146,339.541 L 683.048,339.541 L 670.95,327.443 L 634.656,327.443 L 646.754,351.639 L 743.538,351.639 L 743.538,327.443 z " style="fill-opacity:0.3;fill:rgb(250,150,50);stroke:rgb(0,0,0);stroke-width:1"/></g>
<g fill-rule="evenodd"><path d="M 412.64,158.041 L 388.444,158.041 L 364.248,170.139 L 352.15,170.139 L 340.052,158.041 L 303.758,158.041 L 315.856,182.237 L 412.64,182.237 L 412.64,158.041 z " style="fill-opacity:0.3;fill:rgb(250,150,50);stroke:rgb(0,0,0);stroke-width:1"/></g>
<g fill-rule="evenodd"><path d="M 455.312,629.861 L 467.41,629.861 L 480.718,641.959 L 515.802,641.959 L 503.704,617.763 L 406.92,617.763 L 406.92,641.959 L 431.116,641.959 L 455.312,629.861 z " style="fill-opacity:0.3;fill:rgb(250,150,50);stroke:rgb(0,0,0);stroke-width:1"/></g>
<g fill-rule="evenodd"><path d="M 791.479,400.036 L 767.283,400.036 L 743.087,412.134 L 730.989,412.134 L 718.891,400.036 L 682.597,400.036 L 694.695,424.232 L 791.479,424.232 L 791.479,400.036 z " style="fill-opacity:0.3;fill:rgb(250,150,50);stroke:rgb(0,0,0);stroke-width:1"/></g>
<g fill-rule="evenodd"><path d="M 533.476,448.39 L 509.28,448.39 L 485.084,460.488 L 472.986,460.488 L 460.888,448.39 L 424.594,448.39 L 436.692,472.586 L 533.476,472.586 L 533.476,448.39 z " style="fill-opacity:0.3;fill:rgb(250,150,50);stroke:rgb(0,0,0);stroke-width:1"/></g>
<g fill-rule="evenodd"><path d="M 336.358,412.104 L 348.456,412.104 L 361.764,424.202 L 396.848,424.202 L 384.75,400.006 L 287.966,400.006 L 287.966,424.202 L 312.162,424.202 L 336.358,412.104 z " style="fill-opacity:0.3;fill:rgb(250,150,50);stroke:rgb(0,0,0);stroke-width:1"/></g>
<g fill-rule="evenodd"><path d="M 649.159,629.688 L 661.257,629.688 L 674.564,641.786 L 709.649,641.786 L 697.551,617.59 L 600.767,617.59 L 600.767,641.786 L 624.963,641.786 L 649.159,629.688 z " style="fill-opacity:0.3;fill:rgb(250,150,50);stroke:rgb(0,0,0);stroke-width:1"/></g>
<g fill-rule="evenodd"><path d="M 500.046,570.882 L 475.85,570.882 L 451.654,582.98 L 439.556,582.98 L 427.458,570.882 L 391.165,570.882 L 403.263,595.078 L 500.046,595.078 L 500.046,570.882 z " style="fill-opacity:0.3;fill:rgb(250,150,50);stroke:rgb(0,0,0);stroke-width:1"/></g>
<g fill-rule="evenodd"><path d="M 743.517,351.639 L 719.321,351.639 L 695.125,363.737 L 683.027,363.737 L 670.929,351.639 L 634.635,351.639 L 646.733,375.835 L 743.517,375.835 L 743.517,351.639 z " style="fill-opacity:0.3;fill:rgb(250,150,50);stroke:rgb(0,0,0);stroke-width:1"/></g>
<g fill-rule="evenodd"><path d="M 795.506,593.083 L 783.408,580.985 L 747.114,580.985 L 747.114,617.279 L 795.506,617.279 L 795.506,593.083 z " style="fill-opacity:0.3;fill:rgb(250,150,50);stroke:rgb(0,0,0);stroke-width:1"/></g>
<g fill-rule="evenodd"><path d="M 728.805,436.33 L 716.707,424.232 L 680.413,424.232 L 680.413,460.526 L 728.805,460.526 L 728.805,436.33 z " style="fill-opacity:0.3;fill:rgb(250,150,50);stroke:rgb(0,0,0);stroke-width:1"/></g>
<g fill-rule="evenodd"><path d="M 778.816,436.33 L 766.718,424.232 L 730.425,424.232 L 730.425,460.526 L 778.816,460.526 L 778.816,436.33 z " style="fill-opacity:0.3;fill:rgb(250,150,50);stroke:rgb(0,0,0);stroke-width:1"/></g>
<g fill-rule="evenodd"><path d="M 701.295,493.375 L 689.197,481.277 L 652.903,481.277 L 652.903,517.571 L 701.295,517.571 L 701.295,493.375 z " style="fill-opacity:0.3;fill:rgb(250,150,50);stroke:rgb(0,0,0);stroke-width:1"/></g>
<g fill-rule="evenodd"><path d="M 709.102,303.199 L 697.004,291.101 L 660.71,291.101 L 660.71,327.395 L 709.102,327.395 L 709.102,303.199 z " style="fill-opacity:0.3;fill:rgb(250,150,50);stroke:rgb(0,0,0);stroke-width:1"/></g>
<g fill-rule="evenodd"><path d="M 744.136,266.904 L 732.038,254.806 L 695.744,254.806 L 695.744,291.1 L 744.136,291.1 L 744.136,266.904 z " style="fill-opacity:0.3;fill:rgb(250,150,50);stroke:rgb(0,0,0);stroke-width:1"/></g>
<g fill-rule="evenodd"><path d="M 502.436,170.284 L 490.338,158.186 L 454.044,158.186 L 454.044,194.48 L 502.436,194.48 L 502.436,170.284 z " style="fill-opacity:0.3;fill:rgb(250,150,50);stroke:rgb(0,0,0);stroke-width:1"/></g>
<g fill-rule="evenodd"><path d="M 746.746,594.231 L 734.648,582.134 L 698.354,582.134 L 698.354,618.427 L 746.746,618.427 L 746.746,594.231 z " style="fill-opacity:0.3;fill:rgb(250,150,50);stroke:rgb(0,0,0);stroke-width:1"/></g>
<g fill-rule="evenodd"><path d="M 791.93,351.64 L 779.832,339.542 L 743.538,339.542 L 743.538,375.836 L 791.93,375.836 L 791.93,351.64 z " style="fill-opacity:0.3;fill:rgb(250,150,50);stroke:rgb(0,0,0);stroke-width:1"/></g>
<g fill-rule="evenodd"><path d="M 757.501,303.246 L 745.403,291.148 L 709.109,291.148 L 709.109,327.442 L 757.501,327.442 L 757.501,303.246 z " style="fill-opacity:0.3;fill:rgb(250,150,50);stroke:rgb(0,0,0);stroke-width:1"/></g>
<g fill-rule="evenodd"><path d="M 792.54,266.952 L 780.442,254.854 L 744.148,254.854 L 744.148,291.148 L 792.54,291.148 L 792.54,266.952 z " style="fill-opacity:0.3;fill:rgb(250,150,50);stroke:rgb(0,0,0);stroke-width:1"/></g>
<g fill-rule="evenodd"><path d="M 794.887,182.251 L 782.789,170.153 L 746.495,170.153 L 746.495,206.447 L 794.887,206.447 L 794.887,182.251 z " style="fill-opacity:0.3;fill:rgb(250,150,50);stroke:rgb(0,0,0);stroke-width:1"/></g>
<g fill-rule="evenodd"><path d="M 751.156,484.728 L 739.058,472.63 L 702.764,472.63 L 702.764,508.924 L 751.156,508.924 L 751.156,484.728 z " style="fill-opacity:0.3;fill:rgb(250,150,50);stroke:rgb(0,0,0);stroke-width:1"/></g>
<g fill-rule="evenodd"><path d="M 794.887,218.554 L 782.789,206.456 L 746.495,206.456 L 746.495,242.749 L 794.887,242.749 L 794.887,218.554 z " style="fill-opacity:0.3;fill:rgb(250,150,50);stroke:rgb(0,0,0);stroke-width:1"/></g>
<g fill-rule="evenodd"><path d="M 632.499,363.838 L 620.401,351.74 L 584.107,351.74 L 584.107,388.034 L 632.499,388.034 L 632.499,363.838 z " style="fill-opacity:0.3;fill:rgb(250,150,50);stroke:rgb(0,0,0);stroke-width:1"/></g>
<g fill-rule="evenodd"><path d="M 193.943,158.041 L 121.355,158.041 L 109.257,170.139 L 206.041,170.139 L 193.943,158.041 z " style="fill-opacity:0.3;fill:rgb(250,150,50);stroke:rgb(0,0,0);stroke-width:1"/></g>
<g fill-rule="evenodd"><path d="M 377.03,519.52 L 304.443,519.52 L 292.345,531.618 L 389.128,531.618 L 377.03,519.52 z " style="fill-opacity:0.3;fill:rgb(250,150,50);stroke:rgb(0,0,0);stroke-width:1"/></g>
<g fill-rule="evenodd"><path d="M 512.246,472.586 L 439.658,472.586 L 427.561,484.684 L 524.344,484.684 L 512.246,472.586 z " style="fill-opacity:0.3;fill:rgb(250,150,50);stroke:rgb(0,0,0);stroke-width:1"/></g>
<g fill-rule="evenodd"><path d="M 779.979,460.528 L 707.391,460.528 L 695.293,472.626 L 792.077,472.626 L 779.979,460.528 z " style="fill-opacity:0.3;fill:rgb(250,150,50);stroke:rgb(0,0,0);stroke-width:1"/></g>
<g fill-rule="evenodd"><path d="M 779.818,521.032 L 707.23,521.032 L 695.132,533.13 L 791.916,533.13 L 779.818,521.032 z " style="fill-opacity:0.3;fill:rgb(250,150,50);stroke:rgb(0,0,0);stroke-width:1"/></g>
<g fill-rule="evenodd"><path d="M 779.931,158.049 L 707.343,158.049 L 695.245,170.147 L 792.029,170.147 L 779.931,158.049 z " style="fill-opacity:0.3;fill:rgb(250,150,50);stroke:rgb(0,0,0);stroke-width:1"/></g>
<g fill-rule="evenodd"><path d="M 778.385,387.938 L 705.797,387.938 L 693.699,400.036 L 790.483,400.036 L 778.385,387.938 z " style="fill-opacity:0.3;fill:rgb(250,150,50);stroke:rgb(0,0,0);stroke-width:1"/></g>
<g fill-rule="evenodd"><path d="M 772.595,375.836 L 700.007,375.836 L 687.909,387.934 L 784.693,387.934 L 772.595,375.836 z " style="fill-opacity:0.3;fill:rgb(250,150,50);stroke:rgb(0,0,0);stroke-width:1"/></g>
<g fill-rule="evenodd"><path d="M 493.508,598.276 L 396.724,598.276 L 408.822,610.374 L 482.62,610.374 L 493.508,598.276 z " style="fill-opacity:0.3;fill:rgb(250,150,50);stroke:rgb(0,0,0);stroke-width:1"/></g>
<g fill-rule="evenodd"><path d="M 783.489,508.933 L 710.901,508.933 L 698.803,521.031 L 795.587,521.031 L 783.489,508.933 z " style="fill-opacity:0.3;fill:rgb(250,150,50);stroke:rgb(0,0,0);stroke-width:1"/></g>
<g fill-rule="evenodd"><path d="M 783.495,557.733 L 710.907,557.733 L 698.809,569.831 L 795.593,569.831 L 783.495,557.733 z " style="fill-opacity:0.3;fill:rgb(250,150,50);stroke:rgb(0,0,0);stroke-width:1"/></g>
<g fill-rule="evenodd"><path d="M 783.495,545.609 L 710.907,545.609 L 698.809,557.707 L 795.593,557.707 L 783.495,545.609 z " style="fill-opacity:0.3;fill:rgb(250,150,50);stroke:rgb(0,0,0);stroke-width:1"/></g>
<g fill-rule="evenodd"><path d="M 783.257,533.146 L 710.669,533.146 L 698.571,545.244 L 795.355,545.244 L 783.257,533.146 z " style="fill-opacity:0.3;fill:rgb(250,150,50);stroke:rgb(0,0,0);stroke-width:1"/></g>
<g fill-rule="evenodd"><path d="M 238.115,581.209 L 165.527,581.209 L 153.429,593.307 L 250.213,593.307 L 238.115,581.209 z " style="fill-opacity:0.3;fill:rgb(250,150,50);stroke:rgb(0,0,0);stroke-width:1"/></g>
<g fill-rule="evenodd"><path d="M 479.314,558.133 L 406.726,558.133 L 394.628,570.231 L 491.412,570.231 L 479.314,558.133 z " style="fill-opacity:0.3;fill:rgb(250,150,50);stroke:rgb(0,0,0);stroke-width:1"/></g>
<g fill-rule="evenodd"><path d="M 81.8642,524.738 L 33.4723,524.738 L 33.4723,536.836 L 81.8642,536.836 L 81.8642,524.738 z " style="fill-opacity:0.3;fill:rgb(250,150,50);stroke:rgb(0,0,0);stroke-width:1"/></g>
<g fill-rule="evenodd"><path d="M 93.5594,411.436 L 45.1674,411.436 L 45.1674,423.534 L 93.5594,423.534 L 93.5594,411.436 z " style="fill-opacity:0.3;fill:rgb(250,150,50);stroke:rgb(0,0,0);stroke-width:1"/></g>
<g fill-rule="evenodd"><path d="M 83.5693,182.317 L 35.1774,182.317 L 35.1774,194.415 L 83.5693,194.415 L 83.5693,182.317 z " style="fill-opacity:0.3;fill:rgb(250,150,50);stroke:rgb(0,0,0);stroke-width:1"/></g>
<g fill-rule="evenodd"><path d="M 103.994,629.332 L 55.602,629.332 L 55.602,641.43 L 103.994,641.43 L 103.994,629.332 z " style="fill-opacity:0.3;fill:rgb(250,150,50);stroke:rgb(0,0,0);stroke-width:1"/></g>
<g fill-rule="evenodd"><path d="M 247.088,454.795 L 198.696,454.795 L 198.696,466.893 L 247.088,466.893 L 247.088,454.795 z " style="fill-opacity:0.3;fill:rgb(250,150,50);stroke:rgb(0,0,0);stroke-width:1"/></g>
<g fill-rule="evenodd"><path d="M 226.832,466.922 L 178.44,466.922 L 178.44,479.02 L 226.832,479.02 L 226.832,466.922 z " style="fill-opacity:0.3;fill:rgb(250,150,50);stroke:rgb(0,0,0);stroke-width:1"/></g>
<g fill-rule="evenodd"><path d="M 658.175,170.138 L 609.783,170.138 L 609.783,182.236 L 658.175,182.236 L 658.175,170.138 z " style="fill-opacity:0.3;fill:rgb(250,150,50);stroke:rgb(0,0,0);stroke-width:1"/></g>
<g fill-rule="evenodd"><path d="M 599.67,545.668 L 551.279,545.668 L 551.279,557.766 L 599.67,557.766 L 599.67,545.668 z " style="fill-opacity:0.3;fill:rgb(250,150,50);stroke:rgb(0,0,0);stroke-width:1"/></g>
<g fill-rule="evenodd"><path d="M 645.433,232.546 L 597.042,232.546 L 597.042,244.644 L 645.433,244.644 L 645.433,232.546 z " style="fill-opacity:0.3;fill:rgb(250,150,50);stroke:rgb(0,0,0);stroke-width:1"/></g>
<g fill-rule="evenodd"><path d="M 655.855,158.04 L 607.464,158.04 L 607.464,170.138 L 655.855,170.138 L 655.855,158.04 z " style="fill-opacity:0.3;fill:rgb(250,150,50);stroke:rgb(0,0,0);stroke-width:1"/></g>
<g fill-rule="evenodd"><path d="M 795.506,617.508 L 747.114,617.508 L 747.114,629.606 L 795.506,629.606 L 795.506,617.508 z " style="fill-opacity:0.3;fill:rgb(250,150,50);stroke:rgb(0,0,0);stroke-width:1"/></g>
<g fill-rule="evenodd"><path d="M 799.98,472.626 L 751.588,472.626 L 751.588,484.724 L 799.98,484.724 L 799.98,472.626 z " style="fill-opacity:0.3;fill:rgb(250,150,50);stroke:rgb(0,0,0);stroke-width:1"/></g>
<g fill-rule="evenodd"><path d="M 799.976,496.834 L 751.584,496.834 L 751.584,508.932 L 799.976,508.932 L 799.976,496.834 z " style="fill-opacity:0.3;fill:rgb(250,150,50);stroke:rgb(0,0,0);stroke-width:1"/></g>
<g fill-rule="evenodd"><path d="M 799.976,484.729 L 751.584,484.729 L 751.584,496.827 L 799.976,496.827 L 799.976,484.729 z " style="fill-opacity:0.3;fill:rgb(250,150,50);stroke:rgb(0,0,0);stroke-width:1"/></g>
<g fill-rule="evenodd"><path d="M 791.93,327.443 L 743.538,327.443 L 743.538,339.541 L 791.93,339.541 L 791.93,327.443 z " style="fill-opacity:0.3;fill:rgb(250,150,50);stroke:rgb(0,0,0);stroke-width:1"/></g>
<g fill-rule="evenodd"><path d="M 236.651,566.503 L 200.357,566.503 L 200.357,578.601 L 236.651,578.601 L 236.651,566.503 z " style="fill-opacity:0.3;fill:rgb(250,150,50);stroke:rgb(0,0,0);stroke-width:1"/></g>
<g fill-rule="evenodd"><path d="M 360.266,532.299 L 323.972,532.299 L 323.972,544.397 L 360.266,544.397 L 360.266,532.299 z " style="fill-opacity:0.3;fill:rgb(250,150,50);stroke:rgb(0,0,0);stroke-width:1"/></g>
<g fill-rule="evenodd"><path d="M 733.576,569.974 L 697.282,569.974 L 697.282,582.072 L 733.576,582.072 L 733.576,569.974 z " style="fill-opacity:0.3;fill:rgb(250,150,50);stroke:rgb(0,0,0);stroke-width:1"/></g>
<g fill-rule="evenodd"><path d="M 448.981,158.228 L 412.687,158.228 L 412.687,170.326 L 448.981,170.326 L 448.981,158.228 z " style="fill-opacity:0.3;fill:rgb(250,150,50);stroke:rgb(0,0,0);stroke-width:1"/></g>
<g fill-rule="evenodd"><path d="M 493.827,209.665 L 457.533,209.665 L 457.533,221.763 L 493.827,221.763 L 493.827,209.665 z " style="fill-opacity:0.3;fill:rgb(250,150,50);stroke:rgb(0,0,0);stroke-width:1"/></g>
<g fill-rule="evenodd"><path d="M 490.536,195.737 L 454.242,195.737 L 454.242,207.835 L 490.536,207.835 L 490.536,195.737 z " style="fill-opacity:0.3;fill:rgb(250,150,50);stroke:rgb(0,0,0);stroke-width:1"/></g>
<g fill-rule="evenodd"><path d="M 782.806,242.756 L 746.513,242.756 L 746.513,254.854 L 782.806,254.854 L 782.806,242.756 z " style="fill-opacity:0.3;fill:rgb(250,150,50);stroke:rgb(0,0,0);stroke-width:1"/></g>
<g fill-rule="evenodd"><path d="M 646.084,202.4 L 609.79,202.4 L 609.79,214.498 L 646.084,214.498 L 646.084,202.4 z " style="fill-opacity:0.3;fill:rgb(250,150,50);stroke:rgb(0,0,0);stroke-width:1"/></g>
<g fill-rule="evenodd"><path d="M 792.079,629.725 L 755.785,629.725 L 755.785,641.823 L 792.079,641.823 L 792.079,629.725 z " style="fill-opacity:0.3;fill:rgb(250,150,50);stroke:rgb(0,0,0);stroke-width:1"/></g>
<g fill-rule="evenodd"><path d="M 636.889,605.333 L 600.595,605.333 L 600.595,617.431 L 636.889,617.431 L 636.889,605.333 z " style="fill-opacity:0.3;fill:rgb(250,150,50);stroke:rgb(0,0,0);stroke-width:1"/></g>
<g fill-rule="evenodd"><path d="M 230.776,352.88 L 194.482,352.88 L 194.482,364.978 L 230.776,364.978 L 230.776,352.88 z " style="fill-opacity:0.3;fill:rgb(250,150,50);stroke:rgb(0,0,0);stroke-width:1"/></g>
<g fill-rule="evenodd"><path d="M 595.562,529.865 L 559.268,529.865 L 559.268,541.963 L 595.562,541.963 L 595.562,529.865 z " style="fill-opacity:0.3;fill:rgb(250,150,50);stroke:rgb(0,0,0);stroke-width:1"/></g>
<g fill-rule="evenodd"><path d="M 793.797,315.183 L 757.503,315.183 L 757.503,327.281 L 793.797,327.281 L 793.797,315.183 z " style="fill-opacity:0.3;fill:rgb(250,150,50);stroke:rgb(0,0,0);stroke-width:1"/></g>
<g fill-rule="evenodd"><path d="M 793.797,303.082 L 757.503,303.082 L 757.503,315.18 L 793.797,315.18 L 793.797,303.082 z " style="fill-opacity:0.3;fill:rgb(250,150,50);stroke:rgb(0,0,0);stroke-width:1"/></g>
<g fill-rule="evenodd"><path d="M 695.253,469.11 L 658.959,469.11 L 658.959,481.208 L 695.253,481.208 L 695.253,469.11 z " style="fill-opacity:0.3;fill:rgb(250,150,50);stroke:rgb(0,0,0);stroke-width:1"/></g>
</svg>
