<?xml version="1.0" standalone="no"?>
<!DOCTYPE svg PUBLIC "-//W3C//DTD SVG 1.1//EN"
"http://www.w3.org/Graphics/SVG/1.1/DTD/svg11.dtd">
<svg width="100%" height="100%" version="1.1"
xmlns="http://www.w3.org/2000/svg"
xmlns:xlink="http://www.w3.org/1999/xlink">
<rect x="5.68434e-14" y="150.199" width="800" height="499.601" style="fill-opacity:0;fill:rgb(255,255,255);stroke:rgb(0,0,0);stroke-width:1"/>
<g fill-rule="evenodd"><path d="M 63.7041,637.311 L 149.885,637.311 L 149.885,549.88 L 112.415,549.88 L 112.415,538.639 L 87.4352,549.88 L 49.9651,549.88 L 12.495,538.639 L 0.00495478,599.841 L 13.744,649.801 L 63.7041,637.311 z " style="fill-opacity:0.3;fill:rgb(250,150,50);stroke:rgb(0,0,0);stroke-width:1"/></g>
<g fill-rule="evenodd"><path d="M 154.079,484.941 L 141.589,434.981 L 91.6287,447.471 L 4.19843,447.471 L 4.19843,534.901 L 41.6685,534.901 L 41.6685,547.391 L 66.6486,534.901 L 104.119,534.901 L 141.589,547.391 L 154.079,484.941 z " style="fill-opacity:0.3;fill:rgb(250,150,50);stroke:rgb(0,0,0);stroke-width:1"/></g>
<g fill-rule="evenodd"><path d="M 218.865,351.442 L 305.046,351.442 L 305.046,264.012 L 267.576,264.012 L 267.576,252.771 L 242.596,264.012 L 205.126,264.012 L 167.656,252.771 L 155.166,313.972 L 168.905,363.932 L 218.865,351.442 z " style="fill-opacity:0.3;fill:rgb(250,150,50);stroke:rgb(0,0,0);stroke-width:1"/></g>
<g fill-rule="evenodd"><path d="M 165.436,262.615 L 152.946,212.655 L 102.986,225.145 L 15.556,225.145 L 15.556,312.575 L 53.0261,312.575 L 53.0261,325.065 L 78.0061,312.575 L 115.476,312.575 L 152.946,325.065 L 165.436,262.615 z " style="fill-opacity:0.3;fill:rgb(250,150,50);stroke:rgb(0,0,0);stroke-width:1"/></g>
<g fill-rule="evenodd"><path d="M 306.804,519.297 L 294.314,469.337 L 244.353,481.827 L 156.923,481.827 L 156.923,569.257 L 194.393,569.257 L 194.393,581.747 L 219.373,569.257 L 256.843,569.257 L 294.314,581.747 L 306.804,519.297 z " style="fill-opacity:0.3;fill:rgb(250,150,50);stroke:rgb(0,0,0);stroke-width:1"/></g>
<g fill-rule="evenodd"><path d="M 317.143,403.329 L 304.653,353.369 L 254.693,365.859 L 167.263,365.859 L 167.263,453.289 L 204.733,453.289 L 204.733,465.779 L 229.713,453.289 L 267.183,453.289 L 304.653,465.779 L 317.143,403.329 z " style="fill-opacity:0.3;fill:rgb(250,150,50);stroke:rgb(0,0,0);stroke-width:1"/></g>
<g fill-rule="evenodd"><path d="M 312.948,200.169 L 300.458,150.209 L 250.498,162.699 L 163.068,162.699 L 163.068,250.129 L 200.538,250.129 L 200.538,262.619 L 225.518,250.129 L 262.988,250.129 L 300.458,262.619 L 312.948,200.169 z " style="fill-opacity:0.3;fill:rgb(250,150,50);stroke:rgb(0,0,0);stroke-width:1"/></g>
<g fill-rule="evenodd"><path d="M 167.263,376.925 L 154.773,326.965 L 104.812,339.455 L 17.3822,339.455 L 17.3822,426.886 L 54.8523,426.886 L 54.8523,439.376 L 79.8324,426.886 L 117.302,426.886 L 154.773,439.376 L 167.263,376.925 z " style="fill-opacity:0.3;fill:rgb(250,150,50);stroke:rgb(0,0,0);stroke-width:1"/></g>
<g fill-rule="evenodd"><path d="M 433.489,624.82 L 420.999,612.33 L 420.999,587.35 L 408.509,574.86 L 358.548,587.35 L 321.078,574.86 L 283.608,587.35 L 271.118,612.33 L 283.608,649.8 L 420.999,649.8 L 433.489,624.82 z " style="fill-opacity:0.3;fill:rgb(250,150,50);stroke:rgb(0,0,0);stroke-width:1"/></g>
<g fill-rule="evenodd"><path d="M 616.416,335.208 L 603.926,322.718 L 603.926,297.738 L 591.436,285.248 L 541.475,297.738 L 504.005,285.248 L 466.535,297.738 L 454.045,322.718 L 466.535,360.188 L 603.926,360.188 L 616.416,335.208 z " style="fill-opacity:0.3;fill:rgb(250,150,50);stroke:rgb(0,0,0);stroke-width:1"/></g>
<g fill-rule="evenodd"><path d="M 623.136,422.639 L 635.626,397.659 L 623.136,360.189 L 485.746,360.189 L 473.256,385.169 L 485.746,397.659 L 485.746,422.639 L 499.485,435.129 L 549.445,422.639 L 586.915,435.129 L 623.136,422.639 z " style="fill-opacity:0.3;fill:rgb(250,150,50);stroke:rgb(0,0,0);stroke-width:1"/></g>
<g fill-rule="evenodd"><path d="M 474.178,218.468 L 461.688,205.978 L 461.688,180.998 L 449.198,168.508 L 399.238,180.998 L 361.768,168.508 L 324.298,180.998 L 311.808,205.978 L 324.298,243.448 L 461.688,243.448 L 474.178,218.468 z " style="fill-opacity:0.3;fill:rgb(250,150,50);stroke:rgb(0,0,0);stroke-width:1"/></g>
<g fill-rule="evenodd"><path d="M 456.835,306.434 L 469.325,281.454 L 456.835,243.984 L 319.444,243.984 L 306.954,268.964 L 319.444,281.454 L 319.444,306.434 L 333.183,318.924 L 383.143,306.434 L 420.613,318.924 L 456.835,306.434 z " style="fill-opacity:0.3;fill:rgb(250,150,50);stroke:rgb(0,0,0);stroke-width:1"/></g>
<g fill-rule="evenodd"><path d="M 553.058,577.426 L 565.548,552.446 L 553.058,514.976 L 415.668,514.976 L 403.177,539.956 L 415.668,552.446 L 415.668,577.426 L 429.407,589.916 L 479.367,577.426 L 516.837,589.916 L 553.058,577.426 z " style="fill-opacity:0.3;fill:rgb(250,150,50);stroke:rgb(0,0,0);stroke-width:1"/></g>
<g fill-rule="evenodd"><path d="M 467.605,363.735 L 455.115,351.245 L 455.115,326.265 L 442.625,313.775 L 392.664,326.265 L 355.194,313.775 L 317.724,326.265 L 305.234,351.245 L 317.724,388.715 L 455.115,388.715 L 467.605,363.735 z " style="fill-opacity:0.3;fill:rgb(250,150,50);stroke:rgb(0,0,0);stroke-width:1"/></g>
<g fill-rule="evenodd"><path d="M 467.32,476.79 L 454.83,464.3 L 454.83,439.32 L 442.34,426.83 L 392.379,439.32 L 354.909,426.83 L 317.439,439.32 L 304.949,464.3 L 317.439,501.77 L 454.83,501.77 L 467.32,476.79 z " style="fill-opacity:0.3;fill:rgb(250,150,50);stroke:rgb(0,0,0);stroke-width:1"/></g>
<g fill-rule="evenodd"><path d="M 626.255,212.715 L 626.255,200.225 L 638.745,186.486 L 626.255,175.245 L 613.765,150.265 L 526.335,162.755 L 526.335,212.715 L 613.765,237.695 L 626.255,212.715 z " style="fill-opacity:0.3;fill:rgb(250,150,50);stroke:rgb(0,0,0);stroke-width:1"/></g>
<g fill-rule="evenodd"><path d="M 571.557,275.597 L 571.557,225.637 L 484.126,200.657 L 471.636,225.637 L 471.636,238.127 L 459.146,250.617 L 471.636,263.107 L 484.126,288.087 L 571.557,275.597 z " style="fill-opacity:0.3;fill:rgb(250,150,50);stroke:rgb(0,0,0);stroke-width:1"/></g>
<g fill-rule="evenodd"><path d="M 648.069,637.206 L 648.069,587.246 L 560.639,562.266 L 548.149,587.246 L 548.149,599.736 L 535.659,612.226 L 548.149,624.716 L 560.639,649.696 L 648.069,637.206 z " style="fill-opacity:0.3;fill:rgb(250,150,50);stroke:rgb(0,0,0);stroke-width:1"/></g>
<g fill-rule="evenodd"><path d="M 660.711,490.131 L 660.711,477.641 L 673.201,463.902 L 660.711,452.661 L 648.221,427.681 L 560.79,440.171 L 560.79,490.131 L 648.221,515.111 L 660.711,490.131 z " style="fill-opacity:0.3;fill:rgb(250,150,50);stroke:rgb(0,0,0);stroke-width:1"/></g>
<g fill-rule="evenodd"><path d="M 700.907,294.792 L 700.907,282.302 L 713.397,268.563 L 700.907,257.322 L 688.417,232.342 L 600.986,244.832 L 600.986,294.792 L 688.417,319.772 L 700.907,294.792 z " style="fill-opacity:0.3;fill:rgb(250,150,50);stroke:rgb(0,0,0);stroke-width:1"/></g>
<g fill-rule="evenodd"><path d="M 747.732,439.351 L 747.732,389.391 L 660.302,364.411 L 647.812,389.391 L 647.812,401.881 L 635.322,414.371 L 647.812,426.861 L 660.302,451.841 L 747.732,439.351 z " style="fill-opacity:0.3;fill:rgb(250,150,50);stroke:rgb(0,0,0);stroke-width:1"/></g>
<g fill-rule="evenodd"><path d="M 738.732,225.14 L 738.732,175.179 L 651.302,150.199 L 638.812,175.179 L 638.812,187.669 L 626.322,200.16 L 638.812,212.65 L 651.302,237.63 L 738.732,225.14 z " style="fill-opacity:0.3;fill:rgb(250,150,50);stroke:rgb(0,0,0);stroke-width:1"/></g>
<g fill-rule="evenodd"><path d="M 703.327,573.919 L 703.327,561.429 L 715.817,547.69 L 703.327,536.449 L 690.837,511.469 L 603.406,523.959 L 603.406,573.919 L 690.837,598.899 L 703.327,573.919 z " style="fill-opacity:0.3;fill:rgb(250,150,50);stroke:rgb(0,0,0);stroke-width:1"/></g>
<g fill-rule="evenodd"><path d="M 356.705,162.754 L 369.195,162.754 L 382.934,175.244 L 419.155,175.244 L 406.665,150.264 L 306.745,150.264 L 306.745,175.244 L 331.725,175.244 L 356.705,162.754 z " style="fill-opacity:0.3;fill:rgb(250,150,50);stroke:rgb(0,0,0);stroke-width:1"/></g>
<g fill-rule="evenodd"><path d="M 413.1,549.88 L 388.119,549.88 L 363.139,562.37 L 350.649,562.37 L 338.159,549.88 L 300.689,549.88 L 313.179,574.86 L 413.1,574.86 L 413.1,549.88 z " style="fill-opacity:0.3;fill:rgb(250,150,50);stroke:rgb(0,0,0);stroke-width:1"/></g>
<g fill-rule="evenodd"><path d="M 262.926,624.727 L 237.946,624.727 L 212.966,637.217 L 200.475,637.217 L 187.985,624.727 L 150.515,624.727 L 163.005,649.707 L 262.926,649.707 L 262.926,624.727 z " style="fill-opacity:0.3;fill:rgb(250,150,50);stroke:rgb(0,0,0);stroke-width:1"/></g>
<g fill-rule="evenodd"><path d="M 262.926,599.734 L 237.946,599.734 L 212.966,612.224 L 200.475,612.224 L 187.985,599.734 L 150.515,599.734 L 163.005,624.714 L 262.926,624.714 L 262.926,599.734 z " style="fill-opacity:0.3;fill:rgb(250,150,50);stroke:rgb(0,0,0);stroke-width:1"/></g>
<g fill-rule="evenodd"><path d="M 483.469,624.788 L 495.96,624.788 L 509.699,637.278 L 545.92,637.278 L 533.43,612.298 L 433.509,612.298 L 433.509,637.278 L 458.489,637.278 L 483.469,624.788 z " style="fill-opacity:0.3;fill:rgb(250,150,50);stroke:rgb(0,0,0);stroke-width:1"/></g>
<g fill-rule="evenodd"><path d="M 560.79,426.421 L 535.81,426.421 L 510.83,438.911 L 498.34,438.911 L 485.85,426.421 L 448.38,426.421 L 460.87,451.401 L 560.79,451.401 L 560.79,426.421 z " style="fill-opacity:0.3;fill:rgb(250,150,50);stroke:rgb(0,0,0);stroke-width:1"/></g>
<g fill-rule="evenodd"><path d="M 262.304,574.734 L 237.324,574.734 L 212.344,587.224 L 199.854,587.224 L 187.364,574.734 L 149.894,574.734 L 162.384,599.714 L 262.304,599.714 L 262.304,574.734 z " style="fill-opacity:0.3;fill:rgb(250,150,50);stroke:rgb(0,0,0);stroke-width:1"/></g>
<g fill-rule="evenodd"><path d="M 426.204,389.583 L 401.224,389.583 L 376.244,402.073 L 363.754,402.073 L 351.264,389.583 L 313.794,389.583 L 326.284,414.563 L 426.204,414.563 L 426.204,389.583 z " style="fill-opacity:0.3;fill:rgb(250,150,50);stroke:rgb(0,0,0);stroke-width:1"/></g>
<g fill-rule="evenodd"><path d="M 112.41,312.576 L 87.4303,312.576 L 62.4502,325.066 L 49.9602,325.066 L 37.4701,312.576 L 2.59383e-05,312.576 L 12.4901,337.556 L 112.41,337.556 L 112.41,312.576 z " style="fill-opacity:0.3;fill:rgb(250,150,50);stroke:rgb(0,0,0);stroke-width:1"/></g>
<g fill-rule="evenodd"><path d="M 258.583,453.289 L 233.603,453.289 L 208.623,465.779 L 196.133,465.779 L 183.643,453.289 L 146.173,453.289 L 158.663,478.269 L 258.583,478.269 L 258.583,453.289 z " style="fill-opacity:0.3;fill:rgb(250,150,50);stroke:rgb(0,0,0);stroke-width:1"/></g>
<g fill-rule="evenodd"><path d="M 112.607,162.691 L 87.6273,162.691 L 62.6472,175.181 L 50.1572,175.181 L 37.6671,162.691 L 0.197009,162.691 L 12.687,187.671 L 112.607,187.671 L 112.607,162.691 z " style="fill-opacity:0.3;fill:rgb(250,150,50);stroke:rgb(0,0,0);stroke-width:1"/></g>
<g fill-rule="evenodd"><path d="M 728.803,312.152 L 703.823,312.152 L 678.843,324.642 L 666.353,324.642 L 653.863,312.152 L 616.393,312.152 L 628.883,337.132 L 728.803,337.132 L 728.803,312.152 z " style="fill-opacity:0.3;fill:rgb(250,150,50);stroke:rgb(0,0,0);stroke-width:1"/></g>
<g fill-rule="evenodd"><path d="M 112.569,187.674 L 87.589,187.674 L 62.609,200.164 L 50.1189,200.164 L 37.6289,187.674 L 0.158799,187.674 L 12.6488,212.654 L 112.569,212.654 L 112.569,187.674 z " style="fill-opacity:0.3;fill:rgb(250,150,50);stroke:rgb(0,0,0);stroke-width:1"/></g>
<g fill-rule="evenodd"><path d="M 510.677,502.486 L 523.167,502.486 L 536.906,514.976 L 573.127,514.976 L 560.637,489.996 L 460.717,489.996 L 460.717,514.976 L 485.697,514.976 L 510.677,502.486 z " style="fill-opacity:0.3;fill:rgb(250,150,50);stroke:rgb(0,0,0);stroke-width:1"/></g>
<g fill-rule="evenodd"><path d="M 796.003,349.653 L 771.023,349.653 L 746.043,362.143 L 733.553,362.143 L 721.063,349.653 L 683.593,349.653 L 696.083,374.633 L 796.003,374.633 L 796.003,349.653 z " style="fill-opacity:0.3;fill:rgb(250,150,50);stroke:rgb(0,0,0);stroke-width:1"/></g>
<g fill-rule="evenodd"><path d="M 750.036,230.662 L 700.076,230.662 L 700.076,255.642 L 713.815,268.132 L 750.036,268.132 L 750.036,230.662 z " style="fill-opacity:0.3;fill:rgb(250,150,50);stroke:rgb(0,0,0);stroke-width:1"/></g>
<g fill-rule="evenodd"><path d="M 799.999,232.709 L 787.509,220.219 L 750.039,220.219 L 750.039,257.689 L 799.999,257.689 L 799.999,232.709 z " style="fill-opacity:0.3;fill:rgb(250,150,50);stroke:rgb(0,0,0);stroke-width:1"/></g>
<g fill-rule="evenodd"><path d="M 476.212,388.761 L 426.252,388.761 L 426.252,413.741 L 439.991,426.231 L 476.212,426.231 L 476.212,388.761 z " style="fill-opacity:0.3;fill:rgb(250,150,50);stroke:rgb(0,0,0);stroke-width:1"/></g>
<g fill-rule="evenodd"><path d="M 747.998,624.813 L 735.508,612.323 L 698.038,612.323 L 698.038,649.793 L 747.998,649.793 L 747.998,624.813 z " style="fill-opacity:0.3;fill:rgb(250,150,50);stroke:rgb(0,0,0);stroke-width:1"/></g>
<g fill-rule="evenodd"><path d="M 797.697,387.25 L 785.207,374.76 L 747.737,374.76 L 747.737,412.23 L 797.697,412.23 L 797.697,387.25 z " style="fill-opacity:0.3;fill:rgb(250,150,50);stroke:rgb(0,0,0);stroke-width:1"/></g>
<g fill-rule="evenodd"><path d="M 162.586,175.185 L 112.626,175.185 L 112.626,200.165 L 126.365,212.655 L 162.586,212.655 L 162.586,175.185 z " style="fill-opacity:0.3;fill:rgb(250,150,50);stroke:rgb(0,0,0);stroke-width:1"/></g>
<g fill-rule="evenodd"><path d="M 797.697,424.792 L 785.207,412.302 L 747.737,412.302 L 747.737,449.772 L 797.697,449.772 L 797.697,424.792 z " style="fill-opacity:0.3;fill:rgb(250,150,50);stroke:rgb(0,0,0);stroke-width:1"/></g>
<g fill-rule="evenodd"><path d="M 789.559,177.185 L 777.069,164.695 L 739.599,164.695 L 739.599,202.165 L 789.559,202.165 L 789.559,177.185 z " style="fill-opacity:0.3;fill:rgb(250,150,50);stroke:rgb(0,0,0);stroke-width:1"/></g>
<g fill-rule="evenodd"><path d="M 799.999,270.179 L 787.509,257.689 L 750.039,257.689 L 750.039,295.159 L 799.999,295.159 L 799.999,270.179 z " style="fill-opacity:0.3;fill:rgb(250,150,50);stroke:rgb(0,0,0);stroke-width:1"/></g>
<g fill-rule="evenodd"><path d="M 384.415,514.261 L 334.455,514.261 L 334.455,539.241 L 348.194,551.731 L 384.415,551.731 L 384.415,514.261 z " style="fill-opacity:0.3;fill:rgb(250,150,50);stroke:rgb(0,0,0);stroke-width:1"/></g>
<g fill-rule="evenodd"><path d="M 791.428,474.782 L 741.468,474.782 L 741.468,499.762 L 755.207,512.252 L 791.428,512.252 L 791.428,474.782 z " style="fill-opacity:0.3;fill:rgb(250,150,50);stroke:rgb(0,0,0);stroke-width:1"/></g>
<g fill-rule="evenodd"><path d="M 723.169,473.722 L 710.679,461.232 L 673.209,461.232 L 673.209,498.702 L 723.169,498.702 L 723.169,473.722 z " style="fill-opacity:0.3;fill:rgb(250,150,50);stroke:rgb(0,0,0);stroke-width:1"/></g>
<g fill-rule="evenodd"><path d="M 698.034,612.059 L 685.544,599.569 L 648.074,599.569 L 648.074,637.039 L 698.034,637.039 L 698.034,612.059 z " style="fill-opacity:0.3;fill:rgb(250,150,50);stroke:rgb(0,0,0);stroke-width:1"/></g>
<g fill-rule="evenodd"><path d="M 511.677,175.485 L 499.187,162.995 L 461.717,162.995 L 461.717,200.465 L 511.677,200.465 L 511.677,175.485 z " style="fill-opacity:0.3;fill:rgb(250,150,50);stroke:rgb(0,0,0);stroke-width:1"/></g>
<g fill-rule="evenodd"><path d="M 791.891,295.425 L 741.931,295.425 L 741.931,320.405 L 755.67,332.895 L 791.891,332.895 L 791.891,295.425 z " style="fill-opacity:0.3;fill:rgb(250,150,50);stroke:rgb(0,0,0);stroke-width:1"/></g>
<g fill-rule="evenodd"><path d="M 779.589,587.267 L 704.649,587.267 L 692.158,599.757 L 792.079,599.757 L 779.589,587.267 z " style="fill-opacity:0.3;fill:rgb(250,150,50);stroke:rgb(0,0,0);stroke-width:1"/></g>
<g fill-rule="evenodd"><path d="M 149.964,637.311 L 75.0241,637.311 L 62.5341,649.801 L 162.454,649.801 L 149.964,637.311 z " style="fill-opacity:0.3;fill:rgb(250,150,50);stroke:rgb(0,0,0);stroke-width:1"/></g>
<g fill-rule="evenodd"><path d="M 124.9,150.201 L 49.9601,150.201 L 37.4701,162.691 L 137.39,162.691 L 124.9,150.201 z " style="fill-opacity:0.3;fill:rgb(250,150,50);stroke:rgb(0,0,0);stroke-width:1"/></g>
<g fill-rule="evenodd"><path d="M 403.012,501.77 L 328.072,501.77 L 315.582,514.26 L 415.502,514.26 L 403.012,501.77 z " style="fill-opacity:0.3;fill:rgb(250,150,50);stroke:rgb(0,0,0);stroke-width:1"/></g>
<g fill-rule="evenodd"><path d="M 792.074,599.758 L 692.153,599.758 L 704.643,612.248 L 780.833,612.248 L 792.074,599.758 z " style="fill-opacity:0.3;fill:rgb(250,150,50);stroke:rgb(0,0,0);stroke-width:1"/></g>
<g fill-rule="evenodd"><path d="M 737.501,498.921 L 662.561,498.921 L 650.071,511.411 L 749.991,511.411 L 737.501,498.921 z " style="fill-opacity:0.3;fill:rgb(250,150,50);stroke:rgb(0,0,0);stroke-width:1"/></g>
<g fill-rule="evenodd"><path d="M 791.428,512.264 L 691.508,512.264 L 703.998,524.754 L 780.187,524.754 L 791.428,512.264 z " style="fill-opacity:0.3;fill:rgb(250,150,50);stroke:rgb(0,0,0);stroke-width:1"/></g>
<g fill-rule="evenodd"><path d="M 554.899,464.035 L 454.979,464.035 L 467.469,476.525 L 543.658,476.525 L 554.899,464.035 z " style="fill-opacity:0.3;fill:rgb(250,150,50);stroke:rgb(0,0,0);stroke-width:1"/></g>
<g fill-rule="evenodd"><path d="M 542.445,451.54 L 467.505,451.54 L 455.015,464.03 L 554.935,464.03 L 542.445,451.54 z " style="fill-opacity:0.3;fill:rgb(250,150,50);stroke:rgb(0,0,0);stroke-width:1"/></g>
<g fill-rule="evenodd"><path d="M 509.878,150.384 L 409.957,150.384 L 422.447,162.874 L 498.637,162.874 L 509.878,150.384 z " style="fill-opacity:0.3;fill:rgb(250,150,50);stroke:rgb(0,0,0);stroke-width:1"/></g>
<g fill-rule="evenodd"><path d="M 100.528,212.655 L 0.608058,212.655 L 13.0981,225.145 L 89.2873,225.145 L 100.528,212.655 z " style="fill-opacity:0.3;fill:rgb(250,150,50);stroke:rgb(0,0,0);stroke-width:1"/></g>
<g fill-rule="evenodd"><path d="M 236.901,150.204 L 161.961,150.204 L 149.471,162.694 L 249.391,162.694 L 236.901,150.204 z " style="fill-opacity:0.3;fill:rgb(250,150,50);stroke:rgb(0,0,0);stroke-width:1"/></g>
<g fill-rule="evenodd"><path d="M 787.51,150.199 L 712.57,150.199 L 700.08,162.689 L 800,162.689 L 787.51,150.199 z " style="fill-opacity:0.3;fill:rgb(250,150,50);stroke:rgb(0,0,0);stroke-width:1"/></g>
<g fill-rule="evenodd"><path d="M 784.143,574.773 L 709.203,574.773 L 696.713,587.263 L 796.633,587.263 L 784.143,574.773 z " style="fill-opacity:0.3;fill:rgb(250,150,50);stroke:rgb(0,0,0);stroke-width:1"/></g>
<g fill-rule="evenodd"><path d="M 699.362,337.156 L 624.422,337.156 L 611.932,349.646 L 711.852,349.646 L 699.362,337.156 z " style="fill-opacity:0.3;fill:rgb(250,150,50);stroke:rgb(0,0,0);stroke-width:1"/></g>
<g fill-rule="evenodd"><path d="M 535.55,637.279 L 485.59,637.279 L 485.59,649.769 L 535.55,649.769 L 535.55,637.279 z " style="fill-opacity:0.3;fill:rgb(250,150,50);stroke:rgb(0,0,0);stroke-width:1"/></g>
<g fill-rule="evenodd"><path d="M 791.953,524.765 L 741.993,524.765 L 741.993,537.255 L 791.953,537.255 L 791.953,524.765 z " style="fill-opacity:0.3;fill:rgb(250,150,50);stroke:rgb(0,0,0);stroke-width:1"/></g>
<g fill-rule="evenodd"><path d="M 797.884,612.249 L 747.924,612.249 L 747.924,624.739 L 797.884,624.739 L 797.884,612.249 z " style="fill-opacity:0.3;fill:rgb(250,150,50);stroke:rgb(0,0,0);stroke-width:1"/></g>
<g fill-rule="evenodd"><path d="M 673.943,350.23 L 623.983,350.23 L 623.983,362.72 L 673.943,362.72 L 673.943,350.23 z " style="fill-opacity:0.3;fill:rgb(250,150,50);stroke:rgb(0,0,0);stroke-width:1"/></g>
<g fill-rule="evenodd"><path d="M 485.59,637.279 L 435.63,637.279 L 435.63,649.769 L 485.59,649.769 L 485.59,637.279 z " style="fill-opacity:0.3;fill:rgb(250,150,50);stroke:rgb(0,0,0);stroke-width:1"/></g>
<g fill-rule="evenodd"><path d="M 553.972,476.772 L 504.012,476.772 L 504.012,489.262 L 553.972,489.262 L 553.972,476.772 z " style="fill-opacity:0.3;fill:rgb(250,150,50);stroke:rgb(0,0,0);stroke-width:1"/></g>
<g fill-rule="evenodd"><path d="M 733.305,448.564 L 683.345,448.564 L 683.345,461.054 L 733.305,461.054 L 733.305,448.564 z " style="fill-opacity:0.3;fill:rgb(250,150,50);stroke:rgb(0,0,0);stroke-width:1"/></g>
<g fill-rule="evenodd"><path d="M 791.257,562.277 L 741.297,562.277 L 741.297,574.767 L 791.257,574.767 L 791.257,562.277 z " style="fill-opacity:0.3;fill:rgb(250,150,50);stroke:rgb(0,0,0);stroke-width:1"/></g>
<g fill-rule="evenodd"><path d="M 789.559,202.165 L 739.599,202.165 L 739.599,214.655 L 789.559,214.655 L 789.559,202.165 z " style="fill-opacity:0.3;fill:rgb(250,150,50);stroke:rgb(0,0,0);stroke-width:1"/></g>
<g fill-rule="evenodd"><path d="M 697.296,637.311 L 647.336,637.311 L 647.336,649.801 L 697.296,649.801 L 697.296,637.311 z " style="fill-opacity:0.3;fill:rgb(250,150,50);stroke:rgb(0,0,0);stroke-width:1"/></g>
<g fill-rule="evenodd"><path d="M 778.779,332.895 L 728.819,332.895 L 728.819,345.385 L 778.779,345.385 L 778.779,332.895 z " style="fill-opacity:0.3;fill:rgb(250,150,50);stroke:rgb(0,0,0);stroke-width:1"/></g>
<g fill-rule="evenodd"><path d="M 162.604,162.694 L 112.644,162.694 L 112.644,175.185 L 162.604,175.185 L 162.604,162.694 z " style="fill-opacity:0.3;fill:rgb(250,150,50);stroke:rgb(0,0,0);stroke-width:1"/></g>
<g fill-rule="evenodd"><path d="M 775.823,537.279 L 725.863,537.279 L 725.863,549.769 L 775.823,549.769 L 775.823,537.279 z " style="fill-opacity:0.3;fill:rgb(250,150,50);stroke:rgb(0,0,0);stroke-width:1"/></g>
<g fill-rule="evenodd"><path d="M 783.36,449.784 L 733.4,449.784 L 733.4,462.274 L 783.36,462.274 L 783.36,449.784 z " style="fill-opacity:0.3;fill:rgb(250,150,50);stroke:rgb(0,0,0);stroke-width:1"/></g>
<g fill-rule="evenodd"><path d="M 791.257,549.786 L 741.297,549.786 L 741.297,562.277 L 791.257,562.277 L 791.257,549.786 z " style="fill-opacity:0.3;fill:rgb(250,150,50);stroke:rgb(0,0,0);stroke-width:1"/></g>
<g fill-rule="evenodd"><path d="M 248.633,353.368 L 211.163,353.368 L 211.163,365.858 L 248.633,365.858 L 248.633,353.368 z " style="fill-opacity:0.3;fill:rgb(250,150,50);stroke:rgb(0,0,0);stroke-width:1"/></g>
<g fill-rule="evenodd"><path d="M 453.107,502.416 L 415.637,502.416 L 415.637,514.906 L 453.107,514.906 L 453.107,502.416 z " style="fill-opacity:0.3;fill:rgb(250,150,50);stroke:rgb(0,0,0);stroke-width:1"/></g>
<g fill-rule="evenodd"><path d="M 741.038,561.43 L 703.568,561.43 L 703.568,573.92 L 741.038,573.92 L 741.038,561.43 z " style="fill-opacity:0.3;fill:rgb(250,150,50);stroke:rgb(0,0,0);stroke-width:1"/></g>
<g fill-rule="evenodd"><path d="M 37.5549,433.727 L 0.0848239,433.727 L 0.0848239,446.217 L 37.5549,446.217 L 37.5549,433.727 z " style="fill-opacity:0.3;fill:rgb(250,150,50);stroke:rgb(0,0,0);stroke-width:1"/></g>
<g fill-rule="evenodd"><path d="M 37.4701,150.2 L 3.16751e-10,150.2 L 3.16751e-10,162.69 L 37.4701,162.69 L 37.4701,150.2 z " style="fill-opacity:0.3;fill:rgb(250,150,50);stroke:rgb(0,0,0);stroke-width:1"/></g>
<g fill-rule="evenodd"><path d="M 786.142,462.288 L 748.672,462.288 L 748.672,474.778 L 786.142,474.778 L 786.142,462.288 z " style="fill-opacity:0.3;fill:rgb(250,150,50);stroke:rgb(0,0,0);stroke-width:1"/></g>
<g fill-rule="evenodd"><path d="M 739.232,286.641 L 701.762,286.641 L 701.762,299.131 L 739.232,299.131 L 739.232,286.641 z " style="fill-opacity:0.3;fill:rgb(250,150,50);stroke:rgb(0,0,0);stroke-width:1"/></g>
<g fill-rule="evenodd"><path d="M 736.748,299.162 L 699.278,299.162 L 699.278,311.652 L 736.748,311.652 L 736.748,299.162 z " style="fill-opacity:0.3;fill:rgb(250,150,50);stroke:rgb(0,0,0);stroke-width:1"/></g>
<g fill-rule="evenodd"><path d="M 800,637.298 L 762.53,637.298 L 762.53,649.788 L 800,649.788 L 800,637.298 z " style="fill-opacity:0.3;fill:rgb(250,150,50);stroke:rgb(0,0,0);stroke-width:1"/></g>
<g fill-rule="evenodd"><path d="M 741.858,524.772 L 704.388,524.772 L 704.388,537.262 L 741.858,537.262 L 741.858,524.772 z " style="fill-opacity:0.3;fill:rgb(250,150,50);stroke:rgb(0,0,0);stroke-width:1"/></g>
<g fill-rule="evenodd"><path d="M 596.34,516.701 L 558.87,516.701 L 558.87,529.191 L 596.34,529.191 L 596.34,516.701 z " style="fill-opacity:0.3;fill:rgb(250,150,50);stroke:rgb(0,0,0);stroke-width:1"/></g>
<g fill-rule="evenodd"><path d="M 785.469,624.798 L 747.999,624.798 L 747.999,637.288 L 785.469,637.288 L 785.469,624.798 z " style="fill-opacity:0.3;fill:rgb(250,150,50);stroke:rgb(0,0,0);stroke-width:1"/></g>
<g fill-rule="evenodd"><path d="M 603.392,551.112 L 565.922,551.112 L 565.922,563.602 L 603.392,563.602 L 603.392,551.112 z " style="fill-opacity:0.3;fill:rgb(250,150,50);stroke:rgb(0,0,0);stroke-width:1"/></g>
<g fill-rule="evenodd"><path d="M 110.826,430.161 L 73.356,430.161 L 73.356,442.651 L 110.826,442.651 L 110.826,430.161 z " style="fill-opacity:0.3;fill:rgb(250,150,50);stroke:rgb(0,0,0);stroke-width:1"/></g>
<g fill-rule="evenodd"><path d="M 746.067,274.108 L 708.597,274.108 L 708.597,286.598 L 746.067,286.598 L 746.067,274.108 z " style="fill-opacity:0.3;fill:rgb(250,150,50);stroke:rgb(0,0,0);stroke-width:1"/></g>
</svg>
