<?xml version="1.0" standalone="no"?>
<!DOCTYPE svg PUBLIC "-//W3C//DTD SVG 1.1//EN"
"http://www.w3.org/Graphics/SVG/1.1/DTD/svg11.dtd">
<svg width="100%" height="100%" version="1.1"
xmlns="http://www.w3.org/2000/svg"
xmlns:xlink="http://www.w3.org/1999/xlink">
<rect x="0" y="147.186" width="800" height="505.629" style="fill-opacity:0;fill:rgb(255,255,255);stroke:rgb(0,0,0);stroke-width:1"/>
<g fill-rule="evenodd"><path d="M 152.971,223.03 L 140.33,172.467 L 89.767,185.108 L 1.28199,185.108 L 1.28199,273.593 L 39.2041,273.593 L 39.2041,286.234 L 64.4856,273.593 L 102.408,273.593 L 140.33,286.234 L 152.971,223.03 z " style="fill-opacity:0.3;fill:rgb(250,150,50);stroke:rgb(0,0,0);stroke-width:1"/></g>
<g fill-rule="evenodd"><path d="M 151.689,569.385 L 139.048,518.823 L 88.485,531.463 L 1.06767e-05,531.463 L 1.06767e-05,619.948 L 37.9222,619.948 L 37.9222,632.589 L 63.2036,619.948 L 101.126,619.948 L 139.048,632.589 L 151.689,569.385 z " style="fill-opacity:0.3;fill:rgb(250,150,50);stroke:rgb(0,0,0);stroke-width:1"/></g>
<g fill-rule="evenodd"><path d="M 152.954,336.797 L 140.313,286.234 L 89.7505,298.875 L 1.26555,298.875 L 1.26555,387.36 L 39.1877,387.36 L 39.1877,400 L 64.4691,387.36 L 102.391,387.36 L 140.313,400 L 152.954,336.797 z " style="fill-opacity:0.3;fill:rgb(250,150,50);stroke:rgb(0,0,0);stroke-width:1"/></g>
<g fill-rule="evenodd"><path d="M 304.659,213.654 L 292.019,163.091 L 241.456,175.732 L 152.971,175.732 L 152.971,264.217 L 190.893,264.217 L 190.893,276.858 L 216.174,264.217 L 254.096,264.217 L 292.019,276.858 L 304.659,213.654 z " style="fill-opacity:0.3;fill:rgb(250,150,50);stroke:rgb(0,0,0);stroke-width:1"/></g>
<g fill-rule="evenodd"><path d="M 211.312,558.221 L 298.533,558.221 L 298.533,469.736 L 260.61,469.736 L 260.61,458.359 L 235.329,469.736 L 197.407,469.736 L 159.485,458.359 L 146.844,520.299 L 160.749,570.861 L 211.312,558.221 z " style="fill-opacity:0.3;fill:rgb(250,150,50);stroke:rgb(0,0,0);stroke-width:1"/></g>
<g fill-rule="evenodd"><path d="M 486.067,364.069 L 573.287,364.069 L 573.287,275.584 L 535.365,275.584 L 535.365,264.207 L 510.084,275.584 L 472.162,275.584 L 434.24,264.207 L 421.599,326.147 L 435.504,376.709 L 486.067,364.069 z " style="fill-opacity:0.3;fill:rgb(250,150,50);stroke:rgb(0,0,0);stroke-width:1"/></g>
<g fill-rule="evenodd"><path d="M 210.178,442.149 L 297.399,442.149 L 297.399,353.664 L 259.477,353.664 L 259.477,342.288 L 234.195,353.664 L 196.273,353.664 L 158.351,342.288 L 145.71,404.227 L 159.615,454.79 L 210.178,442.149 z " style="fill-opacity:0.3;fill:rgb(250,150,50);stroke:rgb(0,0,0);stroke-width:1"/></g>
<g fill-rule="evenodd"><path d="M 159.274,458.148 L 146.634,407.585 L 96.0707,420.225 L 7.58571,420.225 L 7.58571,508.71 L 45.5078,508.71 L 45.5078,521.351 L 70.7893,508.71 L 108.711,508.71 L 146.634,521.351 L 159.274,458.148 z " style="fill-opacity:0.3;fill:rgb(250,150,50);stroke:rgb(0,0,0);stroke-width:1"/></g>
<g fill-rule="evenodd"><path d="M 510.411,627.533 L 497.771,614.892 L 497.771,589.611 L 485.13,576.97 L 434.567,589.611 L 396.645,576.97 L 358.723,589.611 L 346.082,614.892 L 358.723,652.814 L 497.771,652.814 L 510.411,627.533 z " style="fill-opacity:0.3;fill:rgb(250,150,50);stroke:rgb(0,0,0);stroke-width:1"/></g>
<g fill-rule="evenodd"><path d="M 483.726,493.858 L 471.086,481.218 L 471.086,455.936 L 458.445,443.295 L 407.882,455.936 L 369.96,443.295 L 332.038,455.936 L 319.397,481.218 L 332.038,519.14 L 471.086,519.14 L 483.726,493.858 z " style="fill-opacity:0.3;fill:rgb(250,150,50);stroke:rgb(0,0,0);stroke-width:1"/></g>
<g fill-rule="evenodd"><path d="M 449.088,442.158 L 461.729,416.877 L 449.088,378.955 L 310.04,378.955 L 297.399,404.236 L 310.04,416.877 L 310.04,442.158 L 323.945,454.799 L 374.508,442.158 L 412.43,454.799 L 449.088,442.158 z " style="fill-opacity:0.3;fill:rgb(250,150,50);stroke:rgb(0,0,0);stroke-width:1"/></g>
<g fill-rule="evenodd"><path d="M 422.212,328.38 L 409.572,315.74 L 409.572,290.458 L 396.931,277.817 L 346.368,290.458 L 308.446,277.817 L 270.524,290.458 L 257.883,315.74 L 270.524,353.662 L 409.572,353.662 L 422.212,328.38 z " style="fill-opacity:0.3;fill:rgb(250,150,50);stroke:rgb(0,0,0);stroke-width:1"/></g>
<g fill-rule="evenodd"><path d="M 621.524,415.914 L 608.883,403.273 L 608.883,377.991 L 596.243,365.351 L 545.68,377.991 L 507.758,365.351 L 469.835,377.991 L 457.195,403.273 L 469.835,441.195 L 608.883,441.195 L 621.524,415.914 z " style="fill-opacity:0.3;fill:rgb(250,150,50);stroke:rgb(0,0,0);stroke-width:1"/></g>
<g fill-rule="evenodd"><path d="M 636.825,602.18 L 649.465,576.899 L 636.825,538.977 L 497.777,538.977 L 485.136,564.258 L 497.777,576.899 L 497.777,602.18 L 511.681,614.821 L 562.244,602.18 L 600.166,614.821 L 636.825,602.18 z " style="fill-opacity:0.3;fill:rgb(250,150,50);stroke:rgb(0,0,0);stroke-width:1"/></g>
<g fill-rule="evenodd"><path d="M 622.775,518.982 L 635.416,493.701 L 622.775,455.778 L 483.727,455.778 L 471.087,481.06 L 483.727,493.701 L 483.727,518.982 L 497.632,531.623 L 548.195,518.982 L 586.117,531.623 L 622.775,518.982 z " style="fill-opacity:0.3;fill:rgb(250,150,50);stroke:rgb(0,0,0);stroke-width:1"/></g>
<g fill-rule="evenodd"><path d="M 449.368,223.037 L 462.009,197.756 L 449.368,159.834 L 310.32,159.834 L 297.679,185.115 L 310.32,197.756 L 310.32,223.037 L 324.225,235.678 L 374.788,223.037 L 412.71,235.678 L 449.368,223.037 z " style="fill-opacity:0.3;fill:rgb(250,150,50);stroke:rgb(0,0,0);stroke-width:1"/></g>
<g fill-rule="evenodd"><path d="M 558.128,260.955 L 558.128,210.392 L 469.643,185.111 L 457.002,210.392 L 457.002,223.033 L 444.361,235.674 L 457.002,248.314 L 469.643,273.596 L 558.128,260.955 z " style="fill-opacity:0.3;fill:rgb(250,150,50);stroke:rgb(0,0,0);stroke-width:1"/></g>
<g fill-rule="evenodd"><path d="M 748.069,632.563 L 748.069,582 L 659.584,556.719 L 646.944,582 L 646.944,594.641 L 634.303,607.281 L 646.944,619.922 L 659.584,645.204 L 748.069,632.563 z " style="fill-opacity:0.3;fill:rgb(250,150,50);stroke:rgb(0,0,0);stroke-width:1"/></g>
<g fill-rule="evenodd"><path d="M 345.787,616.623 L 345.787,603.982 L 358.428,590.077 L 345.787,578.701 L 333.146,553.419 L 244.661,566.06 L 244.661,616.623 L 333.146,641.904 L 345.787,616.623 z " style="fill-opacity:0.3;fill:rgb(250,150,50);stroke:rgb(0,0,0);stroke-width:1"/></g>
<g fill-rule="evenodd"><path d="M 741.072,547.98 L 741.072,535.339 L 753.713,521.434 L 741.072,510.057 L 728.431,484.776 L 639.946,497.417 L 639.946,547.98 L 728.431,573.261 L 741.072,547.98 z " style="fill-opacity:0.3;fill:rgb(250,150,50);stroke:rgb(0,0,0);stroke-width:1"/></g>
<g fill-rule="evenodd"><path d="M 674.415,291.217 L 674.415,278.577 L 687.056,264.672 L 674.415,253.295 L 661.775,228.014 L 573.29,240.655 L 573.29,291.217 L 661.775,316.499 L 674.415,291.217 z " style="fill-opacity:0.3;fill:rgb(250,150,50);stroke:rgb(0,0,0);stroke-width:1"/></g>
<g fill-rule="evenodd"><path d="M 722.941,466.499 L 722.941,415.936 L 634.456,390.654 L 621.815,415.936 L 621.815,428.577 L 609.175,441.217 L 621.815,453.858 L 634.456,479.139 L 722.941,466.499 z " style="fill-opacity:0.3;fill:rgb(250,150,50);stroke:rgb(0,0,0);stroke-width:1"/></g>
<g fill-rule="evenodd"><path d="M 793.503,282.633 L 793.503,232.071 L 705.018,206.789 L 692.377,232.071 L 692.377,244.711 L 679.737,257.352 L 692.377,269.993 L 705.018,295.274 L 793.503,282.633 z " style="fill-opacity:0.3;fill:rgb(250,150,50);stroke:rgb(0,0,0);stroke-width:1"/></g>
<g fill-rule="evenodd"><path d="M 664.265,227.601 L 664.265,177.038 L 575.78,151.757 L 563.139,177.038 L 563.139,189.679 L 550.498,202.32 L 563.139,214.96 L 575.78,240.242 L 664.265,227.601 z " style="fill-opacity:0.3;fill:rgb(250,150,50);stroke:rgb(0,0,0);stroke-width:1"/></g>
<g fill-rule="evenodd"><path d="M 393.797,248.32 L 406.438,248.32 L 420.342,260.961 L 457.001,260.961 L 444.36,235.679 L 343.234,235.679 L 343.234,260.961 L 368.516,260.961 L 393.797,248.32 z " style="fill-opacity:0.3;fill:rgb(250,150,50);stroke:rgb(0,0,0);stroke-width:1"/></g>
<g fill-rule="evenodd"><path d="M 715.839,197.779 L 728.48,197.779 L 742.385,210.419 L 779.043,210.419 L 766.402,185.138 L 665.276,185.138 L 665.276,210.419 L 690.558,210.419 L 715.839,197.779 z " style="fill-opacity:0.3;fill:rgb(250,150,50);stroke:rgb(0,0,0);stroke-width:1"/></g>
<g fill-rule="evenodd"><path d="M 410.651,252.535 L 385.37,252.535 L 360.088,265.176 L 347.447,265.176 L 334.807,252.535 L 296.885,252.535 L 309.525,277.816 L 410.651,277.816 L 410.651,252.535 z " style="fill-opacity:0.3;fill:rgb(250,150,50);stroke:rgb(0,0,0);stroke-width:1"/></g>
<g fill-rule="evenodd"><path d="M 799.994,383.773 L 774.713,383.773 L 749.431,396.414 L 736.791,396.414 L 724.15,383.773 L 686.228,383.773 L 698.869,409.055 L 799.994,409.055 L 799.994,383.773 z " style="fill-opacity:0.3;fill:rgb(250,150,50);stroke:rgb(0,0,0);stroke-width:1"/></g>
<g fill-rule="evenodd"><path d="M 400.431,569.703 L 413.072,569.703 L 426.977,582.344 L 463.635,582.344 L 450.994,557.062 L 349.868,557.062 L 349.868,582.344 L 375.15,582.344 L 400.431,569.703 z " style="fill-opacity:0.3;fill:rgb(250,150,50);stroke:rgb(0,0,0);stroke-width:1"/></g>
<g fill-rule="evenodd"><path d="M 193.201,627.533 L 205.842,627.533 L 219.746,640.174 L 256.404,640.174 L 243.764,614.892 L 142.638,614.892 L 142.638,640.174 L 167.919,640.174 L 193.201,627.533 z " style="fill-opacity:0.3;fill:rgb(250,150,50);stroke:rgb(0,0,0);stroke-width:1"/></g>
<g fill-rule="evenodd"><path d="M 687.859,339.987 L 662.577,339.987 L 637.296,352.627 L 624.655,352.627 L 612.014,339.987 L 574.092,339.987 L 586.733,365.268 L 687.859,365.268 L 687.859,339.987 z " style="fill-opacity:0.3;fill:rgb(250,150,50);stroke:rgb(0,0,0);stroke-width:1"/></g>
<g fill-rule="evenodd"><path d="M 749.429,147.191 L 724.147,147.191 L 698.866,159.831 L 686.225,159.831 L 673.585,147.191 L 635.662,147.191 L 648.303,172.472 L 749.429,172.472 L 749.429,147.191 z " style="fill-opacity:0.3;fill:rgb(250,150,50);stroke:rgb(0,0,0);stroke-width:1"/></g>
<g fill-rule="evenodd"><path d="M 563.139,159.827 L 537.857,159.827 L 512.576,172.468 L 499.935,172.468 L 487.294,159.827 L 449.372,159.827 L 462.013,185.109 L 563.139,185.109 L 563.139,159.827 z " style="fill-opacity:0.3;fill:rgb(250,150,50);stroke:rgb(0,0,0);stroke-width:1"/></g>
<g fill-rule="evenodd"><path d="M 53.9031,159.827 L 66.5438,159.827 L 80.4486,172.467 L 117.107,172.467 L 104.466,147.186 L 3.34028,147.186 L 3.34028,172.467 L 28.6217,172.467 L 53.9031,159.827 z " style="fill-opacity:0.3;fill:rgb(250,150,50);stroke:rgb(0,0,0);stroke-width:1"/></g>
<g fill-rule="evenodd"><path d="M 170.954,159.827 L 183.595,159.827 L 197.5,172.467 L 234.158,172.467 L 221.517,147.186 L 120.392,147.186 L 120.392,172.467 L 145.673,172.467 L 170.954,159.827 z " style="fill-opacity:0.3;fill:rgb(250,150,50);stroke:rgb(0,0,0);stroke-width:1"/></g>
<g fill-rule="evenodd"><path d="M 349.465,531.781 L 362.106,531.781 L 376.011,544.422 L 412.669,544.422 L 400.028,519.14 L 298.902,519.14 L 298.902,544.422 L 324.184,544.422 L 349.465,531.781 z " style="fill-opacity:0.3;fill:rgb(250,150,50);stroke:rgb(0,0,0);stroke-width:1"/></g>
<g fill-rule="evenodd"><path d="M 691.427,314.701 L 666.145,314.701 L 640.864,327.342 L 628.223,327.342 L 615.582,314.701 L 577.66,314.701 L 590.301,339.983 L 691.427,339.983 L 691.427,314.701 z " style="fill-opacity:0.3;fill:rgb(250,150,50);stroke:rgb(0,0,0);stroke-width:1"/></g>
<g fill-rule="evenodd"><path d="M 203.517,329.639 L 216.158,329.639 L 230.062,342.28 L 266.721,342.28 L 254.08,316.998 L 152.954,316.998 L 152.954,342.28 L 178.236,342.28 L 203.517,329.639 z " style="fill-opacity:0.3;fill:rgb(250,150,50);stroke:rgb(0,0,0);stroke-width:1"/></g>
<g fill-rule="evenodd"><path d="M 351.966,366.312 L 364.606,366.312 L 378.511,378.952 L 415.169,378.952 L 402.528,353.671 L 301.403,353.671 L 301.403,378.952 L 326.684,378.952 L 351.966,366.312 z " style="fill-opacity:0.3;fill:rgb(250,150,50);stroke:rgb(0,0,0);stroke-width:1"/></g>
<g fill-rule="evenodd"><path d="M 799.911,538.952 L 787.271,526.311 L 749.348,526.311 L 749.348,564.233 L 799.911,564.233 L 799.911,538.952 z " style="fill-opacity:0.3;fill:rgb(250,150,50);stroke:rgb(0,0,0);stroke-width:1"/></g>
<g fill-rule="evenodd"><path d="M 742.063,295.274 L 691.5,295.274 L 691.5,320.556 L 705.405,333.196 L 742.063,333.196 L 742.063,295.274 z " style="fill-opacity:0.3;fill:rgb(250,150,50);stroke:rgb(0,0,0);stroke-width:1"/></g>
<g fill-rule="evenodd"><path d="M 195.24,277.497 L 144.677,277.497 L 144.677,302.778 L 158.582,315.419 L 195.24,315.419 L 195.24,277.497 z " style="fill-opacity:0.3;fill:rgb(250,150,50);stroke:rgb(0,0,0);stroke-width:1"/></g>
<g fill-rule="evenodd"><path d="M 650.564,627.513 L 637.924,614.872 L 600.002,614.872 L 600.002,652.794 L 650.564,652.794 L 650.564,627.513 z " style="fill-opacity:0.3;fill:rgb(250,150,50);stroke:rgb(0,0,0);stroke-width:1"/></g>
<g fill-rule="evenodd"><path d="M 798.743,564.251 L 748.18,564.251 L 748.18,589.532 L 762.085,602.173 L 798.743,602.173 L 798.743,564.251 z " style="fill-opacity:0.3;fill:rgb(250,150,50);stroke:rgb(0,0,0);stroke-width:1"/></g>
<g fill-rule="evenodd"><path d="M 478.414,519.14 L 427.851,519.14 L 427.851,544.422 L 441.756,557.062 L 478.414,557.062 L 478.414,519.14 z " style="fill-opacity:0.3;fill:rgb(250,150,50);stroke:rgb(0,0,0);stroke-width:1"/></g>
<g fill-rule="evenodd"><path d="M 798.743,614.822 L 786.102,602.181 L 748.18,602.181 L 748.18,640.104 L 798.743,640.104 L 798.743,614.822 z " style="fill-opacity:0.3;fill:rgb(250,150,50);stroke:rgb(0,0,0);stroke-width:1"/></g>
<g fill-rule="evenodd"><path d="M 742.089,333.201 L 691.527,333.201 L 691.527,358.482 L 705.431,371.123 L 742.089,371.123 L 742.089,333.201 z " style="fill-opacity:0.3;fill:rgb(250,150,50);stroke:rgb(0,0,0);stroke-width:1"/></g>
<g fill-rule="evenodd"><path d="M 799.96,480.98 L 749.397,480.98 L 749.397,506.261 L 763.302,518.902 L 799.96,518.902 L 799.96,480.98 z " style="fill-opacity:0.3;fill:rgb(250,150,50);stroke:rgb(0,0,0);stroke-width:1"/></g>
<g fill-rule="evenodd"><path d="M 799.879,290.074 L 749.316,290.074 L 749.316,315.355 L 763.221,327.996 L 799.879,327.996 L 799.879,290.074 z " style="fill-opacity:0.3;fill:rgb(250,150,50);stroke:rgb(0,0,0);stroke-width:1"/></g>
<g fill-rule="evenodd"><path d="M 210.771,589.611 L 198.13,576.97 L 160.208,576.97 L 160.208,614.892 L 210.771,614.892 L 210.771,589.611 z " style="fill-opacity:0.3;fill:rgb(250,150,50);stroke:rgb(0,0,0);stroke-width:1"/></g>
<g fill-rule="evenodd"><path d="M 251.815,290.171 L 239.174,277.53 L 201.252,277.53 L 201.252,315.452 L 251.815,315.452 L 251.815,290.171 z " style="fill-opacity:0.3;fill:rgb(250,150,50);stroke:rgb(0,0,0);stroke-width:1"/></g>
<g fill-rule="evenodd"><path d="M 799.993,159.842 L 787.352,147.201 L 749.43,147.201 L 749.43,185.123 L 799.993,185.123 L 799.993,159.842 z " style="fill-opacity:0.3;fill:rgb(250,150,50);stroke:rgb(0,0,0);stroke-width:1"/></g>
<g fill-rule="evenodd"><path d="M 594.139,626.385 L 581.498,613.745 L 543.576,613.745 L 543.576,651.667 L 594.139,651.667 L 594.139,626.385 z " style="fill-opacity:0.3;fill:rgb(250,150,50);stroke:rgb(0,0,0);stroke-width:1"/></g>
<g fill-rule="evenodd"><path d="M 792.866,345.605 L 742.303,345.605 L 742.303,370.887 L 756.208,383.527 L 792.866,383.527 L 792.866,345.605 z " style="fill-opacity:0.3;fill:rgb(250,150,50);stroke:rgb(0,0,0);stroke-width:1"/></g>
<g fill-rule="evenodd"><path d="M 462.91,147.186 L 361.784,147.186 L 374.425,159.827 L 451.533,159.827 L 462.91,147.186 z " style="fill-opacity:0.3;fill:rgb(250,150,50);stroke:rgb(0,0,0);stroke-width:1"/></g>
<g fill-rule="evenodd"><path d="M 361.784,147.189 L 260.658,147.189 L 273.299,159.83 L 350.407,159.83 L 361.784,147.189 z " style="fill-opacity:0.3;fill:rgb(250,150,50);stroke:rgb(0,0,0);stroke-width:1"/></g>
<g fill-rule="evenodd"><path d="M 123.879,627.533 L 48.0349,627.533 L 35.3942,640.174 L 136.52,640.174 L 123.879,627.533 z " style="fill-opacity:0.3;fill:rgb(250,150,50);stroke:rgb(0,0,0);stroke-width:1"/></g>
<g fill-rule="evenodd"><path d="M 426.829,544.422 L 325.703,544.422 L 338.344,557.062 L 415.452,557.062 L 426.829,544.422 z " style="fill-opacity:0.3;fill:rgb(250,150,50);stroke:rgb(0,0,0);stroke-width:1"/></g>
<g fill-rule="evenodd"><path d="M 101.141,172.467 L 0.015052,172.467 L 12.6558,185.108 L 89.7641,185.108 L 101.141,172.467 z " style="fill-opacity:0.3;fill:rgb(250,150,50);stroke:rgb(0,0,0);stroke-width:1"/></g>
<g fill-rule="evenodd"><path d="M 558.62,442.18 L 457.494,442.18 L 470.135,454.82 L 547.243,454.82 L 558.62,442.18 z " style="fill-opacity:0.3;fill:rgb(250,150,50);stroke:rgb(0,0,0);stroke-width:1"/></g>
<g fill-rule="evenodd"><path d="M 117.212,640.174 L 41.3673,640.174 L 28.7266,652.814 L 129.852,652.814 L 117.212,640.174 z " style="fill-opacity:0.3;fill:rgb(250,150,50);stroke:rgb(0,0,0);stroke-width:1"/></g>
<g fill-rule="evenodd"><path d="M 286.283,442.151 L 210.439,442.151 L 197.798,454.792 L 298.924,454.792 L 286.283,442.151 z " style="fill-opacity:0.3;fill:rgb(250,150,50);stroke:rgb(0,0,0);stroke-width:1"/></g>
<g fill-rule="evenodd"><path d="M 101.127,286.234 L 0.00146681,286.234 L 12.6422,298.875 L 89.7505,298.875 L 101.127,286.234 z " style="fill-opacity:0.3;fill:rgb(250,150,50);stroke:rgb(0,0,0);stroke-width:1"/></g>
<g fill-rule="evenodd"><path d="M 125.145,394.944 L 49.3003,394.944 L 36.6596,407.585 L 137.785,407.585 L 125.145,394.944 z " style="fill-opacity:0.3;fill:rgb(250,150,50);stroke:rgb(0,0,0);stroke-width:1"/></g>
<g fill-rule="evenodd"><path d="M 787.345,468.136 L 711.5,468.136 L 698.86,480.777 L 799.985,480.777 L 787.345,468.136 z " style="fill-opacity:0.3;fill:rgb(250,150,50);stroke:rgb(0,0,0);stroke-width:1"/></g>
<g fill-rule="evenodd"><path d="M 101.52,407.585 L 0.394186,407.585 L 13.0349,420.225 L 90.1433,420.225 L 101.52,407.585 z " style="fill-opacity:0.3;fill:rgb(250,150,50);stroke:rgb(0,0,0);stroke-width:1"/></g>
<g fill-rule="evenodd"><path d="M 218.941,640.174 L 143.097,640.174 L 130.456,652.814 L 231.582,652.814 L 218.941,640.174 z " style="fill-opacity:0.3;fill:rgb(250,150,50);stroke:rgb(0,0,0);stroke-width:1"/></g>
<g fill-rule="evenodd"><path d="M 775.513,640.128 L 699.668,640.128 L 687.028,652.769 L 788.153,652.769 L 775.513,640.128 z " style="fill-opacity:0.3;fill:rgb(250,150,50);stroke:rgb(0,0,0);stroke-width:1"/></g>
<g fill-rule="evenodd"><path d="M 320.869,640.174 L 219.743,640.174 L 232.384,652.814 L 309.492,652.814 L 320.869,640.174 z " style="fill-opacity:0.3;fill:rgb(250,150,50);stroke:rgb(0,0,0);stroke-width:1"/></g>
<g fill-rule="evenodd"><path d="M 608.732,442.684 L 558.169,442.684 L 558.169,455.325 L 608.732,455.325 L 608.732,442.684 z " style="fill-opacity:0.3;fill:rgb(250,150,50);stroke:rgb(0,0,0);stroke-width:1"/></g>
<g fill-rule="evenodd"><path d="M 515.933,147.186 L 465.37,147.186 L 465.37,159.827 L 515.933,159.827 L 515.933,147.186 z " style="fill-opacity:0.3;fill:rgb(250,150,50);stroke:rgb(0,0,0);stroke-width:1"/></g>
<g fill-rule="evenodd"><path d="M 566.5,147.186 L 515.937,147.186 L 515.937,159.827 L 566.5,159.827 L 566.5,147.186 z " style="fill-opacity:0.3;fill:rgb(250,150,50);stroke:rgb(0,0,0);stroke-width:1"/></g>
<g fill-rule="evenodd"><path d="M 776.252,454.536 L 725.689,454.536 L 725.689,467.176 L 776.252,467.176 L 776.252,454.536 z " style="fill-opacity:0.3;fill:rgb(250,150,50);stroke:rgb(0,0,0);stroke-width:1"/></g>
<g fill-rule="evenodd"><path d="M 115.441,511.718 L 64.8785,511.718 L 64.8785,524.359 L 115.441,524.359 L 115.441,511.718 z " style="fill-opacity:0.3;fill:rgb(250,150,50);stroke:rgb(0,0,0);stroke-width:1"/></g>
<g fill-rule="evenodd"><path d="M 776.472,413.574 L 725.909,413.574 L 725.909,426.215 L 776.472,426.215 L 776.472,413.574 z " style="fill-opacity:0.3;fill:rgb(250,150,50);stroke:rgb(0,0,0);stroke-width:1"/></g>
<g fill-rule="evenodd"><path d="M 717.776,172.488 L 667.213,172.488 L 667.213,185.129 L 717.776,185.129 L 717.776,172.488 z " style="fill-opacity:0.3;fill:rgb(250,150,50);stroke:rgb(0,0,0);stroke-width:1"/></g>
<g fill-rule="evenodd"><path d="M 240.329,454.8 L 189.766,454.8 L 189.766,467.44 L 240.329,467.44 L 240.329,454.8 z " style="fill-opacity:0.3;fill:rgb(250,150,50);stroke:rgb(0,0,0);stroke-width:1"/></g>
<g fill-rule="evenodd"><path d="M 569.459,526.307 L 518.897,526.307 L 518.897,538.947 L 569.459,538.947 L 569.459,526.307 z " style="fill-opacity:0.3;fill:rgb(250,150,50);stroke:rgb(0,0,0);stroke-width:1"/></g>
<g fill-rule="evenodd"><path d="M 740.377,371.126 L 689.814,371.126 L 689.814,383.766 L 740.377,383.766 L 740.377,371.126 z " style="fill-opacity:0.3;fill:rgb(250,150,50);stroke:rgb(0,0,0);stroke-width:1"/></g>
<g fill-rule="evenodd"><path d="M 776.22,439.62 L 725.657,439.62 L 725.657,452.26 L 776.22,452.26 L 776.22,439.62 z " style="fill-opacity:0.3;fill:rgb(250,150,50);stroke:rgb(0,0,0);stroke-width:1"/></g>
<g fill-rule="evenodd"><path d="M 677.93,365.271 L 627.368,365.271 L 627.368,377.911 L 677.93,377.911 L 677.93,365.271 z " style="fill-opacity:0.3;fill:rgb(250,150,50);stroke:rgb(0,0,0);stroke-width:1"/></g>
<g fill-rule="evenodd"><path d="M 660.25,377.939 L 609.687,377.939 L 609.687,390.58 L 660.25,390.58 L 660.25,377.939 z " style="fill-opacity:0.3;fill:rgb(250,150,50);stroke:rgb(0,0,0);stroke-width:1"/></g>
<g fill-rule="evenodd"><path d="M 323.169,455.383 L 272.607,455.383 L 272.607,468.024 L 323.169,468.024 L 323.169,455.383 z " style="fill-opacity:0.3;fill:rgb(250,150,50);stroke:rgb(0,0,0);stroke-width:1"/></g>
<g fill-rule="evenodd"><path d="M 237.456,564.326 L 186.893,564.326 L 186.893,576.966 L 237.456,576.966 L 237.456,564.326 z " style="fill-opacity:0.3;fill:rgb(250,150,50);stroke:rgb(0,0,0);stroke-width:1"/></g>
<g fill-rule="evenodd"><path d="M 254.092,264.859 L 216.17,264.859 L 216.17,277.5 L 254.092,277.5 L 254.092,264.859 z " style="fill-opacity:0.3;fill:rgb(250,150,50);stroke:rgb(0,0,0);stroke-width:1"/></g>
<g fill-rule="evenodd"><path d="M 611.212,302.055 L 573.289,302.055 L 573.289,314.696 L 611.212,314.696 L 611.212,302.055 z " style="fill-opacity:0.3;fill:rgb(250,150,50);stroke:rgb(0,0,0);stroke-width:1"/></g>
<g fill-rule="evenodd"><path d="M 543.419,639.09 L 505.496,639.09 L 505.496,651.731 L 543.419,651.731 L 543.419,639.09 z " style="fill-opacity:0.3;fill:rgb(250,150,50);stroke:rgb(0,0,0);stroke-width:1"/></g>
<g fill-rule="evenodd"><path d="M 799.995,210.436 L 762.073,210.436 L 762.073,223.077 L 799.995,223.077 L 799.995,210.436 z " style="fill-opacity:0.3;fill:rgb(250,150,50);stroke:rgb(0,0,0);stroke-width:1"/></g>
<g fill-rule="evenodd"><path d="M 38.0103,387.639 L 0.0881098,387.639 L 0.0881098,400.279 L 38.0103,400.279 L 38.0103,387.639 z " style="fill-opacity:0.3;fill:rgb(250,150,50);stroke:rgb(0,0,0);stroke-width:1"/></g>
<g fill-rule="evenodd"><path d="M 552.911,185.156 L 514.988,185.156 L 514.988,197.797 L 552.911,197.797 L 552.911,185.156 z " style="fill-opacity:0.3;fill:rgb(250,150,50);stroke:rgb(0,0,0);stroke-width:1"/></g>
<g fill-rule="evenodd"><path d="M 781.485,328.235 L 743.563,328.235 L 743.563,340.876 L 781.485,340.876 L 781.485,328.235 z " style="fill-opacity:0.3;fill:rgb(250,150,50);stroke:rgb(0,0,0);stroke-width:1"/></g>
<g fill-rule="evenodd"><path d="M 224.496,338.112 L 186.574,338.112 L 186.574,350.753 L 224.496,350.753 L 224.496,338.112 z " style="fill-opacity:0.3;fill:rgb(250,150,50);stroke:rgb(0,0,0);stroke-width:1"/></g>
<g fill-rule="evenodd"><path d="M 339.35,236.352 L 301.428,236.352 L 301.428,248.993 L 339.35,248.993 L 339.35,236.352 z " style="fill-opacity:0.3;fill:rgb(250,150,50);stroke:rgb(0,0,0);stroke-width:1"/></g>
<g fill-rule="evenodd"><path d="M 673.1,480.038 L 635.177,480.038 L 635.177,492.679 L 673.1,492.679 L 673.1,480.038 z " style="fill-opacity:0.3;fill:rgb(250,150,50);stroke:rgb(0,0,0);stroke-width:1"/></g>
<g fill-rule="evenodd"><path d="M 39.3824,518.785 L 1.46022,518.785 L 1.46022,531.426 L 39.3824,531.426 L 39.3824,518.785 z " style="fill-opacity:0.3;fill:rgb(250,150,50);stroke:rgb(0,0,0);stroke-width:1"/></g>
<g fill-rule="evenodd"><path d="M 764.89,426.671 L 726.968,426.671 L 726.968,439.312 L 764.89,439.312 L 764.89,426.671 z " style="fill-opacity:0.3;fill:rgb(250,150,50);stroke:rgb(0,0,0);stroke-width:1"/></g>
<g fill-rule="evenodd"><path d="M 185.519,264.851 L 147.596,264.851 L 147.596,277.491 L 185.519,277.491 L 185.519,264.851 z " style="fill-opacity:0.3;fill:rgb(250,150,50);stroke:rgb(0,0,0);stroke-width:1"/></g>
<g fill-rule="evenodd"><path d="M 639.581,526.319 L 601.659,526.319 L 601.659,538.96 L 639.581,538.96 L 639.581,526.319 z " style="fill-opacity:0.3;fill:rgb(250,150,50);stroke:rgb(0,0,0);stroke-width:1"/></g>
<g fill-rule="evenodd"><path d="M 37.9221,621.315 L 8.9176e-06,621.315 L 8.9176e-06,633.956 L 37.9221,633.956 L 37.9221,621.315 z " style="fill-opacity:0.3;fill:rgb(250,150,50);stroke:rgb(0,0,0);stroke-width:1"/></g>
</svg>
