<?xml version="1.0" standalone="no"?>
<!DOCTYPE svg PUBLIC "-//W3C//DTD SVG 1.1//EN"
"http://www.w3.org/Graphics/SVG/1.1/DTD/svg11.dtd">
<svg width="100%" height="100%" version="1.1"
xmlns="http://www.w3.org/2000/svg"
xmlns:xlink="http://www.w3.org/1999/xlink">
<rect x="0" y="46.9043" width="800" height="706.191" style="fill-opacity:0;fill:rgb(255,255,255);stroke:rgb(0,0,0);stroke-width:1"/>
<g fill-rule="evenodd"><path d="M 121.919,726.245 L 132.601,718.633 L 149.298,710.408 L 162.557,707.215 L 182.447,707.093 L 196.688,708.812 L 213.876,711.758 L 211.667,696.534 L 210.316,681.433 L 211.544,666.332 L 213.754,651.108 L 196.565,654.177 L 182.324,655.896 L 162.435,655.896 L 149.175,652.704 L 132.478,644.601 L 121.674,636.989 L 105.713,618.082 L 83.8597,622.625 L 67.5308,626.431 L 52.307,630.482 L 32.1722,636.375 L 18.9126,640.181 L 0.619442,642.514 L 0.0055765,681.924 L 0.742216,721.334 L 19.1582,723.544 L 52.5525,733.121 L 67.7764,737.049 L 84.1052,740.855 L 105.959,745.275 L 121.919,726.245 z " style="fill-opacity:0.3;fill:rgb(250,150,50);stroke:rgb(0,0,0);stroke-width:1"/></g>
<g fill-rule="evenodd"><path d="M 714.697,306.077 L 731.026,302.271 L 746.25,298.219 L 766.385,292.326 L 779.644,288.52 L 797.938,286.187 L 798.429,246.777 L 797.815,207.367 L 779.399,205.157 L 746.005,195.581 L 730.781,191.775 L 714.452,187.969 L 692.598,183.549 L 676.638,202.579 L 665.956,210.191 L 649.259,218.417 L 636,221.609 L 616.11,221.731 L 601.869,220.013 L 584.681,217.066 L 586.89,232.29 L 588.241,247.391 L 587.013,262.492 L 584.803,277.716 L 601.992,274.647 L 616.233,272.928 L 636.123,272.928 L 649.382,276.12 L 666.079,284.223 L 676.883,291.712 L 692.844,310.619 L 714.697,306.077 z " style="fill-opacity:0.3;fill:rgb(250,150,50);stroke:rgb(0,0,0);stroke-width:1"/></g>
<g fill-rule="evenodd"><path d="M 123.002,456.049 L 133.683,448.437 L 150.38,440.212 L 163.64,437.019 L 183.529,436.897 L 197.771,438.616 L 214.959,441.562 L 212.749,426.338 L 211.398,411.237 L 212.626,396.136 L 214.836,380.912 L 197.648,383.981 L 183.406,385.7 L 163.517,385.7 L 150.257,382.508 L 133.56,374.405 L 122.756,366.793 L 106.796,347.886 L 84.942,352.429 L 68.6131,356.235 L 53.3893,360.286 L 33.2545,366.179 L 19.995,369.985 L 1.70175,372.318 L 1.08789,411.728 L 1.82453,451.138 L 20.2405,453.348 L 53.6348,462.925 L 68.8587,466.853 L 85.1875,470.659 L 107.041,475.079 L 123.002,456.049 z " style="fill-opacity:0.3;fill:rgb(250,150,50);stroke:rgb(0,0,0);stroke-width:1"/></g>
<g fill-rule="evenodd"><path d="M 165.744,313.369 L 159.728,287.71 L 157.027,269.662 L 156.168,242.529 L 156.291,225.341 L 156.291,208.152 L 156.782,189.982 L 158.132,173.285 L 166.112,137.312 L 128.421,128.35 L 105.094,138.172 L 89.2565,147.871 L 76.6108,153.027 L 63.9652,154.869 L 43.9532,152.905 L 29.5887,150.081 L 5.03407,144.556 L 0.245916,165.182 L 33.2719,172.671 L 61.387,178.932 L 75.8742,182.125 L 91.2208,191.946 L 95.6407,215.273 L 95.6407,235.163 L 92.9397,253.947 L 61.1414,271.381 L 33.0264,277.519 L 0.000369372,284.886 L 4.66575,305.512 L 29.2204,300.11 L 43.7076,297.286 L 63.7197,295.444 L 76.3653,297.286 L 88.8882,302.565 L 104.48,312.019 L 127.316,321.84 L 165.744,313.369 z " style="fill-opacity:0.3;fill:rgb(250,150,50);stroke:rgb(0,0,0);stroke-width:1"/></g>
<g fill-rule="evenodd"><path d="M 219.983,634.855 L 213.967,609.196 L 211.266,591.148 L 210.406,564.015 L 210.529,546.827 L 210.529,529.639 L 211.02,511.468 L 212.371,494.771 L 220.351,458.799 L 182.66,449.836 L 159.333,459.658 L 143.495,469.357 L 130.849,474.514 L 118.204,476.355 L 98.1916,474.391 L 83.8271,471.567 L 59.2725,466.042 L 54.4843,486.668 L 87.5103,494.157 L 115.625,500.419 L 130.113,503.611 L 145.459,513.433 L 149.879,536.76 L 149.879,556.649 L 147.178,575.433 L 115.38,592.867 L 87.2648,599.006 L 54.2388,606.372 L 58.9042,626.998 L 83.4588,621.596 L 97.9461,618.772 L 117.958,616.93 L 130.604,618.772 L 143.127,624.051 L 158.719,633.505 L 181.555,643.327 L 219.983,634.855 z " style="fill-opacity:0.3;fill:rgb(250,150,50);stroke:rgb(0,0,0);stroke-width:1"/></g>
<g fill-rule="evenodd"><path d="M 321.695,391.608 L 315.679,365.949 L 312.978,347.901 L 312.118,320.768 L 312.241,303.58 L 312.241,286.392 L 312.732,268.221 L 314.083,251.524 L 322.063,215.552 L 284.371,206.589 L 261.045,216.411 L 245.207,226.11 L 232.561,231.266 L 219.916,233.108 L 199.904,231.144 L 185.539,228.32 L 160.984,222.795 L 156.196,243.421 L 189.222,250.91 L 217.337,257.172 L 231.825,260.364 L 247.171,270.186 L 251.591,293.512 L 251.591,313.402 L 248.89,332.186 L 217.092,349.62 L 188.977,355.758 L 155.951,363.125 L 160.616,383.751 L 185.171,378.349 L 199.658,375.525 L 219.67,373.683 L 232.316,375.525 L 244.839,380.804 L 260.431,390.258 L 283.267,400.08 L 321.695,391.608 z " style="fill-opacity:0.3;fill:rgb(250,150,50);stroke:rgb(0,0,0);stroke-width:1"/></g>
<g fill-rule="evenodd"><path d="M 19.6754,622.589 L 35.2676,612.644 L 48.2815,608.102 L 65.4698,602.822 L 84.4996,597.666 L 99.1096,591.896 L 117.157,583.67 L 135.328,574.093 L 133.486,558.87 L 132.381,546.347 L 135.328,519.091 L 117.157,509.515 L 99.1096,501.289 L 84.4996,495.519 L 65.4698,490.362 L 48.2815,485.083 L 35.2676,480.54 L 19.6754,470.596 L 0.15444,470.473 L 2.97822,490.853 L 4.08318,510.865 L 4.57427,531.491 L 5.06537,546.592 L 4.57427,561.693 L 4.08318,582.319 L 2.97822,602.331 L 0.15444,622.712 L 19.6754,622.589 z " style="fill-opacity:0.3;fill:rgb(250,150,50);stroke:rgb(0,0,0);stroke-width:1"/></g>
<g fill-rule="evenodd"><path d="M 196.033,226.164 L 211.625,216.219 L 224.639,211.676 L 241.828,206.397 L 260.857,201.241 L 275.467,195.47 L 293.515,187.244 L 311.686,177.668 L 309.844,162.444 L 308.739,149.921 L 311.686,122.666 L 293.515,113.089 L 275.467,104.864 L 260.857,99.0933 L 241.828,93.9368 L 224.639,88.6576 L 211.625,84.115 L 196.033,74.1703 L 176.512,74.0476 L 179.336,94.4279 L 180.441,114.44 L 180.932,135.066 L 181.423,150.167 L 180.932,165.268 L 180.441,185.894 L 179.336,205.906 L 176.512,226.286 L 196.033,226.164 z " style="fill-opacity:0.3;fill:rgb(250,150,50);stroke:rgb(0,0,0);stroke-width:1"/></g>
<g fill-rule="evenodd"><path d="M 271.885,700.248 L 287.477,690.303 L 300.491,685.761 L 317.68,680.482 L 336.709,675.325 L 351.319,669.555 L 369.367,661.329 L 387.538,651.753 L 385.696,636.529 L 384.591,624.006 L 387.538,596.75 L 369.367,587.174 L 351.319,578.948 L 336.709,573.178 L 317.68,568.021 L 300.491,562.742 L 287.477,558.2 L 271.885,548.255 L 252.364,548.132 L 255.188,568.512 L 256.293,588.525 L 256.784,609.15 L 257.275,624.252 L 256.784,639.353 L 256.293,659.979 L 255.188,679.991 L 252.364,700.371 L 271.885,700.248 z " style="fill-opacity:0.3;fill:rgb(250,150,50);stroke:rgb(0,0,0);stroke-width:1"/></g>
<g fill-rule="evenodd"><path d="M 262.103,537.438 L 285.308,526.634 L 300.163,519.022 L 315.019,510.919 L 329.506,504.535 L 342.274,501.711 L 356.025,502.57 L 381.071,508.832 L 379.229,491.766 L 378.001,478.875 L 379.229,465.738 L 381.071,448.673 L 356.025,454.934 L 342.274,455.794 L 329.506,452.97 L 315.019,446.586 L 300.163,438.483 L 285.308,430.871 L 262.103,420.189 L 240.373,412.946 L 224.535,416.506 L 224.535,540.998 L 240.373,544.559 L 262.103,537.438 z " style="fill-opacity:0.3;fill:rgb(250,150,50);stroke:rgb(0,0,0);stroke-width:1"/></g>
<g fill-rule="evenodd"><path d="M 659.321,746.662 L 659.321,622.17 L 643.483,618.609 L 621.752,625.73 L 598.548,636.534 L 583.693,644.146 L 568.837,652.249 L 554.35,658.633 L 541.582,661.457 L 527.831,660.598 L 502.785,654.336 L 504.627,671.402 L 505.855,684.293 L 504.627,697.43 L 502.785,714.495 L 527.831,708.234 L 541.704,707.374 L 554.473,710.198 L 568.96,716.582 L 583.816,724.685 L 598.671,732.297 L 621.752,742.978 L 643.483,750.222 L 659.321,746.662 z " style="fill-opacity:0.3;fill:rgb(250,150,50);stroke:rgb(0,0,0);stroke-width:1"/></g>
<g fill-rule="evenodd"><path d="M 353.677,364.222 L 376.881,353.418 L 391.737,345.806 L 406.592,337.703 L 421.08,331.319 L 433.848,328.495 L 447.599,329.354 L 472.644,335.616 L 470.803,318.55 L 469.575,305.659 L 470.803,292.522 L 472.644,275.457 L 447.599,281.718 L 433.848,282.578 L 421.08,279.754 L 406.592,273.37 L 391.737,265.267 L 376.881,257.655 L 353.677,246.973 L 331.946,239.73 L 316.108,243.29 L 316.108,367.782 L 331.946,371.343 L 353.677,364.222 z " style="fill-opacity:0.3;fill:rgb(250,150,50);stroke:rgb(0,0,0);stroke-width:1"/></g>
<g fill-rule="evenodd"><path d="M 373.647,441.204 L 399.798,435.557 L 421.283,428.436 L 435.279,421.806 L 450.872,413.335 L 478.127,400.566 L 479.355,384.974 L 480.337,369.75 L 456.642,366.067 L 438.472,363.366 L 424.721,361.647 L 405.568,360.297 L 385.065,360.297 L 363.457,363.489 L 341.235,368.4 L 321.714,391.604 L 300.966,396.883 L 283.041,401.057 L 256.031,406.582 L 242.28,412.966 L 275.92,416.036 L 291.144,418 L 314.839,423.279 L 331.782,430.4 L 357.196,445.01 L 373.647,441.204 z " style="fill-opacity:0.3;fill:rgb(250,150,50);stroke:rgb(0,0,0);stroke-width:1"/></g>
<g fill-rule="evenodd"><path d="M 460.621,127.816 L 486.772,122.168 L 508.257,115.047 L 522.253,108.418 L 537.845,99.9464 L 565.101,87.178 L 566.329,71.5858 L 567.311,56.3619 L 543.616,52.6787 L 525.445,49.9777 L 511.695,48.2589 L 492.542,46.9083 L 472.039,46.9083 L 450.431,50.1005 L 428.209,55.0114 L 408.688,78.2155 L 387.939,83.4948 L 370.014,87.669 L 343.004,93.1938 L 329.254,99.578 L 362.893,102.647 L 378.117,104.612 L 401.813,109.891 L 418.755,117.012 L 444.169,131.622 L 460.621,127.816 z " style="fill-opacity:0.3;fill:rgb(250,150,50);stroke:rgb(0,0,0);stroke-width:1"/></g>
<g fill-rule="evenodd"><path d="M 451.808,251.197 L 477.958,245.549 L 499.444,238.428 L 513.44,231.799 L 529.032,223.327 L 556.287,210.559 L 557.515,194.967 L 558.497,179.743 L 534.802,176.059 L 516.632,173.358 L 502.881,171.64 L 483.729,170.289 L 463.225,170.289 L 441.617,173.481 L 419.395,178.392 L 399.874,201.596 L 379.126,206.876 L 361.201,211.05 L 334.191,216.575 L 320.44,222.959 L 354.08,226.028 L 369.304,227.993 L 392.999,233.272 L 409.942,240.393 L 435.356,255.003 L 451.808,251.197 z " style="fill-opacity:0.3;fill:rgb(250,150,50);stroke:rgb(0,0,0);stroke-width:1"/></g>
<g fill-rule="evenodd"><path d="M 367.602,748.555 L 393.753,742.908 L 415.238,735.787 L 429.234,729.157 L 444.826,720.686 L 472.082,707.917 L 473.31,692.325 L 474.292,677.101 L 450.597,673.418 L 432.426,670.717 L 418.676,668.998 L 399.523,667.648 L 379.02,667.648 L 357.412,670.84 L 335.19,675.751 L 315.669,698.955 L 294.92,704.234 L 276.995,708.408 L 249.985,713.933 L 236.235,720.317 L 269.874,723.387 L 285.098,725.351 L 308.794,730.63 L 325.736,737.751 L 351.15,752.361 L 367.602,748.555 z " style="fill-opacity:0.3;fill:rgb(250,150,50);stroke:rgb(0,0,0);stroke-width:1"/></g>
<g fill-rule="evenodd"><path d="M 560.85,644.675 L 587.001,639.027 L 608.486,631.907 L 622.482,625.277 L 638.074,616.806 L 665.33,604.037 L 666.558,588.445 L 667.54,573.221 L 643.845,569.538 L 625.674,566.837 L 611.924,565.118 L 592.771,563.768 L 572.268,563.768 L 550.66,566.96 L 528.438,571.871 L 508.917,595.075 L 488.168,600.354 L 470.243,604.528 L 443.233,610.053 L 429.483,616.437 L 463.122,619.507 L 478.346,621.471 L 502.042,626.75 L 518.984,633.871 L 544.398,648.481 L 560.85,644.675 z " style="fill-opacity:0.3;fill:rgb(250,150,50);stroke:rgb(0,0,0);stroke-width:1"/></g>
<g fill-rule="evenodd"><path d="M 512.474,471.247 L 538.625,465.6 L 560.11,458.479 L 574.106,451.849 L 589.698,443.378 L 616.954,430.61 L 618.182,415.017 L 619.164,399.793 L 595.469,396.11 L 577.298,393.409 L 563.548,391.69 L 544.395,390.34 L 523.892,390.34 L 502.284,393.532 L 480.062,398.443 L 460.541,421.647 L 439.792,426.926 L 421.867,431.101 L 394.857,436.625 L 381.107,443.01 L 414.747,446.079 L 429.97,448.043 L 453.666,453.323 L 470.608,460.443 L 496.022,475.053 L 512.474,471.247 z " style="fill-opacity:0.3;fill:rgb(250,150,50);stroke:rgb(0,0,0);stroke-width:1"/></g>
<g fill-rule="evenodd"><path d="M 435.179,588.228 L 451.753,581.598 L 478.395,581.598 L 474.343,564.164 L 468.941,548.695 L 467.468,533.962 L 579.805,527.701 L 579.437,508.18 L 473.607,507.075 L 457.646,501.795 L 452.735,483.379 L 447.579,466.191 L 432.846,468.156 L 434.933,492.465 L 435.67,506.706 L 435.424,531.138 L 434.196,549.309 L 431.495,570.18 L 418.481,610.081 L 435.179,588.228 z " style="fill-opacity:0.3;fill:rgb(250,150,50);stroke:rgb(0,0,0);stroke-width:1"/></g>
<g fill-rule="evenodd"><path d="M 591.255,209.711 L 589.168,185.402 L 588.431,171.16 L 588.677,146.851 L 589.905,128.681 L 592.606,107.809 L 605.619,67.7852 L 588.922,89.6388 L 572.348,96.2686 L 545.706,96.2686 L 549.758,113.702 L 555.16,129.172 L 556.633,143.905 L 444.296,150.166 L 444.541,169.687 L 550.494,170.792 L 566.455,176.071 L 571.366,194.487 L 576.522,211.675 L 591.255,209.711 z " style="fill-opacity:0.3;fill:rgb(250,150,50);stroke:rgb(0,0,0);stroke-width:1"/></g>
<g fill-rule="evenodd"><path d="M 641.229,421.211 L 639.142,396.902 L 638.405,382.66 L 638.651,358.351 L 639.878,340.181 L 642.579,319.309 L 655.593,279.285 L 638.896,301.139 L 622.322,307.769 L 595.68,307.769 L 599.731,325.202 L 605.133,340.672 L 606.607,355.405 L 494.269,361.666 L 494.515,381.187 L 600.468,382.292 L 616.429,387.571 L 621.339,405.987 L 626.496,423.175 L 641.229,421.211 z " style="fill-opacity:0.3;fill:rgb(250,150,50);stroke:rgb(0,0,0);stroke-width:1"/></g>
<g fill-rule="evenodd"><path d="M 655.23,547.462 L 653.143,523.153 L 652.406,508.911 L 652.652,484.602 L 653.88,466.432 L 656.581,445.561 L 669.594,405.536 L 652.897,427.39 L 636.323,434.02 L 609.681,434.02 L 613.733,451.454 L 619.135,466.923 L 620.608,481.656 L 508.271,487.917 L 508.516,507.438 L 614.469,508.543 L 630.43,513.822 L 635.341,532.238 L 640.497,549.427 L 655.23,547.462 z " style="fill-opacity:0.3;fill:rgb(250,150,50);stroke:rgb(0,0,0);stroke-width:1"/></g>
<g fill-rule="evenodd"><path d="M 655.168,407.878 L 671.742,401.248 L 698.384,401.248 L 694.332,383.814 L 688.93,368.345 L 687.457,353.612 L 799.795,347.351 L 799.426,327.83 L 693.596,326.725 L 677.635,321.446 L 672.724,303.03 L 667.568,285.841 L 652.835,287.806 L 654.922,312.115 L 655.659,326.357 L 655.413,350.788 L 654.186,368.959 L 651.485,389.83 L 638.471,429.732 L 655.168,407.878 z " style="fill-opacity:0.3;fill:rgb(250,150,50);stroke:rgb(0,0,0);stroke-width:1"/></g>
<g fill-rule="evenodd"><path d="M 424.289,591.904 L 422.202,567.595 L 421.466,553.353 L 421.711,529.044 L 422.939,510.874 L 425.64,490.002 L 438.654,449.978 L 421.957,471.832 L 405.382,478.461 L 378.741,478.461 L 382.792,495.895 L 388.194,511.365 L 389.667,526.097 L 277.33,532.359 L 277.575,551.88 L 383.529,552.985 L 399.489,558.264 L 404.4,576.68 L 409.557,593.868 L 424.289,591.904 z " style="fill-opacity:0.3;fill:rgb(250,150,50);stroke:rgb(0,0,0);stroke-width:1"/></g>
<g fill-rule="evenodd"><path d="M 46.9916,139.683 L 59.5145,125.564 L 70.8096,112.55 L 88.2434,104.202 L 155.4,103.097 L 154.786,83.4532 L 82.5958,81.366 L 70.6868,69.2115 L 48.7104,63.1956 L 38.1519,83.9442 L 32.8727,95.7305 L 26.2429,111.814 L 20.5954,126.792 L 14.5795,145.085 L 37.2925,150.733 L 46.9916,139.683 z " style="fill-opacity:0.3;fill:rgb(250,150,50);stroke:rgb(0,0,0);stroke-width:1"/></g>
<g fill-rule="evenodd"><path d="M 334.871,199.077 L 347.394,184.958 L 358.689,171.944 L 376.123,163.595 L 443.279,162.49 L 442.666,142.847 L 370.475,140.76 L 358.566,128.605 L 336.59,122.589 L 326.031,143.338 L 320.752,155.124 L 314.122,171.207 L 308.475,186.186 L 302.459,204.479 L 325.172,210.126 L 334.871,199.077 z " style="fill-opacity:0.3;fill:rgb(250,150,50);stroke:rgb(0,0,0);stroke-width:1"/></g>
<g fill-rule="evenodd"><path d="M 558.232,274.067 L 563.634,262.281 L 570.263,246.197 L 575.911,231.219 L 581.927,213.048 L 559.214,207.278 L 549.392,218.328 L 536.869,232.447 L 525.574,245.461 L 508.14,253.809 L 441.106,254.914 L 441.597,274.558 L 513.788,276.645 L 525.697,288.8 L 547.673,294.815 L 558.232,274.067 z " style="fill-opacity:0.3;fill:rgb(250,150,50);stroke:rgb(0,0,0);stroke-width:1"/></g>
<g fill-rule="evenodd"><path d="M 776.304,142.716 L 781.706,130.93 L 788.336,114.846 L 793.983,99.8682 L 799.999,81.6977 L 777.286,75.9274 L 767.464,86.977 L 754.941,101.096 L 743.646,114.11 L 726.212,122.458 L 659.178,123.563 L 659.669,143.207 L 731.86,145.294 L 743.769,157.449 L 765.745,163.465 L 776.304,142.716 z " style="fill-opacity:0.3;fill:rgb(250,150,50);stroke:rgb(0,0,0);stroke-width:1"/></g>
<g fill-rule="evenodd"><path d="M 776.301,456.735 L 781.703,444.949 L 788.333,428.865 L 793.98,413.887 L 799.996,395.717 L 777.283,389.946 L 767.461,400.996 L 754.938,415.115 L 743.643,428.129 L 726.209,436.477 L 659.175,437.582 L 659.666,457.226 L 731.857,459.313 L 743.766,471.468 L 765.742,477.484 L 776.301,456.735 z " style="fill-opacity:0.3;fill:rgb(250,150,50);stroke:rgb(0,0,0);stroke-width:1"/></g>
<g fill-rule="evenodd"><path d="M 776.284,634.784 L 781.686,622.997 L 788.316,606.914 L 793.963,591.936 L 799.979,573.765 L 777.266,567.995 L 767.444,579.045 L 754.921,593.164 L 743.626,606.178 L 726.192,614.526 L 659.158,615.631 L 659.649,635.275 L 731.84,637.362 L 743.749,649.516 L 765.725,655.532 L 776.284,634.784 z " style="fill-opacity:0.3;fill:rgb(250,150,50);stroke:rgb(0,0,0);stroke-width:1"/></g>
<g fill-rule="evenodd"><path d="M 503.179,664.056 L 500.969,645.518 L 495.813,625.506 L 482.185,627.102 L 468.803,627.593 L 454.929,625.506 L 436.882,621.331 L 410.363,615.316 L 405.329,639.379 L 395.261,658.286 L 411.468,660.742 L 423.745,663.32 L 439.951,667.494 L 470.767,675.965 L 489.797,680.876 L 504.161,682.227 L 503.179,664.056 z " style="fill-opacity:0.3;fill:rgb(250,150,50);stroke:rgb(0,0,0);stroke-width:1"/></g>
<g fill-rule="evenodd"><path d="M 688.958,169.949 L 699.025,151.042 L 682.819,148.587 L 670.542,146.009 L 654.336,141.834 L 623.52,133.363 L 604.49,128.329 L 590.125,126.979 L 591.108,145.149 L 593.318,163.688 L 598.474,183.7 L 612.102,182.104 L 625.484,181.736 L 639.358,183.823 L 657.405,187.997 L 683.924,193.89 L 688.958,169.949 z " style="fill-opacity:0.3;fill:rgb(250,150,50);stroke:rgb(0,0,0);stroke-width:1"/></g>
<g fill-rule="evenodd"><path d="M 760.503,729.034 L 770.57,710.127 L 754.364,707.672 L 742.087,705.093 L 725.881,700.919 L 695.065,692.448 L 676.035,687.414 L 661.671,686.064 L 662.653,704.234 L 664.863,722.773 L 670.019,742.785 L 683.647,741.189 L 697.029,740.82 L 710.903,742.908 L 728.95,747.082 L 755.469,752.975 L 760.503,729.034 z " style="fill-opacity:0.3;fill:rgb(250,150,50);stroke:rgb(0,0,0);stroke-width:1"/></g>
<g fill-rule="evenodd"><path d="M 799.018,697.169 L 796.808,678.631 L 791.651,658.619 L 778.024,660.215 L 764.641,660.706 L 750.768,658.619 L 732.72,654.444 L 706.201,648.428 L 701.168,672.492 L 691.1,691.399 L 707.306,693.854 L 719.584,696.433 L 735.79,700.607 L 766.606,709.078 L 785.636,713.989 L 800,715.34 L 799.018,697.169 z " style="fill-opacity:0.3;fill:rgb(250,150,50);stroke:rgb(0,0,0);stroke-width:1"/></g>
<g fill-rule="evenodd"><path d="M 760.769,567.941 L 770.837,549.034 L 754.631,546.579 L 742.353,544 L 726.147,539.826 L 695.331,531.355 L 676.301,526.321 L 661.937,524.971 L 662.919,543.141 L 665.129,561.68 L 670.286,581.692 L 683.913,580.096 L 697.296,579.727 L 711.169,581.815 L 729.217,585.989 L 755.736,591.882 L 760.769,567.941 z " style="fill-opacity:0.3;fill:rgb(250,150,50);stroke:rgb(0,0,0);stroke-width:1"/></g>
<g fill-rule="evenodd"><path d="M 748.901,89.8992 L 758.969,70.9921 L 742.762,68.5367 L 730.485,65.9584 L 714.279,61.7842 L 683.463,53.3128 L 664.433,48.2791 L 650.069,46.9286 L 651.051,65.099 L 653.261,83.6378 L 658.417,103.65 L 672.045,102.054 L 685.427,101.685 L 699.301,103.773 L 717.348,107.947 L 743.867,113.84 L 748.901,89.8992 z " style="fill-opacity:0.3;fill:rgb(250,150,50);stroke:rgb(0,0,0);stroke-width:1"/></g>
<g fill-rule="evenodd"><path d="M 255.185,64.0953 L 237.751,57.4656 L 217.985,51.2041 L 200.919,48.5031 L 185.695,47.2754 L 171.331,46.9071 L 152.056,47.2754 L 115.469,48.7487 L 89.3185,50.4675 L 90.3007,71.5845 L 127.255,70.8478 L 148.741,70.7251 L 164.947,70.9706 L 177.47,71.5845 L 196.868,74.2855 L 215.898,80.9152 L 255.185,64.0953 z " style="fill-opacity:0.3;fill:rgb(250,150,50);stroke:rgb(0,0,0);stroke-width:1"/></g>
<g fill-rule="evenodd"><path d="M 191.275,338.386 L 173.841,331.756 L 154.074,325.495 L 137.009,322.794 L 121.785,321.566 L 107.42,321.198 L 88.145,321.566 L 51.5586,323.039 L 25.4079,324.758 L 26.3901,345.875 L 63.3448,345.138 L 84.8301,345.016 L 101.036,345.261 L 113.559,345.875 L 132.957,348.576 L 151.987,355.206 L 191.275,338.386 z " style="fill-opacity:0.3;fill:rgb(250,150,50);stroke:rgb(0,0,0);stroke-width:1"/></g>
<g fill-rule="evenodd"><path d="M 420.419,64.108 L 402.985,57.4783 L 383.218,51.2168 L 366.153,48.5158 L 350.929,47.2881 L 336.565,46.9198 L 317.289,47.2881 L 280.703,48.7614 L 254.552,50.4802 L 255.534,71.5972 L 292.489,70.8605 L 313.974,70.7378 L 330.18,70.9833 L 342.703,71.5972 L 362.101,74.2982 L 381.131,80.9279 L 420.419,64.108 z " style="fill-opacity:0.3;fill:rgb(250,150,50);stroke:rgb(0,0,0);stroke-width:1"/></g>
<g fill-rule="evenodd"><path d="M 294.212,736.262 L 276.778,729.633 L 257.011,723.371 L 239.946,720.67 L 224.722,719.443 L 210.358,719.074 L 191.082,719.443 L 154.496,720.916 L 128.345,722.635 L 129.327,743.752 L 166.282,743.015 L 187.767,742.892 L 203.973,743.138 L 216.496,743.752 L 235.894,746.453 L 254.924,753.082 L 294.212,736.262 z " style="fill-opacity:0.3;fill:rgb(250,150,50);stroke:rgb(0,0,0);stroke-width:1"/></g>
<g fill-rule="evenodd"><path d="M 639.787,547.492 L 622.353,540.862 L 602.587,534.6 L 585.521,531.899 L 570.297,530.672 L 555.933,530.303 L 536.657,530.672 L 500.071,532.145 L 473.92,533.864 L 474.902,554.981 L 511.857,554.244 L 533.343,554.121 L 549.549,554.367 L 562.071,554.981 L 581.47,557.682 L 600.499,564.311 L 639.787,547.492 z " style="fill-opacity:0.3;fill:rgb(250,150,50);stroke:rgb(0,0,0);stroke-width:1"/></g>
<g fill-rule="evenodd"><path d="M 607.218,736.269 L 589.784,729.639 L 570.018,723.378 L 552.952,720.677 L 537.728,719.449 L 523.364,719.081 L 504.089,719.449 L 467.502,720.922 L 441.351,722.641 L 442.334,743.758 L 479.288,743.022 L 500.774,742.899 L 516.98,743.144 L 529.503,743.758 L 548.901,746.459 L 567.931,753.089 L 607.218,736.269 z " style="fill-opacity:0.3;fill:rgb(250,150,50);stroke:rgb(0,0,0);stroke-width:1"/></g>
<g fill-rule="evenodd"><path d="M 25.7874,266.732 L 36.837,253.227 L 44.2034,236.039 L 42.9757,217.132 L 30.5756,196.997 L 13.1418,208.415 L 0.496155,223.516 L 0.250608,243.528 L 5.52986,258.138 L 15.72,275.326 L 25.7874,266.732 z " style="fill-opacity:0.3;fill:rgb(250,150,50);stroke:rgb(0,0,0);stroke-width:1"/></g>
<g fill-rule="evenodd"><path d="M 69.7368,258.372 L 80.7864,244.867 L 88.1528,227.679 L 86.925,208.772 L 74.5249,188.637 L 57.0912,200.055 L 44.4455,215.156 L 44.2,235.168 L 49.4792,249.778 L 59.6694,266.966 L 69.7368,258.372 z " style="fill-opacity:0.3;fill:rgb(250,150,50);stroke:rgb(0,0,0);stroke-width:1"/></g>
<g fill-rule="evenodd"><path d="M 188.464,322.487 L 199.514,308.982 L 206.88,291.793 L 205.653,272.886 L 193.252,252.751 L 175.819,264.169 L 163.173,279.271 L 162.927,299.283 L 168.207,313.893 L 178.397,331.081 L 188.464,322.487 z " style="fill-opacity:0.3;fill:rgb(250,150,50);stroke:rgb(0,0,0);stroke-width:1"/></g>
<g fill-rule="evenodd"><path d="M 232.44,335.303 L 243.49,321.798 L 250.856,304.61 L 249.628,285.703 L 237.228,265.568 L 219.795,276.986 L 207.149,292.087 L 206.903,312.099 L 212.183,326.709 L 222.373,343.897 L 232.44,335.303 z " style="fill-opacity:0.3;fill:rgb(250,150,50);stroke:rgb(0,0,0);stroke-width:1"/></g>
<g fill-rule="evenodd"><path d="M 498.355,353.001 L 509.405,339.496 L 516.771,322.307 L 515.543,303.4 L 503.143,283.266 L 485.709,294.684 L 473.064,309.785 L 472.818,329.797 L 478.097,344.407 L 488.288,361.595 L 498.355,353.001 z " style="fill-opacity:0.3;fill:rgb(250,150,50);stroke:rgb(0,0,0);stroke-width:1"/></g>
<g fill-rule="evenodd"><path d="M 236.724,711.002 L 247.774,697.497 L 255.14,680.309 L 253.913,661.402 L 241.513,641.267 L 224.079,652.685 L 211.433,667.786 L 211.188,687.798 L 216.467,702.408 L 226.657,719.596 L 236.724,711.002 z " style="fill-opacity:0.3;fill:rgb(250,150,50);stroke:rgb(0,0,0);stroke-width:1"/></g>
</svg>
