<?xml version="1.0" standalone="no"?>
<!DOCTYPE svg PUBLIC "-//W3C//DTD SVG 1.1//EN"
"http://www.w3.org/Graphics/SVG/1.1/DTD/svg11.dtd">
<svg width="100%" height="100%" version="1.1"
xmlns="http://www.w3.org/2000/svg"
xmlns:xlink="http://www.w3.org/1999/xlink">
<rect x="5.68434e-14" y="23.2641" width="800" height="753.472" style="fill-opacity:0;fill:rgb(255,255,255);stroke:rgb(0,0,0);stroke-width:1"/>
<g fill-rule="evenodd"><path d="M 186.009,645.317 L 203.431,641.256 L 219.674,636.933 L 241.157,630.645 L 255.304,626.585 L 274.822,624.096 L 275.346,582.047 L 274.691,539.998 L 255.042,537.64 L 240.895,533.58 L 219.412,527.423 L 203.169,523.362 L 185.747,519.301 L 162.43,514.586 L 145.401,534.89 L 134.005,543.011 L 116.19,551.788 L 102.042,555.193 L 80.8215,555.324 L 65.6263,553.491 L 47.2873,550.347 L 49.6452,566.59 L 51.0861,582.702 L 49.7762,598.814 L 47.4183,615.057 L 65.7573,611.782 L 80.9525,609.949 L 102.173,609.949 L 116.321,613.354 L 134.136,622 L 145.663,629.991 L 162.692,650.163 L 186.009,645.317 z " style="fill-opacity:0.3;fill:rgb(250,150,50);stroke:rgb(0,0,0);stroke-width:1"/></g>
<g fill-rule="evenodd"><path d="M 130.079,518.034 L 141.475,509.913 L 159.291,501.136 L 173.438,497.73 L 194.659,497.599 L 209.854,499.433 L 228.193,502.577 L 225.835,486.334 L 224.394,470.222 L 225.704,454.109 L 228.062,437.866 L 209.723,441.141 L 194.528,442.975 L 173.307,442.975 L 159.16,439.569 L 141.345,430.924 L 129.817,422.802 L 112.788,402.629 L 89.4713,407.476 L 72.0492,411.537 L 55.8061,415.86 L 34.3232,422.147 L 20.176,426.208 L 0.658003,428.697 L 0.00303806,470.746 L 0.788996,512.794 L 20.4379,515.152 L 34.5852,519.213 L 56.068,525.37 L 72.3112,529.561 L 89.7333,533.622 L 113.05,538.338 L 130.079,518.034 z " style="fill-opacity:0.3;fill:rgb(250,150,50);stroke:rgb(0,0,0);stroke-width:1"/></g>
<g fill-rule="evenodd"><path d="M 147.382,411.135 L 164.804,407.075 L 181.047,402.752 L 202.53,396.464 L 216.677,392.403 L 236.195,389.915 L 236.719,347.866 L 236.064,305.817 L 216.415,303.459 L 202.268,299.398 L 180.785,293.242 L 164.542,289.181 L 147.12,285.12 L 123.803,280.404 L 106.774,300.708 L 95.3774,308.83 L 77.5624,317.606 L 63.4151,321.012 L 42.1943,321.143 L 26.9991,319.309 L 8.66004,316.166 L 11.0179,332.409 L 12.4588,348.521 L 11.1489,364.633 L 8.79104,380.876 L 27.1301,377.601 L 42.3252,375.767 L 63.5461,375.767 L 77.6934,379.173 L 95.5084,387.819 L 107.036,395.809 L 124.065,415.982 L 147.382,411.135 z " style="fill-opacity:0.3;fill:rgb(250,150,50);stroke:rgb(0,0,0);stroke-width:1"/></g>
<g fill-rule="evenodd"><path d="M 65.5699,296.806 L 82.468,286.458 L 95.9603,280.956 L 109.453,278.991 L 130.804,281.087 L 146.131,284.1 L 172.329,289.995 L 177.438,267.988 L 142.201,259.997 L 112.203,253.317 L 96.6152,249.911 L 80.2411,239.431 L 75.5254,214.543 L 75.5254,193.322 L 78.4072,173.28 L 112.334,154.679 L 142.332,148.129 L 177.569,140.27 L 172.591,118.263 L 146.393,124.026 L 130.935,127.039 L 109.584,129.004 L 96.0913,127.039 L 82.73,121.407 L 66.2249,111.32 L 41.8602,100.841 L 0.859343,109.879 L 7.278,137.257 L 10.1598,156.513 L 11.0768,185.462 L 10.9458,203.801 L 10.9458,222.14 L 10.4218,241.658 L 8.98091,259.473 L 0.466364,297.854 L 40.6812,307.286 L 65.5699,296.806 z " style="fill-opacity:0.3;fill:rgb(250,150,50);stroke:rgb(0,0,0);stroke-width:1"/></g>
<g fill-rule="evenodd"><path d="M 353.506,301.765 L 347.087,274.388 L 344.205,255.132 L 343.288,226.182 L 343.419,207.843 L 343.419,189.504 L 343.943,170.117 L 345.384,152.302 L 353.899,113.921 L 313.684,104.359 L 288.795,114.838 L 271.897,125.187 L 258.405,130.688 L 244.913,132.653 L 223.561,130.557 L 208.235,127.544 L 182.036,121.65 L 176.927,143.657 L 212.164,151.647 L 242.162,158.328 L 257.619,161.734 L 273.993,172.213 L 278.709,197.102 L 278.709,218.323 L 275.827,238.365 L 241.9,256.966 L 211.902,263.515 L 176.665,271.375 L 181.643,293.382 L 207.842,287.618 L 223.299,284.605 L 244.651,282.64 L 258.143,284.605 L 271.504,290.238 L 288.14,300.324 L 312.505,310.804 L 353.506,301.765 z " style="fill-opacity:0.3;fill:rgb(250,150,50);stroke:rgb(0,0,0);stroke-width:1"/></g>
<g fill-rule="evenodd"><path d="M 369.909,678.171 L 363.49,650.793 L 360.608,631.537 L 359.691,602.588 L 359.822,584.249 L 359.822,565.91 L 360.346,546.523 L 361.787,528.708 L 370.302,490.327 L 330.087,480.765 L 305.198,491.244 L 288.3,501.592 L 274.808,507.094 L 261.316,509.059 L 239.964,506.963 L 224.638,503.95 L 198.439,498.056 L 193.33,520.062 L 228.567,528.053 L 258.565,534.734 L 274.022,538.139 L 290.396,548.619 L 295.112,573.508 L 295.112,594.728 L 292.23,614.77 L 258.303,633.371 L 228.305,639.921 L 193.068,647.781 L 198.046,669.787 L 224.245,664.024 L 239.702,661.011 L 261.054,659.046 L 274.546,661.011 L 287.907,666.644 L 304.543,676.73 L 328.908,687.21 L 369.909,678.171 z " style="fill-opacity:0.3;fill:rgb(250,150,50);stroke:rgb(0,0,0);stroke-width:1"/></g>
<g fill-rule="evenodd"><path d="M 20.8412,764.487 L 37.4773,753.876 L 51.3626,749.029 L 69.7016,743.397 L 90.0055,737.895 L 105.594,731.738 L 124.85,722.962 L 144.237,712.744 L 142.272,696.501 L 141.093,683.14 L 144.237,654.059 L 124.85,643.842 L 105.594,635.065 L 90.0055,628.909 L 69.7016,623.407 L 51.3626,617.774 L 37.4773,612.928 L 20.8412,602.317 L 0.0132932,602.186 L 3.02613,623.931 L 4.20507,645.283 L 4.72904,667.29 L 5.25301,683.402 L 4.72904,699.514 L 4.20507,721.521 L 3.02613,742.873 L 0.0132932,764.618 L 20.8412,764.487 z " style="fill-opacity:0.3;fill:rgb(250,150,50);stroke:rgb(0,0,0);stroke-width:1"/></g>
<g fill-rule="evenodd"><path d="M 789.701,252.595 L 788.522,231.243 L 787.998,209.237 L 787.474,193.124 L 787.867,177.012 L 788.391,155.006 L 789.57,133.654 L 792.583,111.909 L 771.886,112.04 L 755.25,122.65 L 741.365,127.628 L 723.025,133.261 L 702.722,138.762 L 687.133,144.919 L 667.877,153.696 L 648.49,163.913 L 650.455,180.156 L 651.634,193.386 L 648.49,222.467 L 667.877,232.684 L 687.133,241.461 L 702.722,247.618 L 723.156,253.119 L 741.496,258.752 L 755.381,263.599 L 772.017,274.209 L 792.714,274.34 L 789.701,252.595 z " style="fill-opacity:0.3;fill:rgb(250,150,50);stroke:rgb(0,0,0);stroke-width:1"/></g>
<g fill-rule="evenodd"><path d="M 791.945,536.095 L 790.766,514.743 L 790.242,492.736 L 789.718,476.624 L 790.111,460.512 L 790.635,438.505 L 791.814,417.153 L 794.827,395.409 L 774.13,395.54 L 757.494,406.15 L 743.609,411.128 L 725.27,416.76 L 704.966,422.262 L 689.378,428.419 L 670.122,437.195 L 650.735,447.413 L 652.7,463.656 L 653.879,476.886 L 650.735,505.967 L 670.122,516.184 L 689.378,524.961 L 704.966,531.117 L 725.401,536.619 L 743.74,542.252 L 757.625,547.099 L 774.261,557.709 L 794.958,557.84 L 791.945,536.095 z " style="fill-opacity:0.3;fill:rgb(250,150,50);stroke:rgb(0,0,0);stroke-width:1"/></g>
<g fill-rule="evenodd"><path d="M 276.508,500.628 L 301.266,489.1 L 317.116,480.979 L 332.966,472.333 L 348.423,465.522 L 362.047,462.509 L 376.718,463.426 L 403.44,470.106 L 401.475,451.898 L 400.166,438.144 L 401.475,424.128 L 403.44,405.92 L 376.718,412.6 L 362.047,413.517 L 348.423,410.505 L 332.966,403.693 L 317.116,395.047 L 301.266,386.926 L 276.508,375.529 L 253.322,367.801 L 236.424,371.6 L 236.424,504.427 L 253.322,508.225 L 276.508,500.628 z " style="fill-opacity:0.3;fill:rgb(250,150,50);stroke:rgb(0,0,0);stroke-width:1"/></g>
<g fill-rule="evenodd"><path d="M 443.524,516.797 L 468.282,505.269 L 484.132,497.148 L 499.982,488.502 L 515.44,481.691 L 529.063,478.678 L 543.734,479.595 L 570.457,486.275 L 568.492,468.067 L 567.182,454.313 L 568.492,440.297 L 570.457,422.089 L 543.734,428.769 L 529.063,429.686 L 515.44,426.674 L 499.982,419.862 L 484.132,411.216 L 468.282,403.095 L 443.524,391.698 L 420.339,383.97 L 403.44,387.769 L 403.44,520.596 L 420.339,524.394 L 443.524,516.797 z " style="fill-opacity:0.3;fill:rgb(250,150,50);stroke:rgb(0,0,0);stroke-width:1"/></g>
<g fill-rule="evenodd"><path d="M 410.641,674.821 L 435.399,663.294 L 451.249,655.172 L 467.099,646.527 L 482.556,639.715 L 496.18,636.702 L 510.851,637.619 L 537.574,644.3 L 535.609,626.092 L 534.299,612.338 L 535.609,598.321 L 537.574,580.113 L 510.851,586.794 L 496.18,587.711 L 482.556,584.698 L 467.099,577.886 L 451.249,569.241 L 435.399,561.119 L 410.641,549.723 L 387.456,541.994 L 370.557,545.793 L 370.557,678.62 L 387.456,682.419 L 410.641,674.821 z " style="fill-opacity:0.3;fill:rgb(250,150,50);stroke:rgb(0,0,0);stroke-width:1"/></g>
<g fill-rule="evenodd"><path d="M 666.345,613.419 L 690.055,608.179 L 710.752,583.421 L 733.021,577.788 L 752.015,573.335 L 780.964,567.44 L 795.635,560.628 L 759.743,557.354 L 743.369,555.258 L 718.088,549.625 L 700.011,542.027 L 673.026,526.439 L 655.473,530.5 L 627.571,536.526 L 604.648,544.123 L 589.714,551.328 L 573.078,560.366 L 543.998,573.99 L 542.688,590.626 L 541.64,606.869 L 566.922,610.668 L 586.309,613.55 L 600.98,615.383 L 621.415,616.824 L 643.291,616.824 L 666.345,613.419 z " style="fill-opacity:0.3;fill:rgb(250,150,50);stroke:rgb(0,0,0);stroke-width:1"/></g>
<g fill-rule="evenodd"><path d="M 322.539,772.675 L 350.441,766.649 L 373.364,759.052 L 388.298,751.978 L 404.934,742.94 L 434.014,729.316 L 435.324,712.68 L 436.372,696.437 L 411.09,692.507 L 391.703,689.626 L 377.032,687.792 L 356.597,686.351 L 334.721,686.351 L 311.667,689.757 L 287.957,694.996 L 267.129,719.754 L 244.991,725.387 L 225.866,729.84 L 197.048,735.735 L 182.377,742.547 L 218.269,745.822 L 234.512,747.917 L 259.793,753.55 L 277.87,761.148 L 304.986,776.736 L 322.539,772.675 z " style="fill-opacity:0.3;fill:rgb(250,150,50);stroke:rgb(0,0,0);stroke-width:1"/></g>
<g fill-rule="evenodd"><path d="M 524.238,571.814 L 552.139,565.788 L 575.063,558.191 L 589.996,551.117 L 606.632,542.079 L 635.713,528.455 L 637.023,511.819 L 638.071,495.576 L 612.789,491.646 L 593.402,488.764 L 578.731,486.931 L 558.296,485.49 L 536.42,485.49 L 513.365,488.895 L 489.656,494.135 L 468.828,518.893 L 446.69,524.526 L 427.565,528.979 L 398.747,534.874 L 384.075,541.686 L 419.967,544.96 L 436.211,547.056 L 461.492,552.689 L 479.569,560.287 L 506.685,575.875 L 524.238,571.814 z " style="fill-opacity:0.3;fill:rgb(250,150,50);stroke:rgb(0,0,0);stroke-width:1"/></g>
<g fill-rule="evenodd"><path d="M 441.807,349.773 L 469.708,343.747 L 492.632,336.15 L 507.565,329.076 L 524.201,320.038 L 553.282,306.414 L 554.592,289.778 L 555.64,273.535 L 530.358,269.605 L 510.971,266.724 L 496.3,264.89 L 475.865,263.449 L 453.989,263.449 L 430.934,266.855 L 407.225,272.094 L 386.397,296.852 L 364.259,302.485 L 345.134,306.938 L 316.316,312.833 L 301.644,319.645 L 337.536,322.92 L 353.78,325.015 L 379.061,330.648 L 397.138,338.246 L 424.254,353.834 L 441.807,349.773 z " style="fill-opacity:0.3;fill:rgb(250,150,50);stroke:rgb(0,0,0);stroke-width:1"/></g>
<g fill-rule="evenodd"><path d="M 522.028,109.831 L 549.93,103.805 L 572.854,96.2077 L 587.787,89.1341 L 604.423,80.0956 L 633.503,66.4723 L 634.813,49.8362 L 635.861,33.593 L 610.58,29.6633 L 591.193,26.7814 L 576.521,24.9475 L 556.086,23.5066 L 534.211,23.5066 L 511.156,26.9124 L 487.446,32.1521 L 466.618,56.9098 L 444.48,62.5425 L 425.355,66.9963 L 396.537,72.8909 L 381.866,79.7026 L 417.758,82.9774 L 434.001,85.0733 L 459.283,90.706 L 477.36,98.3036 L 504.475,113.892 L 522.028,109.831 z " style="fill-opacity:0.3;fill:rgb(250,150,50);stroke:rgb(0,0,0);stroke-width:1"/></g>
<g fill-rule="evenodd"><path d="M 532.116,411.508 L 560.017,405.483 L 582.941,397.885 L 597.874,390.811 L 614.51,381.773 L 643.591,368.15 L 644.901,351.513 L 645.949,335.27 L 620.667,331.341 L 601.28,328.459 L 586.609,326.625 L 566.174,325.184 L 544.298,325.184 L 521.243,328.59 L 497.534,333.829 L 476.706,358.587 L 454.568,364.22 L 435.443,368.674 L 406.624,374.568 L 391.953,381.38 L 427.845,384.655 L 444.088,386.751 L 469.37,392.383 L 487.447,399.981 L 514.563,415.569 L 532.116,411.508 z " style="fill-opacity:0.3;fill:rgb(250,150,50);stroke:rgb(0,0,0);stroke-width:1"/></g>
<g fill-rule="evenodd"><path d="M 781.312,774.572 L 779.085,748.636 L 778.299,733.44 L 778.561,707.504 L 779.871,688.117 L 782.753,665.848 L 796.638,623.144 L 778.823,646.461 L 761.139,653.535 L 732.714,653.535 L 737.036,672.136 L 742.8,688.641 L 744.372,704.36 L 624.513,711.041 L 624.775,731.868 L 737.822,733.047 L 754.851,738.68 L 760.091,758.329 L 765.593,776.668 L 781.312,774.572 z " style="fill-opacity:0.3;fill:rgb(250,150,50);stroke:rgb(0,0,0);stroke-width:1"/></g>
<g fill-rule="evenodd"><path d="M 637.663,153.491 L 655.348,146.418 L 683.773,146.418 L 679.45,127.817 L 673.687,111.311 L 672.115,95.5923 L 791.973,88.9117 L 791.58,68.0838 L 678.664,66.9049 L 661.635,61.2722 L 656.395,41.6232 L 650.894,23.2842 L 635.175,25.3801 L 637.401,51.3167 L 638.187,66.5119 L 637.925,92.5795 L 636.616,111.966 L 633.734,134.235 L 619.848,176.808 L 637.663,153.491 z " style="fill-opacity:0.3;fill:rgb(250,150,50);stroke:rgb(0,0,0);stroke-width:1"/></g>
<g fill-rule="evenodd"><path d="M 406.838,270.395 L 424.523,263.322 L 452.948,263.322 L 448.625,244.721 L 442.862,228.216 L 441.29,212.496 L 561.148,205.816 L 560.755,184.988 L 447.839,183.809 L 430.81,178.176 L 425.57,158.527 L 420.069,140.188 L 404.35,142.284 L 406.576,168.221 L 407.362,183.416 L 407.1,209.484 L 405.791,228.871 L 402.909,251.139 L 389.023,293.712 L 406.838,270.395 z " style="fill-opacity:0.3;fill:rgb(250,150,50);stroke:rgb(0,0,0);stroke-width:1"/></g>
<g fill-rule="evenodd"><path d="M 361.16,199.45 L 378.844,192.377 L 407.27,192.377 L 402.947,173.776 L 397.183,157.271 L 395.611,141.551 L 515.47,134.871 L 515.077,114.043 L 402.161,112.864 L 385.132,107.231 L 379.892,87.5823 L 374.39,69.2433 L 358.671,71.3392 L 360.898,97.2758 L 361.684,112.471 L 361.422,138.539 L 360.112,157.926 L 357.23,180.194 L 343.345,222.767 L 361.16,199.45 z " style="fill-opacity:0.3;fill:rgb(250,150,50);stroke:rgb(0,0,0);stroke-width:1"/></g>
<g fill-rule="evenodd"><path d="M 633.102,300.624 L 630.875,274.687 L 630.089,259.492 L 630.351,233.555 L 631.661,214.168 L 634.543,191.9 L 648.428,149.196 L 630.613,172.513 L 612.929,179.586 L 584.504,179.586 L 588.826,198.187 L 594.59,214.692 L 596.162,230.412 L 476.303,237.092 L 476.565,257.92 L 589.612,259.099 L 606.642,264.732 L 611.881,284.381 L 617.383,302.72 L 633.102,300.624 z " style="fill-opacity:0.3;fill:rgb(250,150,50);stroke:rgb(0,0,0);stroke-width:1"/></g>
<g fill-rule="evenodd"><path d="M 555.47,753.088 L 573.154,746.014 L 601.58,746.014 L 597.257,727.413 L 591.493,710.908 L 589.921,695.189 L 709.78,688.508 L 709.387,667.681 L 596.471,666.502 L 579.442,660.869 L 574.202,641.22 L 568.7,622.881 L 552.981,624.977 L 555.208,650.913 L 555.994,666.109 L 555.732,692.176 L 554.422,711.563 L 551.54,733.832 L 537.655,776.405 L 555.47,753.088 z " style="fill-opacity:0.3;fill:rgb(250,150,50);stroke:rgb(0,0,0);stroke-width:1"/></g>
<g fill-rule="evenodd"><path d="M 645.623,442.733 L 658.984,427.669 L 671.035,413.784 L 689.636,404.876 L 761.289,403.697 L 760.634,382.738 L 683.611,380.511 L 670.904,367.543 L 647.456,361.125 L 636.191,383.262 L 630.558,395.838 L 623.485,412.998 L 617.459,428.979 L 611.04,448.497 L 635.274,454.523 L 645.623,442.733 z " style="fill-opacity:0.3;fill:rgb(250,150,50);stroke:rgb(0,0,0);stroke-width:1"/></g>
<g fill-rule="evenodd"><path d="M 770.746,359.785 L 776.51,347.21 L 783.584,330.049 L 789.609,314.068 L 796.028,294.681 L 771.794,288.525 L 761.315,300.314 L 747.954,315.378 L 735.902,329.264 L 717.301,338.171 L 645.779,339.35 L 646.303,360.309 L 723.327,362.536 L 736.033,375.504 L 759.481,381.923 L 770.746,359.785 z " style="fill-opacity:0.3;fill:rgb(250,150,50);stroke:rgb(0,0,0);stroke-width:1"/></g>
<g fill-rule="evenodd"><path d="M 109.667,109.428 L 123.029,94.3636 L 135.08,80.4784 L 153.681,71.5708 L 225.334,70.3919 L 224.679,49.433 L 147.655,47.2061 L 134.949,34.2378 L 111.501,27.8192 L 100.236,49.957 L 94.6033,62.5323 L 87.5297,79.6924 L 81.504,95.6736 L 75.0853,115.192 L 99.319,121.217 L 109.667,109.428 z " style="fill-opacity:0.3;fill:rgb(250,150,50);stroke:rgb(0,0,0);stroke-width:1"/></g>
<g fill-rule="evenodd"><path d="M 167.487,739.594 L 180.849,724.53 L 192.9,710.645 L 211.501,701.737 L 283.154,700.558 L 282.499,679.599 L 205.475,677.372 L 192.769,664.404 L 169.321,657.985 L 158.056,680.123 L 152.423,692.699 L 145.349,709.859 L 139.324,725.84 L 132.905,745.358 L 157.139,751.383 L 167.487,739.594 z " style="fill-opacity:0.3;fill:rgb(250,150,50);stroke:rgb(0,0,0);stroke-width:1"/></g>
<g fill-rule="evenodd"><path d="M 582.129,162.6 L 587.893,150.024 L 594.966,132.864 L 600.992,116.883 L 607.411,97.4962 L 583.177,91.3395 L 572.697,103.129 L 559.336,118.193 L 547.285,132.078 L 528.684,140.986 L 457.162,142.165 L 457.686,163.124 L 534.709,165.351 L 547.416,178.319 L 570.864,184.738 L 582.129,162.6 z " style="fill-opacity:0.3;fill:rgb(250,150,50);stroke:rgb(0,0,0);stroke-width:1"/></g>
<g fill-rule="evenodd"><path d="M 732.807,648.87 L 738.571,636.295 L 745.644,619.135 L 751.67,603.153 L 758.089,583.766 L 733.855,577.61 L 723.375,589.399 L 710.014,604.463 L 697.963,618.349 L 679.362,627.256 L 607.84,628.435 L 608.364,649.394 L 685.387,651.621 L 698.094,664.589 L 721.542,671.008 L 732.807,648.87 z " style="fill-opacity:0.3;fill:rgb(250,150,50);stroke:rgb(0,0,0);stroke-width:1"/></g>
<g fill-rule="evenodd"><path d="M 331.576,77.8215 L 342.317,57.6486 L 325.026,55.0287 L 311.927,52.2779 L 294.636,47.8241 L 261.757,38.7856 L 241.453,33.4149 L 226.127,31.974 L 227.174,51.3609 L 229.532,71.1409 L 235.034,92.4927 L 249.574,90.7898 L 263.853,90.3968 L 278.655,92.6237 L 297.911,97.0775 L 326.205,103.365 L 331.576,77.8215 z " style="fill-opacity:0.3;fill:rgb(250,150,50);stroke:rgb(0,0,0);stroke-width:1"/></g>
<g fill-rule="evenodd"><path d="M 735.792,280.7 L 746.534,260.527 L 729.243,257.908 L 716.144,255.157 L 698.852,250.703 L 665.973,241.664 L 645.669,236.294 L 630.343,234.853 L 631.391,254.24 L 633.749,274.02 L 639.251,295.372 L 653.791,293.669 L 668.069,293.276 L 682.871,295.503 L 702.127,299.956 L 730.422,306.244 L 735.792,280.7 z " style="fill-opacity:0.3;fill:rgb(250,150,50);stroke:rgb(0,0,0);stroke-width:1"/></g>
<g fill-rule="evenodd"><path d="M 207.531,235.231 L 218.272,215.058 L 200.981,212.438 L 187.882,209.687 L 170.591,205.234 L 137.712,196.195 L 117.408,190.824 L 102.081,189.383 L 103.129,208.77 L 105.487,228.55 L 110.989,249.902 L 125.529,248.199 L 139.807,247.806 L 154.61,250.033 L 173.866,254.487 L 202.16,260.775 L 207.531,235.231 z " style="fill-opacity:0.3;fill:rgb(250,150,50);stroke:rgb(0,0,0);stroke-width:1"/></g>
<g fill-rule="evenodd"><path d="M 263.733,205.228 L 261.375,185.449 L 255.874,164.097 L 241.333,165.8 L 227.055,166.324 L 212.253,164.097 L 192.997,159.643 L 164.703,153.224 L 159.332,178.899 L 148.59,199.072 L 165.881,201.692 L 178.981,204.442 L 196.272,208.896 L 229.151,217.935 L 249.455,223.174 L 264.781,224.615 L 263.733,205.228 z " style="fill-opacity:0.3;fill:rgb(250,150,50);stroke:rgb(0,0,0);stroke-width:1"/></g>
<g fill-rule="evenodd"><path d="M 541.45,748.135 L 552.191,727.962 L 534.9,725.342 L 521.801,722.591 L 504.51,718.137 L 471.631,709.099 L 451.327,703.728 L 436.001,702.287 L 437.048,721.674 L 439.406,741.454 L 444.908,762.806 L 459.448,761.103 L 473.727,760.71 L 488.529,762.937 L 507.785,767.391 L 536.079,773.678 L 541.45,748.135 z " style="fill-opacity:0.3;fill:rgb(250,150,50);stroke:rgb(0,0,0);stroke-width:1"/></g>
<g fill-rule="evenodd"><path d="M 551.273,707.059 L 548.915,687.279 L 543.413,665.927 L 528.873,667.63 L 514.595,668.154 L 499.793,665.927 L 480.537,661.474 L 452.242,655.055 L 446.872,680.73 L 436.13,700.902 L 453.421,703.522 L 466.52,706.273 L 483.812,710.727 L 516.691,719.765 L 536.995,725.005 L 552.321,726.446 L 551.273,707.059 z " style="fill-opacity:0.3;fill:rgb(250,150,50);stroke:rgb(0,0,0);stroke-width:1"/></g>
<g fill-rule="evenodd"><path d="M 399.787,59.7627 L 438.823,58.1908 L 466.724,56.3569 L 465.676,33.8261 L 426.247,34.743 L 403.324,34.874 L 386.032,34.612 L 372.671,33.9571 L 351.974,31.0752 L 331.67,24.0016 L 289.753,41.8167 L 308.354,49.0213 L 329.443,55.5709 L 347.651,58.4528 L 363.895,59.7627 L 379.221,60.1557 L 399.787,59.7627 z " style="fill-opacity:0.3;fill:rgb(250,150,50);stroke:rgb(0,0,0);stroke-width:1"/></g>
<g fill-rule="evenodd"><path d="M 153.334,776.286 L 192.37,774.714 L 220.271,772.88 L 219.223,750.349 L 179.794,751.266 L 156.87,751.397 L 139.579,751.135 L 126.218,750.48 L 105.521,747.598 L 85.2172,740.525 L 43.2995,758.34 L 61.9005,765.545 L 82.9903,772.094 L 101.198,774.976 L 117.442,776.286 L 132.768,776.679 L 153.334,776.286 z " style="fill-opacity:0.3;fill:rgb(250,150,50);stroke:rgb(0,0,0);stroke-width:1"/></g>
<g fill-rule="evenodd"><path d="M 349.271,375.231 L 388.307,373.659 L 416.208,371.825 L 415.16,349.294 L 375.731,350.211 L 352.807,350.342 L 335.516,350.08 L 322.155,349.425 L 301.458,346.543 L 281.154,339.47 L 239.237,357.285 L 257.838,364.489 L 278.927,371.039 L 297.135,373.921 L 313.379,375.231 L 328.705,375.624 L 349.271,375.231 z " style="fill-opacity:0.3;fill:rgb(250,150,50);stroke:rgb(0,0,0);stroke-width:1"/></g>
<g fill-rule="evenodd"><path d="M 299.451,109.655 L 280.85,102.581 L 259.76,95.9003 L 241.552,93.0184 L 225.309,91.7085 L 209.983,91.3155 L 189.417,91.7085 L 150.381,93.2804 L 122.48,95.1143 L 123.528,117.645 L 162.957,116.859 L 185.88,116.728 L 203.171,116.99 L 216.533,117.645 L 237.23,120.527 L 257.533,127.601 L 299.451,109.655 z " style="fill-opacity:0.3;fill:rgb(250,150,50);stroke:rgb(0,0,0);stroke-width:1"/></g>
<g fill-rule="evenodd"><path d="M 687.313,775.452 L 726.349,773.88 L 754.251,772.047 L 753.203,749.516 L 713.774,750.433 L 690.85,750.564 L 673.559,750.302 L 660.198,749.647 L 639.501,746.765 L 619.197,739.691 L 577.279,757.506 L 595.88,764.711 L 616.97,771.261 L 635.178,774.142 L 651.421,775.452 L 666.747,775.845 L 687.313,775.452 z " style="fill-opacity:0.3;fill:rgb(250,150,50);stroke:rgb(0,0,0);stroke-width:1"/></g>
<g fill-rule="evenodd"><path d="M 652.409,329.642 L 691.445,328.07 L 719.346,326.236 L 718.299,303.705 L 678.87,304.622 L 655.946,304.753 L 638.655,304.491 L 625.293,303.836 L 604.597,300.954 L 584.293,293.881 L 542.375,311.696 L 560.976,318.9 L 582.066,325.45 L 600.274,328.332 L 616.517,329.642 L 631.843,330.035 L 652.409,329.642 z " style="fill-opacity:0.3;fill:rgb(250,150,50);stroke:rgb(0,0,0);stroke-width:1"/></g>
<g fill-rule="evenodd"><path d="M 33.147,94.6771 L 46.6392,78.565 L 46.9012,57.2131 L 41.2685,41.6249 L 30.3961,23.2859 L 19.6547,32.4554 L 7.86531,46.8646 L 0.00573125,65.2037 L 1.31566,85.3766 L 14.546,106.859 L 33.147,94.6771 z " style="fill-opacity:0.3;fill:rgb(250,150,50);stroke:rgb(0,0,0);stroke-width:1"/></g>
<g fill-rule="evenodd"><path d="M 73.9548,97.7045 L 85.7442,83.2953 L 93.6038,64.9563 L 92.2938,44.7833 L 79.0636,23.3005 L 60.4625,35.4828 L 46.9703,51.595 L 46.7083,72.9468 L 52.341,88.535 L 63.2134,106.874 L 73.9548,97.7045 z " style="fill-opacity:0.3;fill:rgb(250,150,50);stroke:rgb(0,0,0);stroke-width:1"/></g>
<g fill-rule="evenodd"><path d="M 597.509,462.642 L 609.299,448.232 L 617.158,429.893 L 615.848,409.72 L 602.618,388.237 L 584.017,400.42 L 570.525,416.532 L 570.263,437.884 L 575.896,453.472 L 586.768,471.811 L 597.509,462.642 z " style="fill-opacity:0.3;fill:rgb(250,150,50);stroke:rgb(0,0,0);stroke-width:1"/></g>
<g fill-rule="evenodd"><path d="M 376.464,279.359 L 388.253,264.95 L 396.113,246.611 L 394.803,226.438 L 381.573,204.955 L 362.972,217.137 L 349.479,233.249 L 349.217,254.601 L 354.85,270.189 L 365.722,288.528 L 376.464,279.359 z " style="fill-opacity:0.3;fill:rgb(250,150,50);stroke:rgb(0,0,0);stroke-width:1"/></g>
<g fill-rule="evenodd"><path d="M 27.2804,593.092 L 39.0698,578.683 L 46.9294,560.344 L 45.6194,540.171 L 32.3891,518.688 L 13.7881,530.87 L 0.295839,546.982 L 0.0338534,568.334 L 5.66655,583.922 L 16.539,602.261 L 27.2804,593.092 z " style="fill-opacity:0.3;fill:rgb(250,150,50);stroke:rgb(0,0,0);stroke-width:1"/></g>
<g fill-rule="evenodd"><path d="M 782.415,639.989 L 795.907,623.877 L 796.169,602.525 L 790.537,586.937 L 779.664,568.598 L 768.923,577.767 L 757.133,592.176 L 749.274,610.515 L 750.584,630.688 L 763.814,652.171 L 782.415,639.989 z " style="fill-opacity:0.3;fill:rgb(250,150,50);stroke:rgb(0,0,0);stroke-width:1"/></g>
</svg>
