<?xml version="1.0" standalone="no"?>
<!DOCTYPE svg PUBLIC "-//W3C//DTD SVG 1.1//EN"
"http://www.w3.org/Graphics/SVG/1.1/DTD/svg11.dtd">
<svg width="100%" height="100%" version="1.1"
xmlns="http://www.w3.org/2000/svg"
xmlns:xlink="http://www.w3.org/1999/xlink">
<rect x="0" y="28.1345" width="800" height="743.731" style="fill-opacity:0;fill:rgb(255,255,255);stroke:rgb(0,0,0);stroke-width:1"/>
<g fill-rule="evenodd"><path d="M 220.857,480.452 L 232.106,472.436 L 249.69,463.773 L 263.655,460.411 L 284.601,460.282 L 299.6,462.092 L 317.702,465.195 L 315.374,449.162 L 313.952,433.258 L 315.245,417.354 L 317.573,401.321 L 299.471,404.553 L 284.472,406.364 L 263.525,406.364 L 249.561,403.002 L 231.976,394.468 L 220.598,386.452 L 203.789,366.539 L 180.774,371.323 L 163.577,375.332 L 147.544,379.599 L 126.339,385.805 L 112.374,389.813 L 93.1086,392.27 L 92.4621,433.775 L 93.2379,475.28 L 112.633,477.608 L 147.802,487.693 L 163.835,491.831 L 181.032,495.839 L 204.048,500.494 L 220.857,480.452 z " style="fill-opacity:0.3;fill:rgb(250,150,50);stroke:rgb(0,0,0);stroke-width:1"/></g>
<g fill-rule="evenodd"><path d="M 153.613,623.095 L 164.862,615.078 L 182.446,606.415 L 196.411,603.054 L 217.357,602.924 L 232.356,604.734 L 250.458,607.838 L 248.131,591.805 L 246.708,575.901 L 248.001,559.997 L 250.329,543.964 L 232.227,547.196 L 217.228,549.006 L 196.282,549.006 L 182.317,545.645 L 164.732,537.111 L 153.354,529.094 L 136.545,509.182 L 113.53,513.966 L 96.333,517.974 L 80.2998,522.241 L 59.0947,528.448 L 45.1304,532.456 L 25.8647,534.913 L 25.2182,576.418 L 25.994,617.923 L 45.389,620.25 L 80.5584,630.336 L 96.5916,634.473 L 113.788,638.482 L 136.804,643.136 L 153.613,623.095 z " style="fill-opacity:0.3;fill:rgb(250,150,50);stroke:rgb(0,0,0);stroke-width:1"/></g>
<g fill-rule="evenodd"><path d="M 128.403,751.823 L 139.653,743.806 L 157.237,735.143 L 171.202,731.782 L 192.148,731.652 L 207.147,733.462 L 225.249,736.566 L 222.921,720.532 L 221.499,704.629 L 222.792,688.725 L 225.12,672.692 L 207.018,675.924 L 192.019,677.734 L 171.072,677.734 L 157.108,674.373 L 139.523,665.839 L 128.145,657.822 L 111.336,637.91 L 88.3206,642.694 L 71.1238,646.702 L 55.0906,650.969 L 33.8855,657.176 L 19.9212,661.184 L 0.655525,663.641 L 0.00902691,705.146 L 0.784824,746.651 L 20.1798,748.978 L 55.3492,759.064 L 71.3824,763.201 L 88.5792,767.21 L 111.595,771.864 L 128.403,751.823 z " style="fill-opacity:0.3;fill:rgb(250,150,50);stroke:rgb(0,0,0);stroke-width:1"/></g>
<g fill-rule="evenodd"><path d="M 177.015,341.529 L 170.68,314.506 L 167.835,295.499 L 166.93,266.923 L 167.059,248.821 L 167.059,230.719 L 167.577,211.583 L 168.999,193.998 L 177.403,156.114 L 137.708,146.675 L 113.141,157.019 L 96.4618,167.233 L 83.144,172.664 L 69.8261,174.603 L 48.7503,172.535 L 33.6222,169.561 L 7.76233,163.742 L 2.71965,185.465 L 37.5012,193.352 L 67.1108,199.946 L 82.3682,203.308 L 98.5306,213.652 L 103.185,238.219 L 103.185,259.165 L 100.341,278.948 L 66.8522,297.309 L 37.2426,303.774 L 2.46105,311.532 L 7.37443,333.254 L 33.2343,327.565 L 48.4917,324.591 L 69.5675,322.651 L 82.8854,324.591 L 96.0739,330.151 L 112.495,340.107 L 136.545,350.451 L 177.015,341.529 z " style="fill-opacity:0.3;fill:rgb(250,150,50);stroke:rgb(0,0,0);stroke-width:1"/></g>
<g fill-rule="evenodd"><path d="M 798.215,410.606 L 791.879,383.582 L 789.035,364.575 L 788.129,336 L 788.259,317.898 L 788.259,299.796 L 788.776,280.66 L 790.198,263.075 L 798.603,225.19 L 758.908,215.752 L 734.341,226.096 L 717.661,236.31 L 704.343,241.741 L 691.025,243.68 L 669.95,241.611 L 654.822,238.638 L 628.962,232.819 L 623.919,254.541 L 658.701,262.429 L 688.31,269.023 L 703.568,272.385 L 719.73,282.729 L 724.385,307.296 L 724.385,328.242 L 721.54,348.025 L 688.052,366.385 L 658.442,372.85 L 623.66,380.608 L 628.574,402.331 L 654.434,396.642 L 669.691,393.668 L 690.767,391.728 L 704.085,393.668 L 717.273,399.228 L 733.694,409.184 L 757.744,419.528 L 798.215,410.606 z " style="fill-opacity:0.3;fill:rgb(250,150,50);stroke:rgb(0,0,0);stroke-width:1"/></g>
<g fill-rule="evenodd"><path d="M 64.2619,522.805 L 80.9415,512.59 L 94.2594,507.16 L 107.577,505.22 L 128.653,507.289 L 143.781,510.263 L 169.641,516.082 L 174.684,494.359 L 139.902,486.472 L 110.293,479.878 L 94.9059,476.516 L 78.7434,466.172 L 74.0887,441.605 L 74.0887,420.658 L 76.9332,400.876 L 110.422,382.515 L 140.031,376.05 L 174.813,368.292 L 169.9,346.57 L 144.04,352.259 L 128.782,355.233 L 107.707,357.172 L 94.3887,355.233 L 81.2001,349.673 L 64.9084,339.717 L 40.8587,329.373 L 0.387921,338.295 L 6.7236,365.318 L 9.56819,384.325 L 10.4733,412.901 L 10.344,431.002 L 10.344,449.104 L 9.82679,468.37 L 8.40449,485.955 L 2.26341e-05,523.839 L 39.695,533.149 L 64.2619,522.805 z " style="fill-opacity:0.3;fill:rgb(250,150,50);stroke:rgb(0,0,0);stroke-width:1"/></g>
<g fill-rule="evenodd"><path d="M 403.732,473.807 L 420.153,463.333 L 433.858,458.549 L 451.96,452.989 L 472.002,447.559 L 487.388,441.482 L 506.395,432.819 L 525.532,422.733 L 523.592,406.7 L 522.428,393.512 L 525.532,364.807 L 506.395,354.722 L 487.388,346.059 L 472.002,339.982 L 451.96,334.551 L 433.858,328.991 L 420.153,324.207 L 403.732,313.734 L 383.173,313.604 L 386.147,335.068 L 387.31,356.144 L 387.828,377.866 L 388.345,393.77 L 387.828,409.674 L 387.31,431.396 L 386.147,452.472 L 383.173,473.936 L 403.732,473.807 z " style="fill-opacity:0.3;fill:rgb(250,150,50);stroke:rgb(0,0,0);stroke-width:1"/></g>
<g fill-rule="evenodd"><path d="M 194.201,199.167 L 210.622,188.694 L 224.328,183.91 L 242.43,178.35 L 262.471,172.92 L 277.858,166.843 L 296.865,158.18 L 316.001,148.094 L 314.062,132.061 L 312.898,118.872 L 316.001,90.168 L 296.865,80.0826 L 277.858,71.4196 L 262.471,65.3425 L 242.43,59.9119 L 224.328,54.352 L 210.622,49.5679 L 194.201,39.0947 L 173.642,38.9654 L 176.616,60.4291 L 177.78,81.5049 L 178.297,103.227 L 178.814,119.131 L 178.297,135.035 L 177.78,156.757 L 176.616,177.833 L 173.642,199.297 L 194.201,199.167 z " style="fill-opacity:0.3;fill:rgb(250,150,50);stroke:rgb(0,0,0);stroke-width:1"/></g>
<g fill-rule="evenodd"><path d="M 384.546,401.151 L 383.382,380.075 L 382.865,358.353 L 382.348,342.449 L 382.735,326.545 L 383.253,304.823 L 384.416,283.747 L 387.39,262.283 L 366.961,262.412 L 350.54,272.886 L 336.834,277.799 L 318.732,283.359 L 298.691,288.789 L 283.304,294.867 L 264.297,303.53 L 245.161,313.615 L 247.1,329.648 L 248.264,342.707 L 245.161,371.412 L 264.297,381.497 L 283.304,390.16 L 298.691,396.237 L 318.861,401.668 L 336.963,407.228 L 350.669,412.012 L 367.09,422.485 L 387.52,422.614 L 384.546,401.151 z " style="fill-opacity:0.3;fill:rgb(250,150,50);stroke:rgb(0,0,0);stroke-width:1"/></g>
<g fill-rule="evenodd"><path d="M 45.7956,159.249 L 70.2332,147.871 L 85.8784,139.854 L 101.524,131.32 L 116.781,124.597 L 130.228,121.623 L 144.71,122.528 L 171.087,129.122 L 169.147,111.15 L 167.854,97.5731 L 169.147,83.7381 L 171.087,65.7654 L 144.71,72.3597 L 130.228,73.2648 L 116.781,70.2909 L 101.524,63.5673 L 85.8784,55.0336 L 70.2332,47.017 L 45.7956,35.7679 L 22.9096,28.1393 L 6.22993,31.889 L 6.22993,162.999 L 22.9096,166.748 L 45.7956,159.249 z " style="fill-opacity:0.3;fill:rgb(250,150,50);stroke:rgb(0,0,0);stroke-width:1"/></g>
<g fill-rule="evenodd"><path d="M 337.818,711.597 L 337.818,580.487 L 321.138,576.737 L 298.252,584.237 L 273.815,595.615 L 258.169,603.631 L 242.524,612.165 L 227.267,618.889 L 213.82,621.863 L 199.338,620.958 L 172.961,614.363 L 174.901,632.336 L 176.194,645.912 L 174.901,659.747 L 172.961,677.72 L 199.338,671.126 L 213.949,670.221 L 227.396,673.195 L 242.653,679.918 L 258.299,688.452 L 273.944,696.469 L 298.252,707.718 L 321.138,715.346 L 337.818,711.597 z " style="fill-opacity:0.3;fill:rgb(250,150,50);stroke:rgb(0,0,0);stroke-width:1"/></g>
<g fill-rule="evenodd"><path d="M 479.458,162.994 L 479.458,31.8845 L 462.778,28.1348 L 439.892,35.6341 L 415.455,47.0125 L 399.809,55.0291 L 384.164,63.5628 L 368.907,70.2864 L 355.46,73.2603 L 340.978,72.3552 L 314.601,65.7609 L 316.54,83.7336 L 317.833,97.31 L 316.54,111.145 L 314.601,129.118 L 340.978,122.523 L 355.589,121.618 L 369.036,124.592 L 384.293,131.316 L 399.939,139.85 L 415.584,147.866 L 439.892,159.115 L 462.778,166.744 L 479.458,162.994 z " style="fill-opacity:0.3;fill:rgb(250,150,50);stroke:rgb(0,0,0);stroke-width:1"/></g>
<g fill-rule="evenodd"><path d="M 487.746,529.217 L 515.287,523.269 L 537.915,515.769 L 552.655,508.787 L 569.076,499.866 L 597.78,486.418 L 599.073,469.997 L 600.108,453.964 L 575.153,450.085 L 556.017,447.241 L 541.535,445.43 L 521.364,444.008 L 499.771,444.008 L 477.015,447.37 L 453.611,452.542 L 433.053,476.98 L 411.201,482.539 L 392.323,486.936 L 363.878,492.754 L 349.396,499.478 L 384.824,502.71 L 400.857,504.779 L 425.812,510.339 L 443.655,517.838 L 470.42,533.225 L 487.746,529.217 z " style="fill-opacity:0.3;fill:rgb(250,150,50);stroke:rgb(0,0,0);stroke-width:1"/></g>
<g fill-rule="evenodd"><path d="M 458.423,282.532 L 485.964,276.584 L 508.592,269.084 L 523.332,262.102 L 539.753,253.181 L 568.457,239.733 L 569.75,223.312 L 570.785,207.279 L 545.83,203.4 L 526.694,200.556 L 512.212,198.745 L 492.041,197.323 L 470.448,197.323 L 447.692,200.685 L 424.288,205.857 L 403.73,230.295 L 381.878,235.854 L 363,240.251 L 334.554,246.069 L 320.073,252.793 L 355.501,256.025 L 371.534,258.094 L 396.489,263.654 L 414.332,271.153 L 441.097,286.54 L 458.423,282.532 z " style="fill-opacity:0.3;fill:rgb(250,150,50);stroke:rgb(0,0,0);stroke-width:1"/></g>
<g fill-rule="evenodd"><path d="M 389.215,767.854 L 416.756,761.906 L 439.383,754.407 L 454.123,747.425 L 470.545,738.503 L 499.249,725.056 L 500.542,708.635 L 501.576,692.602 L 476.622,688.723 L 457.485,685.878 L 443.004,684.068 L 422.833,682.646 L 401.24,682.646 L 378.483,686.008 L 355.08,691.18 L 334.521,715.617 L 312.67,721.177 L 293.792,725.573 L 265.346,731.392 L 250.865,738.115 L 286.293,741.348 L 302.326,743.417 L 327.281,748.976 L 345.124,756.476 L 371.889,771.862 L 389.215,767.854 z " style="fill-opacity:0.3;fill:rgb(250,150,50);stroke:rgb(0,0,0);stroke-width:1"/></g>
<g fill-rule="evenodd"><path d="M 687.637,233.659 L 715.178,227.712 L 737.805,220.212 L 752.545,213.23 L 768.966,204.308 L 797.671,190.861 L 798.964,174.44 L 799.998,158.407 L 775.043,154.528 L 755.907,151.683 L 741.425,149.873 L 721.255,148.451 L 699.662,148.451 L 676.905,151.813 L 653.502,156.985 L 632.943,181.422 L 611.091,186.982 L 592.214,191.378 L 563.768,197.197 L 549.286,203.92 L 584.714,207.153 L 600.747,209.222 L 625.702,214.782 L 643.546,222.281 L 670.311,237.668 L 687.637,233.659 z " style="fill-opacity:0.3;fill:rgb(250,150,50);stroke:rgb(0,0,0);stroke-width:1"/></g>
<g fill-rule="evenodd"><path d="M 687.622,121.105 L 715.162,115.157 L 737.79,107.658 L 752.53,100.676 L 768.951,91.754 L 797.655,78.3068 L 798.948,61.8858 L 799.983,45.8527 L 775.028,41.9737 L 755.892,39.1291 L 741.41,37.3189 L 721.239,35.8966 L 699.646,35.8966 L 676.89,39.2584 L 653.486,44.4304 L 632.928,68.868 L 611.076,74.4279 L 592.199,78.824 L 563.753,84.6425 L 549.271,91.3661 L 584.699,94.5986 L 600.732,96.6674 L 625.687,102.227 L 643.53,109.727 L 670.295,125.113 L 687.622,121.105 z " style="fill-opacity:0.3;fill:rgb(250,150,50);stroke:rgb(0,0,0);stroke-width:1"/></g>
<g fill-rule="evenodd"><path d="M 335.514,245.873 L 358.917,240.701 L 379.347,216.263 L 401.327,210.703 L 420.076,206.307 L 448.651,200.489 L 463.133,193.765 L 427.705,190.533 L 411.542,188.464 L 386.587,182.904 L 368.744,175.405 L 342.108,160.018 L 324.782,164.026 L 297.241,169.974 L 274.614,177.473 L 259.874,184.585 L 243.453,193.506 L 214.748,206.954 L 213.455,223.375 L 212.421,239.408 L 237.376,243.158 L 256.512,246.002 L 270.994,247.812 L 291.164,249.235 L 312.757,249.235 L 335.514,245.873 z " style="fill-opacity:0.3;fill:rgb(250,150,50);stroke:rgb(0,0,0);stroke-width:1"/></g>
<g fill-rule="evenodd"><path d="M 549.702,421.743 L 567.158,414.76 L 595.216,414.76 L 590.949,396.4 L 585.26,380.108 L 583.708,364.592 L 702.017,357.998 L 701.629,337.439 L 590.173,336.276 L 573.364,330.716 L 568.192,311.321 L 562.762,293.219 L 547.246,295.288 L 549.444,320.889 L 550.22,335.888 L 549.961,361.618 L 548.668,380.755 L 545.823,402.736 L 532.118,444.758 L 549.702,421.743 z " style="fill-opacity:0.3;fill:rgb(250,150,50);stroke:rgb(0,0,0);stroke-width:1"/></g>
<g fill-rule="evenodd"><path d="M 616.79,686.657 L 614.592,661.056 L 613.817,646.057 L 614.075,620.456 L 615.368,601.319 L 618.213,579.338 L 631.918,537.187 L 614.334,560.202 L 596.878,567.184 L 568.82,567.184 L 573.087,585.545 L 578.776,601.836 L 580.328,617.352 L 462.019,623.947 L 462.278,644.505 L 573.863,645.669 L 590.672,651.229 L 595.844,670.624 L 601.275,688.726 L 616.79,686.657 z " style="fill-opacity:0.3;fill:rgb(250,150,50);stroke:rgb(0,0,0);stroke-width:1"/></g>
<g fill-rule="evenodd"><path d="M 191.087,339.189 L 208.542,332.207 L 236.6,332.207 L 232.333,313.847 L 226.644,297.555 L 225.092,282.039 L 343.402,275.445 L 343.014,254.886 L 231.557,253.722 L 214.749,248.162 L 209.577,228.767 L 204.146,210.666 L 188.63,212.734 L 190.828,238.336 L 191.604,253.334 L 191.345,279.065 L 190.052,298.201 L 187.208,320.182 L 173.502,362.205 L 191.087,339.189 z " style="fill-opacity:0.3;fill:rgb(250,150,50);stroke:rgb(0,0,0);stroke-width:1"/></g>
<g fill-rule="evenodd"><path d="M 355.403,685.144 L 372.858,678.162 L 400.916,678.162 L 396.649,659.801 L 390.96,643.51 L 389.408,627.994 L 507.718,621.399 L 507.33,600.841 L 395.873,599.677 L 379.065,594.117 L 373.893,574.722 L 368.462,556.62 L 352.946,558.689 L 355.144,584.29 L 355.92,599.289 L 355.661,625.02 L 354.368,644.156 L 351.524,666.137 L 337.818,708.159 L 355.403,685.144 z " style="fill-opacity:0.3;fill:rgb(250,150,50);stroke:rgb(0,0,0);stroke-width:1"/></g>
<g fill-rule="evenodd"><path d="M 783.066,696.862 L 780.868,671.26 L 780.093,656.261 L 780.351,630.66 L 781.644,611.524 L 784.489,589.543 L 798.194,547.391 L 780.61,570.407 L 763.154,577.389 L 735.096,577.389 L 739.363,595.749 L 745.052,612.041 L 746.604,627.557 L 628.295,634.151 L 628.553,654.71 L 740.139,655.874 L 756.948,661.433 L 762.12,680.828 L 767.55,698.93 L 783.066,696.862 z " style="fill-opacity:0.3;fill:rgb(250,150,50);stroke:rgb(0,0,0);stroke-width:1"/></g>
<g fill-rule="evenodd"><path d="M 781.966,568.631 L 779.768,543.03 L 778.992,528.031 L 779.25,502.43 L 780.543,483.294 L 783.388,461.313 L 797.094,419.161 L 779.509,442.176 L 762.053,449.159 L 733.995,449.159 L 738.262,467.519 L 743.952,483.811 L 745.503,499.327 L 627.194,505.921 L 627.453,526.48 L 739.038,527.643 L 755.847,533.203 L 761.019,552.598 L 766.45,570.7 L 781.966,568.631 z " style="fill-opacity:0.3;fill:rgb(250,150,50);stroke:rgb(0,0,0);stroke-width:1"/></g>
<g fill-rule="evenodd"><path d="M 513.594,108.709 L 526.782,93.8394 L 538.678,80.1337 L 557.038,71.3413 L 627.765,70.1776 L 627.118,49.4897 L 551.09,47.2916 L 538.548,34.4909 L 515.404,28.1553 L 504.284,50.0069 L 498.724,62.4196 L 491.742,79.3579 L 485.794,95.1324 L 479.458,114.398 L 503.379,120.346 L 513.594,108.709 z " style="fill-opacity:0.3;fill:rgb(250,150,50);stroke:rgb(0,0,0);stroke-width:1"/></g>
<g fill-rule="evenodd"><path d="M 293.236,535.408 L 298.926,522.995 L 305.908,506.057 L 311.855,490.282 L 318.191,471.146 L 294.271,465.069 L 283.927,476.706 L 270.738,491.575 L 258.843,505.281 L 240.482,514.074 L 169.885,515.237 L 170.402,535.925 L 246.43,538.123 L 258.972,550.924 L 282.117,557.26 L 293.236,535.408 z " style="fill-opacity:0.3;fill:rgb(250,150,50);stroke:rgb(0,0,0);stroke-width:1"/></g>
<g fill-rule="evenodd"><path d="M 620.517,513.437 L 633.705,498.568 L 645.601,484.862 L 663.962,476.07 L 734.688,474.906 L 734.042,454.218 L 658.014,452.02 L 645.472,439.22 L 622.327,432.884 L 611.207,454.736 L 605.647,467.148 L 598.665,484.086 L 592.718,499.861 L 586.382,519.127 L 610.302,525.074 L 620.517,513.437 z " style="fill-opacity:0.3;fill:rgb(250,150,50);stroke:rgb(0,0,0);stroke-width:1"/></g>
<g fill-rule="evenodd"><path d="M 644.261,735.668 L 657.449,720.798 L 669.345,707.093 L 687.705,698.3 L 758.432,697.136 L 757.786,676.449 L 681.758,674.25 L 669.215,661.45 L 646.071,655.114 L 634.951,676.966 L 629.391,689.379 L 622.409,706.317 L 616.461,722.091 L 610.126,741.357 L 634.046,747.305 L 644.261,735.668 z " style="fill-opacity:0.3;fill:rgb(250,150,50);stroke:rgb(0,0,0);stroke-width:1"/></g>
<g fill-rule="evenodd"><path d="M 577.106,184.92 L 590.295,170.051 L 602.19,156.345 L 620.551,147.553 L 691.277,146.389 L 690.631,125.701 L 614.603,123.503 L 602.061,110.703 L 578.916,104.367 L 567.796,126.218 L 562.237,138.631 L 555.254,155.569 L 549.307,171.344 L 542.971,190.61 L 566.891,196.557 L 577.106,184.92 z " style="fill-opacity:0.3;fill:rgb(250,150,50);stroke:rgb(0,0,0);stroke-width:1"/></g>
<g fill-rule="evenodd"><path d="M 648.218,614.675 L 661.406,599.806 L 673.302,586.1 L 691.662,577.308 L 762.389,576.144 L 761.743,555.456 L 685.715,553.258 L 673.173,540.457 L 650.028,534.122 L 638.908,555.973 L 633.348,568.386 L 626.366,585.324 L 620.418,601.099 L 614.083,620.365 L 638.003,626.312 L 648.218,614.675 z " style="fill-opacity:0.3;fill:rgb(250,150,50);stroke:rgb(0,0,0);stroke-width:1"/></g>
<g fill-rule="evenodd"><path d="M 785.892,746.449 L 796.494,726.537 L 779.427,723.951 L 766.497,721.236 L 749.429,716.839 L 716.975,707.918 L 696.934,702.616 L 681.806,701.194 L 682.84,720.33 L 685.167,739.855 L 690.598,760.93 L 704.95,759.25 L 719.044,758.862 L 733.655,761.06 L 752.662,765.456 L 780.591,771.662 L 785.892,746.449 z " style="fill-opacity:0.3;fill:rgb(250,150,50);stroke:rgb(0,0,0);stroke-width:1"/></g>
<g fill-rule="evenodd"><path d="M 548.997,335.524 L 546.669,316 L 541.239,294.924 L 526.886,296.605 L 512.793,297.122 L 498.182,294.924 L 479.175,290.528 L 451.246,284.192 L 445.945,309.535 L 435.342,329.447 L 452.41,332.033 L 465.34,334.748 L 482.407,339.144 L 514.861,348.066 L 534.903,353.238 L 550.031,354.66 L 548.997,335.524 z " style="fill-opacity:0.3;fill:rgb(250,150,50);stroke:rgb(0,0,0);stroke-width:1"/></g>
<g fill-rule="evenodd"><path d="M 605.55,742.689 L 616.153,722.776 L 599.086,720.19 L 586.156,717.475 L 569.088,713.079 L 536.634,704.157 L 516.592,698.856 L 501.464,697.434 L 502.499,716.57 L 504.826,736.094 L 510.257,757.17 L 524.609,755.489 L 538.703,755.101 L 553.313,757.299 L 572.32,761.696 L 600.249,767.902 L 605.55,742.689 z " style="fill-opacity:0.3;fill:rgb(250,150,50);stroke:rgb(0,0,0);stroke-width:1"/></g>
<g fill-rule="evenodd"><path d="M 599.609,696.25 L 597.281,676.726 L 591.851,655.65 L 577.498,657.331 L 563.405,657.848 L 548.794,655.65 L 529.787,651.254 L 501.858,644.918 L 496.557,670.261 L 485.954,690.173 L 503.022,692.759 L 515.952,695.474 L 533.019,699.871 L 565.474,708.792 L 585.515,713.964 L 600.643,715.386 L 599.609,696.25 z " style="fill-opacity:0.3;fill:rgb(250,150,50);stroke:rgb(0,0,0);stroke-width:1"/></g>
<g fill-rule="evenodd"><path d="M 440.891,543.549 L 451.493,523.637 L 434.426,521.051 L 421.496,518.335 L 404.428,513.939 L 371.974,505.017 L 351.933,499.716 L 336.804,498.294 L 337.839,517.43 L 340.166,536.954 L 345.597,558.03 L 359.949,556.349 L 374.043,555.961 L 388.654,558.16 L 407.661,562.556 L 435.589,568.762 L 440.891,543.549 z " style="fill-opacity:0.3;fill:rgb(250,150,50);stroke:rgb(0,0,0);stroke-width:1"/></g>
<g fill-rule="evenodd"><path d="M 715.348,319.62 L 713.021,300.096 L 707.59,279.02 L 693.238,280.701 L 679.144,281.218 L 664.533,279.02 L 645.526,274.624 L 617.598,268.288 L 612.296,293.631 L 601.694,313.543 L 618.761,316.129 L 631.691,318.844 L 648.759,323.241 L 681.213,332.162 L 701.254,337.334 L 716.382,338.757 L 715.348,319.62 z " style="fill-opacity:0.3;fill:rgb(250,150,50);stroke:rgb(0,0,0);stroke-width:1"/></g>
<g fill-rule="evenodd"><path d="M 477.667,191.634 L 516.198,190.082 L 543.739,188.272 L 542.705,166.032 L 503.785,166.938 L 481.158,167.067 L 464.09,166.808 L 450.902,166.162 L 430.473,163.317 L 410.431,156.335 L 369.055,173.92 L 387.416,181.031 L 408.233,187.496 L 426.206,190.341 L 442.239,191.634 L 457.367,192.022 L 477.667,191.634 z " style="fill-opacity:0.3;fill:rgb(250,150,50);stroke:rgb(0,0,0);stroke-width:1"/></g>
<g fill-rule="evenodd"><path d="M 621.062,549.425 L 602.701,542.443 L 581.884,535.848 L 563.911,533.004 L 547.878,531.711 L 532.75,531.323 L 512.45,531.711 L 473.919,533.262 L 446.378,535.073 L 447.412,557.312 L 486.332,556.536 L 508.959,556.407 L 526.027,556.666 L 539.215,557.312 L 559.644,560.157 L 579.686,567.139 L 621.062,549.425 z " style="fill-opacity:0.3;fill:rgb(250,150,50);stroke:rgb(0,0,0);stroke-width:1"/></g>
<g fill-rule="evenodd"><path d="M 400.265,47.0009 L 381.905,40.0188 L 361.087,33.4245 L 343.115,30.5799 L 327.082,29.2869 L 311.953,28.899 L 291.653,29.2869 L 253.122,30.8385 L 225.581,32.6487 L 226.616,54.8882 L 265.535,54.1124 L 288.162,53.9831 L 305.23,54.2417 L 318.418,54.8882 L 338.848,57.7328 L 358.889,64.715 L 400.265,47.0009 z " style="fill-opacity:0.3;fill:rgb(250,150,50);stroke:rgb(0,0,0);stroke-width:1"/></g>
<g fill-rule="evenodd"><path d="M 484.529,599.995 L 523.06,598.443 L 550.601,596.633 L 549.566,574.394 L 510.647,575.299 L 488.02,575.428 L 470.952,575.17 L 457.764,574.523 L 437.334,571.678 L 417.293,564.696 L 375.917,582.281 L 394.278,589.393 L 415.095,595.857 L 433.068,598.702 L 449.101,599.995 L 464.229,600.383 L 484.529,599.995 z " style="fill-opacity:0.3;fill:rgb(250,150,50);stroke:rgb(0,0,0);stroke-width:1"/></g>
<g fill-rule="evenodd"><path d="M 769.885,424.322 L 751.524,417.34 L 730.707,410.745 L 712.735,407.901 L 696.701,406.608 L 681.573,406.22 L 661.273,406.608 L 622.742,408.159 L 595.201,409.97 L 596.236,432.209 L 635.155,431.433 L 657.782,431.304 L 674.85,431.563 L 688.038,432.209 L 708.468,435.054 L 728.509,442.036 L 769.885,424.322 z " style="fill-opacity:0.3;fill:rgb(250,150,50);stroke:rgb(0,0,0);stroke-width:1"/></g>
<g fill-rule="evenodd"><path d="M 236.668,771.45 L 275.199,769.898 L 302.74,768.088 L 301.706,745.849 L 262.787,746.754 L 240.159,746.883 L 223.092,746.624 L 209.903,745.978 L 189.474,743.133 L 169.432,736.151 L 128.057,753.736 L 146.417,760.847 L 167.234,767.312 L 185.207,770.157 L 201.24,771.45 L 216.368,771.838 L 236.668,771.45 z " style="fill-opacity:0.3;fill:rgb(250,150,50);stroke:rgb(0,0,0);stroke-width:1"/></g>
<g fill-rule="evenodd"><path d="M 77.0707,285.204 L 88.7077,270.981 L 96.4657,252.879 L 95.1727,232.967 L 82.1134,211.762 L 63.7529,223.787 L 50.435,239.69 L 50.1764,260.766 L 55.7363,276.153 L 66.4682,294.255 L 77.0707,285.204 z " style="fill-opacity:0.3;fill:rgb(250,150,50);stroke:rgb(0,0,0);stroke-width:1"/></g>
<g fill-rule="evenodd"><path d="M 538.828,156.908 L 550.465,142.685 L 558.223,124.583 L 556.93,104.671 L 543.871,83.4657 L 525.51,95.4906 L 512.192,111.394 L 511.934,132.47 L 517.493,147.857 L 528.225,165.959 L 538.828,156.908 z " style="fill-opacity:0.3;fill:rgb(250,150,50);stroke:rgb(0,0,0);stroke-width:1"/></g>
<g fill-rule="evenodd"><path d="M 325.055,568.734 L 338.373,552.83 L 338.631,531.754 L 333.071,516.367 L 322.339,498.266 L 311.737,507.316 L 300.1,521.539 L 292.342,539.641 L 293.635,559.553 L 306.694,580.759 L 325.055,568.734 z " style="fill-opacity:0.3;fill:rgb(250,150,50);stroke:rgb(0,0,0);stroke-width:1"/></g>
<g fill-rule="evenodd"><path d="M 28.9098,295.172 L 40.5468,280.949 L 48.3048,262.847 L 47.0118,242.935 L 33.9525,221.73 L 15.592,233.755 L 2.27412,249.659 L 2.01552,270.735 L 7.5754,286.121 L 18.3073,304.223 L 28.9098,295.172 z " style="fill-opacity:0.3;fill:rgb(250,150,50);stroke:rgb(0,0,0);stroke-width:1"/></g>
<g fill-rule="evenodd"><path d="M 350.288,487.293 L 363.606,471.389 L 363.864,450.313 L 358.304,434.927 L 347.572,416.825 L 336.97,425.876 L 325.333,440.099 L 317.575,458.201 L 318.868,478.113 L 331.927,499.318 L 350.288,487.293 z " style="fill-opacity:0.3;fill:rgb(250,150,50);stroke:rgb(0,0,0);stroke-width:1"/></g>
<g fill-rule="evenodd"><path d="M 596.732,283.061 L 608.369,268.838 L 616.127,250.736 L 614.834,230.824 L 601.775,209.619 L 583.414,221.644 L 570.096,237.548 L 569.838,258.624 L 575.398,274.01 L 586.13,292.112 L 596.732,283.061 z " style="fill-opacity:0.3;fill:rgb(250,150,50);stroke:rgb(0,0,0);stroke-width:1"/></g>
</svg>
