<?xml version="1.0" standalone="no"?>
<!DOCTYPE svg PUBLIC "-//W3C//DTD SVG 1.1//EN"
"http://www.w3.org/Graphics/SVG/1.1/DTD/svg11.dtd">
<svg width="100%" height="100%" version="1.1"
xmlns="http://www.w3.org/2000/svg"
xmlns:xlink="http://www.w3.org/1999/xlink">
<rect x="5.68434e-14" y="273.917" width="800" height="252.166" style="fill-opacity:0;fill:rgb(255,255,255);stroke:rgb(0,0,0);stroke-width:1"/>
<g fill-rule="evenodd"><path d="M 555.427,456.451 L 584.155,446.875 L 584.155,395.803 L 405.404,395.803 L 405.404,440.491 L 491.587,450.067 L 523.507,459.643 L 536.275,466.027 L 555.427,456.451 z " style="fill-opacity:0.3;fill:rgb(250,150,50);stroke:rgb(0,0,0);stroke-width:1"/></g>
<g fill-rule="evenodd"><path d="M 150.025,446.225 L 178.753,436.649 L 178.753,385.577 L 0.00217767,385.577 L 0.00217767,430.265 L 86.1855,439.841 L 118.105,449.417 L 130.873,455.801 L 150.025,446.225 z " style="fill-opacity:0.3;fill:rgb(250,150,50);stroke:rgb(0,0,0);stroke-width:1"/></g>
<g fill-rule="evenodd"><path d="M 536.448,481.395 L 450.265,471.851 L 418.345,462.275 L 405.577,455.891 L 386.426,465.467 L 357.698,475.043 L 357.698,526.083 L 536.448,526.083 L 536.448,481.395 z " style="fill-opacity:0.3;fill:rgb(250,150,50);stroke:rgb(0,0,0);stroke-width:1"/></g>
<g fill-rule="evenodd"><path d="M 357.507,481.394 L 271.323,471.85 L 239.404,462.274 L 226.636,455.891 L 207.484,465.466 L 178.756,475.042 L 178.756,526.082 L 357.507,526.082 L 357.507,481.394 z " style="fill-opacity:0.3;fill:rgb(250,150,50);stroke:rgb(0,0,0);stroke-width:1"/></g>
<g fill-rule="evenodd"><path d="M 150.028,516.47 L 178.756,506.894 L 178.756,455.822 L 0.0054977,455.822 L 0.0054977,500.51 L 86.1888,510.086 L 118.109,519.662 L 130.876,526.046 L 150.028,516.47 z " style="fill-opacity:0.3;fill:rgb(250,150,50);stroke:rgb(0,0,0);stroke-width:1"/></g>
<g fill-rule="evenodd"><path d="M 441.018,350.531 L 469.746,340.955 L 469.746,289.883 L 290.995,289.883 L 290.995,334.571 L 377.178,344.147 L 409.098,353.723 L 421.866,360.107 L 441.018,350.531 z " style="fill-opacity:0.3;fill:rgb(250,150,50);stroke:rgb(0,0,0);stroke-width:1"/></g>
<g fill-rule="evenodd"><path d="M 398.211,350.457 L 312.028,340.913 L 280.108,331.337 L 267.34,324.953 L 248.188,334.529 L 219.46,344.105 L 219.46,395.145 L 398.211,395.145 L 398.211,350.457 z " style="fill-opacity:0.3;fill:rgb(250,150,50);stroke:rgb(0,0,0);stroke-width:1"/></g>
<g fill-rule="evenodd"><path d="M 328.776,455.8 L 357.504,446.224 L 357.504,395.152 L 178.753,395.152 L 178.753,439.84 L 264.936,449.416 L 296.856,458.992 L 309.624,465.376 L 328.776,455.8 z " style="fill-opacity:0.3;fill:rgb(250,150,50);stroke:rgb(0,0,0);stroke-width:1"/></g>
<g fill-rule="evenodd"><path d="M 167.015,315.449 L 195.742,312.257 L 278.734,309.065 L 278.734,273.954 L 103.175,273.954 L 103.175,289.914 L 96.7911,299.489 L 90.4072,299.489 L 90.4072,315.449 L 128.711,318.641 L 135.095,325.025 L 167.015,315.449 z " style="fill-opacity:0.3;fill:rgb(250,150,50);stroke:rgb(0,0,0);stroke-width:1"/></g>
<g fill-rule="evenodd"><path d="M 189.6,353.632 L 195.984,344.056 L 202.336,344.056 L 202.336,328.096 L 164.032,324.936 L 157.648,318.552 L 125.728,328.096 L 97.0007,331.288 L 14.0094,334.48 L 14.0094,369.591 L 189.6,369.591 L 189.6,353.632 z " style="fill-opacity:0.3;fill:rgb(250,150,50);stroke:rgb(0,0,0);stroke-width:1"/></g>
<g fill-rule="evenodd"><path d="M 787.258,421.406 L 793.642,411.83 L 799.994,411.83 L 799.994,395.871 L 761.691,392.71 L 755.307,386.327 L 723.387,395.871 L 694.659,399.063 L 611.668,402.254 L 611.668,437.366 L 787.258,437.366 L 787.258,421.406 z " style="fill-opacity:0.3;fill:rgb(250,150,50);stroke:rgb(0,0,0);stroke-width:1"/></g>
<g fill-rule="evenodd"><path d="M 608.434,379.843 L 614.817,370.267 L 621.17,370.267 L 621.17,354.308 L 582.866,351.148 L 576.482,344.764 L 544.562,354.308 L 515.834,357.5 L 432.843,360.692 L 432.843,395.803 L 608.434,395.803 L 608.434,379.843 z " style="fill-opacity:0.3;fill:rgb(250,150,50);stroke:rgb(0,0,0);stroke-width:1"/></g>
<g fill-rule="evenodd"><path d="M 688.278,390.949 L 717.006,387.757 L 799.997,384.565 L 799.997,349.454 L 624.439,349.454 L 624.439,365.414 L 618.055,374.99 L 611.671,374.99 L 611.671,390.949 L 649.974,394.141 L 656.358,400.525 L 688.278,390.949 z " style="fill-opacity:0.3;fill:rgb(250,150,50);stroke:rgb(0,0,0);stroke-width:1"/></g>
<g fill-rule="evenodd"><path d="M 766.49,510.114 L 772.874,500.538 L 779.226,500.538 L 779.226,484.579 L 740.922,481.418 L 734.539,475.035 L 702.619,484.579 L 673.891,487.771 L 590.9,490.962 L 590.9,526.074 L 766.49,526.074 L 766.49,510.114 z " style="fill-opacity:0.3;fill:rgb(250,150,50);stroke:rgb(0,0,0);stroke-width:1"/></g>
<g fill-rule="evenodd"><path d="M 546.668,315.413 L 575.396,312.221 L 658.387,309.029 L 658.387,273.917 L 482.829,273.917 L 482.829,289.877 L 476.445,299.453 L 470.061,299.453 L 470.061,315.413 L 508.364,318.605 L 514.748,324.989 L 546.668,315.413 z " style="fill-opacity:0.3;fill:rgb(250,150,50);stroke:rgb(0,0,0);stroke-width:1"/></g>
<g fill-rule="evenodd"><path d="M 688.281,478.863 L 717.008,475.671 L 800,472.479 L 800,437.367 L 624.441,437.367 L 624.441,453.327 L 618.057,462.903 L 611.673,462.903 L 611.673,478.863 L 649.977,482.055 L 656.361,488.439 L 688.281,478.863 z " style="fill-opacity:0.3;fill:rgb(250,150,50);stroke:rgb(0,0,0);stroke-width:1"/></g>
<g fill-rule="evenodd"><path d="M 482.707,273.921 L 300.764,273.921 L 300.764,289.88 L 482.707,289.88 L 482.707,273.921 z " style="fill-opacity:0.3;fill:rgb(250,150,50);stroke:rgb(0,0,0);stroke-width:1"/></g>
<g fill-rule="evenodd"><path d="M 175.111,369.605 L 9.1285,369.605 L 9.1285,385.565 L 175.111,385.565 L 175.111,369.605 z " style="fill-opacity:0.3;fill:rgb(250,150,50);stroke:rgb(0,0,0);stroke-width:1"/></g>
<g fill-rule="evenodd"><path d="M 799.94,289.877 L 659.493,289.877 L 659.493,305.837 L 799.94,305.837 L 799.94,289.877 z " style="fill-opacity:0.3;fill:rgb(250,150,50);stroke:rgb(0,0,0);stroke-width:1"/></g>
<g fill-rule="evenodd"><path d="M 797.596,273.917 L 663.533,273.917 L 663.533,289.877 L 797.596,289.877 L 797.596,273.917 z " style="fill-opacity:0.3;fill:rgb(250,150,50);stroke:rgb(0,0,0);stroke-width:1"/></g>
<g fill-rule="evenodd"><path d="M 643.455,339.315 L 649.839,313.779 L 643.455,310.587 L 617.92,310.587 L 611.536,313.779 L 617.92,339.315 L 630.687,345.699 L 643.455,339.315 z " style="fill-opacity:0.3;fill:rgb(250,150,50);stroke:rgb(0,0,0);stroke-width:1"/></g>
<g fill-rule="evenodd"><path d="M 527.493,353.689 L 521.109,328.154 L 508.341,321.802 L 495.574,328.186 L 489.222,353.721 L 495.605,356.913 L 521.109,356.913 L 527.493,353.689 z " style="fill-opacity:0.3;fill:rgb(250,150,50);stroke:rgb(0,0,0);stroke-width:1"/></g>
<g fill-rule="evenodd"><path d="M 620.183,348.374 L 613.799,322.838 L 601.032,316.486 L 588.264,322.87 L 581.912,348.406 L 588.296,351.598 L 613.799,351.598 L 620.183,348.374 z " style="fill-opacity:0.3;fill:rgb(250,150,50);stroke:rgb(0,0,0);stroke-width:1"/></g>
<g fill-rule="evenodd"><path d="M 680.025,346.218 L 673.641,320.683 L 660.873,314.331 L 648.106,320.715 L 641.754,346.25 L 648.138,349.442 L 673.641,349.442 L 680.025,346.218 z " style="fill-opacity:0.3;fill:rgb(250,150,50);stroke:rgb(0,0,0);stroke-width:1"/></g>
<g fill-rule="evenodd"><path d="M 391.695,462.603 L 385.311,437.067 L 372.543,430.715 L 359.775,437.099 L 353.423,462.635 L 359.807,465.827 L 385.311,465.827 L 391.695,462.603 z " style="fill-opacity:0.3;fill:rgb(250,150,50);stroke:rgb(0,0,0);stroke-width:1"/></g>
<g fill-rule="evenodd"><path d="M 590.787,522.755 L 584.404,497.219 L 571.636,490.867 L 558.868,497.251 L 552.516,522.787 L 558.9,525.979 L 584.404,525.979 L 590.787,522.755 z " style="fill-opacity:0.3;fill:rgb(250,150,50);stroke:rgb(0,0,0);stroke-width:1"/></g>
<g fill-rule="evenodd"><path d="M 38.3045,329.878 L 31.9206,304.342 L 19.1527,297.99 L 6.38478,304.374 L 0.032751,329.91 L 6.4167,333.102 L 31.9206,333.102 L 38.3045,329.878 z " style="fill-opacity:0.3;fill:rgb(250,150,50);stroke:rgb(0,0,0);stroke-width:1"/></g>
<g fill-rule="evenodd"><path d="M 397.195,425.398 L 403.578,399.862 L 397.195,396.67 L 371.659,396.67 L 365.275,399.862 L 371.659,425.398 L 384.427,431.782 L 397.195,425.398 z " style="fill-opacity:0.3;fill:rgb(250,150,50);stroke:rgb(0,0,0);stroke-width:1"/></g>
<g fill-rule="evenodd"><path d="M 90.4706,315.492 L 45.783,315.492 L 45.783,331.452 L 90.4706,331.452 L 90.4706,315.492 z " style="fill-opacity:0.3;fill:rgb(250,150,50);stroke:rgb(0,0,0);stroke-width:1"/></g>
<g fill-rule="evenodd"><path d="M 353.346,473.143 L 353.346,453.991 L 305.466,466.759 L 311.85,476.335 L 353.346,473.143 z " style="fill-opacity:0.3;fill:rgb(250,150,50);stroke:rgb(0,0,0);stroke-width:1"/></g>
<g fill-rule="evenodd"><path d="M 726.587,328.181 L 720.204,318.605 L 678.708,321.797 L 678.708,340.949 L 726.587,328.181 z " style="fill-opacity:0.3;fill:rgb(250,150,50);stroke:rgb(0,0,0);stroke-width:1"/></g>
<g fill-rule="evenodd"><path d="M 489.221,356.813 L 489.221,337.661 L 441.342,350.429 L 447.726,360.005 L 489.221,356.813 z " style="fill-opacity:0.3;fill:rgb(250,150,50);stroke:rgb(0,0,0);stroke-width:1"/></g>
<g fill-rule="evenodd"><path d="M 582.941,344.265 L 582.941,325.113 L 535.062,337.881 L 541.446,347.457 L 582.941,344.265 z " style="fill-opacity:0.3;fill:rgb(250,150,50);stroke:rgb(0,0,0);stroke-width:1"/></g>
<g fill-rule="evenodd"><path d="M 290.991,318.211 L 284.607,308.635 L 243.112,311.827 L 243.112,330.979 L 290.991,318.211 z " style="fill-opacity:0.3;fill:rgb(250,150,50);stroke:rgb(0,0,0);stroke-width:1"/></g>
<g fill-rule="evenodd"><path d="M 566.985,476.989 L 566.985,457.838 L 519.106,470.605 L 525.49,480.181 L 566.985,476.989 z " style="fill-opacity:0.3;fill:rgb(250,150,50);stroke:rgb(0,0,0);stroke-width:1"/></g>
<g fill-rule="evenodd"><path d="M 774.467,330.064 L 768.083,320.488 L 726.588,323.68 L 726.588,342.832 L 774.467,330.064 z " style="fill-opacity:0.3;fill:rgb(250,150,50);stroke:rgb(0,0,0);stroke-width:1"/></g>
<g fill-rule="evenodd"><path d="M 587.992,323.764 L 581.608,314.188 L 540.112,317.38 L 540.112,336.532 L 587.992,323.764 z " style="fill-opacity:0.3;fill:rgb(250,150,50);stroke:rgb(0,0,0);stroke-width:1"/></g>
<g fill-rule="evenodd"><path d="M 243.111,312.062 L 201.616,312.062 L 201.616,328.022 L 243.111,328.022 L 243.111,312.062 z " style="fill-opacity:0.3;fill:rgb(250,150,50);stroke:rgb(0,0,0);stroke-width:1"/></g>
<g fill-rule="evenodd"><path d="M 82.1014,308.884 L 82.1014,283.348 L 62.9496,283.348 L 56.5656,308.884 L 66.1416,315.268 L 82.1014,308.884 z " style="fill-opacity:0.3;fill:rgb(250,150,50);stroke:rgb(0,0,0);stroke-width:1"/></g>
<g fill-rule="evenodd"><path d="M 424.17,386.664 L 424.17,361.128 L 405.018,361.128 L 398.635,386.664 L 408.21,393.047 L 424.17,386.664 z " style="fill-opacity:0.3;fill:rgb(250,150,50);stroke:rgb(0,0,0);stroke-width:1"/></g>
<g fill-rule="evenodd"><path d="M 799.988,318.052 L 790.412,311.7 L 774.453,318.052 L 774.484,343.588 L 793.636,343.588 L 799.988,318.052 z " style="fill-opacity:0.3;fill:rgb(250,150,50);stroke:rgb(0,0,0);stroke-width:1"/></g>
<g fill-rule="evenodd"><path d="M 608.628,459.386 L 608.628,433.85 L 589.477,433.85 L 583.093,459.386 L 592.669,465.769 L 608.628,459.386 z " style="fill-opacity:0.3;fill:rgb(250,150,50);stroke:rgb(0,0,0);stroke-width:1"/></g>
<g fill-rule="evenodd"><path d="M 611.506,402.341 L 601.93,395.989 L 585.97,402.341 L 586.002,427.876 L 605.154,427.876 L 611.506,402.341 z " style="fill-opacity:0.3;fill:rgb(250,150,50);stroke:rgb(0,0,0);stroke-width:1"/></g>
<g fill-rule="evenodd"><path d="M 562.006,484.507 L 552.43,478.155 L 536.47,484.507 L 536.502,510.043 L 555.654,510.043 L 562.006,484.507 z " style="fill-opacity:0.3;fill:rgb(250,150,50);stroke:rgb(0,0,0);stroke-width:1"/></g>
<g fill-rule="evenodd"><path d="M 799.975,519.693 L 799.975,494.157 L 780.823,494.157 L 774.439,519.693 L 784.015,526.077 L 799.975,519.693 z " style="fill-opacity:0.3;fill:rgb(250,150,50);stroke:rgb(0,0,0);stroke-width:1"/></g>
<g fill-rule="evenodd"><path d="M 60.0565,289.153 L 50.4805,282.801 L 34.5207,289.153 L 34.5526,314.689 L 53.7044,314.689 L 60.0565,289.153 z " style="fill-opacity:0.3;fill:rgb(250,150,50);stroke:rgb(0,0,0);stroke-width:1"/></g>
<g fill-rule="evenodd"><path d="M 80.6127,439.664 L 42.309,439.664 L 42.309,455.624 L 80.6127,455.624 L 80.6127,439.664 z " style="fill-opacity:0.3;fill:rgb(250,150,50);stroke:rgb(0,0,0);stroke-width:1"/></g>
<g fill-rule="evenodd"><path d="M 38.3093,438.746 L 0.00563916,438.746 L 0.00563916,454.706 L 38.3093,454.706 L 38.3093,438.746 z " style="fill-opacity:0.3;fill:rgb(250,150,50);stroke:rgb(0,0,0);stroke-width:1"/></g>
<g fill-rule="evenodd"><path d="M 438.152,453.72 L 438.152,444.144 L 390.272,444.144 L 390.272,456.912 L 438.152,453.72 z " style="fill-opacity:0.3;fill:rgb(250,150,50);stroke:rgb(0,0,0);stroke-width:1"/></g>
<g fill-rule="evenodd"><path d="M 611.673,476.206 L 611.673,466.631 L 566.985,466.631 L 566.985,479.398 L 611.673,476.206 z " style="fill-opacity:0.3;fill:rgb(250,150,50);stroke:rgb(0,0,0);stroke-width:1"/></g>
<g fill-rule="evenodd"><path d="M 780.497,315.543 L 780.497,305.967 L 739.001,305.967 L 739.001,318.735 L 780.497,315.543 z " style="fill-opacity:0.3;fill:rgb(250,150,50);stroke:rgb(0,0,0);stroke-width:1"/></g>
<g fill-rule="evenodd"><path d="M 523.03,469.498 L 523.03,459.922 L 481.534,459.922 L 481.534,472.69 L 523.03,469.498 z " style="fill-opacity:0.3;fill:rgb(250,150,50);stroke:rgb(0,0,0);stroke-width:1"/></g>
<g fill-rule="evenodd"><path d="M 91.9674,276.377 L 24.9359,276.377 L 24.9359,282.761 L 91.9674,282.761 L 91.9674,276.377 z " style="fill-opacity:0.3;fill:rgb(250,150,50);stroke:rgb(0,0,0);stroke-width:1"/></g>
<g fill-rule="evenodd"><path d="M 86.1114,517.297 L 19.08,517.297 L 19.08,523.681 L 86.1114,523.681 L 86.1114,517.297 z " style="fill-opacity:0.3;fill:rgb(250,150,50);stroke:rgb(0,0,0);stroke-width:1"/></g>
<g fill-rule="evenodd"><path d="M 748.075,342.84 L 681.043,342.84 L 681.043,349.224 L 748.075,349.224 L 748.075,342.84 z " style="fill-opacity:0.3;fill:rgb(250,150,50);stroke:rgb(0,0,0);stroke-width:1"/></g>
<g fill-rule="evenodd"><path d="M 222.667,445.312 L 155.635,445.312 L 155.635,451.696 L 222.667,451.696 L 222.667,445.312 z " style="fill-opacity:0.3;fill:rgb(250,150,50);stroke:rgb(0,0,0);stroke-width:1"/></g>
<g fill-rule="evenodd"><path d="M 738.984,312.221 L 671.953,312.221 L 671.953,318.605 L 738.984,318.605 L 738.984,312.221 z " style="fill-opacity:0.3;fill:rgb(250,150,50);stroke:rgb(0,0,0);stroke-width:1"/></g>
<g fill-rule="evenodd"><path d="M 86.1114,510.913 L 19.08,510.913 L 19.08,517.297 L 86.1114,517.297 L 86.1114,510.913 z " style="fill-opacity:0.3;fill:rgb(250,150,50);stroke:rgb(0,0,0);stroke-width:1"/></g>
<g fill-rule="evenodd"><path d="M 729.113,305.837 L 662.081,305.837 L 662.081,312.221 L 729.113,312.221 L 729.113,305.837 z " style="fill-opacity:0.3;fill:rgb(250,150,50);stroke:rgb(0,0,0);stroke-width:1"/></g>
<g fill-rule="evenodd"><path d="M 649.945,482.195 L 582.913,482.195 L 582.913,488.579 L 649.945,488.579 L 649.945,482.195 z " style="fill-opacity:0.3;fill:rgb(250,150,50);stroke:rgb(0,0,0);stroke-width:1"/></g>
<g fill-rule="evenodd"><path d="M 456.89,468.658 L 460.082,452.698 L 456.89,449.506 L 444.122,449.506 L 440.93,452.698 L 444.122,468.658 L 450.506,471.85 L 456.89,468.658 z " style="fill-opacity:0.3;fill:rgb(250,150,50);stroke:rgb(0,0,0);stroke-width:1"/></g>
<g fill-rule="evenodd"><path d="M 15.9599,522.891 L 19.1518,506.931 L 15.9599,503.739 L 3.19197,503.739 L 5.68434e-14,506.931 L 3.19197,522.891 L 9.57592,526.083 L 15.9599,522.891 z " style="fill-opacity:0.3;fill:rgb(250,150,50);stroke:rgb(0,0,0);stroke-width:1"/></g>
<g fill-rule="evenodd"><path d="M 194.248,389.603 L 197.44,373.643 L 194.248,370.451 L 181.48,370.451 L 178.288,373.643 L 181.48,389.603 L 187.864,392.795 L 194.248,389.603 z " style="fill-opacity:0.3;fill:rgb(250,150,50);stroke:rgb(0,0,0);stroke-width:1"/></g>
<g fill-rule="evenodd"><path d="M 209.104,370.047 L 212.296,354.087 L 209.104,350.895 L 196.336,350.895 L 193.144,354.087 L 196.336,370.047 L 202.72,373.239 L 209.104,370.047 z " style="fill-opacity:0.3;fill:rgb(250,150,50);stroke:rgb(0,0,0);stroke-width:1"/></g>
</svg>
