<?xml version="1.0" standalone="no"?>
<!DOCTYPE svg PUBLIC "-//W3C//DTD SVG 1.1//EN"
"http://www.w3.org/Graphics/SVG/1.1/DTD/svg11.dtd">
<svg width="100%" height="100%" version="1.1"
xmlns="http://www.w3.org/2000/svg"
xmlns:xlink="http://www.w3.org/1999/xlink">
<rect x="0" y="275.302" width="800" height="249.397" style="fill-opacity:0;fill:rgb(255,255,255);stroke:rgb(0,0,0);stroke-width:1"/>
<g fill-rule="evenodd"><path d="M 330.223,444.94 L 358.635,435.469 L 358.635,384.958 L 181.848,384.958 L 181.848,429.155 L 267.085,438.626 L 298.654,448.097 L 311.282,454.411 L 330.223,444.94 z " style="fill-opacity:0.3;fill:rgb(250,150,50);stroke:rgb(0,0,0);stroke-width:1"/></g>
<g fill-rule="evenodd"><path d="M 148.378,465.786 L 176.79,456.315 L 176.79,405.805 L 0.00215935,405.805 L 0.00215935,450.002 L 85.2391,459.472 L 116.808,468.943 L 129.436,475.257 L 148.378,465.786 z " style="fill-opacity:0.3;fill:rgb(250,150,50);stroke:rgb(0,0,0);stroke-width:1"/></g>
<g fill-rule="evenodd"><path d="M 148.375,351.068 L 176.788,341.597 L 176.788,291.087 L 7.63128e-06,291.087 L 7.63128e-06,335.284 L 85.2369,344.754 L 116.806,354.225 L 129.434,360.539 L 148.375,351.068 z " style="fill-opacity:0.3;fill:rgb(250,150,50);stroke:rgb(0,0,0);stroke-width:1"/></g>
<g fill-rule="evenodd"><path d="M 325.321,515.227 L 353.733,505.756 L 353.733,455.245 L 176.946,455.245 L 176.946,499.442 L 262.183,508.913 L 293.752,518.383 L 306.38,524.697 L 325.321,515.227 z " style="fill-opacity:0.3;fill:rgb(250,150,50);stroke:rgb(0,0,0);stroke-width:1"/></g>
<g fill-rule="evenodd"><path d="M 176.795,480.502 L 91.5583,471.062 L 59.989,461.592 L 47.3613,455.278 L 28.4198,464.748 L 0.00748866,474.219 L 0.00748866,524.698 L 176.795,524.698 L 176.795,480.502 z " style="fill-opacity:0.3;fill:rgb(250,150,50);stroke:rgb(0,0,0);stroke-width:1"/></g>
<g fill-rule="evenodd"><path d="M 325.179,370.244 L 353.591,360.773 L 353.591,310.263 L 176.804,310.263 L 176.804,354.46 L 262.041,363.93 L 293.61,373.401 L 306.238,379.715 L 325.179,370.244 z " style="fill-opacity:0.3;fill:rgb(250,150,50);stroke:rgb(0,0,0);stroke-width:1"/></g>
<g fill-rule="evenodd"><path d="M 502.118,514.212 L 530.53,504.741 L 530.53,454.23 L 353.742,454.23 L 353.742,498.427 L 438.979,507.898 L 470.548,517.369 L 483.176,523.683 L 502.118,514.212 z " style="fill-opacity:0.3;fill:rgb(250,150,50);stroke:rgb(0,0,0);stroke-width:1"/></g>
<g fill-rule="evenodd"><path d="M 507.016,444.744 L 535.428,435.273 L 535.428,384.762 L 358.641,384.762 L 358.641,428.959 L 443.878,438.43 L 475.447,447.901 L 488.075,454.215 L 507.016,444.744 z " style="fill-opacity:0.3;fill:rgb(250,150,50);stroke:rgb(0,0,0);stroke-width:1"/></g>
<g fill-rule="evenodd"><path d="M 527.265,346.515 L 533.579,337.044 L 539.862,337.044 L 539.862,321.259 L 501.979,318.134 L 495.665,311.82 L 464.095,321.259 L 435.683,324.416 L 353.603,327.573 L 353.603,362.299 L 527.265,362.299 L 527.265,346.515 z " style="fill-opacity:0.3;fill:rgb(250,150,50);stroke:rgb(0,0,0);stroke-width:1"/></g>
<g fill-rule="evenodd"><path d="M 429.439,316.385 L 457.852,313.228 L 539.932,310.071 L 539.932,275.345 L 366.301,275.345 L 366.301,291.13 L 359.987,300.601 L 353.673,300.601 L 353.673,316.385 L 391.556,319.542 L 397.87,325.856 L 429.439,316.385 z " style="fill-opacity:0.3;fill:rgb(250,150,50);stroke:rgb(0,0,0);stroke-width:1"/></g>
<g fill-rule="evenodd"><path d="M 178.472,390.02 L 184.785,380.549 L 191.068,380.549 L 191.068,364.764 L 153.185,361.639 L 146.871,355.325 L 115.302,364.764 L 86.8893,367.921 L 4.80929,371.078 L 4.80929,405.804 L 178.472,405.804 L 178.472,390.02 z " style="fill-opacity:0.3;fill:rgb(250,150,50);stroke:rgb(0,0,0);stroke-width:1"/></g>
<g fill-rule="evenodd"><path d="M 606.32,479.473 L 634.732,476.316 L 716.812,473.159 L 716.812,438.433 L 543.181,438.433 L 543.181,454.217 L 536.868,463.688 L 530.554,463.688 L 530.554,479.473 L 568.437,482.63 L 574.751,488.944 L 606.32,479.473 z " style="fill-opacity:0.3;fill:rgb(250,150,50);stroke:rgb(0,0,0);stroke-width:1"/></g>
<g fill-rule="evenodd"><path d="M 787.39,370.82 L 793.704,361.349 L 799.987,361.349 L 799.987,345.565 L 762.103,342.439 L 755.79,336.126 L 724.22,345.565 L 695.808,348.722 L 613.728,351.879 L 613.728,386.605 L 787.39,386.605 L 787.39,370.82 z " style="fill-opacity:0.3;fill:rgb(250,150,50);stroke:rgb(0,0,0);stroke-width:1"/></g>
<g fill-rule="evenodd"><path d="M 615.638,351.081 L 644.05,347.924 L 726.13,344.767 L 726.13,310.041 L 552.499,310.041 L 552.499,325.825 L 546.185,335.296 L 539.871,335.296 L 539.871,351.081 L 577.754,354.238 L 584.068,360.552 L 615.638,351.081 z " style="fill-opacity:0.3;fill:rgb(250,150,50);stroke:rgb(0,0,0);stroke-width:1"/></g>
<g fill-rule="evenodd"><path d="M 674.473,427.654 L 702.885,424.497 L 784.965,421.34 L 784.965,386.614 L 611.334,386.614 L 611.334,402.399 L 605.021,411.869 L 598.707,411.869 L 598.707,427.654 L 636.59,430.811 L 642.904,437.125 L 674.473,427.654 z " style="fill-opacity:0.3;fill:rgb(250,150,50);stroke:rgb(0,0,0);stroke-width:1"/></g>
<g fill-rule="evenodd"><path d="M 722.18,508.902 L 728.494,499.431 L 734.776,499.431 L 734.776,483.646 L 696.893,480.521 L 690.58,474.207 L 659.01,483.646 L 630.598,486.803 L 548.518,489.96 L 548.518,524.686 L 722.18,524.686 L 722.18,508.902 z " style="fill-opacity:0.3;fill:rgb(250,150,50);stroke:rgb(0,0,0);stroke-width:1"/></g>
<g fill-rule="evenodd"><path d="M 528.819,362.617 L 348.875,362.617 L 348.875,378.402 L 528.819,378.402 L 528.819,362.617 z " style="fill-opacity:0.3;fill:rgb(250,150,50);stroke:rgb(0,0,0);stroke-width:1"/></g>
<g fill-rule="evenodd"><path d="M 164.16,275.302 L 0,275.302 L 0,291.086 L 164.16,291.086 L 164.16,275.302 z " style="fill-opacity:0.3;fill:rgb(250,150,50);stroke:rgb(0,0,0);stroke-width:1"/></g>
<g fill-rule="evenodd"><path d="M 678.965,292.513 L 540.06,292.513 L 540.06,308.298 L 678.965,308.298 L 678.965,292.513 z " style="fill-opacity:0.3;fill:rgb(250,150,50);stroke:rgb(0,0,0);stroke-width:1"/></g>
<g fill-rule="evenodd"><path d="M 673.997,275.537 L 541.407,275.537 L 541.407,291.322 L 673.997,291.322 L 673.997,275.537 z " style="fill-opacity:0.3;fill:rgb(250,150,50);stroke:rgb(0,0,0);stroke-width:1"/></g>
<g fill-rule="evenodd"><path d="M 793.686,450.392 L 800,425.137 L 793.686,421.98 L 768.43,421.98 L 762.117,425.137 L 768.43,450.392 L 781.058,456.706 L 793.686,450.392 z " style="fill-opacity:0.3;fill:rgb(250,150,50);stroke:rgb(0,0,0);stroke-width:1"/></g>
<g fill-rule="evenodd"><path d="M 767.872,521.368 L 761.559,496.113 L 748.931,489.83 L 736.303,496.144 L 730.021,521.4 L 736.335,524.557 L 761.559,524.557 L 767.872,521.368 z " style="fill-opacity:0.3;fill:rgb(250,150,50);stroke:rgb(0,0,0);stroke-width:1"/></g>
<g fill-rule="evenodd"><path d="M 708.177,303.719 L 714.49,278.464 L 708.177,275.307 L 682.921,275.307 L 676.607,278.464 L 682.921,303.719 L 695.549,310.033 L 708.177,303.719 z " style="fill-opacity:0.3;fill:rgb(250,150,50);stroke:rgb(0,0,0);stroke-width:1"/></g>
<g fill-rule="evenodd"><path d="M 280.1,306.864 L 273.786,281.609 L 261.158,275.327 L 248.531,281.641 L 242.248,306.896 L 248.562,310.053 L 273.786,310.053 L 280.1,306.864 z " style="fill-opacity:0.3;fill:rgb(250,150,50);stroke:rgb(0,0,0);stroke-width:1"/></g>
<g fill-rule="evenodd"><path d="M 589.263,389.222 L 582.949,363.967 L 570.322,357.684 L 557.694,363.998 L 551.412,389.254 L 557.726,392.411 L 582.949,392.411 L 589.263,389.222 z " style="fill-opacity:0.3;fill:rgb(250,150,50);stroke:rgb(0,0,0);stroke-width:1"/></g>
<g fill-rule="evenodd"><path d="M 797.257,337.382 L 790.943,312.127 L 778.315,305.844 L 765.688,312.158 L 759.405,337.414 L 765.719,340.57 L 790.943,340.57 L 797.257,337.382 z " style="fill-opacity:0.3;fill:rgb(250,150,50);stroke:rgb(0,0,0);stroke-width:1"/></g>
<g fill-rule="evenodd"><path d="M 776.385,482.782 L 782.698,457.526 L 776.385,454.37 L 751.129,454.37 L 744.815,457.526 L 751.129,482.782 L 763.757,489.096 L 776.385,482.782 z " style="fill-opacity:0.3;fill:rgb(250,150,50);stroke:rgb(0,0,0);stroke-width:1"/></g>
<g fill-rule="evenodd"><path d="M 746.523,303.729 L 752.836,278.473 L 746.523,275.316 L 721.267,275.316 L 714.953,278.473 L 721.267,303.729 L 733.895,310.043 L 746.523,303.729 z " style="fill-opacity:0.3;fill:rgb(250,150,50);stroke:rgb(0,0,0);stroke-width:1"/></g>
<g fill-rule="evenodd"><path d="M 221.939,280.9 L 177.743,280.9 L 177.743,296.684 L 221.939,296.684 L 221.939,280.9 z " style="fill-opacity:0.3;fill:rgb(250,150,50);stroke:rgb(0,0,0);stroke-width:1"/></g>
<g fill-rule="evenodd"><path d="M 582.817,416.757 L 576.503,407.286 L 535.463,410.443 L 535.463,429.384 L 582.817,416.757 z " style="fill-opacity:0.3;fill:rgb(250,150,50);stroke:rgb(0,0,0);stroke-width:1"/></g>
<g fill-rule="evenodd"><path d="M 547.697,521.445 L 547.697,502.504 L 500.344,515.131 L 506.657,524.602 L 547.697,521.445 z " style="fill-opacity:0.3;fill:rgb(250,150,50);stroke:rgb(0,0,0);stroke-width:1"/></g>
<g fill-rule="evenodd"><path d="M 383.099,451.893 L 383.099,432.952 L 335.745,445.579 L 342.059,455.05 L 383.099,451.893 z " style="fill-opacity:0.3;fill:rgb(250,150,50);stroke:rgb(0,0,0);stroke-width:1"/></g>
<g fill-rule="evenodd"><path d="M 609.676,404.731 L 609.676,385.79 L 562.322,398.418 L 568.636,407.888 L 609.676,404.731 z " style="fill-opacity:0.3;fill:rgb(250,150,50);stroke:rgb(0,0,0);stroke-width:1"/></g>
<g fill-rule="evenodd"><path d="M 238.914,371.093 L 232.6,361.623 L 191.56,364.78 L 191.56,383.721 L 238.914,371.093 z " style="fill-opacity:0.3;fill:rgb(250,150,50);stroke:rgb(0,0,0);stroke-width:1"/></g>
<g fill-rule="evenodd"><path d="M 350.712,306.539 L 350.712,287.597 L 303.358,300.225 L 309.672,309.696 L 350.712,306.539 z " style="fill-opacity:0.3;fill:rgb(250,150,50);stroke:rgb(0,0,0);stroke-width:1"/></g>
<g fill-rule="evenodd"><path d="M 324.503,294.506 L 324.503,275.564 L 277.149,288.192 L 283.463,297.663 L 324.503,294.506 z " style="fill-opacity:0.3;fill:rgb(250,150,50);stroke:rgb(0,0,0);stroke-width:1"/></g>
<g fill-rule="evenodd"><path d="M 224.15,442.634 L 217.836,433.163 L 176.796,436.32 L 176.796,455.261 L 224.15,442.634 z " style="fill-opacity:0.3;fill:rgb(250,150,50);stroke:rgb(0,0,0);stroke-width:1"/></g>
<g fill-rule="evenodd"><path d="M 442.365,508.914 L 401.325,508.914 L 401.325,524.698 L 442.365,524.698 L 442.365,508.914 z " style="fill-opacity:0.3;fill:rgb(250,150,50);stroke:rgb(0,0,0);stroke-width:1"/></g>
<g fill-rule="evenodd"><path d="M 799.997,489.358 L 799.997,464.103 L 781.055,464.103 L 774.742,489.358 L 784.212,495.672 L 799.997,489.358 z " style="fill-opacity:0.3;fill:rgb(250,150,50);stroke:rgb(0,0,0);stroke-width:1"/></g>
<g fill-rule="evenodd"><path d="M 247.726,283.108 L 238.255,276.826 L 222.471,283.108 L 222.502,308.364 L 241.444,308.364 L 247.726,283.108 z " style="fill-opacity:0.3;fill:rgb(250,150,50);stroke:rgb(0,0,0);stroke-width:1"/></g>
<g fill-rule="evenodd"><path d="M 779.429,300.728 L 779.429,275.472 L 760.488,275.472 L 754.174,300.728 L 763.645,307.042 L 779.429,300.728 z " style="fill-opacity:0.3;fill:rgb(250,150,50);stroke:rgb(0,0,0);stroke-width:1"/></g>
<g fill-rule="evenodd"><path d="M 613.716,382.6 L 613.716,357.344 L 594.774,357.344 L 588.46,382.6 L 597.931,388.913 L 613.716,382.6 z " style="fill-opacity:0.3;fill:rgb(250,150,50);stroke:rgb(0,0,0);stroke-width:1"/></g>
<g fill-rule="evenodd"><path d="M 744.815,476.857 L 744.815,451.602 L 725.874,451.602 L 719.56,476.857 L 729.031,483.171 L 744.815,476.857 z " style="fill-opacity:0.3;fill:rgb(250,150,50);stroke:rgb(0,0,0);stroke-width:1"/></g>
<g fill-rule="evenodd"><path d="M 554.075,377.852 L 554.075,352.597 L 535.133,352.597 L 528.819,377.852 L 538.29,384.166 L 554.075,377.852 z " style="fill-opacity:0.3;fill:rgb(250,150,50);stroke:rgb(0,0,0);stroke-width:1"/></g>
<g fill-rule="evenodd"><path d="M 799.999,499.441 L 790.528,493.159 L 774.744,499.441 L 774.775,524.697 L 793.717,524.697 L 799.999,499.441 z " style="fill-opacity:0.3;fill:rgb(250,150,50);stroke:rgb(0,0,0);stroke-width:1"/></g>
<g fill-rule="evenodd"><path d="M 764.456,307.6 L 754.986,301.317 L 739.201,307.6 L 739.233,332.855 L 758.174,332.855 L 764.456,307.6 z " style="fill-opacity:0.3;fill:rgb(250,150,50);stroke:rgb(0,0,0);stroke-width:1"/></g>
<g fill-rule="evenodd"><path d="M 38.3316,350.738 L 0.448555,350.738 L 0.448555,366.523 L 38.3316,366.523 L 38.3316,350.738 z " style="fill-opacity:0.3;fill:rgb(250,150,50);stroke:rgb(0,0,0);stroke-width:1"/></g>
<g fill-rule="evenodd"><path d="M 598.705,422.633 L 560.822,422.633 L 560.822,438.417 L 598.705,438.417 L 598.705,422.633 z " style="fill-opacity:0.3;fill:rgb(250,150,50);stroke:rgb(0,0,0);stroke-width:1"/></g>
<g fill-rule="evenodd"><path d="M 401.25,514.555 L 401.25,505.085 L 353.896,505.085 L 353.896,517.712 L 401.25,514.555 z " style="fill-opacity:0.3;fill:rgb(250,150,50);stroke:rgb(0,0,0);stroke-width:1"/></g>
<g fill-rule="evenodd"><path d="M 276.867,452.047 L 276.867,442.576 L 232.67,442.576 L 232.67,455.204 L 276.867,452.047 z " style="fill-opacity:0.3;fill:rgb(250,150,50);stroke:rgb(0,0,0);stroke-width:1"/></g>
<g fill-rule="evenodd"><path d="M 218.783,306.155 L 218.783,296.684 L 177.743,296.684 L 177.743,309.312 L 218.783,306.155 z " style="fill-opacity:0.3;fill:rgb(250,150,50);stroke:rgb(0,0,0);stroke-width:1"/></g>
<g fill-rule="evenodd"><path d="M 366.301,284.816 L 366.301,275.345 L 325.261,275.345 L 325.261,287.973 L 366.301,284.816 z " style="fill-opacity:0.3;fill:rgb(250,150,50);stroke:rgb(0,0,0);stroke-width:1"/></g>
<g fill-rule="evenodd"><path d="M 482.083,378.431 L 415.788,378.431 L 415.788,384.745 L 482.083,384.745 L 482.083,378.431 z " style="fill-opacity:0.3;fill:rgb(250,150,50);stroke:rgb(0,0,0);stroke-width:1"/></g>
<g fill-rule="evenodd"><path d="M 415.17,378.441 L 348.875,378.441 L 348.875,384.754 L 415.17,384.754 L 415.17,378.441 z " style="fill-opacity:0.3;fill:rgb(250,150,50);stroke:rgb(0,0,0);stroke-width:1"/></g>
<g fill-rule="evenodd"><path d="M 263.747,510.022 L 197.452,510.022 L 197.452,516.336 L 263.747,516.336 L 263.747,510.022 z " style="fill-opacity:0.3;fill:rgb(250,150,50);stroke:rgb(0,0,0);stroke-width:1"/></g>
<g fill-rule="evenodd"><path d="M 453.235,441.501 L 386.94,441.501 L 386.94,447.815 L 453.235,447.815 L 453.235,441.501 z " style="fill-opacity:0.3;fill:rgb(250,150,50);stroke:rgb(0,0,0);stroke-width:1"/></g>
<g fill-rule="evenodd"><path d="M 449.551,447.881 L 383.255,447.881 L 383.255,454.195 L 449.551,454.195 L 449.551,447.881 z " style="fill-opacity:0.3;fill:rgb(250,150,50);stroke:rgb(0,0,0);stroke-width:1"/></g>
<g fill-rule="evenodd"><path d="M 391.552,517.891 L 325.257,517.891 L 325.257,524.205 L 391.552,524.205 L 391.552,517.891 z " style="fill-opacity:0.3;fill:rgb(250,150,50);stroke:rgb(0,0,0);stroke-width:1"/></g>
<g fill-rule="evenodd"><path d="M 263.747,516.336 L 197.452,516.336 L 197.452,522.65 L 263.747,522.65 L 263.747,516.336 z " style="fill-opacity:0.3;fill:rgb(250,150,50);stroke:rgb(0,0,0);stroke-width:1"/></g>
<g fill-rule="evenodd"><path d="M 749.346,426.893 L 683.05,426.893 L 683.05,433.207 L 749.346,433.207 L 749.346,426.893 z " style="fill-opacity:0.3;fill:rgb(250,150,50);stroke:rgb(0,0,0);stroke-width:1"/></g>
<g fill-rule="evenodd"><path d="M 796.843,294.243 L 800,278.458 L 796.843,275.302 L 784.215,275.302 L 781.058,278.458 L 784.215,294.243 L 790.529,297.4 L 796.843,294.243 z " style="fill-opacity:0.3;fill:rgb(250,150,50);stroke:rgb(0,0,0);stroke-width:1"/></g>
<g fill-rule="evenodd"><path d="M 546.465,499.887 L 549.622,484.102 L 546.465,480.945 L 533.837,480.945 L 530.681,484.102 L 533.837,499.887 L 540.151,503.044 L 546.465,499.887 z " style="fill-opacity:0.3;fill:rgb(250,150,50);stroke:rgb(0,0,0);stroke-width:1"/></g>
<g fill-rule="evenodd"><path d="M 192.7,521.12 L 195.857,505.335 L 192.7,502.179 L 180.073,502.179 L 176.916,505.335 L 180.073,521.12 L 186.387,524.277 L 192.7,521.12 z " style="fill-opacity:0.3;fill:rgb(250,150,50);stroke:rgb(0,0,0);stroke-width:1"/></g>
<g fill-rule="evenodd"><path d="M 66.2762,363.752 L 69.4331,347.967 L 66.2762,344.81 L 53.6485,344.81 L 50.4916,347.967 L 53.6485,363.752 L 59.9623,366.908 L 66.2762,363.752 z " style="fill-opacity:0.3;fill:rgb(250,150,50);stroke:rgb(0,0,0);stroke-width:1"/></g>
</svg>
