<?xml version="1.0" standalone="no"?>
<!DOCTYPE svg PUBLIC "-//W3C//DTD SVG 1.1//EN"
"http://www.w3.org/Graphics/SVG/1.1/DTD/svg11.dtd">
<svg width="100%" height="100%" version="1.1"
xmlns="http://www.w3.org/2000/svg"
xmlns:xlink="http://www.w3.org/1999/xlink">
<rect x="0" y="272.266" width="800" height="255.469" style="fill-opacity:0;fill:rgb(255,255,255);stroke:rgb(0,0,0);stroke-width:1"/>
<g fill-rule="evenodd"><path d="M 799.987,346.049 L 712.675,336.38 L 680.337,326.679 L 667.402,320.211 L 648,329.913 L 618.896,339.614 L 618.896,391.322 L 799.987,391.322 L 799.987,346.049 z " style="fill-opacity:0.3;fill:rgb(250,150,50);stroke:rgb(0,0,0);stroke-width:1"/></g>
<g fill-rule="evenodd"><path d="M 346.876,479.42 L 375.98,469.718 L 375.98,417.978 L 194.888,417.978 L 194.888,463.251 L 282.201,472.952 L 314.538,482.654 L 327.473,489.121 L 346.876,479.42 z " style="fill-opacity:0.3;fill:rgb(250,150,50);stroke:rgb(0,0,0);stroke-width:1"/></g>
<g fill-rule="evenodd"><path d="M 152.079,356.47 L 181.183,346.768 L 181.183,295.028 L 0.0911557,295.028 L 0.0911557,340.301 L 87.4032,350.002 L 119.741,359.704 L 132.676,366.171 L 152.079,356.47 z " style="fill-opacity:0.3;fill:rgb(250,150,50);stroke:rgb(0,0,0);stroke-width:1"/></g>
<g fill-rule="evenodd"><path d="M 559.222,414.526 L 471.91,404.857 L 439.573,395.156 L 426.637,388.688 L 407.235,398.39 L 378.131,408.091 L 378.131,459.799 L 559.222,459.799 L 559.222,414.526 z " style="fill-opacity:0.3;fill:rgb(250,150,50);stroke:rgb(0,0,0);stroke-width:1"/></g>
<g fill-rule="evenodd"><path d="M 582.994,406.878 L 612.098,397.177 L 612.098,345.437 L 431.006,345.437 L 431.006,390.71 L 518.319,400.411 L 550.656,410.112 L 563.591,416.58 L 582.994,406.878 z " style="fill-opacity:0.3;fill:rgb(250,150,50);stroke:rgb(0,0,0);stroke-width:1"/></g>
<g fill-rule="evenodd"><path d="M 362.184,356.475 L 274.872,346.806 L 242.534,337.104 L 229.599,330.637 L 210.197,340.338 L 181.093,350.039 L 181.093,401.747 L 362.184,401.747 L 362.184,356.475 z " style="fill-opacity:0.3;fill:rgb(250,150,50);stroke:rgb(0,0,0);stroke-width:1"/></g>
<g fill-rule="evenodd"><path d="M 181.092,371.685 L 93.7803,362.016 L 61.4425,352.315 L 48.5074,345.847 L 29.1047,355.548 L 0.000653186,365.25 L 0.000653186,416.958 L 181.092,416.958 L 181.092,371.685 z " style="fill-opacity:0.3;fill:rgb(250,150,50);stroke:rgb(0,0,0);stroke-width:1"/></g>
<g fill-rule="evenodd"><path d="M 241.854,482.461 L 154.542,472.792 L 122.204,463.091 L 109.269,456.623 L 89.8665,466.325 L 60.7624,476.026 L 60.7624,527.734 L 241.854,527.734 L 241.854,482.461 z " style="fill-opacity:0.3;fill:rgb(250,150,50);stroke:rgb(0,0,0);stroke-width:1"/></g>
<g fill-rule="evenodd"><path d="M 77.6107,459.956 L 106.715,456.722 L 190.793,453.488 L 190.793,417.916 L 12.9351,417.916 L 12.9351,434.085 L 6.46756,443.787 L 9.87939e-08,443.787 L 9.87939e-08,459.956 L 38.8054,463.189 L 45.2729,469.657 L 77.6107,459.956 z " style="fill-opacity:0.3;fill:rgb(250,150,50);stroke:rgb(0,0,0);stroke-width:1"/></g>
<g fill-rule="evenodd"><path d="M 686.818,314.364 L 715.922,311.13 L 800,307.896 L 800,272.324 L 622.142,272.324 L 622.142,288.493 L 615.675,298.195 L 609.207,298.195 L 609.207,314.364 L 648.012,317.597 L 654.48,324.065 L 686.818,314.364 z " style="fill-opacity:0.3;fill:rgb(250,150,50);stroke:rgb(0,0,0);stroke-width:1"/></g>
<g fill-rule="evenodd"><path d="M 596.304,329.258 L 602.772,319.556 L 609.207,319.556 L 609.207,303.387 L 570.402,300.186 L 563.934,293.718 L 531.596,303.387 L 502.492,306.621 L 418.414,309.855 L 418.414,345.427 L 596.304,345.427 L 596.304,329.258 z " style="fill-opacity:0.3;fill:rgb(250,150,50);stroke:rgb(0,0,0);stroke-width:1"/></g>
<g fill-rule="evenodd"><path d="M 632.604,485.143 L 661.708,481.91 L 745.787,478.676 L 745.787,443.104 L 567.929,443.104 L 567.929,459.273 L 561.461,468.975 L 554.994,468.975 L 554.994,485.143 L 593.799,488.377 L 600.267,494.845 L 632.604,485.143 z " style="fill-opacity:0.3;fill:rgb(250,150,50);stroke:rgb(0,0,0);stroke-width:1"/></g>
<g fill-rule="evenodd"><path d="M 787.028,426.91 L 793.496,417.209 L 799.931,417.209 L 799.931,401.04 L 761.125,397.838 L 754.658,391.371 L 722.32,401.04 L 693.216,404.274 L 609.138,407.507 L 609.138,443.079 L 787.028,443.079 L 787.028,426.91 z " style="fill-opacity:0.3;fill:rgb(250,150,50);stroke:rgb(0,0,0);stroke-width:1"/></g>
<g fill-rule="evenodd"><path d="M 787.097,511.565 L 793.565,501.864 L 800,501.864 L 800,485.695 L 761.195,482.494 L 754.727,476.026 L 722.389,485.695 L 693.285,488.929 L 609.207,492.163 L 609.207,527.734 L 787.097,527.734 L 787.097,511.565 z " style="fill-opacity:0.3;fill:rgb(250,150,50);stroke:rgb(0,0,0);stroke-width:1"/></g>
<g fill-rule="evenodd"><path d="M 441.811,501.854 L 470.915,498.62 L 554.994,495.386 L 554.994,459.815 L 377.136,459.815 L 377.136,475.984 L 370.668,485.685 L 364.201,485.685 L 364.201,501.854 L 403.006,505.088 L 409.473,511.555 L 441.811,501.854 z " style="fill-opacity:0.3;fill:rgb(250,150,50);stroke:rgb(0,0,0);stroke-width:1"/></g>
<g fill-rule="evenodd"><path d="M 305.232,330.474 L 334.336,327.24 L 418.414,324.006 L 418.414,288.435 L 240.556,288.435 L 240.556,304.603 L 234.088,314.305 L 227.621,314.305 L 227.621,330.474 L 266.426,333.708 L 272.894,340.175 L 305.232,330.474 z " style="fill-opacity:0.3;fill:rgb(250,150,50);stroke:rgb(0,0,0);stroke-width:1"/></g>
<g fill-rule="evenodd"><path d="M 365.896,401.747 L 181.571,401.747 L 181.571,417.916 L 365.896,417.916 L 365.896,401.747 z " style="fill-opacity:0.3;fill:rgb(250,150,50);stroke:rgb(0,0,0);stroke-width:1"/></g>
<g fill-rule="evenodd"><path d="M 544.652,511.565 L 376.496,511.565 L 376.496,527.734 L 544.652,527.734 L 544.652,511.565 z " style="fill-opacity:0.3;fill:rgb(250,150,50);stroke:rgb(0,0,0);stroke-width:1"/></g>
<g fill-rule="evenodd"><path d="M 323.572,272.266 L 181.286,272.266 L 181.286,288.435 L 323.572,288.435 L 323.572,272.266 z " style="fill-opacity:0.3;fill:rgb(250,150,50);stroke:rgb(0,0,0);stroke-width:1"/></g>
<g fill-rule="evenodd"><path d="M 135.837,272.373 L 0.0180077,272.373 L 0.0180077,288.542 L 135.837,288.542 L 135.837,272.373 z " style="fill-opacity:0.3;fill:rgb(250,150,50);stroke:rgb(0,0,0);stroke-width:1"/></g>
<g fill-rule="evenodd"><path d="M 332.394,520.697 L 325.927,494.827 L 312.991,488.392 L 300.056,494.859 L 293.621,520.73 L 300.089,523.963 L 325.927,523.963 L 332.394,520.697 z " style="fill-opacity:0.3;fill:rgb(250,150,50);stroke:rgb(0,0,0);stroke-width:1"/></g>
<g fill-rule="evenodd"><path d="M 780.775,475.041 L 787.242,449.171 L 780.775,445.937 L 754.904,445.937 L 748.437,449.171 L 754.904,475.041 L 767.839,481.509 L 780.775,475.041 z " style="fill-opacity:0.3;fill:rgb(250,150,50);stroke:rgb(0,0,0);stroke-width:1"/></g>
<g fill-rule="evenodd"><path d="M 357.727,518.491 L 364.194,492.62 L 357.727,489.387 L 331.857,489.387 L 325.389,492.62 L 331.857,518.491 L 344.792,524.958 L 357.727,518.491 z " style="fill-opacity:0.3;fill:rgb(250,150,50);stroke:rgb(0,0,0);stroke-width:1"/></g>
<g fill-rule="evenodd"><path d="M 482.237,301.427 L 488.705,275.557 L 482.237,272.323 L 456.367,272.323 L 449.899,275.557 L 456.367,301.427 L 469.302,307.894 L 482.237,301.427 z " style="fill-opacity:0.3;fill:rgb(250,150,50);stroke:rgb(0,0,0);stroke-width:1"/></g>
<g fill-rule="evenodd"><path d="M 457.252,305.278 L 450.785,279.408 L 437.849,272.972 L 424.914,279.44 L 418.479,305.31 L 424.947,308.544 L 450.785,308.544 L 457.252,305.278 z " style="fill-opacity:0.3;fill:rgb(250,150,50);stroke:rgb(0,0,0);stroke-width:1"/></g>
<g fill-rule="evenodd"><path d="M 294.556,524.468 L 288.088,498.598 L 275.153,492.163 L 262.218,498.63 L 255.783,524.5 L 262.25,527.734 L 288.088,527.734 L 294.556,524.468 z " style="fill-opacity:0.3;fill:rgb(250,150,50);stroke:rgb(0,0,0);stroke-width:1"/></g>
<g fill-rule="evenodd"><path d="M 583.493,524.466 L 577.025,498.596 L 564.09,492.161 L 551.155,498.628 L 544.72,524.498 L 551.187,527.732 L 577.025,527.732 L 583.493,524.466 z " style="fill-opacity:0.3;fill:rgb(250,150,50);stroke:rgb(0,0,0);stroke-width:1"/></g>
<g fill-rule="evenodd"><path d="M 391.917,371.193 L 398.385,345.323 L 391.917,342.089 L 366.047,342.089 L 359.579,345.323 L 366.047,371.193 L 378.982,377.661 L 391.917,371.193 z " style="fill-opacity:0.3;fill:rgb(250,150,50);stroke:rgb(0,0,0);stroke-width:1"/></g>
<g fill-rule="evenodd"><path d="M 600.559,272.556 L 555.286,272.556 L 555.286,288.725 L 600.559,288.725 L 600.559,272.556 z " style="fill-opacity:0.3;fill:rgb(250,150,50);stroke:rgb(0,0,0);stroke-width:1"/></g>
<g fill-rule="evenodd"><path d="M 50.4703,495.16 L 50.4703,475.757 L 1.96362,488.693 L 8.43118,498.394 L 50.4703,495.16 z " style="fill-opacity:0.3;fill:rgb(250,150,50);stroke:rgb(0,0,0);stroke-width:1"/></g>
<g fill-rule="evenodd"><path d="M 343.817,346.306 L 343.817,326.903 L 295.31,339.838 L 301.778,349.54 L 343.817,346.306 z " style="fill-opacity:0.3;fill:rgb(250,150,50);stroke:rgb(0,0,0);stroke-width:1"/></g>
<g fill-rule="evenodd"><path d="M 48.509,476.273 L 42.0414,466.572 L 0.00230257,469.805 L 0.00230257,489.208 L 48.509,476.273 z " style="fill-opacity:0.3;fill:rgb(250,150,50);stroke:rgb(0,0,0);stroke-width:1"/></g>
<g fill-rule="evenodd"><path d="M 48.5334,505.549 L 42.0658,495.848 L 0.0266936,499.082 L 0.0266936,518.484 L 48.5334,505.549 z " style="fill-opacity:0.3;fill:rgb(250,150,50);stroke:rgb(0,0,0);stroke-width:1"/></g>
<g fill-rule="evenodd"><path d="M 290.374,484.006 L 283.906,474.305 L 241.867,477.539 L 241.867,496.941 L 290.374,484.006 z " style="fill-opacity:0.3;fill:rgb(250,150,50);stroke:rgb(0,0,0);stroke-width:1"/></g>
<g fill-rule="evenodd"><path d="M 392.324,334.979 L 385.857,325.278 L 343.817,328.512 L 343.817,347.914 L 392.324,334.979 z " style="fill-opacity:0.3;fill:rgb(250,150,50);stroke:rgb(0,0,0);stroke-width:1"/></g>
<g fill-rule="evenodd"><path d="M 50.2991,524.487 L 50.2991,505.084 L 1.79236,518.019 L 8.25992,527.721 L 50.2991,524.487 z " style="fill-opacity:0.3;fill:rgb(250,150,50);stroke:rgb(0,0,0);stroke-width:1"/></g>
<g fill-rule="evenodd"><path d="M 649.316,329.082 L 642.848,319.381 L 600.809,322.614 L 600.809,342.017 L 649.316,329.082 z " style="fill-opacity:0.3;fill:rgb(250,150,50);stroke:rgb(0,0,0);stroke-width:1"/></g>
<g fill-rule="evenodd"><path d="M 774.018,316.108 L 731.979,316.108 L 731.979,332.277 L 774.018,332.277 L 774.018,316.108 z " style="fill-opacity:0.3;fill:rgb(250,150,50);stroke:rgb(0,0,0);stroke-width:1"/></g>
<g fill-rule="evenodd"><path d="M 535.63,298.152 L 535.63,272.282 L 516.227,272.282 L 509.76,298.152 L 519.461,304.62 L 535.63,298.152 z " style="fill-opacity:0.3;fill:rgb(250,150,50);stroke:rgb(0,0,0);stroke-width:1"/></g>
<g fill-rule="evenodd"><path d="M 608.603,520.771 L 608.603,494.901 L 589.2,494.901 L 582.732,520.771 L 592.434,527.239 L 608.603,520.771 z " style="fill-opacity:0.3;fill:rgb(250,150,50);stroke:rgb(0,0,0);stroke-width:1"/></g>
<g fill-rule="evenodd"><path d="M 226.802,331.644 L 226.802,305.773 L 207.4,305.773 L 200.932,331.644 L 210.633,338.111 L 226.802,331.644 z " style="fill-opacity:0.3;fill:rgb(250,150,50);stroke:rgb(0,0,0);stroke-width:1"/></g>
<g fill-rule="evenodd"><path d="M 799.986,334.872 L 799.986,309.002 L 780.583,309.002 L 774.116,334.872 L 783.817,341.34 L 799.986,334.872 z " style="fill-opacity:0.3;fill:rgb(250,150,50);stroke:rgb(0,0,0);stroke-width:1"/></g>
<g fill-rule="evenodd"><path d="M 429.593,371.31 L 429.593,345.439 L 410.191,345.439 L 403.723,371.31 L 413.424,377.777 L 429.593,371.31 z " style="fill-opacity:0.3;fill:rgb(250,150,50);stroke:rgb(0,0,0);stroke-width:1"/></g>
<g fill-rule="evenodd"><path d="M 509.644,299.735 L 509.644,273.865 L 490.242,273.865 L 483.774,299.735 L 493.476,306.203 L 509.644,299.735 z " style="fill-opacity:0.3;fill:rgb(250,150,50);stroke:rgb(0,0,0);stroke-width:1"/></g>
<g fill-rule="evenodd"><path d="M 608.934,436.377 L 608.934,410.507 L 589.531,410.507 L 583.063,436.377 L 592.765,442.845 L 608.934,436.377 z " style="fill-opacity:0.3;fill:rgb(250,150,50);stroke:rgb(0,0,0);stroke-width:1"/></g>
<g fill-rule="evenodd"><path d="M 587.819,417.234 L 578.117,410.799 L 561.948,417.234 L 561.981,443.104 L 581.383,443.104 L 587.819,417.234 z " style="fill-opacity:0.3;fill:rgb(250,150,50);stroke:rgb(0,0,0);stroke-width:1"/></g>
<g fill-rule="evenodd"><path d="M 220.109,288.809 L 181.304,288.809 L 181.304,304.978 L 220.109,304.978 L 220.109,288.809 z " style="fill-opacity:0.3;fill:rgb(250,150,50);stroke:rgb(0,0,0);stroke-width:1"/></g>
<g fill-rule="evenodd"><path d="M 401.132,384.254 L 362.326,384.254 L 362.326,400.422 L 401.132,400.422 L 401.132,384.254 z " style="fill-opacity:0.3;fill:rgb(250,150,50);stroke:rgb(0,0,0);stroke-width:1"/></g>
<g fill-rule="evenodd"><path d="M 184.02,454.147 L 135.513,457.38 L 135.513,467.082 L 184.02,467.082 L 184.02,454.147 z " style="fill-opacity:0.3;fill:rgb(250,150,50);stroke:rgb(0,0,0);stroke-width:1"/></g>
<g fill-rule="evenodd"><path d="M 181.19,289.013 L 181.19,279.312 L 135.917,279.312 L 135.917,292.247 L 181.19,289.013 z " style="fill-opacity:0.3;fill:rgb(250,150,50);stroke:rgb(0,0,0);stroke-width:1"/></g>
<g fill-rule="evenodd"><path d="M 722.291,401.025 L 722.291,391.323 L 680.252,391.323 L 680.252,404.258 L 722.291,401.025 z " style="fill-opacity:0.3;fill:rgb(250,150,50);stroke:rgb(0,0,0);stroke-width:1"/></g>
<g fill-rule="evenodd"><path d="M 723.998,313.47 L 681.959,316.704 L 681.959,326.405 L 723.998,326.405 L 723.998,313.47 z " style="fill-opacity:0.3;fill:rgb(250,150,50);stroke:rgb(0,0,0);stroke-width:1"/></g>
<g fill-rule="evenodd"><path d="M 135.912,288.542 L 68.0029,288.542 L 68.0029,295.01 L 135.912,295.01 L 135.912,288.542 z " style="fill-opacity:0.3;fill:rgb(250,150,50);stroke:rgb(0,0,0);stroke-width:1"/></g>
<g fill-rule="evenodd"><path d="M 515.462,502.752 L 447.553,502.752 L 447.553,509.22 L 515.462,509.22 L 515.462,502.752 z " style="fill-opacity:0.3;fill:rgb(250,150,50);stroke:rgb(0,0,0);stroke-width:1"/></g>
<g fill-rule="evenodd"><path d="M 430.262,377.78 L 362.353,377.78 L 362.353,384.247 L 430.262,384.247 L 430.262,377.78 z " style="fill-opacity:0.3;fill:rgb(250,150,50);stroke:rgb(0,0,0);stroke-width:1"/></g>
<g fill-rule="evenodd"><path d="M 229.392,467.089 L 161.482,467.089 L 161.482,473.556 L 229.392,473.556 L 229.392,467.089 z " style="fill-opacity:0.3;fill:rgb(250,150,50);stroke:rgb(0,0,0);stroke-width:1"/></g>
<g fill-rule="evenodd"><path d="M 67.9841,288.542 L 0.0747572,288.542 L 0.0747572,295.01 L 67.9841,295.01 L 67.9841,288.542 z " style="fill-opacity:0.3;fill:rgb(250,150,50);stroke:rgb(0,0,0);stroke-width:1"/></g>
<g fill-rule="evenodd"><path d="M 680.101,393.806 L 612.191,393.806 L 612.191,400.273 L 680.101,400.273 L 680.101,393.806 z " style="fill-opacity:0.3;fill:rgb(250,150,50);stroke:rgb(0,0,0);stroke-width:1"/></g>
<g fill-rule="evenodd"><path d="M 391.761,280.006 L 323.851,280.006 L 323.851,286.473 L 391.761,286.473 L 391.761,280.006 z " style="fill-opacity:0.3;fill:rgb(250,150,50);stroke:rgb(0,0,0);stroke-width:1"/></g>
<g fill-rule="evenodd"><path d="M 391.482,273.538 L 323.572,273.538 L 323.572,280.006 L 391.482,280.006 L 391.482,273.538 z " style="fill-opacity:0.3;fill:rgb(250,150,50);stroke:rgb(0,0,0);stroke-width:1"/></g>
<g fill-rule="evenodd"><path d="M 258.025,515.486 L 261.259,499.317 L 258.025,496.083 L 245.09,496.083 L 241.856,499.317 L 245.09,515.486 L 251.557,518.72 L 258.025,515.486 z " style="fill-opacity:0.3;fill:rgb(250,150,50);stroke:rgb(0,0,0);stroke-width:1"/></g>
<g fill-rule="evenodd"><path d="M 556.015,293.091 L 552.781,276.89 L 546.314,273.688 L 539.846,276.922 L 536.645,293.091 L 539.878,296.325 L 552.781,296.325 L 556.015,293.091 z " style="fill-opacity:0.3;fill:rgb(250,150,50);stroke:rgb(0,0,0);stroke-width:1"/></g>
<g fill-rule="evenodd"><path d="M 799.59,480.736 L 796.356,464.534 L 789.888,461.333 L 783.421,464.567 L 780.219,480.736 L 783.453,483.969 L 796.356,483.969 L 799.59,480.736 z " style="fill-opacity:0.3;fill:rgb(250,150,50);stroke:rgb(0,0,0);stroke-width:1"/></g>
<g fill-rule="evenodd"><path d="M 617.795,294.738 L 621.029,278.569 L 617.795,275.335 L 604.86,275.335 L 601.626,278.569 L 604.86,294.738 L 611.327,297.971 L 617.795,294.738 z " style="fill-opacity:0.3;fill:rgb(250,150,50);stroke:rgb(0,0,0);stroke-width:1"/></g>
</svg>
